<svg xmlns="http://www.w3.org/2000/svg" width="34.951" height="44.8" viewBox="0 0 34.951 44.8"><defs><style>.a{fill:#c6c8dd;}</style></defs><g transform="translate(5639.948 -4376.395)"><g transform="translate(-5639.948 4376.395)"><path class="a" d="M-5614.032,4414.807H-5637.3a2.649,2.649,0,0,1-2.652-2.641v-27.4h2.411v27.4a.241.241,0,0,0,.241.24h23.265a.24.24,0,0,0,.241-.24v-33.13a.24.24,0,0,0-.241-.24h-17.442v-2.4h17.442a2.649,2.649,0,0,1,2.652,2.641v33.13A2.649,2.649,0,0,1-5614.032,4414.807Z" transform="translate(5639.948 -4376.395)"/></g><g transform="translate(-5633.565 4382.784)"><path class="a" d="M-5560.032,4467.806H-5583.3a2.649,2.649,0,0,1-2.652-2.641v-4.77h2.411v4.77a.241.241,0,0,0,.241.24h23.264a.241.241,0,0,0,.241-.24v-33.13a.241.241,0,0,0-.241-.24h-5.2v-2.4h5.2a2.649,2.649,0,0,1,2.652,2.641v33.13A2.649,2.649,0,0,1-5560.032,4467.806Z" transform="translate(5585.948 -4429.395)"/></g><g transform="translate(-5639.948 4376.395)"><path class="a" d="M-5631.51,4386.039h-7.233a1.205,1.205,0,0,1-1.113-.744,1.206,1.206,0,0,1,.261-1.314l7.232-7.232a1.207,1.207,0,0,1,1.314-.261,1.206,1.206,0,0,1,.744,1.114v7.232A1.205,1.205,0,0,1-5631.51,4386.039Zm-4.323-2.411h3.117v-3.117Z" transform="translate(5639.948 -4376.395)"/></g><g transform="translate(-5627.334 4384.328)"><rect class="a" width="10" height="2"/></g><g transform="translate(-5634.287 4388.163)"><rect class="a" width="10.005" height="2.411" transform="translate(0 0)"/></g><g transform="translate(-5626.995 4392.559)"><rect class="a" width="10.005" height="2.411" transform="translate(0)"/></g><g transform="translate(-5634.427 4392.559)"><rect class="a" width="5.148" height="2.411" transform="translate(0)"/></g><g transform="translate(-5622.148 4388.163)"><rect class="a" width="5.148" height="2.411" transform="translate(0 0)"/></g><g transform="translate(-5634.287 4396.842)"><rect class="a" width="10.005" height="2.411" transform="translate(0 0)"/></g><g transform="translate(-5626.995 4401.238)"><rect class="a" width="10.005" height="2.411" transform="translate(0)"/></g><g transform="translate(-5634.427 4401.238)"><rect class="a" width="5.148" height="2.411" transform="translate(0)"/></g><g transform="translate(-5622.148 4396.842)"><rect class="a" width="5.148" height="2.411" transform="translate(0 0)"/></g><g transform="translate(-5634.287 4405.801)"><rect class="a" width="10.005" height="2.411" transform="translate(0 0)"/></g><g transform="translate(-5622.148 4405.801)"><rect class="a" width="5.148" height="2.411" transform="translate(0 0)"/></g></g></svg>