<svg xmlns="http://www.w3.org/2000/svg" width="43.027" height="45.826" viewBox="0 0 43.027 45.826"><defs><style>.a{fill:#c6c8dd;stroke:rgba(0,0,0,0);}</style></defs><g transform="translate(5379.629 3734.919)"><g transform="translate(-5379.103 -3725.545)"><path class="a" d="M-5348.221-3628.744h-27.721a3.164,3.164,0,0,1-3.16-3.16V-3664.7h2.873v32.792a.288.288,0,0,0,.288.287h27.721a.288.288,0,0,0,.287-.287v-2.514h2.873v2.514A3.164,3.164,0,0,1-5348.221-3628.744Z" transform="translate(5379.102 3664.696)"/></g><g transform="translate(-5369.58 -3734.392)"><path class="a" d="M-5284.854-3715.377h-2.873v-15.855a.288.288,0,0,0-.287-.287H-5308.8v-2.873h20.783a3.164,3.164,0,0,1,3.16,3.16Z" transform="translate(5308.798 3734.392)"/></g><g transform="translate(-5379.103 -3734.392)"><path class="a" d="M-5369.048-3722.9h-8.618a1.436,1.436,0,0,1-1.327-.887,1.436,1.436,0,0,1,.312-1.565l8.618-8.618a1.436,1.436,0,0,1,1.565-.311,1.436,1.436,0,0,1,.887,1.327v8.618A1.436,1.436,0,0,1-5369.048-3722.9Zm-5.15-2.873h3.714v-3.714Z" transform="translate(5379.103 3734.392)"/></g><g transform="translate(-5364.542 -3725.673)"><rect class="a" width="12" height="3"/></g><g transform="translate(-5364.542 -3720.808)"><rect class="a" width="12" height="3"/></g><g transform="translate(-5372.753 -3701.689)"><rect class="a" width="15.141" height="2.873" transform="translate(0 0)"/></g><g transform="translate(-5372.785 -3715.659)"><path class="a" d="M-5319.457-3587.758H-5333.1v-11.634h18.2v2.873h-15.329v5.889h10.772Z" transform="translate(5333.102 3599.392)"/></g><g transform="translate(-5361.377 -3718.104)"><path class="a" d="M-5235.965-3588.618a12.151,12.151,0,0,1-12.137-12.137,12.151,12.151,0,0,1,12.137-12.137,12.151,12.151,0,0,1,12.137,12.137A12.151,12.151,0,0,1-5235.965-3588.618Zm0-21.4a9.275,9.275,0,0,0-9.264,9.264,9.275,9.275,0,0,0,9.264,9.264,9.275,9.275,0,0,0,9.265-9.264A9.275,9.275,0,0,0-5235.965-3610.019Z" transform="translate(5248.102 3612.892)"/></g><g transform="translate(-5355.01 -3705.676)"><path class="a" d="M-5202.343-3576.447a1.43,1.43,0,0,0-1.008.413,1.436,1.436,0,0,0-.015,2.031l4.239,4.3a1.437,1.437,0,0,0,1.987.057l4.43-4.007a1.436,1.436,0,0,0,.1-2.029,1.436,1.436,0,0,0-2.029-.1l-3.41,3.084-3.272-3.321A1.433,1.433,0,0,0-5202.343-3576.447Z" transform="translate(5203.779 3576.447)"/></g><g transform="translate(-5350.386 -3712.386)"><path class="a" d="M-5172.166-3574.892a1.436,1.436,0,0,0-1.436,1.437v10.936a1.436,1.436,0,0,0,1.436,1.436,1.436,1.436,0,0,0,1.437-1.436v-10.936A1.436,1.436,0,0,0-5172.166-3574.892Z" transform="translate(5173.602 3574.892)"/></g></g></svg>