<svg xmlns="http://www.w3.org/2000/svg" width="18.046" height="18" viewBox="0 0 18.046 18"><defs><style>.a{fill:#637AAE;}</style></defs><path class="a" d="M1.933,18A1.934,1.934,0,0,1,0,16.07V5.134A1.934,1.934,0,0,1,1.933,3.2H12.89a1.934,1.934,0,0,1,1.934,1.93V16.07A1.934,1.934,0,0,1,12.89,18ZM3,12.138a.623.623,0,0,0,.622.622H7.856a.622.622,0,0,0,0-1.245H3.624A.623.623,0,0,0,3,12.138ZM3,9.085a.623.623,0,0,0,.622.622H11.18a.622.622,0,1,0,0-1.244H3.624A.623.623,0,0,0,3,9.085ZM16.112,15.44V5.146A3.223,3.223,0,0,0,12.89,1.93H2.578V1.915A1.932,1.932,0,0,1,4.511,0h11.6a1.932,1.932,0,0,1,1.934,1.93V13.51a1.932,1.932,0,0,1-1.919,1.93Z"/></svg>