<svg xmlns="http://www.w3.org/2000/svg" width="26.478" height="25.438" viewBox="0 0 26.478 25.438"><defs><style>.a{fill:#2b8f0c;}</style></defs><g transform="translate(-287.299 -299.743)"><path class="a" d="M313.669,311a8.089,8.089,0,0,0-1.809-3.881c-.393-.574-1.447-.241-1.194.5,3.289,9.66-7.478,16.972-15.881,12.708-5.043-2.559-5.415-8.516-2.752-13.06a11.056,11.056,0,0,1,4.98-4.524c2.47-1.113,4.7-.685,7.251-.915.276-.025.514-.393.253-.611-4.353-3.629-11.742.086-14.537,3.952-3.841,5.313-3.815,13.274,1.781,17.3,4.968,3.573,12.442,3.678,17.331-.094A12.52,12.52,0,0,0,313.669,311Z"/><path class="a" d="M319.021,300.846c-3.228,1.137-5.653,3.812-7.856,6.361a32.282,32.282,0,0,0-4.188,6.084,34.362,34.362,0,0,0-4.054-4.134c-.935-.738-2.668-.1-2.209,1.286.945,2.861,3.353,5.292,5.478,7.347a1.868,1.868,0,0,0,3.078-.813,26.97,26.97,0,0,1,5.263-8.088c1.959-2.16,4.306-3.957,5.586-6.617C320.455,301.578,319.888,300.541,319.021,300.846Z" transform="translate(-6.959 -0.547)"/></g></svg>