<svg xmlns="http://www.w3.org/2000/svg" width="20" height="20" viewBox="0 0 20 20"><defs><style>.a{opacity:0.5;}.b{fill:#dd6e02;}</style></defs><g class="a" transform="translate(-26 -13)"><path class="b" d="M18,8.638A2.491,2.491,0,0,0,16.333,8H8V28H28V8H19.667A2.49,2.49,0,0,0,18,8.638Zm-.833,17.7h-7.5V24.667h6.667a.834.834,0,0,1,.833.833Zm0-14.851a2.48,2.48,0,0,0-.833-.149h-5V13h5a.834.834,0,0,1,.833.833v1.4a2.48,2.48,0,0,0-.833-.149h-5V16.75h5a.834.834,0,0,1,.833.833v1.4a2.48,2.48,0,0,0-.833-.149h-5V20.5h5a.834.834,0,0,1,.833.833v1.816A2.48,2.48,0,0,0,16.333,23H9.667V9.667h6.667a.834.834,0,0,1,.833.833Zm9.167,14.851h-7.5V25.5a.834.834,0,0,1,.833-.833h6.667Zm0-3.333H19.667a2.48,2.48,0,0,0-.833.149V21.333a.834.834,0,0,1,.833-.833h5V18.833h-5a2.48,2.48,0,0,0-.833.149v-1.4a.834.834,0,0,1,.833-.833h5V15.083h-5a2.48,2.48,0,0,0-.833.149v-1.4A.834.834,0,0,1,19.667,13h5V11.333h-5a2.48,2.48,0,0,0-.833.149V10.5a.834.834,0,0,1,.833-.833h6.667Z" transform="translate(18 5)"/></g></svg>