<svg xmlns="http://www.w3.org/2000/svg" width="20" height="20" viewBox="0 0 20 20"><defs><style>.a{opacity:0.5;}.b{fill:#dd6e02;}</style></defs><g class="a"><path class="b" d="M17.5,0H3.333A3.337,3.337,0,0,0,0,3.333V5H3.333V15H0v1.667A3.337,3.337,0,0,0,3.333,20H17.5A3.465,3.465,0,0,0,20,16.667V3.333A3.465,3.465,0,0,0,17.5,0ZM1.667,3.333A1.668,1.668,0,0,1,3.333,1.667H13.781a3.314,3.314,0,0,0-.447,1.667Zm1.667,15a1.668,1.668,0,0,1-1.667-1.667H13.333a3.314,3.314,0,0,0,.447,1.667Zm15-1.667a1.667,1.667,0,0,1-3.333,0V15H5V5H15V3.333a1.667,1.667,0,1,1,3.333,0Zm0,0"/><path class="b" d="M128,200h8.333v1.667H128Zm0,0" transform="translate(-121.333 -189.583)"/><path class="b" d="M128,144h8.333v1.667H128Zm0,0" transform="translate(-121.333 -136.5)"/></g></svg>