<svg xmlns="http://www.w3.org/2000/svg" width="20" height="20" viewBox="0 0 20 20"><defs><style>.a{fill:#dd6e02;opacity:0.5;}</style></defs><path class="a" d="M16.36,14a16.515,16.515,0,0,0,.14-2,16.515,16.515,0,0,0-.14-2h3.38a7.822,7.822,0,0,1,0,4m-5.15,5.56A15.649,15.649,0,0,0,15.97,16h2.95a8.03,8.03,0,0,1-4.33,3.56M14.34,14H9.66a12.58,12.58,0,0,1,0-4h4.68a14.585,14.585,0,0,1,.16,2,14.713,14.713,0,0,1-.16,2M12,19.96A13.563,13.563,0,0,1,10.09,16h3.82A13.563,13.563,0,0,1,12,19.96M8,8H5.08A7.923,7.923,0,0,1,9.4,4.44,17.234,17.234,0,0,0,8,8M5.08,16H8a17.234,17.234,0,0,0,1.4,3.56A8.008,8.008,0,0,1,5.08,16m-.82-2a7.822,7.822,0,0,1,0-4H7.64a16.515,16.515,0,0,0-.14,2,16.515,16.515,0,0,0,.14,2M12,4.03A13.619,13.619,0,0,1,13.91,8H10.09A13.619,13.619,0,0,1,12,4.03M18.92,8H15.97a15.649,15.649,0,0,0-1.38-3.56A7.987,7.987,0,0,1,18.92,8M12,2A10,10,0,1,0,22,12,10.01,10.01,0,0,0,12,2Z" transform="translate(-2 -2)"/></svg>