<svg xmlns="http://www.w3.org/2000/svg" xmlns:xlink="http://www.w3.org/1999/xlink" width="727.305" height="567.775" viewBox="0 0 727.305 567.775"><defs><style>.a,.aa{fill:#637aae;}.a,.b,.c{clip-rule:evenodd;}.b,.d,.t{fill:none;}.c,.m,.u{fill:#e48b35;}.e{fill:#bec4bc;}.f{fill:#a9c59f;}.af,.g{fill:#fff;}.h{fill:#f1c49a;}.ab,.ac,.af,.ag,.ah,.ai,.aj,.am,.ap,.as,.av,.aw,.h,.u,.v,.x,.y{fill-rule:evenodd;}.i{fill:#f0bb5f;}.j{fill:#fda600;}.k{fill:#ffd115;}.l{fill:#fca700;}.n{fill:#df641e;}.o{fill:#eca867;}.p{fill:#ecd46f;}.q{fill:#ec830e;}.r{fill:#e58927;}.s{fill:#ffef95;}.t{stroke:#fca700;stroke-miterlimit:10;stroke-width:0.216px;}.v{fill:#092978;}.w{fill:#cb4700;}.x{fill:#a53a00;}.y{fill:#8b3202;}.z{clip-path:url(#a);}.ab{fill:#91aed8;}.ac{fill:#a5c0e6;}.ad{clip-path:url(#b);}.ae{fill:#33487d;}.ag{fill:#abc5e9;}.ah{fill:#80a2d0;}.ai,.an{fill:#f4b1b1;}.aj{fill:#e98385;}.ak{clip-path:url(#c);}.al{fill:#3b3e44;}.am{fill:#e68d8e;}.ao{clip-path:url(#d);}.ap{fill:#7ca76f;}.aq{clip-path:url(#e);}.ar{fill:url(#f);}.as{fill:#8bacda;}.at{clip-path:url(#g);}.au,.av{fill:#031542;}.aw{fill:#000446;}</style><clipPath id="a"><path class="a" d="M1201.5,652.895c6.782,29.8-2.905,99.038-6.583,154.772-.25,3.792.382,8.434,4.465,10.661,3.732,2.041,11.186,3.715,13.392,5.829,1.591,1.523,7.685,10.156-14.122,9.581-15.492-.408-19.183-1.488-20.842-4-.232-.351-11.238-118.706-12.851-128.414-2.766,12.374-35.73,118.185-35.722,118.25.258,1.868,2.736,6.827,5.5,9.911.845,3.027,2.867,8.353-12.152,8.224s-11.5-5.969-11.552-6.887c6.663-62.745,16.316-164.209,19.677-180.9l.01.005c1.064-42.651,19.962-.286,30.867-6.452,16.556-9.361,26.782-47.45,23.688-8.25-.579,7.347,13.65,7.549,16.229,17.679" transform="translate(-1110.708 -617.847)"/></clipPath><clipPath id="b"><path class="b" d="M1271.744,522.293l-6.773,18.761-9.8-18.318-1.182-58.346-3.866-4.752,3.326-3.662,4.108,2.21-.6,5.407c4.061,10.834,13.975,44.511,14.791,58.7" transform="translate(-1250.122 -455.975)"/></clipPath><clipPath id="c"><path class="b" d="M1213.985,293.477c-7.009,3.595-15.079-.669-19.161,4.142-2.022,2.383-1.818,5.819.446,11.126.667,1.564,1.558,2.716-1.08,1.492-1.212-.561-3.206-1.346-3.887-.795-1.515,1.226-.751,3.8.459,4.634.54.371,1.562.923,1.562.923-9.427-1.789-13.355-10.3-13.222-17.159a29.215,29.215,0,0,1,.744-6.227,6.82,6.82,0,0,1-.3-2,6.5,6.5,0,0,1,4.486-6.279,6.328,6.328,0,0,1,6.146-5.481,5.96,5.96,0,0,1,2.61.6l.311-.082a6.6,6.6,0,0,1,10.111-1.556,8.983,8.983,0,0,1,7.222-3.829c5.173,0,9.367,4.721,9.367,10.543a10.94,10.94,0,0,1-4.14,8.75,10.5,10.5,0,0,1-1.675,1.2" transform="translate(-1179.098 -272.982)"/></clipPath><clipPath id="d"><path class="c" d="M589.531,817.833c6.542,21.74,3.12,63.478-.275,99.192-24.565,6.315-60.717,4.6-69.747-3.035,6.026-46.583,9.093-91.342,18.719-99.584,20.284-47.452,48.329-8.627,51.3,3.427" transform="translate(-519.509 -791.428)"/></clipPath><clipPath id="e"><rect class="d" width="34.027" height="50.078" transform="translate(0 5.89) rotate(-9.968)"/></clipPath><linearGradient id="f" x1="0.554" y1="0.736" x2="0.398" y2="0.057" gradientUnits="objectBoundingBox"><stop offset="0" stop-color="#a2bee5"/><stop offset="1" stop-color="#ddebff"/></linearGradient><clipPath id="g"><path class="b" d="M508.135,511.508s11.635.392,15.972-3.371c9.094-7.825,3.557-26.49-19.693-19.579-18.5,5.5-12.078,23.812-35.854,32.252-15.544,5.518-24.88,16.624-14.33,39.116.045.03,5.041-9.653,9.98-10.282-6.163,9.206-3.424,17.446.372,21.07,7.893-27.749,24.111-33.326,37.6-31.626,8.6-6.309-7.165-25.612,5.948-27.58" transform="translate(-449.735 -487.051)"/></clipPath></defs><g transform="translate(-132.811 -272.982)"><path class="e" d="M1482.747,1152.622q-.233,4.641-.491,9.167c3.278-8.984,10.967-19.72,28.982-22.7-7.318,19.589-10.749,28.128-29.768,35.422q-.288,4.334-.6,8.554c5.626-7.695,18.242-19.4,40.291-12.993-14.7,14.173-21.5,20.434-40.759,19.188q-.888,11.4-1.9,21.907c5.849-10.1,19.235-25.113,45.951-20.853-15.689,19.426-22.9,27.938-46.78,29.2q-.832,8.093-1.713,15.61c6.6-7.609,24.407-22.144,57.372-9.642-20.816,13.9-30.2,19.8-57.918,14.23-1.385,11.452-2.828,21.838-4.248,31.13l-4.455,1.629q1.766-11.367,3.547-25.013c-28.38-.076-36.383-7.75-54.023-25.564,35.467-5.745,49.88,12.866,54.545,21.45q.832-6.645,1.634-13.793c-24.572-5.992-29.914-15.71-41.662-38.423,31.147,1.376,39.826,24.278,42.129,34.2q1.27-11.728,2.415-24.73c-19.459-2.591-24.861-10.066-36.515-27.039,23.185-1.876,33.154,12.521,37.014,21.156q.436-5.27.841-10.737c-17.49-11.063-19.143-20.1-22.41-40.9,15.722,6.025,21.523,16.749,23.439,25.8q.531-8.5.977-17.431c-3.53-7.966-8.8-26.873,10.445-43.212,3.667,20,5.133,29.144-6.343,44.378" transform="translate(-828.145 -538.491)"/><path class="f" d="M1590.355,1447.438s-34.09-15.526-29.028-39.567,32.775-21.518,29.028-40.5-21.948-48.542-4.249-70.059,47.135-8.616,50.825-41.979c2.976-26.885,15.384-45.927,39.43-40.344,22.259,5.171,38.854,22.421,39.266,63.451.448,43.689,31.18,31.414,31.561,63.6.383,32.414-25.408,32.414-35.482,54.161-4.758,10.272,7.649,46.37-29.023,51.237Z" transform="translate(-921.352 -609.682)"/><path class="g" d="M1788.412,1262.192c0,.006.085.734.213,2.165.388,4.3,1.169,14.783,1.169,29.387.013,42.73-6.723,120.782-49.212,183.081a1.81,1.81,0,0,0-.183.334h4.449c42.1-63.076,48.656-140.708,48.668-183.415a311.238,311.238,0,0,0-1.407-31.977,1.861,1.861,0,1,0-3.7.424" transform="translate(-1037.13 -636.403)"/><path class="h" d="M1736.8,1598.469s4.959-28.133,24.035-39.587,38.551-20.366,36.436-38.823,3.086-40.238,33.65-40.646c18.892-.247,11.8-20.19,30.994-24.163,11.668-2.417,19.361,9.776,20.85,21.748,1.7,13.634-6.012,27.039,2.833,38.143,11.478,14.389,16.137,41.223-8.529,48.857s-2.684,31.016-36.275,34.472H1736.8Z" transform="translate(-1034.807 -762.005)"/><path class="g" d="M1942.652,1490.339c-.644,17.921-8.584,43.43-22.172,67.768-13.577,24.36-32.789,47.574-55.731,61.256a1.748,1.748,0,0,0-.727.833h6.063c22.11-14.324,40.362-36.857,53.476-60.363,13.8-24.768,21.913-50.577,22.62-69.363a1.765,1.765,0,0,0-3.528-.131" transform="translate(-1116.829 -783.732)"/><path class="f" d="M308.687,1578.694s21.926-9.986,18.67-25.447-21.079-13.84-18.67-26.048,14.117-31.22,2.733-45.059-30.315-5.542-32.688-27c-1.914-17.293-9.895-29.538-25.36-25.949-14.315,3.326-24.989,14.42-25.255,40.809-.287,28.1-20.054,20.205-20.3,40.905-.246,20.847,16.342,20.847,22.822,34.834,3.06,6.606-4.92,29.824,18.666,32.953Z" transform="translate(-49.077 -745.002)"/><path class="g" d="M336.825,1459.552s-.055.473-.137,1.393c-.249,2.767-.753,9.507-.753,18.9-.008,27.482,4.324,77.683,31.652,117.75a1.171,1.171,0,0,1,.117.215h-2.862c-27.077-40.568-31.294-90.5-31.3-117.965a199.584,199.584,0,0,1,.9-20.566,1.2,1.2,0,1,1,2.378.272" transform="translate(-130.133 -764.119)"/><path class="h" d="M242.1,1674.443s-3.364-19.084-16.3-26.854-26.151-13.815-24.716-26.335-2.093-27.295-22.826-27.571c-12.815-.167-8-13.7-21.024-16.391-7.914-1.64-13.134,6.63-14.144,14.751-1.154,9.25,4.077,18.341-1.922,25.874-7.785,9.761-10.947,27.963,5.785,33.142s1.82,21.039,24.607,23.384H242.1Z" transform="translate(-2.032 -840.75)"/><path class="g" d="M195.969,1601.094c.437,12.156,5.824,29.461,15.04,45.969s22.241,32.27,37.8,41.551a1.183,1.183,0,0,1,.493.565h-4.112c-15-9.716-27.379-25-36.275-40.946-9.36-16.8-14.864-34.308-15.344-47.05a1.2,1.2,0,0,1,2.394-.089" transform="translate(-39.896 -855.487)"/><rect class="i" width="168.564" height="16.013" transform="translate(572.344 767.179)"/><rect class="j" width="21.36" height="16.013" transform="translate(572.344 767.179)"/><rect class="k" width="21.617" height="16.013" transform="translate(593.704 767.179)"/><rect class="l" width="77.72" height="16.013" transform="translate(615.321 767.179)"/><rect class="m" width="32.684" height="16.013" transform="translate(693.041 767.179)"/><rect class="n" width="152.352" height="1.527" transform="translate(580.574 783.192)"/><rect class="i" width="168.564" height="16.013" transform="translate(572.344 732.101)"/><rect class="j" width="21.36" height="16.013" transform="translate(572.344 732.101)"/><rect class="k" width="21.617" height="16.013" transform="translate(593.704 732.101)"/><rect class="l" width="77.72" height="16.013" transform="translate(615.321 732.101)"/><rect class="m" width="32.684" height="16.013" transform="translate(693.041 732.101)"/><rect class="n" width="152.352" height="1.527" transform="translate(580.574 748.114)"/><rect class="i" width="168.564" height="16.013" transform="translate(580.344 749.64)"/><rect class="j" width="21.36" height="16.013" transform="translate(580.344 749.64)"/><rect class="k" width="21.617" height="16.013" transform="translate(601.704 749.64)"/><rect class="l" width="77.72" height="16.013" transform="translate(623.321 749.64)"/><rect class="m" width="32.683" height="16.013" transform="translate(701.041 749.64)"/><rect class="n" width="152.351" height="1.526" transform="translate(588.575 765.653)"/><rect class="i" width="168.564" height="16.013" transform="translate(580.25 819.797)"/><rect class="j" width="21.36" height="16.013" transform="translate(580.25 819.797)"/><rect class="k" width="21.617" height="16.013" transform="translate(601.61 819.797)"/><rect class="o" width="77.719" height="16.013" transform="translate(623.227 819.797)"/><rect class="m" width="32.684" height="16.013" transform="translate(700.946 819.797)"/><rect class="n" width="152.351" height="1.526" transform="translate(588.481 835.81)"/><rect class="i" width="168.564" height="16.013" transform="translate(580.249 784.718)"/><rect class="j" width="21.361" height="16.013" transform="translate(580.249 784.718)"/><rect class="k" width="21.617" height="16.013" transform="translate(601.61 784.718)"/><rect class="l" width="77.72" height="16.013" transform="translate(623.226 784.718)"/><rect class="m" width="32.683" height="16.013" transform="translate(700.946 784.718)"/><rect class="n" width="152.351" height="1.526" transform="translate(588.48 800.731)"/><rect class="i" width="168.564" height="16.013" transform="translate(572.344 802.257)"/><rect class="j" width="21.36" height="16.013" transform="translate(572.344 802.257)"/><rect class="k" width="21.617" height="16.013" transform="translate(593.704 802.257)"/><rect class="l" width="77.72" height="16.013" transform="translate(615.321 802.257)"/><rect class="m" width="32.684" height="16.013" transform="translate(693.041 802.257)"/><rect class="n" width="152.352" height="1.527" transform="translate(580.574 818.27)"/><rect class="j" width="168.563" height="16.013" transform="translate(434.516 767.179)"/><rect class="i" width="21.36" height="16.013" transform="translate(434.516 767.179)"/><rect class="p" width="21.617" height="16.013" transform="translate(455.875 767.179)"/><rect class="o" width="77.72" height="16.013" transform="translate(477.492 767.179)"/><rect class="q" width="32.683" height="16.013" transform="translate(555.212 767.179)"/><rect class="n" width="152.352" height="1.527" transform="translate(442.746 783.192)"/><rect class="j" width="168.564" height="16.013" transform="translate(434.515 732.101)"/><rect class="i" width="21.36" height="16.013" transform="translate(434.515 732.101)"/><rect class="p" width="21.617" height="16.013" transform="translate(455.875 732.101)"/><rect class="o" width="77.719" height="16.013" transform="translate(477.492 732.101)"/><rect class="q" width="32.684" height="16.013" transform="translate(555.212 732.101)"/><rect class="n" width="152.351" height="1.527" transform="translate(442.746 748.114)"/><rect class="j" width="168.564" height="16.013" transform="translate(443.02 714.562)"/><rect class="i" width="21.36" height="16.013" transform="translate(443.02 714.562)"/><rect class="p" width="21.617" height="16.013" transform="translate(464.381 714.562)"/><rect class="o" width="77.72" height="16.013" transform="translate(485.997 714.562)"/><rect class="q" width="32.684" height="16.013" transform="translate(563.717 714.562)"/><rect class="n" width="152.351" height="1.526" transform="translate(451.251 730.575)"/><rect class="j" width="168.564" height="16.014" transform="translate(433.699 697.023)"/><rect class="i" width="21.36" height="16.014" transform="translate(433.699 697.023)"/><rect class="p" width="21.617" height="16.014" transform="translate(455.06 697.023)"/><rect class="o" width="77.719" height="16.014" transform="translate(476.677 697.023)"/><rect class="m" width="32.683" height="16.014" transform="translate(554.396 697.023)"/><rect class="n" width="152.351" height="1.526" transform="translate(441.93 713.037)"/><rect class="j" width="168.564" height="16.013" transform="translate(442.819 749.64)"/><rect class="i" width="21.361" height="16.013" transform="translate(442.819 749.64)"/><rect class="p" width="21.617" height="16.013" transform="translate(464.179 749.64)"/><rect class="o" width="77.72" height="16.013" transform="translate(485.796 749.64)"/><rect class="q" width="32.683" height="16.013" transform="translate(563.516 749.64)"/><rect class="n" width="152.351" height="1.526" transform="translate(451.05 765.653)"/><rect class="j" width="168.564" height="16.013" transform="translate(442.819 819.797)"/><rect class="i" width="21.361" height="16.013" transform="translate(442.819 819.797)"/><rect class="p" width="21.617" height="16.013" transform="translate(464.179 819.797)"/><rect class="o" width="77.72" height="16.013" transform="translate(485.796 819.797)"/><rect class="m" width="32.683" height="16.013" transform="translate(563.516 819.797)"/><rect class="n" width="152.351" height="1.526" transform="translate(451.05 835.81)"/><rect class="j" width="168.564" height="16.013" transform="translate(442.819 784.718)"/><rect class="i" width="21.361" height="16.013" transform="translate(442.819 784.718)"/><rect class="p" width="21.617" height="16.013" transform="translate(464.179 784.718)"/><rect class="o" width="77.72" height="16.013" transform="translate(485.796 784.718)"/><rect class="q" width="32.683" height="16.013" transform="translate(563.516 784.718)"/><rect class="n" width="152.351" height="1.526" transform="translate(451.05 800.731)"/><rect class="j" width="168.564" height="16.013" transform="translate(434.616 802.257)"/><rect class="i" width="21.36" height="16.013" transform="translate(434.616 802.257)"/><rect class="p" width="21.618" height="16.013" transform="translate(455.976 802.257)"/><rect class="o" width="77.719" height="16.013" transform="translate(477.594 802.257)"/><rect class="m" width="32.684" height="16.013" transform="translate(555.313 802.257)"/><rect class="n" width="152.351" height="1.527" transform="translate(442.846 818.27)"/><rect class="i" width="168.564" height="16.013" transform="translate(442.819 679.484)"/><rect class="i" width="21.361" height="16.013" transform="translate(442.819 679.484)"/><rect class="p" width="21.617" height="16.013" transform="translate(464.179 679.484)"/><rect class="o" width="77.72" height="16.013" transform="translate(485.796 679.484)"/><rect class="m" width="32.683" height="16.013" transform="translate(563.516 679.484)"/><rect class="n" width="152.351" height="1.526" transform="translate(451.05 695.497)"/><rect class="i" width="168.564" height="16.011" transform="translate(434.515 661.946)"/><rect class="i" width="21.36" height="16.011" transform="translate(434.515 661.946)"/><rect class="p" width="21.617" height="16.011" transform="translate(455.875 661.946)"/><rect class="o" width="77.719" height="16.011" transform="translate(477.492 661.946)"/><rect class="m" width="32.684" height="16.011" transform="translate(555.212 661.946)"/><rect class="n" width="152.351" height="1.527" transform="translate(442.746 677.957)"/><rect class="i" width="168.564" height="16.013" transform="translate(435.528 626.866)"/><rect class="i" width="21.36" height="16.013" transform="translate(435.528 626.866)"/><rect class="p" width="21.617" height="16.013" transform="translate(456.887 626.866)"/><rect class="o" width="77.72" height="16.013" transform="translate(478.504 626.866)"/><rect class="m" width="32.684" height="16.013" transform="translate(556.224 626.866)"/><rect class="n" width="152.352" height="1.526" transform="translate(443.758 642.879)"/><rect class="i" width="168.564" height="16.013" transform="translate(442.819 644.405)"/><rect class="i" width="21.361" height="16.013" transform="translate(442.819 644.405)"/><rect class="p" width="21.617" height="16.013" transform="translate(464.179 644.405)"/><rect class="o" width="77.72" height="16.013" transform="translate(485.796 644.405)"/><rect class="m" width="32.683" height="16.013" transform="translate(563.516 644.405)"/><rect class="n" width="152.351" height="1.526" transform="translate(451.05 660.418)"/><rect class="i" width="168.564" height="16.013" transform="translate(442.819 609.327)"/><rect class="i" width="21.361" height="16.013" transform="translate(442.819 609.327)"/><rect class="p" width="21.617" height="16.013" transform="translate(464.179 609.327)"/><rect class="o" width="77.72" height="16.013" transform="translate(485.796 609.327)"/><rect class="m" width="32.683" height="16.013" transform="translate(563.516 609.327)"/><rect class="n" width="152.351" height="1.526" transform="translate(451.05 625.34)"/><path class="r" d="M1464.169,1529.316a79.075,79.075,0,1,0-103.3,42.825,79.175,79.175,0,0,0,103.3-42.825" transform="translate(-760.971 -739.386)"/><path class="s" d="M1482.392,1519.783a79.075,79.075,0,1,0-103.3,42.826,79.175,79.175,0,0,0,103.3-42.826" transform="translate(-772.718 -733.24)"/><path class="i" d="M1473.021,1523.969a79.076,79.076,0,1,0-103.3,42.824,79.176,79.176,0,0,0,103.3-42.824" transform="translate(-766.677 -735.938)"/><path class="i" d="M1473.021,1611.5c.087-.212.169-.425.255-.638l-146.068-60.583c-.089.211-.182.42-.271.631a79.075,79.075,0,1,0,146.084,60.59" transform="translate(-766.677 -823.472)"/><path class="o" d="M1483.681,1541.121a67.11,67.11,0,1,0-87.673,36.344A67.2,67.2,0,0,0,1483.681,1541.121Z" transform="translate(-788.391 -757.674)"/><path class="t" d="M1483.681,1541.121a67.11,67.11,0,1,0-87.673,36.344A67.2,67.2,0,0,0,1483.681,1541.121Z" transform="translate(-788.391 -757.674)"/><path class="m" d="M1411.236,1450.4c-18.189,8.886-30.167,22.485-35.26,34.792-24.539,59.289,26.3,95.917,84.2,86.643a67.151,67.151,0,1,1-48.944-121.435" transform="translate(-788.446 -759.076)"/><path class="i" d="M1527.848,1556.206a59.248,59.248,0,0,0-84.277-74.079,59.275,59.275,0,1,1,65.706,98.365,59.013,59.013,0,0,0,18.571-24.286" transform="translate(-845.766 -771.586)"/><path class="u" d="M1480.034,1538.72l-7.453-8.305,13.534-6.624,2.089,11.4q14.455-4.088,23.41,5.838l-11.713,9.652q-4.268-4.6-10.58-2.039-5.3,2.156-3.917,5.579a3.08,3.08,0,0,0,1.767,1.753c.837.342,2.725.256,5.687-.25a100.392,100.392,0,0,1,14.787-1.818,15.977,15.977,0,0,1,8.921,2.73,16.645,16.645,0,0,1,6.353,7.983,17.607,17.607,0,0,1-.218,14.4q-3.2,7.079-11.924,11.817l5.794,7.684-10.993,5.532-3.042-9.867q-16.224,4.449-26.093-8.429l13.86-8.888q4.6,5.8,12.374,2.638,6.07-2.465,4.726-5.806a3.36,3.36,0,0,0-2.527-2.159,15.667,15.667,0,0,0-5.713.312q-15.3,2.894-20.9-.026a16.551,16.551,0,0,1-7.937-8.7,18.555,18.555,0,0,1-.45-13.025q2.164-6.629,10.157-11.389" transform="translate(-862.103 -806.394)"/><rect class="i" width="168.564" height="16.013" transform="translate(216.864 767.179)"/><rect class="i" width="21.36" height="16.013" transform="translate(216.864 767.179)"/><rect class="p" width="21.617" height="16.013" transform="translate(238.224 767.179)"/><rect class="o" width="77.72" height="16.013" transform="translate(259.841 767.179)"/><rect class="m" width="32.684" height="16.013" transform="translate(337.561 767.179)"/><rect class="n" width="152.351" height="1.527" transform="translate(225.095 783.192)"/><rect class="i" width="168.564" height="16.013" transform="translate(232.865 732.101)"/><rect class="i" width="21.36" height="16.013" transform="translate(232.865 732.101)"/><rect class="p" width="21.617" height="16.013" transform="translate(254.225 732.101)"/><rect class="o" width="77.72" height="16.013" transform="translate(275.841 732.101)"/><rect class="m" width="32.684" height="16.013" transform="translate(353.561 732.101)"/><rect class="n" width="152.351" height="1.527" transform="translate(241.095 748.114)"/><rect class="i" width="168.563" height="16.013" transform="translate(224.965 714.562)"/><rect class="i" width="21.36" height="16.013" transform="translate(224.965 714.562)"/><rect class="p" width="21.617" height="16.013" transform="translate(246.324 714.562)"/><rect class="o" width="77.72" height="16.013" transform="translate(267.942 714.562)"/><rect class="m" width="32.684" height="16.013" transform="translate(345.661 714.562)"/><rect class="n" width="152.352" height="1.526" transform="translate(233.195 730.575)"/><rect class="i" width="168.564" height="16.014" transform="translate(216.459 697.023)"/><rect class="i" width="21.36" height="16.014" transform="translate(216.459 697.023)"/><rect class="p" width="21.617" height="16.014" transform="translate(237.819 697.023)"/><rect class="o" width="77.72" height="16.014" transform="translate(259.436 697.023)"/><rect class="m" width="32.684" height="16.014" transform="translate(337.156 697.023)"/><rect class="n" width="152.351" height="1.526" transform="translate(224.69 713.037)"/><rect class="i" width="168.564" height="16.013" transform="translate(224.763 749.64)"/><rect class="i" width="21.36" height="16.013" transform="translate(224.763 749.64)"/><rect class="p" width="21.617" height="16.013" transform="translate(246.123 749.64)"/><rect class="o" width="77.719" height="16.013" transform="translate(267.74 749.64)"/><rect class="m" width="32.684" height="16.013" transform="translate(345.459 749.64)"/><rect class="n" width="152.352" height="1.526" transform="translate(232.993 765.653)"/><rect class="i" width="168.564" height="16.013" transform="translate(224.763 819.797)"/><rect class="i" width="21.36" height="16.013" transform="translate(224.763 819.797)"/><rect class="p" width="21.617" height="16.013" transform="translate(246.123 819.797)"/><rect class="o" width="77.719" height="16.013" transform="translate(267.74 819.797)"/><rect class="m" width="32.684" height="16.013" transform="translate(345.459 819.797)"/><rect class="n" width="152.352" height="1.526" transform="translate(232.993 835.81)"/><rect class="i" width="168.564" height="16.013" transform="translate(224.763 784.718)"/><rect class="i" width="21.36" height="16.013" transform="translate(224.763 784.718)"/><rect class="p" width="21.617" height="16.013" transform="translate(246.123 784.718)"/><rect class="o" width="77.719" height="16.013" transform="translate(267.74 784.718)"/><rect class="m" width="32.684" height="16.013" transform="translate(345.459 784.718)"/><rect class="n" width="152.352" height="1.526" transform="translate(232.993 800.731)"/><rect class="i" width="168.564" height="16.013" transform="translate(232.865 802.257)"/><rect class="i" width="21.36" height="16.013" transform="translate(232.865 802.257)"/><rect class="p" width="21.617" height="16.013" transform="translate(254.225 802.257)"/><rect class="o" width="77.72" height="16.013" transform="translate(275.841 802.257)"/><rect class="m" width="32.684" height="16.013" transform="translate(353.561 802.257)"/><rect class="n" width="152.351" height="1.527" transform="translate(241.095 818.27)"/><rect class="i" width="168.564" height="16.013" transform="translate(224.763 679.484)"/><rect class="i" width="21.36" height="16.013" transform="translate(224.763 679.484)"/><rect class="p" width="21.617" height="16.013" transform="translate(246.123 679.484)"/><rect class="o" width="77.719" height="16.013" transform="translate(267.74 679.484)"/><rect class="m" width="32.684" height="16.013" transform="translate(345.459 679.484)"/><rect class="n" width="152.352" height="1.526" transform="translate(232.993 695.497)"/><path class="v" d="M1418.42,722.282s.3-7.175-1.78-8.029-9.974-.085-9.974-.085a3.341,3.341,0,0,0-2.345,3.2c-.178,2.69-.178,4.912-.178,4.912h2.671s-.208-3.973.267-4.528,7.881-.192,7.881-.192,1.009.022,1.055,2.05,0,2.67,0,2.67Z" transform="translate(-820.348 -284.227)"/><rect class="w" width="18.102" height="70.521" transform="translate(606.919 436.83)"/><path class="x" d="M1399.541,734.133l-45.942,1.129-.116,69.392h46.058Z" transform="translate(-787.686 -297.303)"/><path class="y" d="M1354.784,737.312h-.566l-.619,6.069-.116,63.323h46.058V785.3c-25.4,33.86-41.837-18.344-44.757-47.99" transform="translate(-787.686 -299.352)"/><g transform="translate(479.538 395.513)"><g class="z"><rect class="aa" width="112.896" height="241.818" transform="translate(-3.145 -21.831)"/></g></g><path class="ab" d="M1292.5,451.527c5.32,11.306,10.73,29.829,17.128,43.553a192.3,192.3,0,0,0,17.188,29.264c1.572,2.17,5.525,2.529,9.043,1.294,2.239-.786,3.943-.36,4.048-5.51-1.247-9.105-12.99-32.167-16.262-42.48-7.3-23.017-13.482-46.588-27.724-50.567-1.579-1.018-8.038,17.485-3.421,24.445" transform="translate(-747.319 -99.322)"/><path class="ac" d="M1054.6,479.153c2.433,14.272,4.377,30.1,2.424,47.854,29.232,5.026,55.964,2.792,73.422-2.773-.818-19.31-.871-86.348-21.883-102.528-19.339-5.425-45.274-3.71-55.987,6.866l-.092.087c-10.879,10.217-15.151,23.164-20.364,39.008a229.068,229.068,0,0,0-22.832-25.245c-2.156-2.047-9.087,6.726-9.04,9.165.129,6.732,25.319,45.43,37.212,47.188,5.631-1.185,13.215-11.154,17.141-19.622" transform="translate(-559.957 -93.946)"/><g transform="translate(529.072 338)"><g class="ad"><rect class="ae" width="21.621" height="85.078" transform="translate(0 0)"/></g></g><path class="af" d="M1233.353,434.123l-7.86-5.12-6.27,7.1c-4.613-3.022-22.718-19-5.293-22.114,1.89-.339,12.04,0,14.863,1.547,5.791,3.168,8.261,11.619,4.561,18.583" transform="translate(-692.931 -90.832)"/><path class="ag" d="M1102.506,472.931c-5.559,8.446-8.815,18.323-12.554,29.69,0,0,3.351,2.9,4.348,4.673a13.583,13.583,0,0,0,1.052,1.774s1.939-12.252,3.1-20.457a65.872,65.872,0,0,1,4.541-15.69Z" transform="translate(-617.789 -128.9)"/><path class="ah" d="M1153.224,564c2.277,14.513,4.191,31.793,2.424,47.854,1.023.176,5.061.789,6.078.947,3.532-22.578.544-42.563-3.321-62.492A95.571,95.571,0,0,1,1153.224,564" transform="translate(-658.58 -178.791)"/><path class="ai" d="M1227.4,325.705c-2.055,4.1-4.935,7.254-8.146,8.794l.109,5.952.866.737c3.388,3.634-.28,11.1-4.139,10.865-9.757.483-17.247-7.527-14.314-11.874l1.274-1.421.281-8.423c-.5-.029-4.168-2.114-5.258-2.449s-2.691-2.439-2.8-4.66,3.321-1.5,3.321-1.5c-4.153-5.69-8.856-10.336-2.757-15.458s20.1-8.113,20.1-8.113l8.43-2.925c-1.072,2.911.362,12.626,2.527,18.693,1.94,5.441,3.259,6.287.5,11.786" transform="translate(-684.172 -14.341)"/><path class="aj" d="M1233.411,397.328s4.769,8.187,8.685,8.928,1.914.193,3.375.019l-.11-5.951c-2.7.434-5.34.22-11.949-3" transform="translate(-710.276 -80.166)"/><g transform="translate(503.837 272.982)"><g class="ak" transform="translate(0 0)"><rect class="al" width="40.833" height="42.017" transform="translate(-0.13 0)"/></g></g><path class="ai" d="M990.1,449.679l-2.618-2.855c-.911-3.5-2.308-6.669-3.077-10.425a26.76,26.76,0,0,1-.419-6.16c.188-1.828-1.959-1-2.585-.029-1.774,2.735-1.525,5.6-1.758,7.019-1.041-.147-4.4-1.887-5.849-.352-3.866,4.091-2.79,12.058-2.041,13.987.574,1.479,4.077-.061,9.085,6.238,4.776,3.7,9.278-4.645,9.262-7.423" transform="translate(-541.117 -100.685)"/><path class="am" d="M993.667,464.25a15.066,15.066,0,0,0,1.849,4.09c1.073,1.372,2.176,2.626,2.176,2.626-3.523-1.051-3.505-1.616-6.023.836,0,0,.566-3.134.775-4.716s.835-4.448.835-4.448Z" transform="translate(-554.426 -122.271)"/><path class="an" d="M1398.033,692.323c1.051,4.259,1.26,6.194,2.1,10.383.2,1.01,2.163,1.815,3.69,2.615l7.943-.195a5.606,5.606,0,0,0,1.319-1.989c1.018-1.226.423-4.679.01-5.862a6.333,6.333,0,0,0-.981-1.6c-1.072-1.525-2.669-3.643-2.965-4.071-.7-1.013-1.694-1.814-1.792-3.083a13.653,13.653,0,0,0-9.321,3.805" transform="translate(-816.408 -267.89)"/><path class="v" d="M1435.283,715.475h-4.838c-2.089.652-1.274,3.061,0,2.926h1.683v4.041h3.155Z" transform="translate(-836.479 -285.274)"/><path class="an" d="M589.811,756.743l13.567,112.352-6.913,106.12c.233.317.463.63.691.934.177.242.354.475.531.706.424.559.843,1.088,1.263,1.582.189.226.378.444.573.655,3.115,3.437,7.139,4.267,10.435,5.072,2.554.624,4.52.929,6.252,4.345a1.731,1.731,0,0,1,.129.324,1.947,1.947,0,0,1-1.914,2.486l-30.247-.948a2.921,2.921,0,0,1-2.836-3.214l2.018-13.218a.446.446,0,0,1,.009-.056c-.734-25.8-6.565-63.614-1.787-93.754,0,0-28.569-56.541-28.452-57.914s36.68-65.473,36.68-65.473" transform="translate(-271.701 -311.88)"/><path class="an" d="M543.507,1037.635c-1.315,11.357,6.6,18.1,5.286,29.453-.017,28.435-19.919,61.2-26.651,89.905-.223.951,1.472,9.983,1.278,10.925-2.988,3.2-11.509,7.715-12.421-7.042,3.811-24.792,8.549-64.857,18.358-95.018l-6.194-30.071Z" transform="translate(-244.539 -491.779)"/><g transform="translate(269.484 457.187)"><g class="ao"><rect class="m" width="76.564" height="156.387" transform="translate(0 -24.474)"/></g></g><path class="ap" d="M691.4,705.5c20.041,2.988,27.145-33.009,29.123-39.551,1.558-5.155-6.681-9.778-8.751-7.7-2.254,2.26-14.771,25.163-15.084,25.141-2.178-.155-8.476-37.768-25.821-42.845-6.914-4.458-1.548,61.664,20.533,64.957" transform="translate(-345.78 -236.824)"/><path class="ap" d="M527.59,639.079c-5.777,23.6,17.36,26.556,12.119,74.194,17.333,2.409,40.186,3.079,55.089-.595-2.384-17.528,4.611-42.578.658-56.108-3.682-12.61-8.949-22.922-21.919-25.711-18.9-4.064-38.3-3.2-45.948,8.22" transform="translate(-254.633 -229.295)"/><g transform="translate(284.396 430.078)"><g class="aq" transform="translate(0 0)"><rect class="ar" width="42.164" height="55.215" transform="translate(0.009 -0.002)"/></g></g><path class="as" d="M573.744,780.78c.838,4.781,1.138,6.485,2.289,13.049,10.918-5.076,20.833-11.125,23.845-14.159,1.647-1.659,3.514-1.993,5.857-3.354,2.816-1.636,2.519-6.949,2.519-6.949Z" transform="translate(-284.991 -320.019)"/><path class="ai" d="M596.874,549.572l.106,5.724.833.709c3.258,3.494-.27,10.669-3.98,10.448-9.381.463-16.584-7.239-13.764-11.419l1.225-1.366.27-8.1c-.484-.027-4.007-2.032-5.056-2.354s-2.587-2.346-2.691-4.482,3.193-1.444,3.193-1.444c-3.993-5.471-8.515-9.94-2.651-14.864s19.332-7.8,19.332-7.8l8.107-2.813c-1.031,2.8.348,12.142,2.43,17.975,2.956,8.291,1.318,15.631-7.353,19.789" transform="translate(-283.576 -153.971)"/><path class="aj" d="M610.485,609.989s4.585,7.872,8.351,8.585,1.841.186,3.245.019l-.106-5.724c-2.595.418-5.134.212-11.491-2.88" transform="translate(-308.677 -217.268)"/><path class="ap" d="M504,643.579c-20.8,8.635-24.459,55.165-20.2,67.98,5.644,16.375,42.426-4.652,50.889-11.291,5.3-4.157,3.938-8.633.093-11.132-8.574-2.112-32.353,10.582-32.895,8,2.418-8.92,17.475-55.987,2.108-53.558" transform="translate(-225.99 -238.865)"/><g transform="translate(244.693 349.041)"><g class="at"><rect class="au" width="89.52" height="89.066" transform="translate(-6.054 -5.404)"/></g></g><path class="av" d="M659.246,1388.143s10.532,2.918,10.059,6.168c-.956,6.565-37.106,2.231-37.3,1.992-1.281-1.6-1.434-9,.292-11.212,1.283-1.644,15.429,7.148,26.948,3.052" transform="translate(-321.919 -716.84)"/><path class="aw" d="M520.1,1398.958c-.229,4.215-15.78,2.85-18.068,1.585-3.4-1.88.575-11.094,2.37-13.506,0,0,3.964,6.247,8.653,4.987s3.045-2.655,3.845-1.074c1.5,2.961,3.408,4.122,3.2,8.008" transform="translate(-237.902 -718.229)"/><path class="ai" d="M793.785,653.245l1.051-2.468,0-7.78c-.231-.908-.548-6.626,1.007-4.848,1.091,1.25,2.629,4.776,2.783,4.723,2.017-.688,6.568-10.427,6.752-10.5,2.574-1.011.047,5.342-.335,6.439-.1.287,2.714-3.985,2.869-3.741a2.322,2.322,0,0,1,.268,2.26c-.551,1.471-1.9,3.835-1.734,4.177s2.869-3.811,3-3.467a2.042,2.042,0,0,1-.035,1.71c-.612,1.508-2,3.616-1.912,4.027s1.843-2.673,1.892-2.278c.038.308.55.477.46.764-2.428,7.714-6.456,6.873-9,15.782-1.058,3.706-4.582.63-6.49-1.939a2.962,2.962,0,0,1-.586-2.861" transform="translate(-426.73 -231.628)"/><path class="ai" d="M626.183,750.2l2.349-1.293,4.8-6.12c.378-.857,3.654-5.552,3.78-3.193.088,1.656-1.381,4.242-1.227,4.3a3.742,3.742,0,0,1,5.018-.529c1.688.97,3.612,8.182-1.469,10.694-2.992,1.479-5.641.666-10.638,4.3-3.116,2.262-3.994-2.335-3.912-5.535a2.961,2.961,0,0,1,1.3-2.614" transform="translate(-317.956 -300.401)"/></g></svg>