<svg xmlns="http://www.w3.org/2000/svg" xmlns:xlink="http://www.w3.org/1999/xlink" width="211" height="252" viewBox="0 0 211 252">
  <defs>
    <clipPath id="clip-path">
      <rect id="Rectangle_4729" data-name="Rectangle 4729" width="211" height="252" rx="12" fill="#f9ae0c"/>
    </clipPath>
  </defs>
  <g id="Mask_Group_571" data-name="Mask Group 571" clip-path="url(#clip-path)">
    <path id="Path_23743" data-name="Path 23743" d="M251.2,113.424a34,34,0,0,1-9.036-1.926,36.769,36.769,0,0,1-8.289-4.087,33.444,33.444,0,0,1-8.175-7.673,40.647,40.647,0,0,1-7.516-19.414c-1.223-9.091-.343-19.9,2.617-32.121,7.282-30.077,1.676-54.769-15-66.05a36.686,36.686,0,0,0-20.884-6.09c-12.258,0-26.124,5.027-39.906,14.839-14.832,10.56-25.927,19.484-34.842,26.654-10.41,8.373-18.633,14.987-27.3,19.763a75.279,75.279,0,0,1-13.889,5.952,102.42,102.42,0,0,1-17.191,3.683,64.074,64.074,0,0,1-24.314-1.1,51.423,51.423,0,0,1-17.006-7.735A46.83,46.83,0,0,1,.3,28.487a21.256,21.256,0,0,1-3.889-6.9l.976-.218a20.871,20.871,0,0,0,3.706,6.506A45.818,45.818,0,0,0,11.048,37.3c6.4,4.489,16.656,9.313,31.163,9.313a70.718,70.718,0,0,0,9.449-.651c25.941-3.494,36.616-12.08,57.884-29.187C118.469,9.6,129.576.666,144.432-9.911a93.561,93.561,0,0,1,17.757-10.074,63.019,63.019,0,0,1,16.609-4.6,44.4,44.4,0,0,1,14.915.547,36.118,36.118,0,0,1,12.649,5.365c8.082,5.468,13.831,14.269,16.624,25.45A71.572,71.572,0,0,1,224.917,25.8a107.864,107.864,0,0,1-3.144,22.644c-5.412,22.353-3.823,39.409,4.725,50.7a33.966,33.966,0,0,0,16,11.419,33.581,33.581,0,0,0,8.745,1.871Z" transform="translate(242.37 144.6) rotate(128)" fill="#f9ae0c"/>
    <path id="Path_23744" data-name="Path 23744" d="M263.024,117.681a35.8,35.8,0,0,1-9.494-2.007,38.535,38.535,0,0,1-8.7-4.271,34.882,34.882,0,0,1-8.57-8.026c-4.115-5.43-6.744-12.213-7.814-20.159a71.622,71.622,0,0,1-.323-14.8,115.638,115.638,0,0,1,3.044-18.495c7.566-31.17,1.73-56.8-15.612-68.572-16.325-11.078-40.177-7.7-63.8,9.045-15.514,10.993-27.118,20.282-36.441,27.746-10.886,8.715-19.485,15.6-28.547,20.571a79.041,79.041,0,0,1-14.526,6.2,107.778,107.778,0,0,1-17.985,3.844,67.467,67.467,0,0,1-25.438-1.121,53.968,53.968,0,0,1-17.8-8.023,48.855,48.855,0,0,1-10.654-10c-2.557-3.295-3.792-5.917-4.074-7.161l.975-.221a21.677,21.677,0,0,0,3.888,6.768,47.841,47.841,0,0,0,10.435,9.8c8.079,5.619,22.015,11.737,42.532,8.974,27.154-3.658,38.32-12.6,60.566-30.4,9.334-7.472,20.95-16.771,36.488-27.781A98,98,0,0,1,169.8-20.935a66.135,66.135,0,0,1,17.424-4.784,46.63,46.63,0,0,1,15.638.6,37.865,37.865,0,0,1,13.249,5.641c8.4,5.7,14.378,14.845,17.281,26.441A74.082,74.082,0,0,1,235.4,26.686a111.512,111.512,0,0,1-3.266,23.472c-5.625,23.172-3.973,40.871,4.91,52.6a37.042,37.042,0,0,0,26.014,13.92Z" transform="translate(252.52 127.249) rotate(128)" fill="#f9ae0c"/>
    <path id="Path_23745" data-name="Path 23745" d="M263.024,117.681a35.8,35.8,0,0,1-9.494-2.007,38.535,38.535,0,0,1-8.7-4.271,34.882,34.882,0,0,1-8.57-8.026c-4.115-5.43-6.744-12.213-7.814-20.159a71.622,71.622,0,0,1-.323-14.8,115.638,115.638,0,0,1,3.044-18.495c7.566-31.17,1.73-56.8-15.612-68.572-16.325-11.078-40.177-7.7-63.8,9.045-15.514,10.993-27.118,20.282-36.441,27.746-10.886,8.715-19.485,15.6-28.547,20.571a79.041,79.041,0,0,1-14.526,6.2,107.778,107.778,0,0,1-17.985,3.844,67.467,67.467,0,0,1-25.438-1.121,53.968,53.968,0,0,1-17.8-8.023,48.855,48.855,0,0,1-10.654-10c-2.557-3.295-3.792-5.917-4.074-7.161l.975-.221a21.677,21.677,0,0,0,3.888,6.768,47.841,47.841,0,0,0,10.435,9.8c8.079,5.619,22.015,11.737,42.532,8.974,27.154-3.658,38.32-12.6,60.566-30.4,9.334-7.472,20.95-16.771,36.488-27.781A98,98,0,0,1,169.8-20.935a66.135,66.135,0,0,1,17.424-4.784,46.63,46.63,0,0,1,15.638.6,37.865,37.865,0,0,1,13.249,5.641c8.4,5.7,14.378,14.845,17.281,26.441A74.082,74.082,0,0,1,235.4,26.686a111.512,111.512,0,0,1-3.266,23.472c-5.625,23.172-3.973,40.871,4.91,52.6a37.042,37.042,0,0,0,26.014,13.92Z" transform="translate(257.13 119.369) rotate(128)" fill="#f9ae0c"/>
    <path id="Path_23746" data-name="Path 23746" d="M263.024,117.681a35.8,35.8,0,0,1-9.494-2.007,38.535,38.535,0,0,1-8.7-4.271,34.882,34.882,0,0,1-8.57-8.026c-4.115-5.43-6.744-12.213-7.814-20.159a71.622,71.622,0,0,1-.323-14.8,115.638,115.638,0,0,1,3.044-18.495c7.566-31.17,1.73-56.8-15.612-68.572-16.325-11.078-40.177-7.7-63.8,9.045-15.514,10.993-27.118,20.282-36.441,27.746-10.886,8.715-19.485,15.6-28.547,20.571a79.041,79.041,0,0,1-14.526,6.2,107.778,107.778,0,0,1-17.985,3.844,67.467,67.467,0,0,1-25.438-1.121,53.968,53.968,0,0,1-17.8-8.023,48.855,48.855,0,0,1-10.654-10c-2.557-3.295-3.792-5.917-4.074-7.161l.975-.221a21.677,21.677,0,0,0,3.888,6.768,47.841,47.841,0,0,0,10.435,9.8c8.079,5.619,22.015,11.737,42.532,8.974,27.154-3.658,38.32-12.6,60.566-30.4,9.334-7.472,20.95-16.771,36.488-27.781A98,98,0,0,1,169.8-20.935a66.135,66.135,0,0,1,17.424-4.784,46.63,46.63,0,0,1,15.638.6,37.865,37.865,0,0,1,13.249,5.641c8.4,5.7,14.378,14.845,17.281,26.441A74.082,74.082,0,0,1,235.4,26.686a111.512,111.512,0,0,1-3.266,23.472c-5.625,23.172-3.973,40.871,4.91,52.6a37.042,37.042,0,0,0,26.014,13.92Z" transform="translate(261.74 111.489) rotate(128)" fill="#f9ae0c"/>
  </g>
</svg>
