<svg xmlns="http://www.w3.org/2000/svg" xmlns:xlink="http://www.w3.org/1999/xlink" width="211" height="252" viewBox="0 0 211 252">
  <defs>
    <clipPath id="clip-path">
      <rect id="Rectangle_4727" data-name="Rectangle 4727" width="211" height="252" rx="12" fill="#f9ad0b"/>
    </clipPath>
  </defs>
  <g id="Mask_Group_569" data-name="Mask Group 569" transform="translate(211 252) rotate(180)" clip-path="url(#clip-path)">
    <path id="Path_23735" data-name="Path 23735" d="M167.019,188.024a32.97,32.97,0,0,1-7.421-.869c-7.894-1.823-15.944-6.433-23.926-13.7-12.3-11.2-21.449-20.774-28.8-28.467-17.494-18.3-26.275-27.488-48.275-29.5-16.613-1.519-28.216,6.432-35.023,13.369-7.511,7.654-11.775,16.711-12.388,19.859l-.982-.191a32.447,32.447,0,0,1,3.577-8.3,59.175,59.175,0,0,1,9.079-12.067,47.293,47.293,0,0,1,14.885-10.422,42.329,42.329,0,0,1,20.943-3.242A62.246,62.246,0,0,1,73.3,117.438,48.709,48.709,0,0,1,85,123.318c7.238,4.908,14.016,12,22.6,20.976,7.343,7.682,16.482,17.243,28.753,28.419,15.351,13.981,30.937,17.9,43.885,11.02,9.4-4.991,16.612-15.2,20.858-29.531,4.508-15.215,5.3-34.189,2.3-54.871-2.333-16.082-2.411-30.162-.232-41.848,1.767-9.474,5.019-17.428,9.664-23.641a38.343,38.343,0,0,1,6.644-6.93,33.573,33.573,0,0,1,6.185-3.963,23.466,23.466,0,0,1,6.389-2.218l.142.99-.071-.495.072.495a22.63,22.63,0,0,0-5.807,1.987,34.652,34.652,0,0,0-11.98,9.732c-7.548,9.461-15.413,28.547-10.016,65.746,3.022,20.825,2.214,39.947-2.334,55.3a62.983,62.983,0,0,1-8.729,18.651,36.865,36.865,0,0,1-12.619,11.48,28.933,28.933,0,0,1-10.051,3.186A29.6,29.6,0,0,1,167.019,188.024Z" transform="translate(31.274 46.849) rotate(17)" fill="#f9ad0b"/>
    <path id="Path_23736" data-name="Path 23736" d="M174.718,195.591a34.653,34.653,0,0,1-7.7-.889c-8.282-1.886-16.728-6.689-25.1-14.276-12.863-11.652-22.437-21.614-30.129-29.617-18.3-19.045-27.49-28.6-50.522-30.711-17.4-1.591-29.548,6.674-36.68,13.887-7.867,7.957-12.335,17.377-12.979,20.651l-.981-.193a33.6,33.6,0,0,1,3.745-8.624,61.53,61.53,0,0,1,9.5-12.537A49.468,49.468,0,0,1,39.452,122.46,44.526,44.526,0,0,1,61.359,119.1a65.488,65.488,0,0,1,15.289,3.073,51.086,51.086,0,0,1,12.229,6.119c7.571,5.107,14.66,12.483,23.635,21.822,7.681,7.993,17.241,17.94,30.079,29.569,16.125,14.607,32.491,18.663,46.081,11.42,9.805-5.225,17.327-15.855,21.753-30.739,4.7-15.8,5.531-35.5,2.407-56.959-2.427-16.674-2.508-31.277-.242-43.4,1.839-9.839,5.224-18.1,10.061-24.567a40.023,40.023,0,0,1,6.972-7.256,35.167,35.167,0,0,1,6.5-4.146,24.682,24.682,0,0,1,6.714-2.316l.141.99h0a24.3,24.3,0,0,0-6.466,2.25,36.756,36.756,0,0,0-13.079,11.109c-10.767,14.411-14,37.019-9.607,67.2a165.31,165.31,0,0,1,1.711,31.505,109.442,109.442,0,0,1-4.15,25.883,65.482,65.482,0,0,1-9.1,19.378,38.6,38.6,0,0,1-13.146,11.959,30.406,30.406,0,0,1-10.533,3.361A31.12,31.12,0,0,1,174.718,195.591Z" transform="translate(17.065 33.652) rotate(17)" fill="#f9ad0b"/>
    <path id="Path_23737" data-name="Path 23737" d="M174.718,195.591a34.653,34.653,0,0,1-7.7-.889c-8.282-1.886-16.728-6.689-25.1-14.276-12.863-11.652-22.437-21.614-30.129-29.617-18.3-19.045-27.49-28.6-50.522-30.711-17.4-1.591-29.548,6.674-36.68,13.887-7.867,7.957-12.335,17.377-12.979,20.651l-.981-.193a33.6,33.6,0,0,1,3.745-8.624,61.53,61.53,0,0,1,9.5-12.537A49.468,49.468,0,0,1,39.452,122.46,44.526,44.526,0,0,1,61.359,119.1a65.488,65.488,0,0,1,15.289,3.073,51.086,51.086,0,0,1,12.229,6.119c7.571,5.107,14.66,12.483,23.635,21.822,7.681,7.993,17.241,17.94,30.079,29.569,16.125,14.607,32.491,18.663,46.081,11.42,9.805-5.225,17.327-15.855,21.753-30.739,4.7-15.8,5.531-35.5,2.407-56.959-2.427-16.674-2.508-31.277-.242-43.4,1.839-9.839,5.224-18.1,10.061-24.567a40.023,40.023,0,0,1,6.972-7.256,35.167,35.167,0,0,1,6.5-4.146,24.682,24.682,0,0,1,6.714-2.316l.141.99h0a24.3,24.3,0,0,0-6.466,2.25,36.756,36.756,0,0,0-13.079,11.109c-10.767,14.411-14,37.019-9.607,67.2a165.31,165.31,0,0,1,1.711,31.505,109.442,109.442,0,0,1-4.15,25.883,65.482,65.482,0,0,1-9.1,19.378,38.6,38.6,0,0,1-13.146,11.959,30.406,30.406,0,0,1-10.533,3.361A31.12,31.12,0,0,1,174.718,195.591Z" transform="translate(9.91 30.728) rotate(17)" fill="#f9ad0b"/>
    <path id="Path_23738" data-name="Path 23738" d="M174.718,195.591a34.653,34.653,0,0,1-7.7-.889c-8.282-1.886-16.728-6.689-25.1-14.276-12.863-11.652-22.437-21.614-30.129-29.617-18.3-19.045-27.49-28.6-50.522-30.711-17.4-1.591-29.548,6.674-36.68,13.887-7.867,7.957-12.335,17.377-12.979,20.651l-.981-.193a33.6,33.6,0,0,1,3.745-8.624,61.53,61.53,0,0,1,9.5-12.537A49.468,49.468,0,0,1,39.452,122.46,44.526,44.526,0,0,1,61.359,119.1a65.488,65.488,0,0,1,15.289,3.073,51.086,51.086,0,0,1,12.229,6.119c7.571,5.107,14.66,12.483,23.635,21.822,7.681,7.993,17.241,17.94,30.079,29.569,16.125,14.607,32.491,18.663,46.081,11.42,9.805-5.225,17.327-15.855,21.753-30.739,4.7-15.8,5.531-35.5,2.407-56.959-2.427-16.674-2.508-31.277-.242-43.4,1.839-9.839,5.224-18.1,10.061-24.567a40.023,40.023,0,0,1,6.972-7.256,35.167,35.167,0,0,1,6.5-4.146,24.682,24.682,0,0,1,6.714-2.316l.141.99h0a24.3,24.3,0,0,0-6.466,2.25,36.756,36.756,0,0,0-13.079,11.109c-10.767,14.411-14,37.019-9.607,67.2a165.31,165.31,0,0,1,1.711,31.505,109.442,109.442,0,0,1-4.15,25.883,65.482,65.482,0,0,1-9.1,19.378,38.6,38.6,0,0,1-13.146,11.959,30.406,30.406,0,0,1-10.533,3.361A31.12,31.12,0,0,1,174.718,195.591Z" transform="translate(2.755 27.805) rotate(17)" fill="#f9ad0b"/>
  </g>
</svg>
