<svg xmlns="http://www.w3.org/2000/svg" xmlns:xlink="http://www.w3.org/1999/xlink" width="211" height="252" viewBox="0 0 211 252">
  <defs>
    <clipPath id="clip-path">
      <rect id="Rectangle_4731" data-name="Rectangle 4731" width="211" height="252" rx="12" fill="#f9ae0c"/>
    </clipPath>
  </defs>
  <g id="Mask_Group_572" data-name="Mask Group 572" clip-path="url(#clip-path)">
    <path id="Path_23747" data-name="Path 23747" d="M4636.543,4362.836a28.942,28.942,0,0,1-3.561-.219,30.248,30.248,0,0,1-9.4-2.8,41.864,41.864,0,0,1-14.47-12.064,74.021,74.021,0,0,1-10.97-20.118c-6.236-16.708-8.7-37.366-7.12-59.741,2.666-37.814-1.245-60.373-4.994-72.638a59.738,59.738,0,0,0-5.968-13.9,19.29,19.29,0,0,0-2.885-3.819l.668-.744a19.458,19.458,0,0,1,3.01,3.945,60.251,60.251,0,0,1,6.085,14.075,137.609,137.609,0,0,1,5.08,27.854,287.881,287.881,0,0,1,0,45.3c-1.567,22.233.874,42.747,7.06,59.321,5.761,15.435,14.617,26.668,24.937,31.631,12.286,5.907,26.058,2.7,38.78-9.022,11.217-10.34,19.484-19.314,26.127-26.524,7.77-8.434,13.907-15.1,20.655-19.472a38.535,38.535,0,0,1,11.058-4.962,53.7,53.7,0,0,1,14.112-1.661,43.474,43.474,0,0,1,20.714,5.3,58.334,58.334,0,0,1,15.269,12.1,76.316,76.316,0,0,1,9.714,13.242,40.727,40.727,0,0,1,4.071,8.845l-.971.242c-.825-3.307-5.646-13.053-13.551-21.652-7.161-7.791-19.089-17.077-35.247-17.077-21.348,0-29.282,8.613-45.09,25.772-6.655,7.224-14.938,16.215-26.185,26.583-6.676,6.154-13.59,10.029-20.55,11.519A30.49,30.49,0,0,1,4636.543,4362.836Z" transform="translate(-4581.44 -4083.932)" fill="#f9ae0c"/>
    <path id="Path_23748" data-name="Path 23748" d="M4638.752,4369.9a30.55,30.55,0,0,1-3.832-.24,31.846,31.846,0,0,1-9.854-2.956,43.9,43.9,0,0,1-15.083-12.578,77,77,0,0,1-11.433-20.912c-6.5-17.354-9.061-38.8-7.413-62.016,2.79-39.319-2.683-62.252-7.765-74.566a52.363,52.363,0,0,0-7.981-13.778,19.678,19.678,0,0,0-3.805-3.668l.536-.844a19.952,19.952,0,0,1,3.968,3.79,53.033,53.033,0,0,1,8.152,13.989,112.5,112.5,0,0,1,7.088,28.327c1.774,13.586,2.044,29.339.8,46.821-1.637,23.076.905,44.375,7.353,61.595,6,16.038,15.244,27.736,26.015,32.939,12.9,6.233,27.371,2.922,40.74-9.323,11.739-10.752,20.391-20.085,27.343-27.583,8.13-8.769,14.552-15.7,21.612-20.245a40.432,40.432,0,0,1,11.565-5.158,56.538,56.538,0,0,1,14.762-1.726,45.708,45.708,0,0,1,21.666,5.51,60.979,60.979,0,0,1,15.972,12.577,79.391,79.391,0,0,1,10.164,13.767,42.163,42.163,0,0,1,4.258,9.193l-.97.243a41.22,41.22,0,0,0-4.153-8.933,78.3,78.3,0,0,0-10.033-13.59c-7.5-8.1-19.986-17.766-36.9-17.766-22.351,0-30.657,8.959-47.205,26.808-6.964,7.512-15.631,16.86-27.4,27.641-7.008,6.419-14.265,10.452-21.568,11.988A32.055,32.055,0,0,1,4638.752,4369.9Z" transform="translate(-4574.031 -4091)" fill="#f9ae0c"/>
    <path id="Path_23749" data-name="Path 23749" d="M4636.431,4369.9a30.542,30.542,0,0,1-3.831-.24,31.846,31.846,0,0,1-9.854-2.956,43.89,43.89,0,0,1-15.083-12.578,76.982,76.982,0,0,1-11.434-20.912c-6.5-17.354-9.061-38.8-7.413-62.016,2.792-39.363-4.564-65.06-11.227-79.685a82.3,82.3,0,0,0-10.372-17.268,38.224,38.224,0,0,0-4.9-5.253l.631-.775a38.179,38.179,0,0,1,5.006,5.353,83.1,83.1,0,0,1,10.508,17.455,128.676,128.676,0,0,1,9.464,31.816,204.245,204.245,0,0,1,1.884,48.427c-1.637,23.076.905,44.375,7.353,61.595,6,16.038,15.244,27.736,26.015,32.939,12.9,6.233,27.371,2.922,40.74-9.323,11.74-10.753,20.392-20.085,27.344-27.583,8.13-8.769,14.551-15.7,21.611-20.244a40.435,40.435,0,0,1,11.564-5.158,56.54,56.54,0,0,1,14.762-1.726,45.706,45.706,0,0,1,21.666,5.51,60.971,60.971,0,0,1,15.972,12.577A79.366,79.366,0,0,1,4787,4333.626a42.163,42.163,0,0,1,4.258,9.193l-.97.243a41.22,41.22,0,0,0-4.153-8.933,78.323,78.323,0,0,0-10.033-13.59c-7.5-8.1-19.986-17.766-36.9-17.766-22.351,0-30.657,8.959-47.2,26.807-6.965,7.512-15.632,16.861-27.4,27.641-7.008,6.419-14.264,10.452-21.568,11.988A32.052,32.052,0,0,1,4636.431,4369.9Z" transform="translate(-4564.228 -4091)" fill="#f9ae0c"/>
    <path id="Path_23750" data-name="Path 23750" d="M4631.742,4370.7a33.363,33.363,0,0,1-4.772-.341,34.274,34.274,0,0,1-10.851-3.509,44.249,44.249,0,0,1-14.613-12.588,71.487,71.487,0,0,1-10.707-20.605,114.481,114.481,0,0,1-5.5-27.92,171.616,171.616,0,0,1,1.006-34.56c5.29-42.369-4.234-73-13.155-91.228a119.114,119.114,0,0,0-14.086-22.353,66.451,66.451,0,0,0-6.754-7.367l.66-.751a65.824,65.824,0,0,1,6.841,7.452,120.078,120.078,0,0,1,14.212,22.529,143.756,143.756,0,0,1,12.268,38,179.782,179.782,0,0,1,1.006,53.841c-2.93,23.468-1.391,44.918,4.452,62.033,5.293,15.5,14.112,27.092,24.833,32.628,14.012,7.236,30.35,3.782,44.826-9.477,11.74-10.753,20.392-20.085,27.344-27.583,8.13-8.769,14.551-15.7,21.611-20.244a40.429,40.429,0,0,1,11.564-5.158,56.543,56.543,0,0,1,14.762-1.726,45.708,45.708,0,0,1,21.666,5.51,60.979,60.979,0,0,1,15.972,12.577,79.391,79.391,0,0,1,10.164,13.767,42.163,42.163,0,0,1,4.258,9.193l-.97.243a41.22,41.22,0,0,0-4.153-8.933,78.3,78.3,0,0,0-10.033-13.59c-7.5-8.1-19.986-17.766-36.9-17.766-22.351,0-30.657,8.959-47.2,26.807-6.965,7.512-15.632,16.861-27.4,27.641a58.95,58.95,0,0,1-11.749,8.487,42.064,42.064,0,0,1-11.826,4.327A35.148,35.148,0,0,1,4631.742,4370.7Z" transform="translate(-4554.228 -4091)" fill="#f9ae0c"/>
  </g>
</svg>
