<svg xmlns="http://www.w3.org/2000/svg" width="86.892" height="76" viewBox="0 0 86.892 76">
  <g id="_24x7-support" data-name="24x7-support" transform="translate(-5982.938 -2857)">
    <g id="Group_2986" data-name="Group 2986" transform="translate(5997.939 2857)">
      <path id="Path_10731" data-name="Path 10731" d="M5000.826-4888.557h-20.714a1.192,1.192,0,0,1-1.192-1.192,1.192,1.192,0,0,1,1.192-1.192h19.521v-38.049a26.655,26.655,0,0,0-26.625-26.625,26.655,26.655,0,0,0-26.625,26.625v27.37a1.192,1.192,0,0,1-1.192,1.192,1.192,1.192,0,0,1-1.192-1.192v-27.37a28.819,28.819,0,0,1,8.5-20.513,28.82,28.82,0,0,1,20.513-8.5,28.82,28.82,0,0,1,20.513,8.5,28.819,28.819,0,0,1,8.5,20.513v39.242A1.192,1.192,0,0,1,5000.826-4888.557Z" transform="translate(-4944 4958)" fill="#2c2c2c"/>
    </g>
    <g id="Group_2987" data-name="Group 2987" transform="translate(5982.938 2887.557)">
      <path id="Path_10732" data-name="Path 10732" d="M4809.193-4623.16A16.212,16.212,0,0,1,4793-4639.353a16.184,16.184,0,0,1,4.005-10.663,1.192,1.192,0,0,1,1.682-.111,1.191,1.191,0,0,1,.112,1.682,13.8,13.8,0,0,0-3.415,9.092,13.825,13.825,0,0,0,13.809,13.809,1.193,1.193,0,0,1,1.192,1.192A1.192,1.192,0,0,1,4809.193-4623.16Z" transform="translate(-4793 4650.422)" fill="#2c2c2c"/>
    </g>
    <g id="Group_2988" data-name="Group 2988" transform="translate(6053.672 2883.583)">
      <path id="Path_10733" data-name="Path 10733" d="M5515.407-4662.319a1.187,1.187,0,0,1-.856-.362,1.192,1.192,0,0,1,.026-1.686,13.8,13.8,0,0,0,4.148-8.781,13.722,13.722,0,0,0-3.231-10.063,13.719,13.719,0,0,0-9.4-4.831,1.192,1.192,0,0,1-1.09-1.286,1.193,1.193,0,0,1,1.286-1.091,16.088,16.088,0,0,1,11.023,5.665,16.086,16.086,0,0,1,3.789,11.8,16.18,16.18,0,0,1-4.865,10.3A1.187,1.187,0,0,1,5515.407-4662.319Z" transform="translate(-5505 4690.423)" fill="#2c2c2c"/>
    </g>
    <g id="Group_2989" data-name="Group 2989" transform="translate(6019.299 2917.601)">
      <path id="Path_10734" data-name="Path 10734" d="M5166.7-4332.6a7.708,7.708,0,0,1-7.7-7.7,7.708,7.708,0,0,1,7.7-7.7,7.708,7.708,0,0,1,7.7,7.7A7.708,7.708,0,0,1,5166.7-4332.6Zm0-13.015a5.321,5.321,0,0,0-5.315,5.315,5.321,5.321,0,0,0,5.315,5.315,5.322,5.322,0,0,0,5.315-5.315A5.321,5.321,0,0,0,5166.7-4345.616Z" transform="translate(-5159 4348)" fill="#2c2c2c"/>
    </g>
    <g id="Group_2990" data-name="Group 2990" transform="translate(6003.403 2878.137)">
      <path id="Path_10735" data-name="Path 10735" d="M5045.693-4706.544l-16.31-9.374H4999v-29.326h46.693Zm-44.309-11.758h28.635l13.289,7.637v-32.194h-41.924Z" transform="translate(-4999 4745.243)" fill="#2c2c2c"/>
    </g>
    <g id="Group_2991" data-name="Group 2991" transform="translate(6007.977 2882.73)">
      <path id="Path_10736" data-name="Path 10736" d="M5053.356-4685.02h-6.428a1.192,1.192,0,0,1-1.116-.772,1.192,1.192,0,0,1,.329-1.316,28.664,28.664,0,0,0,3.315-3.558c1.672-2.18,2.291-3.939,1.7-4.826a2.275,2.275,0,0,0-1.508-1.1,4.1,4.1,0,0,0-2.692.827,1.19,1.19,0,0,1-1.67-.22,1.194,1.194,0,0,1,.22-1.673,6.428,6.428,0,0,1,4.522-1.288,4.643,4.643,0,0,1,3.111,2.135c1.249,1.873.64,4.439-1.812,7.626-.5.648-1.021,1.253-1.508,1.784h3.536a1.192,1.192,0,0,1,1.192,1.192A1.192,1.192,0,0,1,5053.356-4685.02Z" transform="translate(-5045.041 4699.01)" fill="#2c2c2c"/>
    </g>
    <g id="Group_2992" data-name="Group 2992" transform="translate(6017.448 2882.532)">
      <path id="Path_10737" data-name="Path 10737" d="M5147.607-4686.321a1.192,1.192,0,0,1-1.192-1.192v-3.188l-4.838.065a1.194,1.194,0,0,1-1.08-.654,1.19,1.19,0,0,1,.114-1.257l6.046-7.981a1.192,1.192,0,0,1,1.33-.41,1.192,1.192,0,0,1,.812,1.13v6.691l1.75-.023h.016a1.193,1.193,0,0,1,1.192,1.176,1.192,1.192,0,0,1-1.176,1.208l-1.781.024v3.22A1.192,1.192,0,0,1,5147.607-4686.321Zm-1.192-9.94-2.431,3.208,2.431-.033Z" transform="translate(-5140.369 4701.001)" fill="#2c2c2c"/>
    </g>
    <g id="Group_2993" data-name="Group 2993" transform="translate(6036.585 2892.566)">
      <path id="Path_10738" data-name="Path 10738" d="M5334.658-4588.807a1.185,1.185,0,0,1-.6-.166,1.192,1.192,0,0,1-.421-1.633l4.135-7.011h-3.575a1.192,1.192,0,0,1-1.192-1.192,1.192,1.192,0,0,1,1.192-1.192h5.663a1.193,1.193,0,0,1,1.035.6,1.193,1.193,0,0,1-.008,1.2l-5.2,8.809A1.191,1.191,0,0,1,5334.658-4588.807Z" transform="translate(-5333 4600)" fill="#2c2c2c"/>
    </g>
    <g id="Group_2994" data-name="Group 2994" transform="translate(6037.052 2896.696)">
      <path id="Path_10739" data-name="Path 10739" d="M5343.489-4556.049h-4.595a1.192,1.192,0,0,1-1.192-1.192,1.193,1.193,0,0,1,1.192-1.192h4.595a1.192,1.192,0,0,1,1.192,1.192A1.192,1.192,0,0,1,5343.489-4556.049Z" transform="translate(-5337.702 4558.434)" fill="#2c2c2c"/>
    </g>
    <g id="Group_2995" data-name="Group 2995" transform="translate(6027.313 2883.096)">
      <path id="Path_10740" data-name="Path 10740" d="M5240.861-4675.987a1.189,1.189,0,0,1-.508-.114,1.192,1.192,0,0,1-.568-1.587l8.013-16.953a1.192,1.192,0,0,1,1.587-.568,1.192,1.192,0,0,1,.568,1.587l-8.013,16.953A1.193,1.193,0,0,1,5240.861-4675.987Z" transform="translate(-5239.67 4695.325)" fill="#2c2c2c"/>
    </g>
  </g>
</svg>
