<svg xmlns="http://www.w3.org/2000/svg" xmlns:xlink="http://www.w3.org/1999/xlink" width="211" height="252" viewBox="0 0 211 252">
  <defs>
    <clipPath id="clip-path">
      <rect id="Rectangle_4728" data-name="Rectangle 4728" width="211" height="252" rx="12" fill="#f9ae0c"/>
    </clipPath>
  </defs>
  <g id="Mask_Group_570" data-name="Mask Group 570" transform="translate(211 252) rotate(180)" clip-path="url(#clip-path)">
    <path id="Path_23739" data-name="Path 23739" d="M212.534,255.6a49.96,49.96,0,0,1-5.73-.336,64.057,64.057,0,0,1-16.887-4.507,94.288,94.288,0,0,1-18.057-10.025c-14.957-10.453-26.137-19.284-35.12-26.38-21.406-16.909-32.151-25.4-58.324-28.839-19.775-2.6-33.227,3.237-41.03,8.593a46.133,46.133,0,0,0-10.083,9.33,20.629,20.629,0,0,0-3.762,6.434l-.974-.226c.275-1.186,1.475-3.686,3.951-6.827a47.144,47.144,0,0,1,10.3-9.535,52.635,52.635,0,0,1,17.188-7.659,65.978,65.978,0,0,1,24.539-1.1,104.926,104.926,0,0,1,17.336,3.633,76.472,76.472,0,0,1,14,5.879c8.728,4.72,17,11.257,27.482,19.533,8.973,7.088,20.139,15.908,35.073,26.345,22.9,16.006,45.995,19.119,61.774,8.327,16.518-11.3,22.1-35.611,14.934-65.038-7.807-32.055-41.85-76.629-69.033-108.377-15.4-17.99-30.285-33.856-40.056-44-10.588-10.99-17.623-17.813-17.693-17.881l.7-.718c.07.068,7.114,6.9,17.712,17.9,9.78,10.152,24.676,26.034,40.1,44.042,17.335,20.246,31.787,39,42.954,55.739a272,272,0,0,1,16.451,27.754,121.11,121.11,0,0,1,9.845,25.3,104.73,104.73,0,0,1,3.09,22.207,69.937,69.937,0,0,1-1.931,18.694,48.125,48.125,0,0,1-6.348,14.775,37.564,37.564,0,0,1-10.153,10.424,36.861,36.861,0,0,1-12.817,5.523A43.034,43.034,0,0,1,212.534,255.6Z" transform="translate(151.49 -101.865) rotate(54)" fill="#f9ae0c"/>
    <path id="Path_23740" data-name="Path 23740" d="M221.268,256.7a52.513,52.513,0,0,1-5.919-.341,67.234,67.234,0,0,1-17.717-4.687,98.777,98.777,0,0,1-18.948-10.463c-15.644-10.882-27.336-20.074-36.731-27.459-22.391-17.6-33.63-26.438-61.027-30.041-20.7-2.723-34.793,3.338-42.969,8.9a48.179,48.179,0,0,0-10.567,9.7A21.428,21.428,0,0,0,23.445,209l-.974-.228c.288-1.232,1.545-3.827,4.138-7.088a49.191,49.191,0,0,1,10.787-9.9,55.246,55.246,0,0,1,17.988-7.944,69.474,69.474,0,0,1,25.674-1.122,110.416,110.416,0,0,1,18.137,3.791,80.292,80.292,0,0,1,14.638,6.124c9.128,4.914,17.783,11.717,28.74,20.331,9.384,7.378,21.064,16.559,36.684,27.424,24.057,16.734,48.295,19.95,64.836,8.6,17.177-11.783,22.986-37.024,15.54-67.518-8.14-33.337-42.621-77.127-70.114-107.993-15.578-17.489-30.611-32.77-40.479-42.51-10.691-10.552-17.787-17.049-17.857-17.114l.675-.738c.071.065,7.18,6.575,17.885,17.14,9.878,9.75,24.928,25.048,40.523,42.557,17.533,19.684,32.17,38.1,43.5,54.721a259.25,259.25,0,0,1,16.73,27.794,122.079,122.079,0,0,1,10.1,25.906,108.276,108.276,0,0,1,3.211,23.017,72.389,72.389,0,0,1-2.007,19.385,49.991,49.991,0,0,1-6.6,15.335,39.225,39.225,0,0,1-10.552,10.843,38.64,38.64,0,0,1-13.424,5.807A45.226,45.226,0,0,1,221.268,256.7Z" transform="translate(141.783 -119.686) rotate(54)" fill="#f9ae0c"/>
    <path id="Path_23741" data-name="Path 23741" d="M220.43,249.076a52.512,52.512,0,0,1-5.919-.341,67.233,67.233,0,0,1-17.717-4.687,98.778,98.778,0,0,1-18.948-10.463c-15.644-10.882-27.336-20.074-36.731-27.459-22.391-17.6-33.63-26.438-61.027-30.041-20.7-2.723-34.793,3.338-42.969,8.9a48.178,48.178,0,0,0-10.567,9.7,21.427,21.427,0,0,0-3.947,6.694l-.974-.228c.288-1.232,1.545-3.827,4.138-7.088a49.19,49.19,0,0,1,10.787-9.9,55.247,55.247,0,0,1,17.988-7.944,69.474,69.474,0,0,1,25.674-1.122,110.416,110.416,0,0,1,18.136,3.791,80.294,80.294,0,0,1,14.638,6.124c9.128,4.914,17.783,11.717,28.74,20.331,9.384,7.378,21.064,16.559,36.684,27.424,24.057,16.734,48.295,19.95,64.836,8.6,17.177-11.783,22.986-37.024,15.54-67.518-8.139-33.334-40.74-74.878-66.654-103.86-14.685-16.423-28.826-30.639-38.1-39.673-10.053-9.789-16.718-15.771-16.784-15.83l.667-.745c.066.059,6.742,6.051,16.807,15.852,9.288,9.045,23.447,23.278,38.152,39.722C209.411,87.8,223.25,105.261,234.012,121.2a245.224,245.224,0,0,1,15.948,26.86,123.354,123.354,0,0,1,9.806,25.548,108.274,108.274,0,0,1,3.211,23.017,72.389,72.389,0,0,1-2.007,19.385,49.991,49.991,0,0,1-6.6,15.335,39.226,39.226,0,0,1-10.552,10.843A38.64,38.64,0,0,1,230.4,248,45.223,45.223,0,0,1,220.43,249.076Z" transform="translate(131.711 -122.615) rotate(54)" fill="#f9ae0c"/>
    <path id="Path_23742" data-name="Path 23742" d="M219.65,241.979a52.516,52.516,0,0,1-5.919-.341,67.232,67.232,0,0,1-17.717-4.687,98.781,98.781,0,0,1-18.948-10.463c-15.644-10.882-27.336-20.074-36.731-27.459-22.391-17.6-33.63-26.438-61.027-30.041-20.7-2.723-34.793,3.338-42.969,8.9a48.179,48.179,0,0,0-10.567,9.7,21.427,21.427,0,0,0-3.947,6.694l-.974-.228c.288-1.232,1.545-3.827,4.138-7.088a49.191,49.191,0,0,1,10.787-9.9,55.247,55.247,0,0,1,17.988-7.944A69.474,69.474,0,0,1,79.44,168a110.416,110.416,0,0,1,18.136,3.791,80.3,80.3,0,0,1,14.638,6.123c9.128,4.914,17.783,11.717,28.74,20.331,9.384,7.378,21.064,16.559,36.684,27.424,24.057,16.734,48.295,19.95,64.836,8.6,17.177-11.783,22.986-37.024,15.54-67.518-8.138-33.33-39.984-72.887-65.266-100.2C178.421,51.07,164.637,37.8,155.6,29.388c-9.8-9.112-16.287-14.635-16.351-14.689l.647-.762c.065.055,6.567,5.587,16.377,14.712,9.053,8.421,22.856,21.712,37.2,37.215,16.132,17.429,29.653,34.043,40.187,49.381A228.072,228.072,0,0,1,249.3,141.28a120.383,120.383,0,0,1,9.687,25.236,108.274,108.274,0,0,1,3.211,23.017,72.388,72.388,0,0,1-2.007,19.385,49.99,49.99,0,0,1-6.6,15.335A39.225,39.225,0,0,1,243.04,235.1a38.64,38.64,0,0,1-13.424,5.807A45.223,45.223,0,0,1,219.65,241.979Z" transform="translate(121.362 -125.903) rotate(54)" fill="#f9ae0c"/>
  </g>
</svg>
