<svg xmlns="http://www.w3.org/2000/svg" width="72.984" height="76" viewBox="0 0 72.984 76">
  <g id="improve-grades" transform="translate(-2608.427 5000)">
    <g id="Group_3001" data-name="Group 3001" transform="translate(2608.427 -4985.333)">
      <path id="Path_10741" data-name="Path 10741" d="M2659.942-4784.795h-47.421a4.1,4.1,0,0,1-4.092-4.092v-56.1a1.144,1.144,0,0,1,1.144-1.144,1.144,1.144,0,0,1,1.144,1.144v56.1a1.807,1.807,0,0,0,1.8,1.8h47.421a1.807,1.807,0,0,0,1.8-1.8V-4804.9a1.144,1.144,0,0,1,1.144-1.144,1.144,1.144,0,0,1,1.144,1.144v16.008A4.1,4.1,0,0,1,2659.942-4784.795Z" transform="translate(-2608.428 4846.127)" fill="#2c2c2c"/>
    </g>
    <g id="Group_3002" data-name="Group 3002" transform="translate(2623.244 -5000)">
      <path id="Path_10742" data-name="Path 10742" d="M2803.515-4988.535a1.144,1.144,0,0,1-1.144-1.145v-6.229a1.807,1.807,0,0,0-1.8-1.8h-35.553a1.144,1.144,0,0,1-1.144-1.144,1.144,1.144,0,0,1,1.144-1.144h35.553a4.1,4.1,0,0,1,4.092,4.092v6.229A1.144,1.144,0,0,1,2803.515-4988.535Z" transform="translate(-2763.87 5000)" fill="#2c2c2c"/>
    </g>
    <g id="Group_3003" data-name="Group 3003" transform="translate(2608.427 -5000)">
      <path id="Path_10743" data-name="Path 10743" d="M2624.314-4982.97h-14.743a1.144,1.144,0,0,1-1.057-.707,1.144,1.144,0,0,1,.248-1.247l14.743-14.743a1.144,1.144,0,0,1,1.247-.248,1.144,1.144,0,0,1,.706,1.057v14.742A1.144,1.144,0,0,1,2624.314-4982.97Zm-11.981-2.288h10.837V-4996.1Z" transform="translate(-2608.427 5000)" fill="#2c2c2c"/>
    </g>
    <g id="Group_3004" data-name="Group 3004" transform="translate(2644.417 -4985.425)">
      <path id="Path_10744" data-name="Path 10744" d="M3004.477-4810.1a18.518,18.518,0,0,1-18.5-18.5,18.518,18.518,0,0,1,18.5-18.5,18.518,18.518,0,0,1,18.5,18.5A18.518,18.518,0,0,1,3004.477-4810.1Zm0-34.707a16.228,16.228,0,0,0-16.209,16.209,16.228,16.228,0,0,0,16.209,16.209,16.228,16.228,0,0,0,16.209-16.209A16.228,16.228,0,0,0,3004.477-4844.805Z" transform="translate(-2985.98 4847.093)" fill="#2c2c2c"/>
    </g>
    <g id="Group_3005" data-name="Group 3005" transform="translate(2655.748 -4974.608)">
      <path id="Path_10745" data-name="Path 10745" d="M3105.995-4717.567a1.139,1.139,0,0,1-.455-.1,1.144,1.144,0,0,1-.594-1.5l5.969-13.765a1.144,1.144,0,0,1,1.048-.689h0a1.144,1.144,0,0,1,1.048.686l5.91,13.507a1.144,1.144,0,0,1-.589,1.506,1.144,1.144,0,0,1-1.507-.589l-4.857-11.1-4.924,11.356A1.145,1.145,0,0,1,3105.995-4717.567Z" transform="translate(-3104.851 4733.621)" fill="#2c2c2c"/>
    </g>
    <g id="Group_3006" data-name="Group 3006" transform="translate(2658.402 -4964.879)">
      <path id="Path_10746" data-name="Path 10746" d="M3141.23-4629.264h-7.393a1.144,1.144,0,0,1-1.144-1.144,1.144,1.144,0,0,1,1.144-1.144h7.393a1.144,1.144,0,0,1,1.144,1.144A1.144,1.144,0,0,1,3141.23-4629.264Z" transform="translate(-3132.694 4631.552)" fill="#2c2c2c"/>
    </g>
    <g id="Group_3007" data-name="Group 3007" transform="translate(2665.182 -4975.864)">
      <path id="Path_10747" data-name="Path 10747" d="M3210.565-4744.506h-5.593a1.144,1.144,0,0,1-1.144-1.144,1.144,1.144,0,0,1,1.144-1.144h5.593a1.144,1.144,0,0,1,1.144,1.144A1.144,1.144,0,0,1,3210.565-4744.506Z" transform="translate(-3203.828 4746.794)" fill="#2c2c2c"/>
    </g>
    <g id="Group_3008" data-name="Group 3008" transform="translate(2667.979 -4978.661)">
      <path id="Path_10748" data-name="Path 10748" d="M3234.308-4768.25a1.144,1.144,0,0,1-1.144-1.144v-5.593a1.144,1.144,0,0,1,1.144-1.144,1.144,1.144,0,0,1,1.144,1.144v5.593A1.144,1.144,0,0,1,3234.308-4768.25Z" transform="translate(-3233.164 4776.13)" fill="#2c2c2c"/>
    </g>
    <g id="Group_3009" data-name="Group 3009" transform="translate(2612.961 -4954.627)">
      <path id="Path_10749" data-name="Path 10749" d="M2657.141-4498.264a1.145,1.145,0,0,1-1.089-.794,1.144,1.144,0,0,1,.74-1.439l12.545-4.029,4.186-10.556a1.147,1.147,0,0,1,.485-.565l14.013-8.2a1.143,1.143,0,0,1,1.565.41,1.144,1.144,0,0,1-.41,1.565l-13.672,8-4.239,10.691a1.145,1.145,0,0,1-.713.668l-13.06,4.194A1.149,1.149,0,0,1,2657.141-4498.264Z" transform="translate(-2655.997 4524.002)" fill="#2c2c2c"/>
    </g>
    <g id="Group_3010" data-name="Group 3010" transform="translate(2638.148 -4955.363)">
      <path id="Path_10750" data-name="Path 10750" d="M2925.109-4522.531a1.139,1.139,0,0,1-.467-.1,1.144,1.144,0,0,1-.577-1.512l2.219-4.961-5-.335a1.144,1.144,0,0,1-1.065-1.218,1.143,1.143,0,0,1,1.218-1.064l6.639.445a1.146,1.146,0,0,1,.9.552,1.145,1.145,0,0,1,.064,1.057l-2.89,6.46A1.144,1.144,0,0,1,2925.109-4522.531Z" transform="translate(-2920.216 4531.724)" fill="#2c2c2c"/>
    </g>
    <g id="Group_3011" data-name="Group 3011" transform="translate(2615.798 -4974.608)">
      <path id="Path_10751" data-name="Path 10751" d="M2709.25-4731.333H2686.9a1.144,1.144,0,0,1-1.144-1.144,1.144,1.144,0,0,1,1.144-1.144h22.35a1.144,1.144,0,0,1,1.144,1.144A1.144,1.144,0,0,1,2709.25-4731.333Z" transform="translate(-2685.757 4733.621)" fill="#2c2c2c"/>
    </g>
    <g id="Group_3012" data-name="Group 3012" transform="translate(2615.798 -4966.696)">
      <path id="Path_10752" data-name="Path 10752" d="M2699.718-4648.333H2686.9a1.144,1.144,0,0,1-1.144-1.144,1.144,1.144,0,0,1,1.144-1.144h12.817a1.144,1.144,0,0,1,1.144,1.144A1.144,1.144,0,0,1,2699.718-4648.333Z" transform="translate(-2685.757 4650.621)" fill="#2c2c2c"/>
    </g>
  </g>
</svg>
