<svg id="Info" xmlns="http://www.w3.org/2000/svg" xmlns:xlink="http://www.w3.org/1999/xlink" width="20" height="20" viewBox="0 0 20 20">
  <defs>
    <clipPath id="clip-path">
      <rect id="Rectangle_3791" data-name="Rectangle 3791" width="20" height="20" fill="#8a8a8a"/>
    </clipPath>
  </defs>
  <g id="Group_7079" data-name="Group 7079" clip-path="url(#clip-path)">
    <path id="Path_22724" data-name="Path 22724" d="M9.831,19.662a9.831,9.831,0,1,1,9.831-9.831,9.842,9.842,0,0,1-9.831,9.831m0-18.111a8.28,8.28,0,1,0,8.28,8.28,8.289,8.289,0,0,0-8.28-8.28" transform="translate(0 0)" fill="#8a8a8a"/>
    <path id="Path_22725" data-name="Path 22725" d="M12.45,17.355a.776.776,0,0,1-.776-.776V11.116a.776.776,0,1,1,1.551,0V16.58a.776.776,0,0,1-.776.776" transform="translate(-2.619 -2.319)" fill="#8a8a8a"/>
    <path id="Path_22726" data-name="Path 22726" d="M12.45,8.794A.779.779,0,1,1,13.225,8v.015a.776.776,0,0,1-.776.776" transform="translate(-2.619 -1.623)" fill="#8a8a8a"/>
  </g>
</svg>
