<svg xmlns="http://www.w3.org/2000/svg" width="79.665" height="76" viewBox="0 0 79.665 76">
  <g id="lowest-price" transform="translate(-2541.407 -2827)">
    <g id="Group_2948" data-name="Group 2948" transform="translate(2580.404 2839.944)">
      <path id="Path_10700" data-name="Path 10700" d="M1767.514-4789.88a31.539,31.539,0,0,1-9.14-1.346l.666-2.2a29.245,29.245,0,0,0,8.474,1.247,29.261,29.261,0,0,0,29.228-29.228,29.261,29.261,0,0,0-29.228-29.228,29.251,29.251,0,0,0-8.394,1.223l-.659-2.2a31.554,31.554,0,0,1,9.053-1.319,31.322,31.322,0,0,1,22.293,9.234,31.321,31.321,0,0,1,9.234,22.293,31.321,31.321,0,0,1-9.234,22.293A31.322,31.322,0,0,1,1767.514-4789.88Z" transform="translate(-1758.374 4852.936)" fill="#2c2c2c"/>
    </g>
    <g id="Group_2947" data-name="Group 2947" transform="translate(2541.407 2839.944)">
      <path id="Path_10699" data-name="Path 10699" d="M1383-4789.88a31.322,31.322,0,0,1-22.294-9.234,31.321,31.321,0,0,1-9.234-22.293,31.321,31.321,0,0,1,9.234-22.293,31.322,31.322,0,0,1,22.294-9.234,31.322,31.322,0,0,1,22.293,9.234,31.321,31.321,0,0,1,9.234,22.293,31.321,31.321,0,0,1-9.234,22.293A31.322,31.322,0,0,1,1383-4789.88Zm0-60.755a29.261,29.261,0,0,0-29.228,29.228A29.261,29.261,0,0,0,1383-4792.181a29.261,29.261,0,0,0,29.228-29.228A29.261,29.261,0,0,0,1383-4850.636Z" transform="translate(-1351.469 4852.936)" fill="#2c2c2c"/>
    </g>
    <g id="Group_2949" data-name="Group 2949" transform="translate(2579.966 2827)">
      <path id="Path_10701" data-name="Path 10701" d="M1755.2-4979.277a1.15,1.15,0,0,1-1.148-1.106l-.246-6.422a1.15,1.15,0,0,1,1.105-1.193,1.149,1.149,0,0,1,1.193,1.1l.246,6.423a1.15,1.15,0,0,1-1.105,1.193Z" transform="translate(-1753.805 4988)" fill="#2c2c2c"/>
    </g>
    <g id="Group_2950" data-name="Group 2950" transform="translate(2591.869 2827.625)">
      <path id="Path_10702" data-name="Path 10702" d="M1879.152-4974a1.147,1.147,0,0,1-.682-.225,1.151,1.151,0,0,1-.243-1.608l3.816-5.172a1.15,1.15,0,0,1,1.608-.243,1.15,1.15,0,0,1,.243,1.608l-3.816,5.172A1.15,1.15,0,0,1,1879.152-4974Z" transform="translate(-1878.002 4981.478)" fill="#2c2c2c"/>
    </g>
    <g id="Group_2951" data-name="Group 2951" transform="translate(2564.494 2827.625)">
      <path id="Path_10703" data-name="Path 10703" d="M1597.329-4974a1.148,1.148,0,0,1-.926-.467l-3.816-5.172a1.15,1.15,0,0,1,.243-1.608,1.151,1.151,0,0,1,1.608.243l3.816,5.172a1.15,1.15,0,0,1-.243,1.608A1.147,1.147,0,0,1,1597.329-4974Z" transform="translate(-1592.362 4981.477)" fill="#2c2c2c"/>
    </g>
    <g id="Group_2955" data-name="Group 2955" transform="translate(2565.395 2855.029)">
      <g id="Group_2952" data-name="Group 2952" transform="translate(0 3.561)">
        <path id="Path_10704" data-name="Path 10704" d="M1609.407-4632.2a7.936,7.936,0,0,1-4.668-1.548,8.173,8.173,0,0,1-2.91-3.825,1.151,1.151,0,0,1,.7-1.469,1.151,1.151,0,0,1,1.469.7,5.919,5.919,0,0,0,5.411,3.844,4.861,4.861,0,0,0,5.135-5.135c0-2.256-1.807-3.781-5.372-4.531-4.373-.921-7.2-3.747-7.2-7.2,0-3.2,1.29-7.016,7.435-7.016a7.663,7.663,0,0,1,4.632,1.484,7.5,7.5,0,0,1,2.692,3.933,1.15,1.15,0,0,1-.777,1.429,1.15,1.15,0,0,1-1.429-.777,5.146,5.146,0,0,0-5.118-3.769c-3.6,0-5.135,1.411-5.135,4.716,0,2.32,2.109,4.263,5.372,4.95a11.245,11.245,0,0,1,5.157,2.3,5.811,5.811,0,0,1,2.041,4.478,7.461,7.461,0,0,1-2.091,5.344A7.461,7.461,0,0,1,1609.407-4632.2Z" transform="translate(-1601.762 4658.381)" fill="#2c2c2c"/>
      </g>
      <g id="Group_2953" data-name="Group 2953" transform="translate(6.285 0)">
        <path id="Path_10705" data-name="Path 10705" d="M1668.494-4690.309a1.15,1.15,0,0,1-1.15-1.15v-2.933a1.15,1.15,0,0,1,1.15-1.15,1.15,1.15,0,0,1,1.15,1.15v2.933A1.15,1.15,0,0,1,1668.494-4690.309Z" transform="translate(-1667.344 4695.542)" fill="#2c2c2c"/>
      </g>
      <g id="Group_2954" data-name="Group 2954" transform="translate(6.285 27.654)">
        <path id="Path_10706" data-name="Path 10706" d="M1668.494-4401.764a1.15,1.15,0,0,1-1.15-1.15v-2.933a1.15,1.15,0,0,1,1.15-1.15,1.15,1.15,0,0,1,1.15,1.15v2.933A1.15,1.15,0,0,1,1668.494-4401.764Z" transform="translate(-1667.344 4406.997)" fill="#2c2c2c"/>
      </g>
    </g>
  </g>
</svg>
