<svg xmlns="http://www.w3.org/2000/svg" width="268.354" height="33" viewBox="0 0 268.354 33">
  <g id="Group_6367" data-name="Group 6367" transform="translate(-800 -1928)">
    <rect id="Rectangle_5" data-name="Rectangle 5" width="251" height="33" transform="translate(800 1928)" fill="none"/>
    <g id="Group_8" data-name="Group 8" transform="translate(767 1453)">
      <g id="Layer_7" data-name="Layer 7" transform="translate(33 475)">
        <path id="Path_1" data-name="Path 1" d="M8175.49,6916.62l-7.161-12.4a4.1,4.1,0,0,1,0-4.1l7.161-12.4a4.1,4.1,0,0,1,3.548-2.049h14.321a4.1,4.1,0,0,1,3.549,2.049l7.16,12.4a4.1,4.1,0,0,1,0,4.1l-7.16,12.4a4.1,4.1,0,0,1-3.549,2.049h-14.321A4.1,4.1,0,0,1,8175.49,6916.62Z" transform="translate(-8167.78 -6885.669)" fill="#ff8b00"/>
      </g>
      <g id="Layer_6" data-name="Layer 6" transform="translate(34.588 476.422)">
        <path id="Path_2" data-name="Path 2" d="M8180.34,6918.892l-6.543-11.333a3.744,3.744,0,0,1,0-3.744l6.543-11.333a3.743,3.743,0,0,1,3.243-1.873h13.087a3.742,3.742,0,0,1,3.242,1.873l6.543,11.333a3.744,3.744,0,0,1,0,3.744l-6.543,11.333a3.743,3.743,0,0,1-3.242,1.873h-13.087A3.744,3.744,0,0,1,8180.34,6918.892Z" transform="translate(-8173.295 -6890.609)" fill="#242223"/>
      </g>
      <g id="Layer_2" data-name="Layer 2" transform="translate(49.311 482.175)">
        <path id="Path_3" data-name="Path 3" d="M8228.65,6929.557h-4.215l8.8-18.965h4.214Z" transform="translate(-8224.436 -6910.591)" fill="#ff8b00"/>
      </g>
      <g id="Layer_3" data-name="Layer 3" transform="translate(58.162 482.175)">
        <rect id="Rectangle_1" data-name="Rectangle 1" width="4.214" height="18.965" fill="#ffa233"/>
      </g>
      <g id="Layer_4" data-name="Layer 4" transform="translate(40.461 482.175)">
        <path id="Path_4" data-name="Path 4" d="M8206.779,6929.557h-4.214l-8.87-18.965h4.215Z" transform="translate(-8193.695 -6910.591)" fill="#ffa233"/>
      </g>
      <g id="Layer_5" data-name="Layer 5" transform="translate(40.461 482.175)">
        <rect id="Rectangle_2" data-name="Rectangle 2" width="4.214" height="18.965" fill="#ff8b00"/>
      </g>
    </g>
    <g id="Group_6357" data-name="Group 6357" transform="translate(0 -7)">
      <g id="Group_28" data-name="Group 28" transform="translate(839.304 1937)">
        <path id="Path_80" data-name="Path 80" d="M162.266,17.211c-.084-1.828-.189-4.034-.168-5.947h-.063c-.462,1.723-1.051,3.635-1.681,5.421l-2.059,6.136h-2l-1.891-6.052c-.546-1.807-1.051-3.74-1.429-5.505h-.042c-.063,1.849-.147,4.1-.252,6.031l-.315,5.694h-2.416L150.9,8.827h3.4l1.849,5.695c.5,1.66.945,3.341,1.3,4.917h.063c.378-1.534.862-3.278,1.408-4.938l1.954-5.674h3.362l.82,14.163h-2.522Z" transform="translate(-148.958 -8.596)" fill="#fff"/>
        <path id="Path_81" data-name="Path 81" d="M216.167,22.99v-5.9l-4.475-8.258h2.942l1.7,3.635c.483,1.05.84,1.849,1.219,2.816h.042c.357-.9.756-1.786,1.24-2.816l1.7-3.635h2.921l-4.707,8.2V22.99Z" transform="translate(-194.224 -8.596)" fill="#fff"/>
        <path id="Path_82" data-name="Path 82" d="M277.947,18.976l-1.219,4.013h-2.669L278.6,8.827h3.3l4.6,14.163h-2.774l-1.282-4.013ZM282,17.022l-1.114-3.488c-.273-.861-.5-1.828-.715-2.647h-.042c-.21.819-.42,1.807-.672,2.647l-1.093,3.488Z" transform="translate(-239.664 -8.596)" fill="#fff"/>
        <path id="Path_83" data-name="Path 83" d="M326.287,19.538a7.153,7.153,0,0,0,3.425.9c1.66,0,2.584-.777,2.584-1.933,0-1.072-.714-1.7-2.522-2.354-2.332-.841-3.824-2.08-3.824-4.118,0-2.311,1.933-4.077,5-4.077a7.483,7.483,0,0,1,3.4.715l-.631,2.08a5.994,5.994,0,0,0-2.816-.673c-1.639,0-2.353.883-2.353,1.7,0,1.093.819,1.6,2.71,2.333,2.459.924,3.656,2.164,3.656,4.2,0,2.269-1.723,4.245-5.379,4.245a8.411,8.411,0,0,1-3.824-.883Z" transform="translate(-277.431 -7.96)" fill="#fff"/>
        <path id="Path_84" data-name="Path 84" d="M367.158,19.538a7.153,7.153,0,0,0,3.425.9c1.66,0,2.585-.777,2.585-1.933,0-1.072-.714-1.7-2.521-2.354-2.332-.841-3.824-2.08-3.824-4.118,0-2.311,1.933-4.077,5-4.077a7.483,7.483,0,0,1,3.4.715l-.631,2.08a5.994,5.994,0,0,0-2.816-.673c-1.639,0-2.353.883-2.353,1.7,0,1.093.819,1.6,2.71,2.333,2.459.924,3.656,2.164,3.656,4.2,0,2.269-1.723,4.245-5.379,4.245a8.411,8.411,0,0,1-3.824-.883Z" transform="translate(-307.306 -7.96)" fill="#fff"/>
        <rect id="Rectangle_16" data-name="Rectangle 16" width="2.585" height="14.163" transform="translate(70.896 0.231)" fill="#fff"/>
        <path id="Path_85" data-name="Path 85" d="M439.938,21.934a14.02,14.02,0,0,1-4.56.8,7.63,7.63,0,0,1-5.547-1.891,7.016,7.016,0,0,1-1.975-5.211c0-4.476,3.194-7.355,7.88-7.355a9.4,9.4,0,0,1,3.761.672l-.567,2.08a7.633,7.633,0,0,0-3.215-.609c-3.026,0-5.148,1.786-5.148,5.085,0,3.215,1.975,5.127,4.917,5.127a4.95,4.95,0,0,0,1.954-.294v-3.53h-2.5V14.769h5Z" transform="translate(-352.08 -8.192)" fill="#fff"/>
        <path id="Path_86" data-name="Path 86" d="M483.059,22.99V8.827H486l3.657,6.073a39,39,0,0,1,2.416,4.749h.042c-.168-1.891-.231-3.719-.231-5.884V8.827h2.4V22.99h-2.669l-3.7-6.22a49.425,49.425,0,0,1-2.542-4.9l-.063.021c.1,1.828.126,3.7.126,6.031V22.99Z" transform="translate(-392.434 -8.596)" fill="#fff"/>
        <path id="Path_87" data-name="Path 87" d="M547.269,17.211c-.084-1.828-.189-4.034-.168-5.947h-.063c-.462,1.723-1.051,3.635-1.681,5.421L543.3,22.822h-2L539.41,16.77c-.546-1.807-1.051-3.74-1.429-5.505h-.042c-.063,1.849-.147,4.1-.252,6.031l-.315,5.694h-2.416L535.9,8.827h3.4l1.849,5.695c.5,1.66.945,3.341,1.3,4.917h.063c.378-1.534.862-3.278,1.408-4.938l1.954-5.674h3.362l.82,14.163h-2.522Z" transform="translate(-430.351 -8.596)" fill="#fff"/>
        <path id="Path_88" data-name="Path 88" d="M609.341,16.706H604v4.161h5.968v2.122h-8.552V8.827h8.237v2.122H604v3.656h5.337Z" transform="translate(-478.964 -8.595)" fill="#fff"/>
        <path id="Path_89" data-name="Path 89" d="M641.976,22.99V8.827h2.942l3.657,6.073a38.994,38.994,0,0,1,2.416,4.749h.042c-.168-1.891-.231-3.719-.231-5.884V8.827h2.4V22.99h-2.669l-3.7-6.22a49.419,49.419,0,0,1-2.542-4.9l-.063.021c.1,1.828.126,3.7.126,6.031V22.99Z" transform="translate(-508.595 -8.596)" fill="#fff"/>
        <path id="Path_90" data-name="Path 90" d="M694.284,10.991h-4.034V8.827h10.7v2.164h-4.076v12h-2.585Z" transform="translate(-543.883 -8.596)" fill="#fff"/>
        <path id="Path_91" data-name="Path 91" d="M755.438,8.827V14.5h5.989V8.827h2.585V22.989h-2.585V16.749h-5.989v6.241h-2.585V8.827Z" transform="translate(-589.641 -8.596)" fill="#fff"/>
        <path id="Path_92" data-name="Path 92" d="M813.7,16.706h-5.337v4.161h5.968v2.122h-8.552V8.827h8.237v2.122h-5.653v3.656H813.7Z" transform="translate(-628.161 -8.595)" fill="#fff"/>
        <path id="Path_93" data-name="Path 93" d="M846.33,8.827h2.585v12h5.821v2.164H846.33Z" transform="translate(-657.895 -8.596)" fill="#fff"/>
        <path id="Path_94" data-name="Path 94" d="M885.154,8.727a22.435,22.435,0,0,1,3.95-.294,6.408,6.408,0,0,1,4.182,1.156,4,4,0,0,1,1.387,3.131,4.292,4.292,0,0,1-1.219,3.215,6.249,6.249,0,0,1-4.476,1.513,7.29,7.29,0,0,1-1.261-.084V22.7h-2.564Zm2.564,6.6a5.215,5.215,0,0,0,1.261.105c1.933,0,3.11-.946,3.11-2.606,0-1.576-1.093-2.417-2.879-2.417a7.141,7.141,0,0,0-1.492.126Z" transform="translate(-686.36 -8.433)" fill="#fff"/>
        <path id="Path_19478" data-name="Path 19478" d="M6.885-7.611H4.143V0H3.023V-7.611H.287v-.92h6.6ZM9.6-8.531,12.393-1.57l2.789-6.961h1.459V0H15.516V-3.322l.105-3.586L12.82,0h-.861L9.164-6.891l.111,3.568V0H8.15V-8.531Z" transform="translate(212.409 6.531)" fill="#fff"/>
      </g>
      <path id="Path_19473" data-name="Path 19473" d="M5.354-1.494l.93-4.549H7.325L5.931,0h-1L3.777-4.412,2.6,0H1.594L.2-6.043H1.241L2.179-1.5,3.333-6.043h.88Zm2.324-.793A2.648,2.648,0,0,1,7.94-3.476a1.91,1.91,0,0,1,.735-.813,2.07,2.07,0,0,1,1.087-.284,1.962,1.962,0,0,1,1.475.585,2.3,2.3,0,0,1,.612,1.552l0,.237A2.672,2.672,0,0,1,11.6-1.013a1.887,1.887,0,0,1-.73.809,2.085,2.085,0,0,1-1.1.286A1.948,1.948,0,0,1,8.249-.55a2.424,2.424,0,0,1-.571-1.687ZM8.687-2.2a1.809,1.809,0,0,0,.286,1.085.931.931,0,0,0,.8.392.921.921,0,0,0,.795-.4,2,2,0,0,0,.284-1.166,1.786,1.786,0,0,0-.293-1.079.934.934,0,0,0-.795-.4.926.926,0,0,0-.784.392A1.961,1.961,0,0,0,8.687-2.2Zm6.371-1.37a2.5,2.5,0,0,0-.411-.033.925.925,0,0,0-.934.531V0H12.7V-4.491h.963l.025.5A1.136,1.136,0,0,1,14.7-4.574a.944.944,0,0,1,.357.058ZM16.768,0H15.759V-6.375h1.009Zm.909-2.279a2.67,2.67,0,0,1,.481-1.666,1.543,1.543,0,0,1,1.291-.629,1.466,1.466,0,0,1,1.154.5v-2.3h1.009V0H20.7l-.05-.465A1.487,1.487,0,0,1,19.44.083a1.534,1.534,0,0,1-1.276-.635A2.768,2.768,0,0,1,17.677-2.279Zm1.009.087a1.869,1.869,0,0,0,.264,1.069.855.855,0,0,0,.749.384.952.952,0,0,0,.9-.552V-3.208a.938.938,0,0,0-.9-.54.861.861,0,0,0-.755.388A2.082,2.082,0,0,0,18.685-2.191Zm4.57-3.665-.108,1.623h-.66V-6.375h.768Zm2.98,4.636a.457.457,0,0,0-.222-.411,2.362,2.362,0,0,0-.737-.249,3.787,3.787,0,0,1-.859-.274,1.147,1.147,0,0,1-.755-1.058,1.2,1.2,0,0,1,.49-.971,1.936,1.936,0,0,1,1.245-.39,2.015,2.015,0,0,1,1.3.4,1.264,1.264,0,0,1,.5,1.033H26.185a.622.622,0,0,0-.216-.484.827.827,0,0,0-.573-.193.894.894,0,0,0-.542.154.484.484,0,0,0-.21.411.409.409,0,0,0,.2.361,2.682,2.682,0,0,0,.789.259,3.733,3.733,0,0,1,.932.311,1.319,1.319,0,0,1,.5.434,1.106,1.106,0,0,1,.164.614,1.17,1.17,0,0,1-.5.982,2.141,2.141,0,0,1-1.316.376,2.322,2.322,0,0,1-.984-.2,1.619,1.619,0,0,1-.672-.548,1.3,1.3,0,0,1-.241-.751h.979a.711.711,0,0,0,.27.55,1.048,1.048,0,0,0,.66.193,1.02,1.02,0,0,0,.606-.151A.469.469,0,0,0,26.235-1.22ZM35.112,0h-1.05L31.369-4.287V0h-1.05V-6.043h1.05l2.7,4.3v-4.3h1.042Zm.955-2.287a2.648,2.648,0,0,1,.261-1.189,1.91,1.91,0,0,1,.735-.813,2.07,2.07,0,0,1,1.087-.284,1.962,1.962,0,0,1,1.475.585,2.3,2.3,0,0,1,.612,1.552l0,.237a2.672,2.672,0,0,1-.255,1.187,1.887,1.887,0,0,1-.73.809,2.085,2.085,0,0,1-1.1.286A1.948,1.948,0,0,1,36.638-.55a2.424,2.424,0,0,1-.571-1.687Zm1.009.087a1.809,1.809,0,0,0,.286,1.085.931.931,0,0,0,.8.392.921.921,0,0,0,.795-.4,2,2,0,0,0,.284-1.166,1.786,1.786,0,0,0-.293-1.079.934.934,0,0,0-.795-.4.926.926,0,0,0-.784.392A1.961,1.961,0,0,0,37.075-2.2Zm4.648,1.137a.576.576,0,0,1,.436.16.555.555,0,0,1,.154.4.536.536,0,0,1-.154.392.585.585,0,0,1-.436.156A.587.587,0,0,1,41.3-.108.526.526,0,0,1,41.139-.5a.555.555,0,0,1,.154-.4A.571.571,0,0,1,41.724-1.062ZM46.136,0h-1V-4.855L43.65-4.35V-5.2l2.357-.867h.129Zm7.911-2.7H51.564V-.838h2.9V0H50.514V-6.043h3.922V-5.2H51.564v1.668h2.482ZM57.74-1.22a.457.457,0,0,0-.222-.411,2.362,2.362,0,0,0-.737-.249,3.787,3.787,0,0,1-.859-.274,1.147,1.147,0,0,1-.755-1.058,1.2,1.2,0,0,1,.49-.971,1.936,1.936,0,0,1,1.245-.39,2.015,2.015,0,0,1,1.3.4,1.264,1.264,0,0,1,.5,1.033H57.69a.622.622,0,0,0-.216-.484.827.827,0,0,0-.573-.193.894.894,0,0,0-.542.154.484.484,0,0,0-.21.411.409.409,0,0,0,.2.361,2.682,2.682,0,0,0,.789.259,3.733,3.733,0,0,1,.932.311,1.319,1.319,0,0,1,.5.434,1.106,1.106,0,0,1,.164.614,1.17,1.17,0,0,1-.5.982,2.141,2.141,0,0,1-1.316.376,2.322,2.322,0,0,1-.984-.2,1.619,1.619,0,0,1-.672-.548,1.3,1.3,0,0,1-.241-.751H56a.711.711,0,0,0,.27.55,1.048,1.048,0,0,0,.66.193,1.02,1.02,0,0,0,.606-.151A.469.469,0,0,0,57.74-1.22Zm4.387,0a.457.457,0,0,0-.222-.411,2.362,2.362,0,0,0-.737-.249,3.787,3.787,0,0,1-.859-.274,1.147,1.147,0,0,1-.755-1.058,1.2,1.2,0,0,1,.49-.971,1.936,1.936,0,0,1,1.245-.39,2.015,2.015,0,0,1,1.3.4,1.264,1.264,0,0,1,.5,1.033H62.077a.622.622,0,0,0-.216-.484.827.827,0,0,0-.573-.193.894.894,0,0,0-.542.154.484.484,0,0,0-.21.411.409.409,0,0,0,.2.361,2.682,2.682,0,0,0,.789.259,3.733,3.733,0,0,1,.932.311,1.319,1.319,0,0,1,.5.434,1.106,1.106,0,0,1,.164.614,1.17,1.17,0,0,1-.5.982A2.141,2.141,0,0,1,61.3.083a2.322,2.322,0,0,1-.984-.2,1.619,1.619,0,0,1-.672-.548,1.3,1.3,0,0,1-.241-.751h.979a.711.711,0,0,0,.27.55,1.048,1.048,0,0,0,.66.193,1.02,1.02,0,0,0,.606-.151A.469.469,0,0,0,62.127-1.22ZM66.68,0a1.556,1.556,0,0,1-.116-.419,1.57,1.57,0,0,1-1.179.5,1.584,1.584,0,0,1-1.1-.386,1.235,1.235,0,0,1-.427-.955,1.275,1.275,0,0,1,.533-1.1,2.585,2.585,0,0,1,1.525-.384h.618v-.295a.787.787,0,0,0-.2-.558.773.773,0,0,0-.594-.21.888.888,0,0,0-.564.172.533.533,0,0,0-.22.438H63.949a1.119,1.119,0,0,1,.245-.691,1.631,1.631,0,0,1,.666-.5,2.34,2.34,0,0,1,.94-.183,1.884,1.884,0,0,1,1.258.4,1.413,1.413,0,0,1,.481,1.114v2.025a2.3,2.3,0,0,0,.17.967V0ZM65.572-.726a1.147,1.147,0,0,0,.562-.145.97.97,0,0,0,.4-.39v-.847h-.544a1.487,1.487,0,0,0-.843.2.632.632,0,0,0-.282.552.589.589,0,0,0,.193.463A.747.747,0,0,0,65.572-.726ZM70.1-1.444l.913-3.046h1.075L70.308.681a1.451,1.451,0,0,1-1.395,1.133,1.8,1.8,0,0,1-.486-.075V.955l.191.012a.982.982,0,0,0,.575-.139A.921.921,0,0,0,69.5.362l.145-.386L68.066-4.491h1.087Zm4.524-.187a1.383,1.383,0,0,1,.228-.77,3.584,3.584,0,0,1,.9-.832,3.762,3.762,0,0,1-.492-.755,1.472,1.472,0,0,1-.139-.6,1.48,1.48,0,0,1,.432-1.123,1.611,1.611,0,0,1,1.162-.413,1.533,1.533,0,0,1,1.081.388,1.254,1.254,0,0,1,.421.961,1.324,1.324,0,0,1-.191.7,2.262,2.262,0,0,1-.627.633l-.411.3L78.16-1.772a2.41,2.41,0,0,0,.253-1.108h.876a3.019,3.019,0,0,1-.523,1.83L79.654,0h-1.17l-.34-.4A2.5,2.5,0,0,1,76.6.083a2.086,2.086,0,0,1-1.434-.475A1.576,1.576,0,0,1,74.628-1.631Zm2,.909a1.54,1.54,0,0,0,.955-.34l-1.32-1.556-.129.091a1.078,1.078,0,0,0-.5.863.906.906,0,0,0,.27.681A.993.993,0,0,0,76.629-.722Zm-.556-3.893a1.544,1.544,0,0,0,.427.876l.461-.315.129-.1a.747.747,0,0,0,.257-.585.536.536,0,0,0-.178-.4.634.634,0,0,0-.452-.168.592.592,0,0,0-.469.2A.735.735,0,0,0,76.073-4.615Zm9.745,3.208H83.477L82.987,0H81.9l2.283-6.043h.942L87.407,0h-1.1Zm-2.046-.847h1.751L84.647-4.76Zm6.74,1.033a.457.457,0,0,0-.222-.411,2.362,2.362,0,0,0-.737-.249,3.787,3.787,0,0,1-.859-.274,1.147,1.147,0,0,1-.755-1.058,1.2,1.2,0,0,1,.49-.971,1.936,1.936,0,0,1,1.245-.39,2.015,2.015,0,0,1,1.3.4,1.264,1.264,0,0,1,.5,1.033H90.462a.622.622,0,0,0-.216-.484.827.827,0,0,0-.573-.193.894.894,0,0,0-.542.154.484.484,0,0,0-.21.411.409.409,0,0,0,.2.361,2.682,2.682,0,0,0,.789.259,3.733,3.733,0,0,1,.932.311,1.319,1.319,0,0,1,.5.434,1.106,1.106,0,0,1,.164.614,1.17,1.17,0,0,1-.5.982,2.141,2.141,0,0,1-1.316.376,2.322,2.322,0,0,1-.984-.2,1.619,1.619,0,0,1-.672-.548,1.3,1.3,0,0,1-.241-.751h.979a.711.711,0,0,0,.27.55,1.048,1.048,0,0,0,.66.193A1.02,1.02,0,0,0,90.3-.824.469.469,0,0,0,90.512-1.22Zm4.387,0a.457.457,0,0,0-.222-.411,2.362,2.362,0,0,0-.737-.249,3.787,3.787,0,0,1-.859-.274,1.147,1.147,0,0,1-.755-1.058,1.2,1.2,0,0,1,.49-.971,1.936,1.936,0,0,1,1.245-.39,2.015,2.015,0,0,1,1.3.4,1.264,1.264,0,0,1,.5,1.033H94.849a.622.622,0,0,0-.216-.484.827.827,0,0,0-.573-.193.894.894,0,0,0-.542.154.484.484,0,0,0-.21.411.409.409,0,0,0,.2.361,2.682,2.682,0,0,0,.789.259,3.733,3.733,0,0,1,.932.311,1.319,1.319,0,0,1,.5.434,1.106,1.106,0,0,1,.164.614,1.17,1.17,0,0,1-.5.982,2.141,2.141,0,0,1-1.316.376,2.322,2.322,0,0,1-.984-.2,1.619,1.619,0,0,1-.672-.548,1.3,1.3,0,0,1-.241-.751h.979a.711.711,0,0,0,.27.55,1.048,1.048,0,0,0,.66.193,1.02,1.02,0,0,0,.606-.151A.469.469,0,0,0,94.9-1.22ZM97.841,0H96.833V-4.491h1.009ZM96.771-5.657a.535.535,0,0,1,.147-.386.557.557,0,0,1,.421-.154.564.564,0,0,1,.423.154.531.531,0,0,1,.149.386.519.519,0,0,1-.149.38.568.568,0,0,1-.423.151.561.561,0,0,1-.421-.151A.523.523,0,0,1,96.771-5.657Zm1.992,3.378a2.626,2.626,0,0,1,.492-1.671,1.579,1.579,0,0,1,1.305-.625,1.479,1.479,0,0,1,1.208.535l.046-.452h.909V-.137a1.81,1.81,0,0,1-.55,1.395,2.1,2.1,0,0,1-1.484.51,2.392,2.392,0,0,1-.965-.205,1.715,1.715,0,0,1-.716-.537l.477-.606a1.441,1.441,0,0,0,1.146.552A1.114,1.114,0,0,0,101.423.7a1.042,1.042,0,0,0,.291-.8V-.4a1.485,1.485,0,0,1-1.162.486,1.575,1.575,0,0,1-1.289-.627A2.712,2.712,0,0,1,98.763-2.279Zm1,.087a1.808,1.808,0,0,0,.276,1.065.887.887,0,0,0,.766.388.971.971,0,0,0,.9-.523V-3.237a.957.957,0,0,0-.9-.51.891.891,0,0,0-.774.394A2.024,2.024,0,0,0,99.767-2.191Zm4.927-2.3.029.519a1.615,1.615,0,0,1,1.307-.6q1.4,0,1.428,1.606V0h-1.009V-2.909a.925.925,0,0,0-.185-.633.777.777,0,0,0-.6-.205.972.972,0,0,0-.909.552V0h-1.009V-4.491Zm4.74,0,.029.469a1.616,1.616,0,0,1,1.295-.552,1.241,1.241,0,0,1,1.233.689,1.593,1.593,0,0,1,1.378-.689,1.4,1.4,0,0,1,1.106.411,1.809,1.809,0,0,1,.371,1.212V0h-1.009V-2.922a.893.893,0,0,0-.187-.627.818.818,0,0,0-.618-.2.84.84,0,0,0-.562.185.974.974,0,0,0-.305.484l0,3.08H111.16V-2.955a.719.719,0,0,0-.809-.793.888.888,0,0,0-.859.494V0h-1.009V-4.491ZM117.859.083a2.087,2.087,0,0,1-1.554-.6,2.191,2.191,0,0,1-.6-1.608v-.125a2.7,2.7,0,0,1,.259-1.2,1.974,1.974,0,0,1,.728-.824,1.926,1.926,0,0,1,1.046-.295,1.763,1.763,0,0,1,1.417.585,2.475,2.475,0,0,1,.5,1.656v.407h-2.934a1.349,1.349,0,0,0,.371.88,1.115,1.115,0,0,0,.82.324,1.366,1.366,0,0,0,1.129-.56l.544.519a1.816,1.816,0,0,1-.72.625A2.254,2.254,0,0,1,117.859.083Zm-.12-3.847a.849.849,0,0,0-.67.291,1.506,1.506,0,0,0-.326.809h1.922v-.075a1.226,1.226,0,0,0-.27-.766A.843.843,0,0,0,117.738-3.764Zm3.64-.726.029.519a1.615,1.615,0,0,1,1.307-.6q1.4,0,1.428,1.606V0h-1.009V-2.909a.925.925,0,0,0-.185-.633.777.777,0,0,0-.6-.205.972.972,0,0,0-.909.552V0h-1.009V-4.491Zm5.055-1.092v1.092h.793v.747h-.793v2.507a.552.552,0,0,0,.1.371.471.471,0,0,0,.363.114,1.554,1.554,0,0,0,.353-.042v.78a2.484,2.484,0,0,1-.664.1q-1.162,0-1.162-1.282V-3.744h-.739v-.747h.739V-5.582ZM135.008,0h-1.046V-2.681h-2.7V0h-1.05V-6.043h1.05v2.515h2.7V-6.043h1.046Zm3.121.083a2.087,2.087,0,0,1-1.554-.6,2.191,2.191,0,0,1-.6-1.608v-.125a2.7,2.7,0,0,1,.259-1.2,1.974,1.974,0,0,1,.728-.824,1.926,1.926,0,0,1,1.046-.295,1.763,1.763,0,0,1,1.417.585,2.475,2.475,0,0,1,.5,1.656v.407H137a1.349,1.349,0,0,0,.371.88,1.115,1.115,0,0,0,.82.324,1.366,1.366,0,0,0,1.129-.56l.544.519a1.816,1.816,0,0,1-.72.625A2.254,2.254,0,0,1,138.129.083Zm-.12-3.847a.849.849,0,0,0-.67.291,1.506,1.506,0,0,0-.326.809h1.922v-.075a1.226,1.226,0,0,0-.27-.766A.843.843,0,0,0,138.009-3.764ZM141.786,0h-1.009V-6.375h1.009Zm5.03-2.2a2.674,2.674,0,0,1-.473,1.662,1.515,1.515,0,0,1-1.27.62A1.525,1.525,0,0,1,143.89-.4V1.727h-1.009V-4.491h.93l.042.457a1.481,1.481,0,0,1,1.208-.54,1.531,1.531,0,0,1,1.289.612,2.745,2.745,0,0,1,.467,1.7Zm-1-.087a1.873,1.873,0,0,0-.268-1.067.87.87,0,0,0-.766-.394.928.928,0,0,0-.888.51v1.992a.937.937,0,0,0,.9.523.869.869,0,0,0,.753-.388A2.062,2.062,0,0,0,145.812-2.287Zm8.683.32a2.182,2.182,0,0,1-.714,1.509,2.434,2.434,0,0,1-1.656.542,2.356,2.356,0,0,1-1.272-.342A2.247,2.247,0,0,1,150-1.233a3.512,3.512,0,0,1-.311-1.465v-.564a3.538,3.538,0,0,1,.3-1.507,2.283,2.283,0,0,1,.87-1,2.425,2.425,0,0,1,1.309-.353,2.336,2.336,0,0,1,1.61.542,2.263,2.263,0,0,1,.71,1.534h-1.046a1.493,1.493,0,0,0-.38-.94,1.255,1.255,0,0,0-.894-.288,1.226,1.226,0,0,0-1.052.5,2.5,2.5,0,0,0-.376,1.469v.536a2.654,2.654,0,0,0,.351,1.5,1.164,1.164,0,0,0,1.027.515,1.358,1.358,0,0,0,.93-.278,1.45,1.45,0,0,0,.394-.926Zm.652-.32a2.648,2.648,0,0,1,.261-1.189,1.91,1.91,0,0,1,.735-.813,2.07,2.07,0,0,1,1.087-.284,1.962,1.962,0,0,1,1.475.585,2.3,2.3,0,0,1,.612,1.552l0,.237a2.672,2.672,0,0,1-.255,1.187,1.887,1.887,0,0,1-.73.809,2.085,2.085,0,0,1-1.1.286,1.948,1.948,0,0,1-1.521-.633,2.424,2.424,0,0,1-.571-1.687Zm1.009.087a1.809,1.809,0,0,0,.286,1.085.931.931,0,0,0,.8.392.921.921,0,0,0,.795-.4,2,2,0,0,0,.284-1.166,1.786,1.786,0,0,0-.293-1.079.934.934,0,0,0-.795-.4.926.926,0,0,0-.784.392A1.961,1.961,0,0,0,156.154-2.2ZM160.8-1.062a.576.576,0,0,1,.436.16.555.555,0,0,1,.154.4.536.536,0,0,1-.154.392.585.585,0,0,1-.436.156.587.587,0,0,1-.427-.154.526.526,0,0,1-.158-.394.555.555,0,0,1,.154-.4A.571.571,0,0,1,160.8-1.062Zm6.379-.158a.457.457,0,0,0-.222-.411,2.362,2.362,0,0,0-.737-.249,3.787,3.787,0,0,1-.859-.274,1.147,1.147,0,0,1-.755-1.058,1.2,1.2,0,0,1,.49-.971,1.936,1.936,0,0,1,1.245-.39,2.015,2.015,0,0,1,1.3.4,1.264,1.264,0,0,1,.5,1.033h-1.009a.622.622,0,0,0-.216-.484.827.827,0,0,0-.573-.193.894.894,0,0,0-.542.154.484.484,0,0,0-.21.411.409.409,0,0,0,.2.361,2.682,2.682,0,0,0,.789.259,3.733,3.733,0,0,1,.932.311,1.319,1.319,0,0,1,.5.434,1.106,1.106,0,0,1,.164.614,1.17,1.17,0,0,1-.5.982,2.141,2.141,0,0,1-1.316.376,2.322,2.322,0,0,1-.984-.2,1.619,1.619,0,0,1-.672-.548,1.3,1.3,0,0,1-.241-.751h.979a.711.711,0,0,0,.27.55,1.048,1.048,0,0,0,.66.193,1.02,1.02,0,0,0,.606-.151A.469.469,0,0,0,167.182-1.22ZM170.125,0h-1.009V-4.491h1.009Zm-1.071-5.657a.535.535,0,0,1,.147-.386.557.557,0,0,1,.421-.154.564.564,0,0,1,.423.154.531.531,0,0,1,.149.386.519.519,0,0,1-.149.38.568.568,0,0,1-.423.151.561.561,0,0,1-.421-.151A.523.523,0,0,1,169.054-5.657Zm3.1,1.166.029.519a1.615,1.615,0,0,1,1.307-.6q1.4,0,1.428,1.606V0h-1.009V-2.909a.925.925,0,0,0-.185-.633.777.777,0,0,0-.6-.205.972.972,0,0,0-.909.552V0h-1.009V-4.491Zm5.636,3.769a.912.912,0,0,0,.627-.22.751.751,0,0,0,.266-.544h.95a1.481,1.481,0,0,1-.261.782,1.715,1.715,0,0,1-.664.575,1.979,1.979,0,0,1-.9.212,1.915,1.915,0,0,1-1.494-.61,2.42,2.42,0,0,1-.552-1.685v-.1a2.38,2.38,0,0,1,.548-1.641,1.9,1.9,0,0,1,1.494-.616,1.845,1.845,0,0,1,1.305.467,1.673,1.673,0,0,1,.529,1.226h-.95a.924.924,0,0,0-.264-.635.848.848,0,0,0-.629-.249.888.888,0,0,0-.755.355,1.811,1.811,0,0,0-.27,1.077v.162a1.841,1.841,0,0,0,.264,1.089A.887.887,0,0,0,177.794-.722Zm4.582.805a2.087,2.087,0,0,1-1.554-.6,2.191,2.191,0,0,1-.6-1.608v-.125a2.7,2.7,0,0,1,.259-1.2,1.974,1.974,0,0,1,.728-.824,1.926,1.926,0,0,1,1.046-.295,1.763,1.763,0,0,1,1.417.585,2.475,2.475,0,0,1,.5,1.656v.407h-2.934a1.349,1.349,0,0,0,.371.88,1.115,1.115,0,0,0,.82.324,1.366,1.366,0,0,0,1.129-.56l.544.519a1.816,1.816,0,0,1-.72.625A2.254,2.254,0,0,1,182.376.083Zm-.12-3.847a.849.849,0,0,0-.67.291,1.506,1.506,0,0,0-.326.809h1.922v-.075a1.226,1.226,0,0,0-.27-.766A.843.843,0,0,0,182.256-3.764ZM191.076,0h-4.063V-.693l2.013-2.2a5.012,5.012,0,0,0,.62-.811,1.315,1.315,0,0,0,.185-.654.993.993,0,0,0-.243-.7.842.842,0,0,0-.654-.266.971.971,0,0,0-.76.3,1.175,1.175,0,0,0-.27.818H186.9a1.977,1.977,0,0,1,.251-.994,1.729,1.729,0,0,1,.718-.687,2.285,2.285,0,0,1,1.077-.245,2.044,2.044,0,0,1,1.388.442,1.534,1.534,0,0,1,.508,1.222,2.074,2.074,0,0,1-.255.948,5.392,5.392,0,0,1-.836,1.127L188.27-.805h2.806Zm4.707-2.544a3.3,3.3,0,0,1-.488,1.965,1.722,1.722,0,0,1-1.484.662,1.745,1.745,0,0,1-1.475-.645,3.156,3.156,0,0,1-.508-1.911V-3.52a3.246,3.246,0,0,1,.488-1.955,1.738,1.738,0,0,1,1.488-.652,1.748,1.748,0,0,1,1.48.635,3.147,3.147,0,0,1,.5,1.9Zm-1.009-1.129a2.557,2.557,0,0,0-.232-1.247.793.793,0,0,0-.739-.4.793.793,0,0,0-.726.376,2.363,2.363,0,0,0-.245,1.172V-2.4a2.623,2.623,0,0,0,.237,1.262.8.8,0,0,0,.743.415.781.781,0,0,0,.718-.384,2.468,2.468,0,0,0,.245-1.2Zm5.84,1.129a3.3,3.3,0,0,1-.488,1.965,1.722,1.722,0,0,1-1.484.662,1.745,1.745,0,0,1-1.475-.645,3.156,3.156,0,0,1-.508-1.911V-3.52a3.246,3.246,0,0,1,.488-1.955,1.738,1.738,0,0,1,1.488-.652,1.748,1.748,0,0,1,1.48.635,3.147,3.147,0,0,1,.5,1.9ZM199.6-3.673a2.557,2.557,0,0,0-.232-1.247.793.793,0,0,0-.739-.4.793.793,0,0,0-.726.376,2.363,2.363,0,0,0-.245,1.172V-2.4a2.623,2.623,0,0,0,.237,1.262.8.8,0,0,0,.743.415.781.781,0,0,0,.718-.384,2.468,2.468,0,0,0,.245-1.2Zm5.923-1.81L203.112,0h-1.058l2.411-5.234H201.34v-.809h4.188Z" transform="translate(840 1965)" fill="#fff"/>
    </g>
  </g>
</svg>
