<svg xmlns="http://www.w3.org/2000/svg" xmlns:xlink="http://www.w3.org/1999/xlink" width="193.663" height="50.508" viewBox="0 0 193.663 50.508">
  <defs>
    <clipPath id="clip-path">
      <rect id="Rectangle_3761" data-name="Rectangle 3761" width="15.353" height="19.059" transform="translate(0 0)" fill="#fff" stroke="#707070" stroke-width="1"/>
    </clipPath>
  </defs>
  <g id="Group_9154" data-name="Group 9154" transform="translate(-3648 -813.492)">
    <text id="_4.9" data-name="4.9" transform="translate(3763.061 858.823)" fill="#2c2c2c" font-size="15" font-family="Poppins-Medium, Poppins" font-weight="500" letter-spacing="0.002em"><tspan x="0" y="0">4.9</tspan></text>
    <g id="Group_6817" data-name="Group 6817" transform="translate(3648 844.941)">
      <rect id="Rectangle_3759" data-name="Rectangle 3759" width="19.059" height="19.059" rx="4" transform="translate(0 0)" fill="#f16700"/>
      <path id="Path_22659" data-name="Path 22659" d="M14.345,18.057a.636.636,0,0,0-.226-.7l-2.467-1.842a.318.318,0,0,1,.19-.573h2.948a.636.636,0,0,0,.6-.436l1-3.022a.318.318,0,0,1,.6,0l1.012,3.025a.637.637,0,0,0,.6.434H21.57a.318.318,0,0,1,.191.572L19.3,17.368a.636.636,0,0,0-.224.7l.966,3.051a.318.318,0,0,1-.5.348l-2.458-1.887a.636.636,0,0,0-.777,0l-2.431,1.879a.318.318,0,0,1-.5-.347Z" transform="translate(-7.207 -7.122)" fill="#fff"/>
    </g>
    <g id="Group_6818" data-name="Group 6818" transform="translate(3669.883 844.941)">
      <rect id="Rectangle_3759-2" data-name="Rectangle 3759" width="19.059" height="19.059" rx="4" transform="translate(0 0)" fill="#f16700"/>
      <path id="Path_22659-2" data-name="Path 22659" d="M14.345,18.057a.636.636,0,0,0-.226-.7l-2.467-1.842a.318.318,0,0,1,.19-.573h2.948a.636.636,0,0,0,.6-.436l1-3.022a.318.318,0,0,1,.6,0l1.012,3.025a.637.637,0,0,0,.6.434H21.57a.318.318,0,0,1,.191.572L19.3,17.368a.636.636,0,0,0-.224.7l.966,3.051a.318.318,0,0,1-.5.348l-2.458-1.887a.636.636,0,0,0-.777,0l-2.431,1.879a.318.318,0,0,1-.5-.347Z" transform="translate(-7.108 -7.122)" fill="#fff"/>
    </g>
    <g id="Group_6819" data-name="Group 6819" transform="translate(3691.765 844.941)">
      <rect id="Rectangle_3759-3" data-name="Rectangle 3759" width="19.059" height="19.059" rx="4" transform="translate(0 0)" fill="#f16700"/>
      <path id="Path_22659-3" data-name="Path 22659" d="M14.345,18.057a.636.636,0,0,0-.226-.7l-2.467-1.842a.318.318,0,0,1,.19-.573h2.948a.636.636,0,0,0,.6-.436l1-3.022a.318.318,0,0,1,.6,0l1.012,3.025a.637.637,0,0,0,.6.434H21.57a.318.318,0,0,1,.191.572L19.3,17.368a.636.636,0,0,0-.224.7l.966,3.051a.318.318,0,0,1-.5.348l-2.458-1.887a.636.636,0,0,0-.777,0l-2.431,1.879a.318.318,0,0,1-.5-.347Z" transform="translate(-7.008 -7.122)" fill="#fff"/>
    </g>
    <g id="Group_6820" data-name="Group 6820" transform="translate(3714.354 844.941)">
      <rect id="Rectangle_3759-4" data-name="Rectangle 3759" width="18.353" height="19.059" rx="4" transform="translate(0 0)" fill="#f16700"/>
      <path id="Path_22659-4" data-name="Path 22659" d="M14.345,18.057a.636.636,0,0,0-.226-.7l-2.467-1.842a.318.318,0,0,1,.19-.573h2.948a.636.636,0,0,0,.6-.436l1-3.022a.318.318,0,0,1,.6,0l1.012,3.025a.637.637,0,0,0,.6.434H21.57a.318.318,0,0,1,.191.572L19.3,17.368a.636.636,0,0,0-.224.7l.966,3.051a.318.318,0,0,1-.5.348l-2.458-1.887a.636.636,0,0,0-.777,0l-2.431,1.879a.318.318,0,0,1-.5-.347Z" transform="translate(-7.615 -7.122)" fill="#fff"/>
    </g>
    <rect id="Rectangle_3759-5" data-name="Rectangle 3759" width="18.353" height="19.059" rx="4" transform="translate(3736.237 844.941)" fill="#c8c8c8"/>
    <g id="Mask_Group_534" data-name="Mask Group 534" transform="translate(3736.237 844.941)" clip-path="url(#clip-path)">
      <rect id="Rectangle_3760" data-name="Rectangle 3760" width="18.353" height="19.059" rx="4" transform="translate(0 0)" fill="#f16700"/>
    </g>
    <path id="Path_22659-5" data-name="Path 22659" d="M14.345,18.057a.636.636,0,0,0-.226-.7l-2.467-1.842a.318.318,0,0,1,.19-.573h2.948a.636.636,0,0,0,.6-.436l1-3.022a.318.318,0,0,1,.6,0l1.012,3.025a.637.637,0,0,0,.6.434H21.57a.318.318,0,0,1,.191.572L19.3,17.368a.636.636,0,0,0-.224.7l.966,3.051a.318.318,0,0,1-.5.348l-2.458-1.887a.636.636,0,0,0-.777,0l-2.431,1.879a.318.318,0,0,1-.5-.347Z" transform="translate(3728.721 837.819)" fill="#fff"/>
    <g id="Group_9153" data-name="Group 9153" transform="translate(42 56.492)">
      <g id="Group_9152" data-name="Group 9152" transform="translate(3606 757)">
        <g id="Layer_7" data-name="Layer 7">
          <path id="Path_1" data-name="Path 1" d="M5.632,22.416.4,13.435a2.94,2.94,0,0,1,0-2.969L5.632,1.485A3,3,0,0,1,8.224,0H18.689a3,3,0,0,1,2.594,1.485l5.224,8.981a2.951,2.951,0,0,1,0,2.969l-5.224,8.981A3,3,0,0,1,18.689,23.9H8.224a3,3,0,0,1-2.592-1.485Z" transform="translate(0.002 0)" fill="#ff8b00"/>
        </g>
        <g id="Layer_6" data-name="Layer 6" transform="translate(1.162 1.039)">
          <path id="Path_2" data-name="Path 2" d="M10.669,25.408l-4.784-8.2a2.686,2.686,0,0,1,0-2.708l4.784-8.2A2.74,2.74,0,0,1,13.04,4.94H22.6a2.74,2.74,0,0,1,2.377,1.354l4.782,8.2a2.686,2.686,0,0,1,0,2.708l-4.782,8.2a2.74,2.74,0,0,1-2.369,1.354H13.036A2.74,2.74,0,0,1,10.669,25.408Z" transform="translate(-5.518 -4.94)" fill="#2c2c2c"/>
        </g>
        <g id="Layer_2" data-name="Layer 2" transform="translate(11.921 5.136)">
          <path id="Path_3" data-name="Path 3" d="M59.738,38.781H56.66L63.088,24.92h3.08Z" transform="translate(-56.66 -24.92)" fill="#ff8b00"/>
        </g>
        <g id="Layer_3" data-name="Layer 3" transform="translate(18.387 5.136)">
          <rect id="Rectangle_1" data-name="Rectangle 1" width="3.08" height="13.859" fill="#ffa233"/>
        </g>
        <g id="Layer_4" data-name="Layer 4" transform="translate(5.452 5.136)">
          <path id="Path_4" data-name="Path 4" d="M35.472,38.781h-3.08L25.91,24.92h3.08Z" transform="translate(-25.91 -24.92)" fill="#ffa233"/>
        </g>
        <g id="Layer_5" data-name="Layer 5" transform="translate(5.452 5.136)">
          <rect id="Rectangle_2" data-name="Rectangle 2" width="3.08" height="13.859" fill="#ff8b00"/>
        </g>
      </g>
      <path id="Union_63" data-name="Union 63" d="M45.56,10.822l.457-1.691a5.644,5.644,0,0,0,2.7.713c1.308,0,2.039-.613,2.039-1.526,0-.842-.564-1.34-1.988-1.856-1.839-.662-3.015-1.639-3.015-3.246C45.752,1.395,47.275.01,49.7.01a5.888,5.888,0,0,1,2.693.556l-.5,1.638a4.738,4.738,0,0,0-2.237-.53c-1.292,0-1.856.7-1.856,1.342,0,.863.646,1.262,2.138,1.841,1.938.728,2.882,1.707,2.882,3.314,0,1.788-1.357,3.345-4.242,3.345A6.635,6.635,0,0,1,45.56,10.822Zm-8.59,0,.448-1.691a5.647,5.647,0,0,0,2.7.713c1.309,0,2.039-.613,2.039-1.526,0-.842-.563-1.34-1.988-1.856C38.33,5.8,37.153,4.824,37.153,3.217,37.153,1.395,38.676,0,41.1,0a5.883,5.883,0,0,1,2.685.564l-.5,1.638a4.74,4.74,0,0,0-2.22-.53c-1.292,0-1.856.7-1.856,1.342,0,.863.646,1.262,2.138,1.841,1.938.728,2.882,1.707,2.882,3.314,0,1.788-1.359,3.345-4.242,3.345A6.635,6.635,0,0,1,36.97,10.822Zm23.046-.845A5.531,5.531,0,0,1,58.46,5.868c0-3.531,2.525-5.8,6.213-5.8A7.362,7.362,0,0,1,67.637.6l-.446,1.639a6.019,6.019,0,0,0-2.535-.48,3.743,3.743,0,0,0-4.063,4.01,3.7,3.7,0,0,0,3.876,4.042,3.911,3.911,0,0,0,1.543-.232V6.8H64.043V5.188h3.943v5.649a11.059,11.059,0,0,1-3.6.631A6.014,6.014,0,0,1,60.017,9.977Zm77.953,1.394V.185h6.5V1.869h-4.456V4.751h4.208V6.4h-4.208V9.689h4.707v1.683Zm-42.994,0V.185h6.5V1.869H97.014V4.751h4.208V6.4H97.014V9.689h4.7v1.683Zm51.523-.01,0-11.176h2.034V9.653h4.589v1.709Zm-29.653,0V1.892h-3.181V.185H122.1V1.892h-3.213v9.467Zm-13.332-.006V.185h2.314l2.882,4.788a30.478,30.478,0,0,1,1.906,3.743h.034c-.133-1.49-.183-2.933-.183-4.639V.185h1.894V11.353h-2.115l-2.91-4.9a39.031,39.031,0,0,1-2.005-3.861l-.05.014c.084,1.444.1,2.916.1,4.757v4Zm-33.44,0V.185h2.314l2.885,4.788a30.907,30.907,0,0,1,1.9,3.743h.037c-.132-1.49-.183-2.933-.183-4.639V.185h1.894V11.353h-2.1l-2.92-4.9A39.029,39.029,0,0,1,71.9,2.588l-.049.014c.082,1.444.1,2.916.1,4.757v4Zm63.526,0V6.432h-4.725v4.921h-2.039V.185h2.039V4.658H133.6V.185h2.039V11.353Zm-42.683,0L90.7,6.8c-.065-1.441-.149-3.181-.133-4.689H90.52c-.367,1.359-.829,2.867-1.326,4.275L87.57,11.22H86L84.5,6.449c-.421-1.427-.829-2.946-1.128-4.342h-.032c-.05,1.458-.116,3.231-.2,4.755l-.25,4.492H81L81.738.185h2.685L85.88,4.675c.4,1.309.744,2.634,1.026,3.877h.049c.3-1.209.68-2.585,1.111-3.894L89.608.185h2.649l.648,11.167Zm-36.252,0V.185H56.7V11.353Zm-38.157,0V6.7L12.979.185h2.314l1.343,2.865c.38.829.662,1.458.959,2.22h.034c.282-.712.6-1.407.979-2.22L19.949.185h2.3L18.546,6.646v4.707Zm-6.594,0L9.7,6.8c-.067-1.441-.149-3.181-.133-4.689h-.05c-.364,1.359-.827,2.867-1.325,4.275L6.568,11.22H4.992L3.5,6.449C3.072,5.022,2.674,3.5,2.375,2.106H2.342c-.049,1.458-.116,3.231-.2,4.755l-.25,4.492H0L.736.185H3.419L4.877,4.675c.4,1.309.746,2.634,1.028,3.877h.049c.3-1.209.68-2.585,1.111-3.894L8.605.185h2.651L11.9,11.353Zm23.81-.011L32.712,8.186H29.167l-.961,3.156H26.1L29.678.175h2.6l3.629,11.167ZM30.36,3.9,29.5,6.646h2.868l-.88-2.75c-.21-.68-.4-1.441-.562-2.089H30.89C30.724,2.456,30.557,3.234,30.36,3.9ZM154.679,11.34,154.67.335A17.625,17.625,0,0,1,157.794.1a5.051,5.051,0,0,1,3.3.913,3.155,3.155,0,0,1,1.094,2.468,3.362,3.362,0,0,1-.961,2.525A4.928,4.928,0,0,1,157.7,7.2a5.658,5.658,0,0,1-.995-.067V11.34Zm2.013-9.571V5.536a4.052,4.052,0,0,0,1,.084c1.523,0,2.451-.747,2.451-2.055,0-1.241-.861-1.894-2.27-1.894h-.124A5.564,5.564,0,0,0,156.692,1.77Z" transform="translate(3637.476 763.192)" fill="#2c2c2c"/>
    </g>
  </g>
</svg>
