<svg xmlns="http://www.w3.org/2000/svg" width="257" height="118" viewBox="0 0 257 118">
  <g id="Group_6365" data-name="Group 6365" transform="translate(-833 -2158)">
    <rect id="Rectangle_3" data-name="Rectangle 3" width="257" height="118" transform="translate(833 2158)" fill="none"/>
    <g id="Group_4" data-name="Group 4" transform="translate(893 1688)">
      <g id="Layer_7" data-name="Layer 7" transform="translate(33 475)">
        <path id="Path_1" data-name="Path 1" d="M8182.444,6944.537l-13.619-23.589a7.792,7.792,0,0,1,0-7.794l13.619-23.589a7.793,7.793,0,0,1,6.749-3.9h27.239a7.8,7.8,0,0,1,6.749,3.9l13.619,23.589a7.8,7.8,0,0,1,0,7.794l-13.619,23.589a7.8,7.8,0,0,1-6.749,3.9h-27.239A7.793,7.793,0,0,1,8182.444,6944.537Z" transform="translate(-8167.781 -6885.669)" fill="#ff8b00"/>
      </g>
      <g id="Layer_6" data-name="Layer 6" transform="translate(36.02 477.705)">
        <path id="Path_2" data-name="Path 2" d="M8186.695,6944.4l-12.445-21.556a7.12,7.12,0,0,1,0-7.122l12.445-21.556a7.122,7.122,0,0,1,6.168-3.561h24.891a7.12,7.12,0,0,1,6.166,3.561l12.445,21.556a7.125,7.125,0,0,1,0,7.122L8223.92,6944.4a7.12,7.12,0,0,1-6.166,3.561h-24.891A7.122,7.122,0,0,1,8186.695,6944.4Z" transform="translate(-8173.296 -6890.609)" fill="#242223"/>
      </g>
      <g id="Layer_2" data-name="Layer 2" transform="translate(64.024 488.647)">
        <path id="Path_3" data-name="Path 3" d="M8232.452,6946.663h-8.017l16.733-36.071h8.016Z" transform="translate(-8224.436 -6910.591)" fill="#ff8b00"/>
      </g>
      <g id="Layer_3" data-name="Layer 3" transform="translate(80.857 488.647)">
        <rect id="Rectangle_1" data-name="Rectangle 1" width="8.016" height="36.071" transform="translate(0)" fill="#ffa233"/>
      </g>
      <g id="Layer_4" data-name="Layer 4" transform="translate(47.191 488.647)">
        <path id="Path_4" data-name="Path 4" d="M8218.582,6946.663h-8.017l-16.87-36.071h8.016Z" transform="translate(-8193.695 -6910.591)" fill="#ffa233"/>
      </g>
      <g id="Layer_5" data-name="Layer 5" transform="translate(47.191 488.647)">
        <rect id="Rectangle_2" data-name="Rectangle 2" width="8.016" height="36.071" fill="#ff8b00"/>
      </g>
    </g>
    <g id="Group_6360" data-name="Group 6360" transform="translate(-93.199 -146)">
      <g id="Group_6357" data-name="Group 6357" transform="translate(927.199 2382)">
        <g id="Group_28" data-name="Group 28" transform="translate(0.122)">
          <path id="Path_80" data-name="Path 80" d="M165.079,19.126c-.1-2.246-.232-4.956-.206-7.305h-.077c-.568,2.117-1.291,4.466-2.065,6.66l-2.53,7.537h-2.452l-2.323-7.434c-.671-2.22-1.291-4.594-1.755-6.763h-.051c-.077,2.272-.181,5.034-.31,7.408l-.387,6.995h-2.968l1.161-17.4H155.3l2.272,7c.619,2.039,1.161,4.1,1.6,6.04h.077c.465-1.884,1.058-4.027,1.73-6.066l2.4-6.969h4.13l1.007,17.4h-3.1Z" transform="translate(-149.953 -8.543)" fill="#2c2c2c"/>
          <path id="Path_81" data-name="Path 81" d="M217.19,26.225V18.971l-5.5-10.144h3.614l2.091,4.466c.593,1.29,1.032,2.271,1.5,3.459h.051c.439-1.11.929-2.194,1.523-3.459l2.091-4.466h3.588l-5.782,10.067v7.331Z" transform="translate(-191.456 -8.543)" fill="#2c2c2c"/>
          <path id="Path_82" data-name="Path 82" d="M278.835,21.294l-1.5,4.93h-3.278l5.576-17.4h4.052l5.653,17.4h-3.408l-1.575-4.93Zm4.982-2.4-1.368-4.285c-.336-1.058-.62-2.246-.878-3.252h-.051c-.258,1.007-.516,2.22-.826,3.252l-1.342,4.285Z" transform="translate(-233.029 -8.543)" fill="#2c2c2c"/>
          <path id="Path_83" data-name="Path 83" d="M326.416,22.183a8.787,8.787,0,0,0,4.207,1.11c2.039,0,3.175-.955,3.175-2.374,0-1.317-.878-2.091-3.1-2.891-2.865-1.032-4.7-2.555-4.7-5.059,0-2.839,2.375-5.008,6.143-5.008a9.192,9.192,0,0,1,4.182.878l-.775,2.556a7.363,7.363,0,0,0-3.459-.826c-2.013,0-2.891,1.084-2.891,2.091,0,1.342,1.007,1.962,3.33,2.865,3.02,1.135,4.491,2.659,4.491,5.162,0,2.788-2.117,5.214-6.608,5.214a10.332,10.332,0,0,1-4.7-1.084Z" transform="translate(-267.623 -7.96)" fill="#2c2c2c"/>
          <path id="Path_84" data-name="Path 84" d="M367.287,22.183a8.787,8.787,0,0,0,4.207,1.11c2.039,0,3.175-.955,3.175-2.374,0-1.317-.877-2.091-3.1-2.891-2.865-1.032-4.7-2.555-4.7-5.059,0-2.839,2.375-5.008,6.143-5.008a9.192,9.192,0,0,1,4.182.878l-.775,2.556a7.363,7.363,0,0,0-3.459-.826c-2.013,0-2.891,1.084-2.891,2.091,0,1.342,1.007,1.962,3.329,2.865,3.02,1.135,4.492,2.659,4.492,5.162,0,2.788-2.117,5.214-6.608,5.214a10.332,10.332,0,0,1-4.7-1.084Z" transform="translate(-294.987 -7.96)" fill="#2c2c2c"/>
          <rect id="Rectangle_16" data-name="Rectangle 16" width="3.175" height="17.398" transform="translate(85.868 0.284)" fill="#2c2c2c"/>
          <path id="Path_85" data-name="Path 85" d="M442.7,25.054a17.222,17.222,0,0,1-5.6.981,9.373,9.373,0,0,1-6.814-2.323,8.619,8.619,0,0,1-2.426-6.4c0-5.5,3.923-9.034,9.68-9.034a11.548,11.548,0,0,1,4.621.826l-.7,2.555a9.376,9.376,0,0,0-3.949-.748c-3.717,0-6.324,2.194-6.324,6.246,0,3.949,2.426,6.3,6.04,6.3a6.08,6.08,0,0,0,2.4-.362V18.756h-3.071v-2.5H442.7Z" transform="translate(-335.994 -8.172)" fill="#2c2c2c"/>
          <path id="Path_86" data-name="Path 86" d="M483.059,26.225V8.827h3.614l4.492,7.46a47.906,47.906,0,0,1,2.968,5.834h.052c-.207-2.323-.284-4.569-.284-7.227V8.827h2.943v17.4h-3.278l-4.543-7.64A60.711,60.711,0,0,1,485.9,12.57l-.077.026c.129,2.246.155,4.543.155,7.408v6.221Z" transform="translate(-372.956 -8.543)" fill="#2c2c2c"/>
          <path id="Path_87" data-name="Path 87" d="M550.082,19.126c-.1-2.246-.232-4.956-.206-7.305H549.8c-.568,2.117-1.291,4.466-2.065,6.66l-2.53,7.537h-2.452l-2.323-7.434c-.671-2.22-1.291-4.594-1.755-6.763h-.052c-.077,2.272-.181,5.034-.31,7.408l-.387,6.995h-2.968l1.161-17.4H540.3l2.272,7c.62,2.039,1.161,4.1,1.6,6.04h.077c.465-1.884,1.058-4.027,1.73-6.066l2.4-6.969h4.13l1.007,17.4h-3.1Z" transform="translate(-407.68 -8.543)" fill="#2c2c2c"/>
          <path id="Path_88" data-name="Path 88" d="M611.151,18.506h-6.556v5.111h7.331v2.607H601.419V8.827h10.119v2.607h-6.944v4.491h6.556Z" transform="translate(-452.215 -8.543)" fill="#2c2c2c"/>
          <path id="Path_89" data-name="Path 89" d="M641.976,26.225V8.827h3.614l4.492,7.46a47.9,47.9,0,0,1,2.968,5.834h.052c-.207-2.323-.284-4.569-.284-7.227V8.827h2.943v17.4h-3.278l-4.543-7.64a60.692,60.692,0,0,1-3.123-6.014l-.077.026c.129,2.246.155,4.543.155,7.408v6.221Z" transform="translate(-479.35 -8.543)" fill="#2c2c2c"/>
          <path id="Path_90" data-name="Path 90" d="M695.205,11.486h-4.956V8.827h13.138v2.659H698.38V26.225h-3.175Z" transform="translate(-511.673 -8.543)" fill="#2c2c2c"/>
          <path id="Path_91" data-name="Path 91" d="M756.028,8.827V15.8h7.357V8.827h3.175v17.4h-3.175V18.558h-7.357v7.666h-3.175V8.827Z" transform="translate(-553.583 -8.543)" fill="#2c2c2c"/>
          <path id="Path_92" data-name="Path 92" d="M815.505,18.506h-6.556v5.111h7.331v2.607H805.774V8.827h10.119v2.607h-6.944v4.491h6.556Z" transform="translate(-588.814 -8.543)" fill="#2c2c2c"/>
          <path id="Path_93" data-name="Path 93" d="M846.33,8.827h3.175V23.566h7.15v2.659H846.33Z" transform="translate(-616.076 -8.543)" fill="#2c2c2c"/>
          <path id="Path_94" data-name="Path 94" d="M885.154,8.794a27.56,27.56,0,0,1,4.853-.361,7.872,7.872,0,0,1,5.137,1.42,4.914,4.914,0,0,1,1.7,3.846,5.273,5.273,0,0,1-1.5,3.949,7.676,7.676,0,0,1-5.5,1.858,8.957,8.957,0,0,1-1.549-.1V25.96h-3.149ZM888.3,16.9a6.406,6.406,0,0,0,1.549.129c2.375,0,3.82-1.162,3.82-3.2,0-1.936-1.342-2.969-3.536-2.969a8.773,8.773,0,0,0-1.833.155Z" transform="translate(-642.175 -8.278)" fill="#2c2c2c"/>
          <path id="Path_19479" data-name="Path 19479" d="M6.885-7.611H4.143V0H3.023V-7.611H.287v-.92h6.6ZM9.6-8.531,12.393-1.57l2.789-6.961h1.459V0H15.516V-3.322l.105-3.586L12.82,0h-.861L9.164-6.891l.111,3.568V0H8.15V-8.531Z" transform="translate(153.591 -64.469)"/>
        </g>
        <path id="Path_19473" data-name="Path 19473" d="M6.531-.379,7.673-5.967h1.28L7.24,1.456H6.006L4.594-3.963,3.151,1.456H1.912L.2-5.967h1.28L2.631-.389,4.049-5.967H5.129Zm2.855-.974a3.253,3.253,0,0,1,.321-1.461,2.346,2.346,0,0,1,.9-1,2.543,2.543,0,0,1,1.336-.349,2.41,2.41,0,0,1,1.812.719,2.827,2.827,0,0,1,.752,1.907l.005.291A3.282,3.282,0,0,1,14.2.212a2.318,2.318,0,0,1-.9.994,2.561,2.561,0,0,1-1.349.352A2.393,2.393,0,0,1,10.088.781a2.978,2.978,0,0,1-.7-2.072Zm1.239.107A2.223,2.223,0,0,0,10.977.087a1.144,1.144,0,0,0,.979.482A1.131,1.131,0,0,0,12.932.08a2.455,2.455,0,0,0,.349-1.433,2.194,2.194,0,0,0-.359-1.326,1.148,1.148,0,0,0-.976-.489,1.137,1.137,0,0,0-.964.482A2.409,2.409,0,0,0,10.625-1.246Zm7.826-1.682a3.066,3.066,0,0,0-.5-.041,1.136,1.136,0,0,0-1.147.653V1.456H15.561V-4.06h1.183l.031.617a1.4,1.4,0,0,1,1.244-.719,1.16,1.16,0,0,1,.438.071Zm2.1,4.385H19.313V-6.375h1.239Zm1.117-2.8A3.28,3.28,0,0,1,22.26-3.39a1.9,1.9,0,0,1,1.586-.772,1.8,1.8,0,0,1,1.417.612V-6.375H26.5V1.456H25.38L25.319.885a1.826,1.826,0,0,1-1.484.673,1.884,1.884,0,0,1-1.568-.78A3.4,3.4,0,0,1,21.669-1.343Zm1.239.107A2.3,2.3,0,0,0,23.231.077a1.05,1.05,0,0,0,.92.472,1.17,1.17,0,0,0,1.111-.678V-2.485a1.152,1.152,0,0,0-1.1-.663,1.058,1.058,0,0,0-.928.477A2.557,2.557,0,0,0,22.907-1.236Zm5.613-4.5-.133,1.993h-.811V-6.375h.943ZM32.181-.043a.562.562,0,0,0-.273-.5A2.9,2.9,0,0,0,31-.853a4.652,4.652,0,0,1-1.055-.336,1.408,1.408,0,0,1-.928-1.3,1.468,1.468,0,0,1,.6-1.193,2.378,2.378,0,0,1,1.53-.479,2.475,2.475,0,0,1,1.6.489A1.553,1.553,0,0,1,33.359-2.4H32.12A.763.763,0,0,0,31.855-3a1.016,1.016,0,0,0-.7-.237,1.1,1.1,0,0,0-.665.189.6.6,0,0,0-.257.5.5.5,0,0,0,.24.444,3.3,3.3,0,0,0,.969.319,4.586,4.586,0,0,1,1.145.382,1.621,1.621,0,0,1,.617.533,1.359,1.359,0,0,1,.2.755A1.437,1.437,0,0,1,32.783,1.1a2.631,2.631,0,0,1-1.616.461,2.852,2.852,0,0,1-1.208-.245A1.989,1.989,0,0,1,29.133.64a1.593,1.593,0,0,1-.3-.923h1.2a.873.873,0,0,0,.331.676,1.288,1.288,0,0,0,.811.237,1.253,1.253,0,0,0,.744-.186A.576.576,0,0,0,32.181-.043Zm10.905,1.5H41.8L38.488-3.811V1.456H37.2V-5.967h1.29L41.807-.68V-5.967h1.28Zm1.173-2.809a3.253,3.253,0,0,1,.321-1.461,2.346,2.346,0,0,1,.9-1,2.543,2.543,0,0,1,1.336-.349,2.41,2.41,0,0,1,1.812.719,2.827,2.827,0,0,1,.752,1.907l.005.291A3.282,3.282,0,0,1,49.075.212a2.318,2.318,0,0,1-.9.994,2.561,2.561,0,0,1-1.349.352A2.393,2.393,0,0,1,44.961.781a2.978,2.978,0,0,1-.7-2.072Zm1.239.107A2.223,2.223,0,0,0,45.85.087a1.144,1.144,0,0,0,.979.482A1.131,1.131,0,0,0,47.805.08a2.455,2.455,0,0,0,.349-1.433A2.194,2.194,0,0,0,47.8-2.679a1.148,1.148,0,0,0-.976-.489,1.137,1.137,0,0,0-.964.482A2.409,2.409,0,0,0,45.5-1.246Zm5.71,1.4a.708.708,0,0,1,.535.2.682.682,0,0,1,.189.492.658.658,0,0,1-.189.482.835.835,0,0,1-1.06,0A.647.647,0,0,1,50.49.839a.682.682,0,0,1,.189-.492A.7.7,0,0,1,51.209.151Zm5.42,1.305H55.394V-4.507l-1.82.62v-1.04l2.9-1.066h.158Zm9.718-3.314H63.3V.426h3.564v1.03H62.007V-5.967h4.818v1.04H63.3v2.05h3.049ZM70.883-.043a.562.562,0,0,0-.273-.5,2.9,2.9,0,0,0-.9-.306A4.652,4.652,0,0,1,68.65-1.19a1.408,1.408,0,0,1-.928-1.3,1.468,1.468,0,0,1,.6-1.193,2.378,2.378,0,0,1,1.53-.479,2.475,2.475,0,0,1,1.6.489A1.553,1.553,0,0,1,72.061-2.4H70.822A.763.763,0,0,0,70.557-3a1.016,1.016,0,0,0-.7-.237,1.1,1.1,0,0,0-.665.189.6.6,0,0,0-.257.5.5.5,0,0,0,.24.444,3.3,3.3,0,0,0,.969.319,4.586,4.586,0,0,1,1.145.382,1.621,1.621,0,0,1,.617.533,1.359,1.359,0,0,1,.2.755A1.437,1.437,0,0,1,71.485,1.1a2.63,2.63,0,0,1-1.616.461,2.852,2.852,0,0,1-1.208-.245A1.989,1.989,0,0,1,67.834.64a1.593,1.593,0,0,1-.3-.923h1.2a.873.873,0,0,0,.331.676,1.288,1.288,0,0,0,.811.237,1.253,1.253,0,0,0,.744-.186A.576.576,0,0,0,70.883-.043Zm5.389,0A.562.562,0,0,0,76-.548a2.9,2.9,0,0,0-.9-.306,4.652,4.652,0,0,1-1.055-.336,1.408,1.408,0,0,1-.928-1.3,1.468,1.468,0,0,1,.6-1.193,2.378,2.378,0,0,1,1.53-.479,2.475,2.475,0,0,1,1.6.489A1.553,1.553,0,0,1,77.45-2.4H76.211A.763.763,0,0,0,75.946-3a1.016,1.016,0,0,0-.7-.237,1.1,1.1,0,0,0-.665.189.6.6,0,0,0-.257.5.5.5,0,0,0,.24.444,3.3,3.3,0,0,0,.969.319,4.586,4.586,0,0,1,1.145.382,1.621,1.621,0,0,1,.617.533,1.359,1.359,0,0,1,.2.755A1.437,1.437,0,0,1,76.874,1.1a2.631,2.631,0,0,1-1.616.461,2.852,2.852,0,0,1-1.208-.245A1.989,1.989,0,0,1,73.223.64a1.593,1.593,0,0,1-.3-.923h1.2a.873.873,0,0,0,.331.676,1.288,1.288,0,0,0,.811.237,1.253,1.253,0,0,0,.744-.186A.576.576,0,0,0,76.272-.043Zm5.593,1.5a1.911,1.911,0,0,1-.143-.515,1.929,1.929,0,0,1-1.448.617,1.946,1.946,0,0,1-1.356-.474,1.517,1.517,0,0,1-.525-1.173,1.566,1.566,0,0,1,.655-1.354,3.175,3.175,0,0,1,1.874-.472h.76v-.362a.966.966,0,0,0-.24-.686.95.95,0,0,0-.729-.257,1.091,1.091,0,0,0-.693.212.655.655,0,0,0-.27.538H78.51a1.375,1.375,0,0,1,.3-.849,2,2,0,0,1,.818-.619,2.874,2.874,0,0,1,1.155-.224,2.315,2.315,0,0,1,1.545.487,1.736,1.736,0,0,1,.591,1.369V.182a2.82,2.82,0,0,0,.209,1.188v.087ZM80.5.564a1.409,1.409,0,0,0,.691-.178,1.192,1.192,0,0,0,.487-.479v-1.04h-.668a1.826,1.826,0,0,0-1.035.24.776.776,0,0,0-.347.678.724.724,0,0,0,.237.568A.918.918,0,0,0,80.5.564Zm5.567-.882L87.193-4.06h1.32L86.321,2.292a1.782,1.782,0,0,1-1.713,1.392,2.209,2.209,0,0,1-.6-.092V2.629l.235.015a1.206,1.206,0,0,0,.706-.171,1.131,1.131,0,0,0,.375-.573l.178-.474L83.568-4.06H84.9Zm5.557-.229a1.7,1.7,0,0,1,.28-.946,4.4,4.4,0,0,1,1.106-1.022,4.621,4.621,0,0,1-.6-.928,1.809,1.809,0,0,1-.171-.739,1.819,1.819,0,0,1,.53-1.379A1.979,1.979,0,0,1,94.2-6.069a1.883,1.883,0,0,1,1.328.477,1.54,1.54,0,0,1,.517,1.18,1.627,1.627,0,0,1-.235.854,2.779,2.779,0,0,1-.77.778l-.5.367L95.967-.721a2.96,2.96,0,0,0,.311-1.361h1.076A3.708,3.708,0,0,1,96.712.166L97.8,1.456H96.365L95.947.962a3.071,3.071,0,0,1-1.9.6A2.562,2.562,0,0,1,92.289.974,1.935,1.935,0,0,1,91.629-.548ZM94.086.569A1.891,1.891,0,0,0,95.259.151L93.637-1.761l-.158.112a1.325,1.325,0,0,0-.612,1.06A1.112,1.112,0,0,0,93.2.248,1.22,1.22,0,0,0,94.086.569ZM93.4-4.213a1.9,1.9,0,0,0,.525,1.076l.566-.387.158-.127a.918.918,0,0,0,.316-.719.658.658,0,0,0-.219-.5.778.778,0,0,0-.556-.206.727.727,0,0,0-.576.245A.9.9,0,0,0,93.4-4.213ZM105.374-.272H102.5l-.6,1.728h-1.341l2.8-7.423h1.157l2.809,7.423h-1.346Zm-2.514-1.04h2.152l-1.076-3.079Zm8.28,1.269a.562.562,0,0,0-.273-.5,2.9,2.9,0,0,0-.9-.306,4.652,4.652,0,0,1-1.055-.336,1.408,1.408,0,0,1-.928-1.3,1.468,1.468,0,0,1,.6-1.193,2.378,2.378,0,0,1,1.53-.479,2.475,2.475,0,0,1,1.6.489,1.553,1.553,0,0,1,.609,1.269h-1.239A.763.763,0,0,0,110.814-3a1.016,1.016,0,0,0-.7-.237,1.1,1.1,0,0,0-.665.189.6.6,0,0,0-.257.5.5.5,0,0,0,.24.444,3.3,3.3,0,0,0,.969.319,4.585,4.585,0,0,1,1.145.382,1.621,1.621,0,0,1,.617.533,1.359,1.359,0,0,1,.2.755,1.437,1.437,0,0,1-.617,1.206,2.631,2.631,0,0,1-1.616.461,2.852,2.852,0,0,1-1.208-.245,1.989,1.989,0,0,1-.826-.673,1.593,1.593,0,0,1-.3-.923H109a.873.873,0,0,0,.331.676,1.288,1.288,0,0,0,.811.237,1.253,1.253,0,0,0,.744-.186A.576.576,0,0,0,111.14-.043Zm5.389,0a.562.562,0,0,0-.273-.5,2.9,2.9,0,0,0-.9-.306A4.652,4.652,0,0,1,114.3-1.19a1.408,1.408,0,0,1-.928-1.3,1.468,1.468,0,0,1,.6-1.193,2.378,2.378,0,0,1,1.53-.479,2.475,2.475,0,0,1,1.6.489,1.553,1.553,0,0,1,.609,1.269h-1.239A.763.763,0,0,0,116.2-3a1.016,1.016,0,0,0-.7-.237,1.1,1.1,0,0,0-.665.189.6.6,0,0,0-.257.5.5.5,0,0,0,.24.444,3.3,3.3,0,0,0,.969.319,4.585,4.585,0,0,1,1.145.382,1.621,1.621,0,0,1,.617.533,1.359,1.359,0,0,1,.2.755,1.437,1.437,0,0,1-.617,1.206,2.631,2.631,0,0,1-1.616.461,2.852,2.852,0,0,1-1.208-.245A1.989,1.989,0,0,1,113.48.64a1.593,1.593,0,0,1-.3-.923h1.2a.873.873,0,0,0,.331.676,1.288,1.288,0,0,0,.811.237,1.253,1.253,0,0,0,.744-.186A.576.576,0,0,0,116.529-.043Zm3.615,1.5H118.9V-4.06h1.239Zm-1.315-6.949a.657.657,0,0,1,.181-.474.684.684,0,0,1,.517-.189.692.692,0,0,1,.52.189.652.652,0,0,1,.184.474.637.637,0,0,1-.184.467.7.7,0,0,1-.52.186.689.689,0,0,1-.517-.186A.642.642,0,0,1,118.828-5.493Zm2.447,4.15a3.226,3.226,0,0,1,.6-2.052,1.939,1.939,0,0,1,1.6-.767,1.817,1.817,0,0,1,1.484.658l.056-.556h1.117V1.288A2.223,2.223,0,0,1,125.464,3a2.573,2.573,0,0,1-1.823.627,2.938,2.938,0,0,1-1.185-.252,2.106,2.106,0,0,1-.879-.66l.586-.744a1.771,1.771,0,0,0,1.407.678,1.368,1.368,0,0,0,.974-.334,1.28,1.28,0,0,0,.357-.981V.962a1.824,1.824,0,0,1-1.428.6,1.934,1.934,0,0,1-1.583-.77A3.331,3.331,0,0,1,121.276-1.343Zm1.234.107a2.221,2.221,0,0,0,.339,1.308,1.09,1.09,0,0,0,.941.477A1.192,1.192,0,0,0,124.9-.094V-2.521a1.175,1.175,0,0,0-1.1-.627,1.094,1.094,0,0,0-.951.484A2.487,2.487,0,0,0,122.51-1.236Zm6.052-2.825.036.637a1.984,1.984,0,0,1,1.606-.739q1.723,0,1.754,1.973V1.456h-1.239V-2.118a1.136,1.136,0,0,0-.227-.778.954.954,0,0,0-.742-.252,1.194,1.194,0,0,0-1.117.678V1.456h-1.239V-4.06Zm5.822,0,.036.576a1.985,1.985,0,0,1,1.591-.678,1.525,1.525,0,0,1,1.514.846,1.957,1.957,0,0,1,1.693-.846,1.72,1.72,0,0,1,1.359.5,2.222,2.222,0,0,1,.456,1.489V1.456h-1.239V-2.133a1.1,1.1,0,0,0-.229-.77,1,1,0,0,0-.76-.245,1.031,1.031,0,0,0-.691.227,1.2,1.2,0,0,0-.375.594l.005,3.783H136.5v-3.63a.884.884,0,0,0-.994-.974,1.091,1.091,0,0,0-1.055.607v4h-1.239V-4.06Zm10.35,5.618a2.563,2.563,0,0,1-1.909-.742,2.691,2.691,0,0,1-.732-1.976v-.153a3.31,3.31,0,0,1,.319-1.476,2.426,2.426,0,0,1,.895-1.012,2.366,2.366,0,0,1,1.285-.362,2.165,2.165,0,0,1,1.741.719,3.04,3.04,0,0,1,.614,2.034v.5h-3.6A1.657,1.657,0,0,0,143.8.171a1.37,1.37,0,0,0,1.007.4,1.678,1.678,0,0,0,1.387-.688l.668.637a2.23,2.23,0,0,1-.885.767A2.769,2.769,0,0,1,144.733,1.558Zm-.148-4.726a1.043,1.043,0,0,0-.823.357,1.85,1.85,0,0,0-.4.994h2.361v-.092a1.506,1.506,0,0,0-.331-.941A1.035,1.035,0,0,0,144.586-3.168Zm4.471-.892.036.637a1.983,1.983,0,0,1,1.606-.739q1.723,0,1.754,1.973V1.456h-1.239V-2.118a1.136,1.136,0,0,0-.227-.778.954.954,0,0,0-.742-.252,1.194,1.194,0,0,0-1.117.678V1.456h-1.239V-4.06Zm6.21-1.341V-4.06h.974v.918h-.974V-.063a.678.678,0,0,0,.125.456.579.579,0,0,0,.446.14,1.909,1.909,0,0,0,.433-.051v.958a3.051,3.051,0,0,1-.816.117q-1.428,0-1.428-1.575V-3.143h-.908V-4.06h.908V-5.4ZM165.8,1.456h-1.285V-1.837H161.2V1.456h-1.29V-5.967h1.29v3.09h3.319v-3.09H165.8Zm3.834.1a2.563,2.563,0,0,1-1.909-.742,2.691,2.691,0,0,1-.732-1.976v-.153a3.31,3.31,0,0,1,.319-1.476,2.425,2.425,0,0,1,.895-1.012,2.366,2.366,0,0,1,1.285-.362,2.165,2.165,0,0,1,1.741.719,3.04,3.04,0,0,1,.614,2.034v.5h-3.6A1.657,1.657,0,0,0,168.7.171a1.37,1.37,0,0,0,1.007.4,1.678,1.678,0,0,0,1.387-.688l.668.637a2.23,2.23,0,0,1-.885.767A2.769,2.769,0,0,1,169.634,1.558Zm-.148-4.726a1.043,1.043,0,0,0-.823.357,1.85,1.85,0,0,0-.4.994h2.361v-.092a1.506,1.506,0,0,0-.331-.941A1.035,1.035,0,0,0,169.486-3.168Zm4.64,4.624h-1.239V-6.375h1.239Zm6.179-2.7A3.284,3.284,0,0,1,179.724.8a1.861,1.861,0,0,1-1.56.762,1.874,1.874,0,0,1-1.453-.6V3.577h-1.239V-4.06h1.142l.051.561a1.82,1.82,0,0,1,1.484-.663,1.88,1.88,0,0,1,1.583.752,3.372,3.372,0,0,1,.574,2.088Zm-1.234-.107a2.3,2.3,0,0,0-.329-1.31,1.069,1.069,0,0,0-.941-.484,1.14,1.14,0,0,0-1.091.627V-.073a1.151,1.151,0,0,0,1.1.642,1.068,1.068,0,0,0,.925-.477A2.533,2.533,0,0,0,179.071-1.353Zm10.666.393A2.68,2.68,0,0,1,188.86.893a2.99,2.99,0,0,1-2.034.665,2.9,2.9,0,0,1-1.563-.421,2.761,2.761,0,0,1-1.043-1.2,4.314,4.314,0,0,1-.382-1.8v-.693A4.346,4.346,0,0,1,184.21-4.4a2.8,2.8,0,0,1,1.068-1.234,2.979,2.979,0,0,1,1.609-.433,2.869,2.869,0,0,1,1.978.665,2.78,2.78,0,0,1,.872,1.884h-1.285a1.834,1.834,0,0,0-.467-1.155,1.542,1.542,0,0,0-1.1-.354,1.506,1.506,0,0,0-1.292.615,3.073,3.073,0,0,0-.461,1.8v.658a3.26,3.26,0,0,0,.431,1.837,1.43,1.43,0,0,0,1.262.633,1.668,1.668,0,0,0,1.142-.342,1.781,1.781,0,0,0,.484-1.137Zm.8-.393a3.253,3.253,0,0,1,.321-1.461,2.346,2.346,0,0,1,.9-1,2.543,2.543,0,0,1,1.336-.349,2.41,2.41,0,0,1,1.812.719,2.827,2.827,0,0,1,.752,1.907l.005.291a3.282,3.282,0,0,1-.314,1.458,2.317,2.317,0,0,1-.9.994,2.561,2.561,0,0,1-1.349.352,2.393,2.393,0,0,1-1.869-.778,2.978,2.978,0,0,1-.7-2.072Zm1.239.107a2.223,2.223,0,0,0,.352,1.333,1.144,1.144,0,0,0,.979.482,1.131,1.131,0,0,0,.976-.489,2.455,2.455,0,0,0,.349-1.433,2.194,2.194,0,0,0-.359-1.326,1.148,1.148,0,0,0-.976-.489,1.137,1.137,0,0,0-.964.482A2.409,2.409,0,0,0,191.776-1.246Zm5.71,1.4a.708.708,0,0,1,.535.2.682.682,0,0,1,.189.492.658.658,0,0,1-.189.482.835.835,0,0,1-1.06,0,.647.647,0,0,1-.194-.484.682.682,0,0,1,.189-.492A.7.7,0,0,1,197.486.151Zm7.836-.194a.562.562,0,0,0-.273-.5,2.9,2.9,0,0,0-.9-.306,4.652,4.652,0,0,1-1.055-.336,1.408,1.408,0,0,1-.928-1.3,1.468,1.468,0,0,1,.6-1.193,2.378,2.378,0,0,1,1.53-.479,2.475,2.475,0,0,1,1.6.489A1.553,1.553,0,0,1,206.5-2.4h-1.239A.763.763,0,0,0,205-3a1.016,1.016,0,0,0-.7-.237,1.1,1.1,0,0,0-.665.189.6.6,0,0,0-.257.5.5.5,0,0,0,.24.444,3.3,3.3,0,0,0,.969.319,4.586,4.586,0,0,1,1.145.382,1.621,1.621,0,0,1,.617.533,1.359,1.359,0,0,1,.2.755,1.437,1.437,0,0,1-.617,1.206,2.63,2.63,0,0,1-1.616.461,2.852,2.852,0,0,1-1.208-.245,1.988,1.988,0,0,1-.826-.673,1.593,1.593,0,0,1-.3-.923h1.2a.873.873,0,0,0,.331.676,1.288,1.288,0,0,0,.811.237,1.253,1.253,0,0,0,.744-.186A.576.576,0,0,0,205.323-.043Zm3.615,1.5H207.7V-4.06h1.239Zm-1.315-6.949a.658.658,0,0,1,.181-.474.684.684,0,0,1,.518-.189.692.692,0,0,1,.52.189.653.653,0,0,1,.184.474.637.637,0,0,1-.184.467.7.7,0,0,1-.52.186.689.689,0,0,1-.518-.186A.642.642,0,0,1,207.622-5.493Zm3.814,1.433.036.637a1.984,1.984,0,0,1,1.606-.739q1.723,0,1.754,1.973V1.456h-1.239V-2.118a1.136,1.136,0,0,0-.227-.778.954.954,0,0,0-.742-.252,1.194,1.194,0,0,0-1.117.678V1.456h-1.239V-4.06ZM218.359.569a1.12,1.12,0,0,0,.77-.27.923.923,0,0,0,.326-.668h1.168a1.82,1.82,0,0,1-.321.961,2.107,2.107,0,0,1-.816.706,2.431,2.431,0,0,1-1.111.26,2.352,2.352,0,0,1-1.835-.749,2.973,2.973,0,0,1-.678-2.07v-.127a2.923,2.923,0,0,1,.673-2.016,2.331,2.331,0,0,1,1.835-.757,2.267,2.267,0,0,1,1.6.574,2.055,2.055,0,0,1,.65,1.507h-1.168a1.135,1.135,0,0,0-.324-.78,1.042,1.042,0,0,0-.772-.306,1.09,1.09,0,0,0-.928.436,2.224,2.224,0,0,0-.331,1.323v.2a2.261,2.261,0,0,0,.324,1.338A1.089,1.089,0,0,0,218.359.569Zm5.629.989a2.563,2.563,0,0,1-1.909-.742,2.691,2.691,0,0,1-.732-1.976v-.153a3.31,3.31,0,0,1,.319-1.476A2.425,2.425,0,0,1,222.56-3.8a2.366,2.366,0,0,1,1.285-.362,2.165,2.165,0,0,1,1.741.719,3.04,3.04,0,0,1,.614,2.034v.5h-3.6a1.657,1.657,0,0,0,.456,1.081,1.37,1.37,0,0,0,1.007.4,1.678,1.678,0,0,0,1.387-.688l.668.637a2.23,2.23,0,0,1-.885.767A2.769,2.769,0,0,1,223.988,1.558Zm-.148-4.726a1.043,1.043,0,0,0-.823.357,1.85,1.85,0,0,0-.4.994h2.361v-.092a1.506,1.506,0,0,0-.331-.941A1.035,1.035,0,0,0,223.84-3.168Zm10.834,4.624h-4.991V.6l2.473-2.7a6.157,6.157,0,0,0,.762-1,1.615,1.615,0,0,0,.227-.8,1.22,1.22,0,0,0-.3-.857,1.035,1.035,0,0,0-.8-.326,1.192,1.192,0,0,0-.933.367,1.443,1.443,0,0,0-.331,1H229.54a2.428,2.428,0,0,1,.308-1.221,2.124,2.124,0,0,1,.882-.844,2.807,2.807,0,0,1,1.323-.3,2.511,2.511,0,0,1,1.705.543,1.885,1.885,0,0,1,.625,1.5,2.548,2.548,0,0,1-.314,1.165,6.624,6.624,0,0,1-1.027,1.384L231.228.467h3.447Zm5.782-3.125a4.048,4.048,0,0,1-.6,2.414,2.116,2.116,0,0,1-1.823.813,2.144,2.144,0,0,1-1.812-.793,3.877,3.877,0,0,1-.625-2.348V-2.867a3.987,3.987,0,0,1,.6-2.4,2.135,2.135,0,0,1,1.828-.8,2.147,2.147,0,0,1,1.818.78,3.866,3.866,0,0,1,.614,2.335Zm-1.239-1.387a3.141,3.141,0,0,0-.286-1.532.974.974,0,0,0-.908-.487.974.974,0,0,0-.892.461,2.9,2.9,0,0,0-.3,1.44v1.682a3.222,3.222,0,0,0,.291,1.55.976.976,0,0,0,.913.51A.959.959,0,0,0,238.916.1a3.031,3.031,0,0,0,.3-1.476Zm7.173,1.387a4.048,4.048,0,0,1-.6,2.414,2.116,2.116,0,0,1-1.823.813,2.144,2.144,0,0,1-1.812-.793,3.877,3.877,0,0,1-.625-2.348V-2.867a3.987,3.987,0,0,1,.6-2.4,2.135,2.135,0,0,1,1.828-.8,2.147,2.147,0,0,1,1.818.78,3.866,3.866,0,0,1,.614,2.335Zm-1.239-1.387a3.141,3.141,0,0,0-.286-1.532.974.974,0,0,0-.908-.487.974.974,0,0,0-.892.461,2.9,2.9,0,0,0-.3,1.44v1.682a3.222,3.222,0,0,0,.291,1.55.976.976,0,0,0,.913.51A.959.959,0,0,0,244.85.1a3.031,3.031,0,0,0,.3-1.476Zm7.275-2.223-2.967,6.735h-1.3l2.962-6.429h-3.839v-.994h5.144Z" transform="translate(-0.199 32.939)" fill="#2c2c2c"/>
      </g>
    </g>
  </g>
</svg>
