<svg xmlns="http://www.w3.org/2000/svg" width="78.038" height="76" viewBox="0 0 78.038 76">
  <g id="ontime" transform="translate(-4983.938 -2836.872)">
    <g id="Group_2969" data-name="Group 2969" transform="translate(5022.573 2873.469)">
      <path id="Path_10720" data-name="Path 10720" d="M4216.382-4557.286a19.724,19.724,0,0,1-19.7-19.7,19.724,19.724,0,0,1,19.7-19.7,19.724,19.724,0,0,1,19.7,19.7A19.724,19.724,0,0,1,4216.382-4557.286Zm0-37.1a17.418,17.418,0,0,0-17.4,17.4,17.418,17.418,0,0,0,17.4,17.4,17.418,17.418,0,0,0,17.4-17.4A17.418,17.418,0,0,0,4216.382-4594.386Z" transform="translate(-4196.68 4596.689)" fill="#2c2c2c"/>
    </g>
    <g id="Group_2973" data-name="Group 2973" transform="translate(4994.151 2869.921)">
      <rect id="Rectangle_1588" data-name="Rectangle 1588" width="9.284" height="9.284" transform="translate(0 0)" fill="#2c2c2c"/>
    </g>
    <g id="Group_2974" data-name="Group 2974" transform="translate(5009.553 2869.921)">
      <rect id="Rectangle_1589" data-name="Rectangle 1589" width="9.284" height="9.284" transform="translate(0 0)" fill="#2c2c2c"/>
    </g>
    <g id="Group_2975" data-name="Group 2975" transform="translate(4994.151 2885.323)">
      <rect id="Rectangle_1590" data-name="Rectangle 1590" width="9.284" height="9.284" transform="translate(0)" fill="#2c2c2c"/>
    </g>
    <g id="Group_2976" data-name="Group 2976" transform="translate(5041.106 2884.172)">
      <path id="Path_10724" data-name="Path 10724" d="M4401.548-4475.022H4391a1.151,1.151,0,0,1-1.151-1.151v-7.807a1.151,1.151,0,0,1,1.151-1.151,1.152,1.152,0,0,1,1.151,1.151v6.655h9.4a1.151,1.151,0,0,1,1.151,1.151A1.151,1.151,0,0,1,4401.548-4475.022Z" transform="translate(-4389.847 4485.132)" fill="#2c2c2c"/>
    </g>
    <g id="Group_2977" data-name="Group 2977" transform="translate(4983.938 2848.514)">
      <path id="Path_10725" data-name="Path 10725" d="M3828.741-4801.578h-31.058a3.687,3.687,0,0,1-3.683-3.683V-4853.1a3.687,3.687,0,0,1,3.683-3.683h50.8a3.687,3.687,0,0,1,3.683,3.683v16.622a1.151,1.151,0,0,1-1.151,1.151,1.152,1.152,0,0,1-1.151-1.151V-4853.1a1.382,1.382,0,0,0-1.38-1.38h-50.8a1.382,1.382,0,0,0-1.38,1.38v47.839a1.382,1.382,0,0,0,1.38,1.38h31.058a1.152,1.152,0,0,1,1.152,1.151A1.152,1.152,0,0,1,3828.741-4801.578Z" transform="translate(-3794 4856.783)" fill="#2c2c2c"/>
    </g>
    <g id="Group_2978" data-name="Group 2978" transform="translate(4984.455 2870.752)">
      <path id="Path_10726" data-name="Path 10726" d="M3855.843-4726.931h-55.306a1.151,1.151,0,0,1-1.151-1.151,1.152,1.152,0,0,1,1.151-1.152h55.306a1.151,1.151,0,0,1,1.151,1.152A1.151,1.151,0,0,1,3855.843-4726.931Z" transform="translate(-3799.386 4719.234)" fill="#2c2c2c"/>
    </g>
    <g id="Group_2979" data-name="Group 2979" transform="translate(5002.795 2826.872)">
      <path id="Path_10727" data-name="Path 10727" d="M3991.7-4961.478a1.151,1.151,0,0,1-1.151-1.151v-14.348a1.151,1.151,0,0,1,1.151-1.151,1.152,1.152,0,0,1,1.152,1.151v14.348A1.152,1.152,0,0,1,3991.7-4961.478Z" transform="translate(-3990.545 4988.128)" fill="#2c2c2c"/>
    </g>
    <g id="Group_2980" data-name="Group 2980" transform="translate(5020.94 2826.872)">
      <path id="Path_10728" data-name="Path 10728" d="M4180.82-4961.478a1.151,1.151,0,0,1-1.151-1.151v-14.348a1.151,1.151,0,0,1,1.151-1.151,1.152,1.152,0,0,1,1.152,1.151v14.348A1.152,1.152,0,0,1,4180.82-4961.478Z" transform="translate(-4179.669 4988.128)" fill="#2c2c2c"/>
    </g>
    <g id="Group_2985" data-name="Group 2985" transform="translate(5011.868 2869.505)">
      <path id="Path_10730" data-name="Path 10730" d="M4088.375-4630.238a1.146,1.146,0,0,1-.263-.03,1.15,1.15,0,0,1-.722-.525l-2.118-3.5a1.151,1.151,0,0,1,.389-1.581,1.151,1.151,0,0,1,1.581.389l1.509,2.492,7.625-4.832a1.151,1.151,0,0,1,1.589.356,1.151,1.151,0,0,1-.356,1.588l-8.618,5.46A1.153,1.153,0,0,1,4088.375-4630.238Z" transform="translate(-4085.106 4638.001)" fill="#aaa"/>
    </g>
  </g>
</svg>
