<svg xmlns="http://www.w3.org/2000/svg" width="81.689" height="76" viewBox="0 0 81.689 76">
  <g id="Plagi-free" transform="translate(-1461 -2833.571)">
    <g id="Group_2938" data-name="Group 2938" transform="translate(1461 2848.239)">
      <path id="Path_10690" data-name="Path 10690" d="M322.576-4766.229H275.154a4.1,4.1,0,0,1-4.092-4.093v-56.1a1.144,1.144,0,0,1,1.144-1.144,1.144,1.144,0,0,1,1.144,1.144v56.1a1.807,1.807,0,0,0,1.8,1.805h47.421a1.807,1.807,0,0,0,1.8-1.805v-15.245a1.144,1.144,0,0,1,1.144-1.144,1.144,1.144,0,0,1,1.144,1.144v15.245A4.1,4.1,0,0,1,322.576-4766.229Z" transform="translate(-271.062 4827.561)" fill="#2c2c2c"/>
    </g>
    <g id="Group_2939" data-name="Group 2939" transform="translate(1475.817 2833.571)">
      <path id="Path_10691" data-name="Path 10691" d="M466.144-4970.058A1.144,1.144,0,0,1,465-4971.2v-6.134a1.807,1.807,0,0,0-1.8-1.8H427.643a1.144,1.144,0,0,1-1.144-1.144,1.144,1.144,0,0,1,1.144-1.145H463.2a4.1,4.1,0,0,1,4.092,4.092v6.134A1.144,1.144,0,0,1,466.144-4970.058Z" transform="translate(-426.499 4981.428)" fill="#2c2c2c"/>
    </g>
    <g id="Group_2940" data-name="Group 2940" transform="translate(1461 2833.571)">
      <path id="Path_10692" data-name="Path 10692" d="M286.949-4964.4H272.206a1.144,1.144,0,0,1-1.057-.706,1.145,1.145,0,0,1,.248-1.247l14.742-14.742a1.144,1.144,0,0,1,1.247-.248,1.144,1.144,0,0,1,.706,1.057v14.743A1.144,1.144,0,0,1,286.949-4964.4Zm-11.981-2.288H285.8v-10.837Z" transform="translate(-271.062 4981.429)" fill="#2c2c2c"/>
    </g>
    <g id="Group_2941" data-name="Group 2941" transform="translate(1480.313 2848.805)">
      <path id="Path_10693" data-name="Path 10693" d="M489.479-4819.334H474.8a1.144,1.144,0,0,1-1.144-1.145,1.144,1.144,0,0,1,1.144-1.144h14.674a1.144,1.144,0,0,1,1.144,1.144A1.144,1.144,0,0,1,489.479-4819.334Z" transform="translate(-473.661 4821.622)" fill="#2c2c2c"/>
    </g>
    <g id="Group_2942" data-name="Group 2942" transform="translate(1480.313 2857.65)">
      <path id="Path_10694" data-name="Path 10694" d="M485.37-4726.543H474.8a1.144,1.144,0,0,1-1.144-1.144,1.144,1.144,0,0,1,1.144-1.144H485.37a1.144,1.144,0,0,1,1.144,1.144A1.144,1.144,0,0,1,485.37-4726.543Z" transform="translate(-473.661 4728.831)" fill="#2c2c2c"/>
    </g>
    <g id="Group_2943" data-name="Group 2943" transform="translate(1469.846 2891.066)">
      <path id="Path_10695" data-name="Path 10695" d="M400.625-4376H365a1.144,1.144,0,0,1-1.144-1.144,1.144,1.144,0,0,1,1.144-1.144h35.627a1.144,1.144,0,0,1,1.144,1.144A1.144,1.144,0,0,1,400.625-4376Z" transform="translate(-363.854 4378.287)" fill="#2c2c2c"/>
    </g>
    <g id="Group_2944" data-name="Group 2944" transform="translate(1470.873 2866.741)">
      <path id="Path_10696" data-name="Path 10696" d="M399.813-4616.187H375.773a1.144,1.144,0,0,1-1.144-1.144v-14.988a1.144,1.144,0,0,1,1.144-1.144h18.05a1.144,1.144,0,0,1,1.144,1.144,1.144,1.144,0,0,1-1.144,1.144H376.917v12.7h22.9a1.144,1.144,0,0,1,1.144,1.144A1.144,1.144,0,0,1,399.813-4616.187Z" transform="translate(-374.629 4633.462)" fill="#2c2c2c"/>
    </g>
    <g id="Group_2945" data-name="Group 2945" transform="translate(1493.188 2847.576)">
      <path id="Path_10697" data-name="Path 10697" d="M628.168-4795.612a19.471,19.471,0,0,1-19.449-19.449,19.471,19.471,0,0,1,19.449-19.449,19.471,19.471,0,0,1,19.449,19.449A19.471,19.471,0,0,1,628.168-4795.612Zm0-36.61a17.18,17.18,0,0,0-17.161,17.161,17.181,17.181,0,0,0,17.161,17.161,17.181,17.181,0,0,0,17.161-17.161A17.181,17.181,0,0,0,628.168-4832.222Z" transform="translate(-608.719 4834.51)" fill="#2c2c2c"/>
    </g>
    <g id="Group_2937" data-name="Group 2937" transform="translate(1506.156 2852.943)">
      <path id="Path_10689" data-name="Path 10689" d="M752.109-4759.613a1.143,1.143,0,0,1-.87-.4l-6.2-7.258a1.144,1.144,0,0,1,.126-1.613,1.143,1.143,0,0,1,1.613.126l5.483,6.416,19.474-15.615a1.144,1.144,0,0,1,1.608.176,1.144,1.144,0,0,1-.177,1.608l-20.339,16.308A1.137,1.137,0,0,1,752.109-4759.613Z" transform="translate(-744.761 4778.208)" fill="#2c2c2c"/>
    </g>
    <g id="Group_2946" data-name="Group 2946" transform="translate(1526.358 2877.798)">
      <path id="Path_10698" data-name="Path 10698" d="M971.872-4501.891a1.141,1.141,0,0,1-.786-.313l-14.043-13.3a1.144,1.144,0,0,1-.044-1.617,1.144,1.144,0,0,1,1.617-.044l14.043,13.3a1.144,1.144,0,0,1,.044,1.617A1.141,1.141,0,0,1,971.872-4501.891Z" transform="translate(-956.686 4517.474)" fill="#2c2c2c"/>
    </g>
  </g>
</svg>
