<svg xmlns="http://www.w3.org/2000/svg" width="76" height="76.003" viewBox="0 0 76 76.003">
  <g id="quality" transform="translate(882.538 4987)">
    <g id="Group_2933" data-name="Group 2933" transform="translate(-882.538 -4987)">
      <path id="Path_10686" data-name="Path 10686" d="M-844.539-4911c-3.39,0-6.111-1.7-8.3-3.066a14.915,14.915,0,0,0-2.9-1.565,16.087,16.087,0,0,0-3.521-.415h-.012c-2.689-.143-5.736-.307-8.39-2.167-2.717-1.889-3.888-4.8-4.83-7.138a14.118,14.118,0,0,0-1.43-2.956,14.792,14.792,0,0,0-2.487-2.21l-.01-.007c-2.032-1.581-4.561-3.548-5.625-6.677-1.046-3.071-.219-6.082.446-8.5l0-.013a14.3,14.3,0,0,0,.664-3.286,14.265,14.265,0,0,0-.658-3.27l-.008-.03c-.665-2.419-1.492-5.43-.444-8.5,1.061-3.124,3.59-5.09,5.622-6.671l.024-.019a14.712,14.712,0,0,0,2.462-2.187,14.009,14.009,0,0,0,1.444-2.977c.937-2.333,2.1-5.238,4.816-7.133,2.668-1.846,5.841-2.019,8.391-2.158a16.143,16.143,0,0,0,3.552-.424,14.873,14.873,0,0,0,2.906-1.565c2.183-1.365,4.9-3.064,8.281-3.064s6.09,1.693,8.272,3.054l.016.01a14.64,14.64,0,0,0,2.9,1.562,16.011,16.011,0,0,0,3.534.421c2.555.135,5.735.3,8.4,2.161,2.714,1.9,3.88,4.8,4.817,7.127a14.05,14.05,0,0,0,1.435,2.972,14.8,14.8,0,0,0,2.486,2.206l.01.008c2.039,1.582,4.578,3.552,5.632,6.7,1.04,3.056.214,6.064-.45,8.481l0,.014a14.3,14.3,0,0,0-.665,3.289,14.316,14.316,0,0,0,.664,3.287l0,.012c.665,2.422,1.491,5.433.443,8.505-1.043,3.12-3.583,5.092-5.623,6.676l-.011.008a14.754,14.754,0,0,0-2.474,2.192,13.95,13.95,0,0,0-1.442,2.976c-.937,2.334-2.1,5.238-4.816,7.134-2.669,1.857-5.85,2.026-8.406,2.162a16.023,16.023,0,0,0-3.516.417,15.156,15.156,0,0,0-2.919,1.571C-838.436-4912.692-841.156-4911-844.539-4911Zm0-73.736c-2.731,0-4.941,1.382-7.078,2.719a15.877,15.877,0,0,1-3.437,1.808,17.474,17.474,0,0,1-4.1.522c-2.388.13-5.088.278-7.225,1.756-2.155,1.505-3.1,3.85-4.006,6.116a15.343,15.343,0,0,1-1.743,3.5,15.988,15.988,0,0,1-2.874,2.6l-.023.018c-1.98,1.541-4.026,3.132-4.869,5.614-.823,2.415-.159,4.834.484,7.174l.009.031a15.587,15.587,0,0,1,.738,3.868,15.62,15.62,0,0,1-.745,3.887l0,.013c-.643,2.339-1.307,4.758-.486,7.17.845,2.486,2.892,4.078,4.87,5.618l.01.008a16.052,16.052,0,0,1,2.9,2.626,15.382,15.382,0,0,1,1.727,3.479c.915,2.274,1.861,4.624,4.025,6.128,2.126,1.49,4.712,1.628,7.213,1.762h.011a17.459,17.459,0,0,1,4.077.515,16.167,16.167,0,0,1,3.426,1.807c2.141,1.337,4.356,2.721,7.1,2.721s4.948-1.38,7.089-2.715a16.488,16.488,0,0,1,3.443-1.812,17.386,17.386,0,0,1,4.074-.518c2.387-.127,5.093-.271,7.23-1.758,2.157-1.507,3.1-3.851,4.009-6.118a15.282,15.282,0,0,1,1.742-3.5,15.978,15.978,0,0,1,2.888-2.609l.01-.009c1.986-1.542,4.039-3.136,4.867-5.611.825-2.419.161-4.837-.481-7.176l0-.016a15.616,15.616,0,0,1-.745-3.887,15.612,15.612,0,0,1,.746-3.89l0-.01c.643-2.342,1.307-4.759.49-7.157l0-.006c-.835-2.5-2.888-4.088-4.873-5.628l-.01-.008a16.064,16.064,0,0,1-2.9-2.623,15.3,15.3,0,0,1-1.732-3.493c-.913-2.271-1.854-4.613-4.013-6.121-2.135-1.488-4.839-1.631-7.225-1.756a17.391,17.391,0,0,1-4.085-.521,15.892,15.892,0,0,1-3.435-1.8l-.015-.009C-839.6-4983.354-841.812-4984.732-844.539-4984.732Z" transform="translate(882.538 4987)" fill="#2c2c2c"/>
    </g>
    <g id="Group_2934" data-name="Group 2934" transform="translate(-863.772 -4968.232)">
      <path id="Path_10687" data-name="Path 10687" d="M-647.5-4732.709a19.256,19.256,0,0,1-19.234-19.234,19.256,19.256,0,0,1,19.234-19.234,19.272,19.272,0,0,1,12.148,4.321,1.238,1.238,0,0,1,.177,1.742,1.238,1.238,0,0,1-1.742.177A16.79,16.79,0,0,0-647.5-4768.7a16.777,16.777,0,0,0-16.758,16.758,16.776,16.776,0,0,0,16.758,16.757,16.776,16.776,0,0,0,16.758-16.757,16.879,16.879,0,0,0-.382-3.578,1.238,1.238,0,0,1,.947-1.473,1.238,1.238,0,0,1,1.473.947,19.349,19.349,0,0,1,.439,4.1A19.256,19.256,0,0,1-647.5-4732.709Z" transform="translate(666.731 4771.177)" fill="#2c2c2c"/>
    </g>
    <g id="Group_2935" data-name="Group 2935" transform="translate(-852.059 -4962.339)">
      <path id="Path_10688" data-name="Path 10688" d="M-538.364-4701.309l-6.459-7.557a1.237,1.237,0,0,1,.137-1.745,1.238,1.238,0,0,1,1.746.136l4.9,5.733,17.685-14.18a1.238,1.238,0,0,1,1.74.191,1.238,1.238,0,0,1-.191,1.741Z" transform="translate(545.12 4719.194)" fill="#2c2c2c"/>
    </g>
  </g>
</svg>
