<svg xmlns="http://www.w3.org/2000/svg" width="42.796" height="46" viewBox="0 0 42.796 46">
  <path id="assignment-writing" d="M24.189,46a2.12,2.12,0,0,1-1.338-.474A2.135,2.135,0,0,1,21.506,46H13.161a2.135,2.135,0,0,1-1.345-.475,2.121,2.121,0,0,1-1.34.475H2.13A2.133,2.133,0,0,1,0,43.87V13.5a2.133,2.133,0,0,1,2.13-2.13h8.346a2.128,2.128,0,0,1,.554.073V2.11A2.124,2.124,0,0,1,13.161,0h8.346a2.124,2.124,0,0,1,2.131,2.11v9.337a2.127,2.127,0,0,1,.552-.072h.947a.71.71,0,1,1,0,1.42h-.947a.708.708,0,0,0-.552.264v17.93h9.608V29.207a.71.71,0,1,1,1.42,0V43.87A2.133,2.133,0,0,1,32.535,46ZM13.161,44.593h8.346a.71.71,0,0,0,.592-.316,2.133,2.133,0,0,1-.039-.408V13.5a2.12,2.12,0,0,1,.157-.8V2.11a.706.706,0,0,0-.709-.7H13.161a.707.707,0,0,0-.71.7V12.7a2.118,2.118,0,0,1,.157.8V43.87a2.132,2.132,0,0,1-.039.408A.711.711,0,0,0,13.161,44.593Zm11.029-.014h8.346a.712.712,0,0,0,.711-.71V40.317H23.638V43.89a2.093,2.093,0,0,1-.034.379A.709.709,0,0,0,24.189,44.58Zm-22.77-.71a.712.712,0,0,0,.711.71h8.346a.709.709,0,0,0,.588-.311,2.093,2.093,0,0,1-.034-.378V40.317H1.419ZM33.246,38.9V32.409H23.638V38.9Zm-22.217,0V32.409H1.419V38.9Zm0-7.908V13.06a.708.708,0,0,0-.554-.265H2.13a.712.712,0,0,0-.711.71V30.989Zm7.8,7.188V6.232a.71.71,0,1,1,1.419,0V38.177a.71.71,0,1,1-1.419,0Zm-4.335,0V6.232a.711.711,0,0,1,1.421,0V38.177a.711.711,0,1,1-1.421,0ZM4.1,37.384a.711.711,0,0,1-.18-.988l1.6-2.308a.7.7,0,0,1,.589-.306.716.716,0,0,1,.585.314L8.238,36.4A.71.71,0,1,1,7.06,37.2l-.972-1.444-1,1.452a.71.71,0,0,1-.988.18Zm22.662.126a.711.711,0,0,1-.426-1.28L27.714,35.2h-.957a.71.71,0,1,1,0-1.42h3.1a.711.711,0,0,1,.423,1.28L28.9,36.09h.959a.71.71,0,0,1,0,1.42Zm5.78-10.591a.709.709,0,0,1-.71-.709V24.576c-.261.054-.559.107-.868.151-1.472.212-2.331.088-2.788-.4a3.293,3.293,0,0,1-.645-2.45c.008-.184.023-.361.041-.524l-1.954,0a.711.711,0,0,1-.633-1.034l2.586-5.058a8.856,8.856,0,0,1,2.284-5.782,7.7,7.7,0,0,1,5.836-2.094,6.808,6.808,0,0,1,5.36,2.244c2.274,2.684,1.692,6.746,1.665,6.918,0,.024-.008.049-.014.074a10.628,10.628,0,0,1-1.032,2.5l-.017.027a6.284,6.284,0,0,0-1.179,4.058c0,.007,0,.015,0,.022l.058,2.96a.7.7,0,0,1-.2.511.712.712,0,0,1-.507.212Zm.432-3.8a.709.709,0,0,1,.279.563V25.5h5.846l-.045-2.224A7.7,7.7,0,0,1,40.441,18.4l.019-.027A9.026,9.026,0,0,0,41.31,16.3c.048-.377.4-3.689-1.354-5.759a5.464,5.464,0,0,0-4.293-1.735,6.351,6.351,0,0,0-4.8,1.667,7.6,7.6,0,0,0-1.882,4.947.714.714,0,0,1-.078.338l-2.133,4.173,1.625,0h0a.708.708,0,0,1,.69.872,3.931,3.931,0,0,0,.1,2.533A3.637,3.637,0,0,0,30.88,23.3c.776-.12,1.467-.3,1.473-.3a.722.722,0,0,1,.185-.024A.7.7,0,0,1,32.969,23.122ZM33.72,19.2V17.424a3.64,3.64,0,1,1,3.957-.071v1.989l-.013.064a1.94,1.94,0,0,1-2.021,1.481A1.828,1.828,0,0,1,33.72,19.2Zm-.3-4.865a2.226,2.226,0,0,0,1.3,2.021l.415.189v2.575a.434.434,0,0,0,.5.347c.42,0,.563-.179.612-.293v-2.66l.388-.2a2.22,2.22,0,1,0-3.219-1.982Z" fill="#2c2c2c"/>
</svg>
