<svg xmlns="http://www.w3.org/2000/svg" width="35.884" height="46" viewBox="0 0 35.884 46">
  <path id="coursework" d="M9.221,46A2.254,2.254,0,0,1,6.97,43.749V39.934a2.254,2.254,0,0,1,2.251-2.252h4.862L6.215,28.51a4.515,4.515,0,1,1-.366-8.5L16.143,7.684l-.786-.729A3.983,3.983,0,0,1,20.652,1l0,0,3.714,3.357a.779.779,0,0,1,.166.212,10.316,10.316,0,0,1,10.8,2.408l.549.549L21.357,22.169l-.553-.545A10.31,10.31,0,0,1,18.66,9.994a.779.779,0,0,1-.139-.1L17.288,8.747l-10.021,12a4.51,4.51,0,0,1,.282,6.923l8.4,9.795V25.955a.715.715,0,0,1,.04-.235v-.149A1.91,1.91,0,0,1,17.9,23.664h8.3a1.165,1.165,0,0,1,1.164,1.164v1.621h.084a1.225,1.225,0,0,1,1.251,1.194v10.04h1.8a4.159,4.159,0,1,1,0,8.318ZM8.53,39.934v3.815a.691.691,0,0,0,.691.691H30.494a2.6,2.6,0,1,0,0-5.2H9.221A.692.692,0,0,0,8.53,39.934Zm18.6-2.252V27.936h-.575a1.159,1.159,0,0,1-.364.059H17.9a1.908,1.908,0,0,1-.388-.04v9.727Zm.309-9.746h0ZM1.559,24.326a2.957,2.957,0,1,0,2.957-2.957A2.96,2.96,0,0,0,1.559,24.326Zm15.992,1.245v.517a.348.348,0,0,0,.347.347h7.9V25.223H17.9A.348.348,0,0,0,17.551,25.571Zm1.737-11.294a8.685,8.685,0,0,0,2.081,5.666L33.659,7.561a8.755,8.755,0,0,0-14.371,6.716ZM16.2,2.372a2.425,2.425,0,0,0,.2,3.421l.013.012,3.016,2.8A10.393,10.393,0,0,1,23.037,5.26L19.615,2.166a2.427,2.427,0,0,0-3.419.206Zm-4.78,40.28a.789.789,0,0,1,0-1.559H28.308a.788.788,0,0,1,0,1.559Z" fill="#2c2c2c"/>
</svg>
