<svg xmlns="http://www.w3.org/2000/svg" width="46.692" height="45.999" viewBox="0 0 46.692 45.999">
  <path id="essay-help" d="M6.935,46a5.869,5.869,0,0,1-5.862-5.862V36.311a.729.729,0,0,1,.432-.666.725.725,0,0,1,.358-.094H4.839V19.146a.729.729,0,0,1,1.458,0V35.551H26.4v4.556a4.4,4.4,0,0,0,8.808,0V6.7A5.844,5.844,0,0,1,36.95,2.535H15.409a.729.729,0,1,1,0-1.458h24A5.827,5.827,0,0,1,40.7.848.732.732,0,0,1,40.83.836h.243A.732.732,0,0,1,41.2.848,5.87,5.87,0,0,1,46.692,6.7V9.826H36.67V40.107A5.87,5.87,0,0,1,31,45.965a.73.73,0,0,1-.22.034Zm-4.4-5.862a4.409,4.409,0,0,0,4.4,4.4H26.978a5.85,5.85,0,0,1-2.032-4.434v-3.1H2.531Zm42.7-31.769V6.7a4.284,4.284,0,1,0-8.564,0v1.67Zm-28.653,16.3L.944,9.211A3.2,3.2,0,0,1,.923,4.7L4.638.946A3.171,3.171,0,0,1,6.89,0h.016A3.168,3.168,0,0,1,9.15.923L24.787,16.377c.415.41.814,1.273.629,4.559-.1,1.71-.309,3.273-.317,3.34l-.075.543-.543.079c-.066.01-1.627.238-3.336.35-.647.042-1.2.061-1.676.061C17.537,25.31,16.914,24.994,16.581,24.665Zm7.8-.488h0ZM17.6,23.621c.053.035.636.366,3.548.166,1.021-.07,1.993-.183,2.575-.257.068-.581.172-1.556.232-2.577.172-2.912-.164-3.494-.2-3.546L22.281,15.95,16.1,22.135Zm-2.54-2.511,6.185-6.185L10.943,4.745a.734.734,0,0,1-.06.068l-6.121,6.12ZM6.9,1.458a1.722,1.722,0,0,0-1.223.513L1.958,5.723A1.735,1.735,0,0,0,1.97,8.175L3.725,9.909,9.851,3.783a.744.744,0,0,1,.063-.056L8.125,1.96a1.714,1.714,0,0,0-1.212-.5Z" transform="translate(0)" fill="#2c2c2c"/>
</svg>
