<svg id="Group_8732" data-name="Group 8732" xmlns="http://www.w3.org/2000/svg" xmlns:xlink="http://www.w3.org/1999/xlink" width="44.526" height="46" viewBox="0 0 44.526 46">
  <defs>
    <clipPath id="clip-path">
      <rect id="Rectangle_4781" data-name="Rectangle 4781" width="44.526" height="46" fill="#2c2c2c"/>
    </clipPath>
  </defs>
  <g id="Group_8731" data-name="Group 8731">
    <g id="Group_8730" data-name="Group 8730" clip-path="url(#clip-path)">
      <path id="Path_23836" data-name="Path 23836" d="M43.82,216.418H.706A.706.706,0,0,1,0,215.712V181.774a.706.706,0,0,1,.706-.706H5.765a.706.706,0,1,1,0,1.412H1.411v32.527h41.7V182.48h-4.47a.706.706,0,1,1,0-1.412H43.82a.706.706,0,0,1,.706.706v33.938A.706.706,0,0,1,43.82,216.418Z" transform="translate(0 -170.418)" fill="#2c2c2c"/>
      <path id="Path_23837" data-name="Path 23837" d="M106.568,45.176a.705.705,0,0,1-.2-.028L90.02,40.375a.706.706,0,0,1-.508-.678V.706a.706.706,0,0,1,.9-.678L106.766,4.8a.706.706,0,0,1,.508.678V44.471a.706.706,0,0,1-.706.706ZM90.923,39.168l14.939,4.362V6.009L90.924,1.647Z" transform="translate(-84.247 0)" fill="#2c2c2c"/>
      <path id="Path_23838" data-name="Path 23838" d="M367.726,45.176a.706.706,0,0,1-.706-.706V5.479a.706.706,0,0,1,.508-.678L383.878.028a.706.706,0,0,1,.9.678V39.7a.706.706,0,0,1-.508.678l-16.351,4.774A.705.705,0,0,1,367.726,45.176Zm.705-39.168V43.529l14.939-4.362V1.647Z" transform="translate(-345.432 0)" fill="#2c2c2c"/>
    </g>
  </g>
  <path id="Path_23839" data-name="Path 23839" d="M161.718,115.068a.706.706,0,0,1,.141.014l8.291,1.686a.706.706,0,0,1,.565.692v3.3a.706.706,0,0,1-.858.689l-8.291-1.825a.706.706,0,0,1-.554-.689v-3.16a.706.706,0,0,1,.706-.706Zm7.585,2.969-6.879-1.4v1.729l6.879,1.515Z" transform="translate(-151.541 -108.3)" fill="#2c2c2c"/>
  <path id="Line_252" data-name="Line 252" d="M-2.535-8.574a.708.708,0,0,1-.159-.018l-8.761-2.016a.706.706,0,0,1-.53-.846.706.706,0,0,1,.846-.53l8.761,2.016a.706.706,0,0,1,.53.846A.706.706,0,0,1-2.535-8.574Z" transform="translate(21.002 26.417)" fill="#2c2c2c"/>
  <path id="Line_253" data-name="Line 253" d="M-2.535-8.574a.708.708,0,0,1-.159-.018l-8.761-2.016a.706.706,0,0,1-.53-.846.706.706,0,0,1,.846-.53l8.761,2.016a.706.706,0,0,1,.53.846A.706.706,0,0,1-2.535-8.574Z" transform="translate(21.002 30.593)" fill="#2c2c2c"/>
  <path id="Line_254" data-name="Line 254" d="M-6.915-9.582A.708.708,0,0,1-7.074-9.6l-4.381-1.008a.706.706,0,0,1-.53-.846.706.706,0,0,1,.846-.53l4.381,1.008a.706.706,0,0,1,.53.846A.706.706,0,0,1-6.915-9.582Z" transform="translate(21.002 34.769)" fill="#2c2c2c"/>
  <path id="Line_255" data-name="Line 255" d="M-11.3-8.574a.706.706,0,0,1-.687-.548.706.706,0,0,1,.53-.846l8.761-2.016a.706.706,0,0,1,.846.53.706.706,0,0,1-.53.846l-8.761,2.016A.708.708,0,0,1-11.3-8.574Z" transform="translate(37.413 26.829)" fill="#2c2c2c"/>
  <path id="Line_256" data-name="Line 256" d="M-11.3-8.574a.706.706,0,0,1-.687-.548.706.706,0,0,1,.53-.846l8.761-2.016a.706.706,0,0,1,.846.53.706.706,0,0,1-.53.846l-8.761,2.016A.708.708,0,0,1-11.3-8.574Z" transform="translate(37.413 22.535)" fill="#2c2c2c"/>
  <path id="Line_257" data-name="Line 257" d="M-11.3-8.574a.706.706,0,0,1-.687-.548.706.706,0,0,1,.53-.846l8.761-2.016a.706.706,0,0,1,.846.53.706.706,0,0,1-.53.846l-8.761,2.016A.708.708,0,0,1-11.3-8.574Z" transform="translate(37.413 18.418)" fill="#2c2c2c"/>
  <path id="Line_258" data-name="Line 258" d="M-11.3-8.574a.706.706,0,0,1-.687-.548.706.706,0,0,1,.53-.846l8.761-2.016a.706.706,0,0,1,.846.53.706.706,0,0,1-.53.846l-8.761,2.016A.708.708,0,0,1-11.3-8.574Z" transform="translate(37.413 31.122)" fill="#2c2c2c"/>
  <path id="Line_259" data-name="Line 259" d="M-11.3-9.584a.706.706,0,0,1-.687-.548.706.706,0,0,1,.53-.846l4.375-1.007a.706.706,0,0,1,.846.53.706.706,0,0,1-.53.846L-11.138-9.6A.708.708,0,0,1-11.3-9.584Z" transform="translate(37.413 36.308)" fill="#2c2c2c"/>
  <path id="Line_260" data-name="Line 260" d="M-7.027-9.311a.706.706,0,0,1-.2-.03l-4.27-1.28a.706.706,0,0,1-.473-.879.706.706,0,0,1,.879-.473l4.27,1.28a.706.706,0,0,1,.473.879A.706.706,0,0,1-7.027-9.311Z" transform="translate(21.086 45.077)" fill="#2c2c2c"/>
  <path id="Line_261" data-name="Line 261" d="M-9.615-10.076a.706.706,0,0,1-.207-.031l-1.682-.515a.706.706,0,0,1-.468-.882.706.706,0,0,1,.882-.468l1.682.515a.706.706,0,0,1,.468.882A.706.706,0,0,1-9.615-10.076Z" transform="translate(21.086 48.018)" fill="#2c2c2c"/>
  <path id="Line_262" data-name="Line 262" d="M-9.615-10.076a.706.706,0,0,1-.207-.031l-1.682-.515a.706.706,0,0,1-.468-.882.706.706,0,0,1,.882-.468l1.682.515a.706.706,0,0,1,.468.882A.706.706,0,0,1-9.615-10.076Z" transform="translate(25.086 49.312)" fill="#2c2c2c"/>
  <path id="Line_263" data-name="Line 263" d="M-9.615-10.076a.706.706,0,0,1-.207-.031l-1.681-.515a.706.706,0,0,1-.468-.882.706.706,0,0,1,.882-.468l1.682.515a.706.706,0,0,1,.468.882A.706.706,0,0,1-9.615-10.076Z" transform="translate(29.144 50.547)" fill="#2c2c2c"/>
  <path id="Line_264" data-name="Line 264" d="M-11.3-9.311a.706.706,0,0,1-.676-.5.706.706,0,0,1,.473-.879l4.27-1.28a.706.706,0,0,1,.879.473.706.706,0,0,1-.473.879l-4.27,1.28A.706.706,0,0,1-11.3-9.311Z" transform="translate(37.437 46.371)" fill="#2c2c2c"/>
  <path id="Line_265" data-name="Line 265" d="M-11.3-10.076a.706.706,0,0,1-.675-.5.706.706,0,0,1,.468-.882l1.682-.515a.706.706,0,0,1,.882.468.706.706,0,0,1-.468.882l-1.682.515A.706.706,0,0,1-11.3-10.076Z" transform="translate(45.496 48.018)" fill="#2c2c2c"/>
  <path id="Line_266" data-name="Line 266" d="M-11.3-10.076a.706.706,0,0,1-.675-.5.706.706,0,0,1,.468-.882l1.682-.515a.706.706,0,0,1,.882.468.706.706,0,0,1-.468.882l-1.682.515A.706.706,0,0,1-11.3-10.076Z" transform="translate(41.496 49.312)" fill="#2c2c2c"/>
  <path id="Line_267" data-name="Line 267" d="M-11.3-10.076a.706.706,0,0,1-.675-.5.706.706,0,0,1,.468-.882l1.682-.515a.706.706,0,0,1,.882.468.706.706,0,0,1-.468.882l-1.682.515A.706.706,0,0,1-11.3-10.076Z" transform="translate(37.437 50.547)" fill="#2c2c2c"/>
</svg>
