<svg xmlns="http://www.w3.org/2000/svg" width="42.664" height="46" viewBox="0 0 42.664 46">
  <path id="proofreading" d="M13.97,46a1.739,1.739,0,0,1-1.738-1.737V43.191H1.4a1.406,1.406,0,0,1-1.4-1.4V1.4A1.406,1.406,0,0,1,1.4,0H29.029a1.406,1.406,0,0,1,1.4,1.4v1.4H40.927a1.74,1.74,0,0,1,1.738,1.738V44.263A1.739,1.739,0,0,1,40.927,46Zm-.334-1.737a.334.334,0,0,0,.334.333H40.927a.333.333,0,0,0,.333-.333V4.547a.333.333,0,0,0-.333-.333H30.433V21.449H37.69a.7.7,0,0,1,0,1.4H30.433V41.786a1.406,1.406,0,0,1-1.4,1.4H13.636ZM1.4,41.786H29.029V1.4H1.4Zm4.1-2.955a.7.7,0,0,1,0-1.4h8.428a.7.7,0,0,1,0,1.4Zm0-4.77a.7.7,0,0,1-.7-.7V27.507a.7.7,0,0,1,.7-.7H25.224a.7.7,0,0,1,.7.7v5.852a.7.7,0,0,1-.7.7Zm.7-1.4H24.521V28.209H6.2Zm25.809-4.448a.7.7,0,0,1,0-1.4H37.69a.7.7,0,0,1,0,1.4Zm-18.1-5.355a.7.7,0,1,1,0-1.4H25.224a.7.7,0,0,1,0,1.4Zm-8.414,0a.7.7,0,0,1,0-1.4h5.033a.7.7,0,0,1,0,1.4Zm26.511-5.3a.7.7,0,0,1,0-1.4h5.853a.7.7,0,0,1,0,1.4Zm-12.641-.029a.7.7,0,0,1,0-1.4h5.853a.7.7,0,0,1,0,1.4Zm-13.87,0a.7.7,0,0,1,0-1.4H16.387a.7.7,0,0,1,0,1.4Zm7.857-4.044a1.379,1.379,0,0,1-1.192-.695L10.311,9.551a1.4,1.4,0,0,1,0-1.383l1.858-3.242a1.372,1.372,0,0,1,1.188-.692h3.661a1.375,1.375,0,0,1,1.192.695l1.856,3.238a1.4,1.4,0,0,1,0,1.384l-1.857,3.241a1.377,1.377,0,0,1-1.189.693Zm.021-7.847L11.53,8.865l1.858,3.228,3.631-.013,1.829-3.227L16.99,5.624Zm.525,4.579L13,9.166a.7.7,0,0,1,1.066-.914l.472.552L16.42,7.4a.7.7,0,0,1,.842,1.124l-2.4,1.8a.7.7,0,0,1-.955-.105Z"/>
</svg>
