<svg xmlns="http://www.w3.org/2000/svg" width="38" height="38" viewBox="0 0 38 38">
  <path id="plagi-checker" d="M-1244.543-4916.326l-3.149-3.149a1.114,1.114,0,0,1-.307-.583v-.407a1.122,1.122,0,0,1,.307-.584l3.326-3.325-3.233-3.234a1.114,1.114,0,0,1-.3-1.026,1.119,1.119,0,0,1,.7-.806l8.561-3.158a9.967,9.967,0,0,1-.291-2.4,10.031,10.031,0,0,1,10.02-10.02,10.03,10.03,0,0,1,10.02,10.02,10.03,10.03,0,0,1-10.02,10.02,10.069,10.069,0,0,1-2.511-.317l-3.22,8.433a1.114,1.114,0,0,1-.808.691,1.11,1.11,0,0,1-1.02-.3l-3.177-3.177-3.326,3.325a1.11,1.11,0,0,1-.787.326A1.11,1.11,0,0,1-1244.543-4916.326Zm12.06-16.168a1.178,1.178,0,0,1-.2.1,1.031,1.031,0,0,1-.231.059l-3.659,1.35a1.1,1.1,0,0,1-.281.156,1.187,1.187,0,0,1-.327.069l-7.611,2.808,2.791,2.79a1.115,1.115,0,0,1,.326.789,1.114,1.114,0,0,1-.326.787l-3.326,3.326,1.574,1.574,3.326-3.326a1.112,1.112,0,0,1,1.574,0l2.749,2.749,5.286-13.843Zm1.865,5.1a7.759,7.759,0,0,0,1.711.188,7.8,7.8,0,0,0,7.794-7.793,7.8,7.8,0,0,0-7.794-7.793A7.8,7.8,0,0,0-1236.7-4935a7.794,7.794,0,0,0,.17,1.626l2.12-.782a5.772,5.772,0,0,1-.063-.844,5.574,5.574,0,0,1,5.566-5.566,5.574,5.574,0,0,1,5.568,5.566,5.574,5.574,0,0,1-5.568,5.567,5.657,5.657,0,0,1-.905-.073Zm2.5-8.388a1.116,1.116,0,0,1,.249,1.181l-1.123,2.941h.082a3.346,3.346,0,0,0,3.341-3.341,3.344,3.344,0,0,0-3.341-3.339,3.343,3.343,0,0,0-3.339,3.339v.046l2.955-1.089a1.091,1.091,0,0,1,.385-.07A1.116,1.116,0,0,1-1228.116-4935.784Zm11.017,14.166-3.149-3.149a1.114,1.114,0,0,1,0-1.574,1.115,1.115,0,0,1,1.575,0l3.148,3.149a1.112,1.112,0,0,1,0,1.574,1.11,1.11,0,0,1-.787.326A1.11,1.11,0,0,1-1217.1-4921.618Zm1.458-12.269a1.113,1.113,0,0,1-1.113-1.114,1.113,1.113,0,0,1,1.113-1.113h4.527A1.113,1.113,0,0,1-1210-4935a1.114,1.114,0,0,1-1.114,1.114Zm-4.608-9.772a1.114,1.114,0,0,1,0-1.574l3.149-3.149a1.111,1.111,0,0,1,1.574,0,1.112,1.112,0,0,1,0,1.574l-3.148,3.149a1.115,1.115,0,0,1-.788.326A1.114,1.114,0,0,1-1220.248-4943.659Zm-18.893,0-3.148-3.149a1.112,1.112,0,0,1,0-1.574,1.111,1.111,0,0,1,1.574,0l3.149,3.149a1.115,1.115,0,0,1,0,1.574,1.114,1.114,0,0,1-.787.326A1.115,1.115,0,0,1-1239.141-4943.659Zm9.1-4.7v-4.527a1.114,1.114,0,0,1,1.114-1.114,1.113,1.113,0,0,1,1.113,1.114v4.527a1.112,1.112,0,0,1-1.113,1.113A1.113,1.113,0,0,1-1230.039-4948.36Z" transform="translate(1248 4954)" fill="#fff"/>
</svg>
