<svg xmlns="http://www.w3.org/2000/svg" width="39.504" height="32.001" viewBox="0 0 39.504 32.001">
  <path id="rate-my-paper" d="M-1233.566-4922a1.236,1.236,0,0,1-1.236-1.236,1.236,1.236,0,0,1,1.236-1.236h10.638a1.236,1.236,0,0,1,1.236,1.236,1.236,1.236,0,0,1-1.236,1.236Zm-4.875-5.224a1.236,1.236,0,0,1-1.236-1.236,1.236,1.236,0,0,1,1.236-1.236h20.387a1.236,1.236,0,0,1,1.236,1.236,1.236,1.236,0,0,1-1.236,1.236Zm6.565-6.894a5.321,5.321,0,0,1,.205-7.608,8.669,8.669,0,0,0-5.042,7.91,1.222,1.222,0,0,1-1.208,1.234h-8.868a1.222,1.222,0,0,1-1.21-1.234A19.96,19.96,0,0,1-1228.248-4954a19.961,19.961,0,0,1,19.752,20.185,1.222,1.222,0,0,1-1.21,1.234h-8.868a1.222,1.222,0,0,1-1.208-1.234,8.742,8.742,0,0,0-1.881-5.431,25.721,25.721,0,0,1-2.955,5.129,5.061,5.061,0,0,1-3.629,1.539A5.061,5.061,0,0,1-1231.877-4934.118Zm12.13-6.637a11.2,11.2,0,0,1,2.316,5.7h6.476a17.763,17.763,0,0,0-4.21-10.385Zm-10.42.97a2.818,2.818,0,0,0,0,3.92,2.671,2.671,0,0,0,3.838,0c.969-.991,3.665-6.972,4.236-8.25C-1223.353-4943.526-1229.194-4940.778-1230.167-4939.785Zm-15.373,4.733h6.476a11.188,11.188,0,0,1,2.317-5.7l-4.583-4.682A17.756,17.756,0,0,0-1245.541-4935.051Zm5.922-12.132,4.582,4.681a10.724,10.724,0,0,1,5.58-2.367v-6.616A16.986,16.986,0,0,0-1239.619-4947.184Zm12.581,2.314c.214.025.428.056.639.093,1.83-.91,4.318-2.073,6.175-2.9a1.212,1.212,0,0,1,1.736,1.154c-.009.285-.05.348-.584,1.583l2.2-2.244a16.99,16.99,0,0,0-10.163-4.3Zm-2.9,6.7a1.688,1.688,0,0,1,1.688-1.687,1.688,1.688,0,0,1,1.688,1.687,1.688,1.688,0,0,1-1.688,1.688A1.688,1.688,0,0,1-1229.936-4938.171Z" transform="translate(1248 4954)" fill="#fff"/>
</svg>
