<svg xmlns="http://www.w3.org/2000/svg" xmlns:xlink="http://www.w3.org/1999/xlink" width="75" height="76" viewBox="0 0 75 76">
  <defs>
    <clipPath id="clip-path">
      <rect id="Rectangle_4766" data-name="Rectangle 4766" width="75" height="76" transform="translate(0.221)" fill="none"/>
    </clipPath>
  </defs>
  <g id="search-database" transform="translate(-0.221)">
    <path id="Line_252" data-name="Line 252" d="M-4.844-3.92A1.235,1.235,0,0,1-5.7-4.259l-5.918-5.6a1.239,1.239,0,0,1-.048-1.751,1.239,1.239,0,0,1,1.751-.048l5.918,5.6a1.239,1.239,0,0,1,.048,1.751A1.235,1.235,0,0,1-4.844-3.92Z" transform="translate(41.391 71.513)"/>
    <path id="Line_253" data-name="Line 253" d="M8.441-9.522h-19.2A1.239,1.239,0,0,1-12-10.761,1.239,1.239,0,0,1-10.761-12h19.2A1.239,1.239,0,0,1,9.68-10.761,1.239,1.239,0,0,1,8.441-9.522Z" transform="translate(27.177 27.847)"/>
    <path id="Line_254" data-name="Line 254" d="M-.437-9.522H-10.761A1.239,1.239,0,0,1-12-10.761,1.239,1.239,0,0,1-10.761-12H-.437A1.239,1.239,0,0,1,.8-10.761,1.239,1.239,0,0,1-.437-9.522Z" transform="translate(51.644 27.847)"/>
    <path id="Line_255" data-name="Line 255" d="M-1.883-9.522h-8.878A1.239,1.239,0,0,1-12-10.761,1.239,1.239,0,0,1-10.761-12h8.878A1.239,1.239,0,0,1-.644-10.761,1.239,1.239,0,0,1-1.883-9.522Z" transform="translate(27.177 37.242)"/>
    <path id="Line_256" data-name="Line 256" d="M2.35-9.522H-10.761A1.239,1.239,0,0,1-12-10.761,1.239,1.239,0,0,1-10.761-12H2.35a1.239,1.239,0,0,1,1.239,1.239A1.239,1.239,0,0,1,2.35-9.522Z" transform="translate(41.94 37.242)"/>
    <path id="Path_23836" data-name="Path 23836" d="M117.446,96.026a1.239,1.239,0,0,1-1.239-1.239V56.478H67.478V83.527a1.239,1.239,0,0,1-2.478,0V55.239A1.239,1.239,0,0,1,66.239,54h51.207a1.239,1.239,0,0,1,1.239,1.239V94.787A1.239,1.239,0,0,1,117.446,96.026Z" transform="translate(-58.289 -48.425)"/>
    <g id="Group_8698" data-name="Group 8698">
      <g id="Group_8697" data-name="Group 8697" clip-path="url(#clip-path)">
        <path id="Path_23837" data-name="Path 23837" d="M197.446,48.523a1.239,1.239,0,0,1-1.239-1.239V2.477H147.478V5.711a1.239,1.239,0,0,1-2.478,0V1.239A1.239,1.239,0,0,1,146.239,0h51.207a1.239,1.239,0,0,1,1.239,1.239V47.284A1.239,1.239,0,0,1,197.446,48.523Z" transform="translate(-130.03 0)"/>
        <path id="Path_23838" data-name="Path 23838" d="M74.126,372.122H1.239A1.239,1.239,0,0,1,0,370.883V331.239A1.239,1.239,0,0,1,1.239,330H35.313a1.239,1.239,0,0,1,1.158.8l4.339,11.447H74.126a1.239,1.239,0,0,1,1.239,1.239v27.4A1.239,1.239,0,0,1,74.126,372.122ZM2.478,369.644h70.41V344.725H39.956a1.239,1.239,0,0,1-1.158-.8l-4.339-11.447H2.478Z" transform="translate(0 -295.931)"/>
        <path id="Ellipse_627" data-name="Ellipse 627" d="M-.809-12A11.2,11.2,0,0,1,10.381-.809,11.2,11.2,0,0,1-.809,10.381,11.2,11.2,0,0,1-12-.809,11.2,11.2,0,0,1-.809-12Zm0,19.9A8.723,8.723,0,0,0,7.9-.809,8.723,8.723,0,0,0-.809-9.522,8.723,8.723,0,0,0-9.522-.809,8.723,8.723,0,0,0-.809,7.9Z" transform="translate(23.356 55.361)"/>
      </g>
    </g>
  </g>
</svg>
