<svg xmlns="http://www.w3.org/2000/svg" xmlns:xlink="http://www.w3.org/1999/xlink" width="560" height="283" viewBox="0 0 560 283">
  <defs>
    <filter id="Rectangle_1904" x="0" y="32" width="560" height="251" filterUnits="userSpaceOnUse">
      <feOffset dx="1" dy="2" input="SourceAlpha"/>
      <feGaussianBlur stdDeviation="3" result="blur"/>
      <feFlood flood-color="#b1bdd6" flood-opacity="0.6"/>
      <feComposite operator="in" in2="blur"/>
      <feComposite in="SourceGraphic"/>
    </filter>
    <linearGradient id="linear-gradient" x1="0.672" y1="-0.767" x2="0.672" y2="1.108" gradientUnits="objectBoundingBox">
      <stop offset="0" stop-color="#f6f6fa" stop-opacity="0"/>
      <stop offset="1" stop-color="#d2e8ff"/>
    </linearGradient>
    <filter id="Rectangle_2051" x="212.135" y="67.104" width="126.74" height="163.182" filterUnits="userSpaceOnUse">
      <feOffset dx="1" dy="1" input="SourceAlpha"/>
      <feGaussianBlur stdDeviation="2" result="blur-2"/>
      <feFlood flood-color="#b1bdd6" flood-opacity="0.6"/>
      <feComposite operator="in" in2="blur-2"/>
      <feComposite in="SourceGraphic"/>
    </filter>
    <filter id="Rectangle_2051-2" x="37" y="79.445" width="140.511" height="159.805" filterUnits="userSpaceOnUse">
      <feOffset dx="1" dy="1" input="SourceAlpha"/>
      <feGaussianBlur stdDeviation="2" result="blur-3"/>
      <feFlood flood-color="#b1bdd6" flood-opacity="0.6"/>
      <feComposite operator="in" in2="blur-3"/>
      <feComposite in="SourceGraphic"/>
    </filter>
    <filter id="Rectangle_2051-3" x="377.149" y="78.024" width="140.511" height="159.805" filterUnits="userSpaceOnUse">
      <feOffset dx="1" dy="1" input="SourceAlpha"/>
      <feGaussianBlur stdDeviation="2" result="blur-4"/>
      <feFlood flood-color="#b1bdd6" flood-opacity="0.6"/>
      <feComposite operator="in" in2="blur-4"/>
      <feComposite in="SourceGraphic"/>
    </filter>
  </defs>
  <g id="Get_essay" data-name="Get essay" transform="translate(-68 -1497)">
    <g transform="matrix(1, 0, 0, 1, 68, 1497)" filter="url(#Rectangle_1904)">
      <rect id="Rectangle_1904-2" data-name="Rectangle 1904" width="542" height="233" rx="8" transform="translate(8 39)" fill="#fff"/>
    </g>
    <rect id="Rectangle_1889" data-name="Rectangle 1889" width="542" height="40" rx="8" transform="translate(76 1497)" fill="url(#linear-gradient)"/>
    <g id="Group_8679" data-name="Group 8679" transform="translate(17605 -4344)">
      <circle id="Ellipse_623" data-name="Ellipse 623" cx="4" cy="4" r="4" transform="translate(-17047 5857)" fill="#fff"/>
      <circle id="Ellipse_624" data-name="Ellipse 624" cx="4" cy="4" r="4" transform="translate(-17031 5857)" fill="#fff"/>
      <circle id="Ellipse_625" data-name="Ellipse 625" cx="4" cy="4" r="4" transform="translate(-17015 5857)" fill="#fff"/>
    </g>
    <g id="Group_8682" data-name="Group 8682" opacity="0">
      <rect id="Rectangle_1921" data-name="Rectangle 1921" width="152" height="26" rx="4" transform="translate(273 1725)" fill="url(#linear-gradient)"/>
      <path id="Path_17877" data-name="Path 17877" d="M10.934-1.679A3.9,3.9,0,0,1,9.119-.286,7.331,7.331,0,0,1,6.407.176,5.258,5.258,0,0,1,3.63-.558,4.889,4.889,0,0,1,1.753-2.646a7.21,7.21,0,0,1-.681-3.138V-6.9a6.73,6.73,0,0,1,1.349-4.482,4.7,4.7,0,0,1,3.792-1.591,4.856,4.856,0,0,1,3.226,1.024,4.461,4.461,0,0,1,1.494,2.9H9.246a2.79,2.79,0,0,0-.982-1.9A2.79,2.79,0,0,0,6.223-11.6a2.987,2.987,0,0,0-2.571,1.2,5.82,5.82,0,0,0-.883,3.453V-5.9a5.454,5.454,0,0,0,.984,3.426A3.191,3.191,0,0,0,6.416-1.2a5.882,5.882,0,0,0,1.661-.21,2.569,2.569,0,0,0,1.178-.71V-4.992H6.293v-1.38h4.641Zm6.5,1.854A4.155,4.155,0,0,1,14.288-1.1a4.714,4.714,0,0,1-1.213-3.4v-.3a5.707,5.707,0,0,1,.541-2.527,4.217,4.217,0,0,1,1.512-1.74,3.8,3.8,0,0,1,2.1-.628,3.562,3.562,0,0,1,2.883,1.222,5.289,5.289,0,0,1,1.028,3.5v.677H14.7a3.38,3.38,0,0,0,.822,2.272,2.583,2.583,0,0,0,2,.866A2.832,2.832,0,0,0,18.984-1.5a3.666,3.666,0,0,0,1.046-.932l.993.773A3.993,3.993,0,0,1,17.438.176Zm-.2-8.525a2.169,2.169,0,0,0-1.652.716,3.482,3.482,0,0,0-.826,2.008H19.52v-.123a3.1,3.1,0,0,0-.668-1.92,2.042,2.042,0,0,0-1.617-.681Zm8-3.463v2.3h1.775v1.257H25.233v5.9a1.32,1.32,0,0,0,.237.858,1,1,0,0,0,.809.286,3.937,3.937,0,0,0,.773-.105V0A4.742,4.742,0,0,1,25.8.176a2.025,2.025,0,0,1-1.644-.659A2.832,2.832,0,0,1,23.6-2.355v-5.9H21.876V-9.51h1.731v-2.3ZM40.685-3.349H35.323L34.119,0h-1.74l4.887-12.8h1.477L43.638,0H41.906Zm-4.852-1.38h4.351L38-10.714ZM51.5-5.01V0H49.816V-12.8h4.72a4.742,4.742,0,0,1,3.292,1.072,3.635,3.635,0,0,1,1.191,2.839,3.587,3.587,0,0,1-1.165,2.87A4.954,4.954,0,0,1,54.519-5.01Zm0-1.38h3.032a3.032,3.032,0,0,0,2.074-.638,2.334,2.334,0,0,0,.721-1.845A2.411,2.411,0,0,0,56.61-10.7a2.84,2.84,0,0,0-1.978-.713H51.5ZM65.51-8.051a4.873,4.873,0,0,0-.8-.062A2.143,2.143,0,0,0,62.543-6.75V0H60.917V-9.51H62.5l.026,1.1a2.532,2.532,0,0,1,2.268-1.274,1.661,1.661,0,0,1,.721.123Zm.89,3.208a5.617,5.617,0,0,1,.549-2.514A4.1,4.1,0,0,1,68.48-9.079a4.163,4.163,0,0,1,2.237-.606A4.01,4.01,0,0,1,73.859-8.34a5.174,5.174,0,0,1,1.2,3.577v.114a5.666,5.666,0,0,1-.532,2.492A4.038,4.038,0,0,1,73.006-.439a4.211,4.211,0,0,1-2.272.615A4,4,0,0,1,67.6-1.169a5.147,5.147,0,0,1-1.2-3.56Zm1.635.193a4.068,4.068,0,0,0,.734,2.54,2.349,2.349,0,0,0,1.964.958A2.335,2.335,0,0,0,72.7-2.123a4.449,4.449,0,0,0,.729-2.72,4.061,4.061,0,0,0-.743-2.536,2.361,2.361,0,0,0-1.973-.971,2.335,2.335,0,0,0-1.942.958,4.416,4.416,0,0,0-.735,2.743ZM89.042-5.915H83.5V-1.38h6.442V0h-8.13V-12.8h8.042v1.38H83.5V-7.3h5.546Zm8.279,3.393a1.2,1.2,0,0,0-.5-1.024,4.78,4.78,0,0,0-1.731-.628,8.186,8.186,0,0,1-1.96-.633,2.788,2.788,0,0,1-1.072-.879A2.1,2.1,0,0,1,91.714-6.9,2.467,2.467,0,0,1,92.7-8.877a3.861,3.861,0,0,1,2.527-.809,3.974,3.974,0,0,1,2.624.835,2.652,2.652,0,0,1,1.006,2.136H97.225a1.468,1.468,0,0,0-.567-1.151,2.124,2.124,0,0,0-1.428-.483,2.223,2.223,0,0,0-1.389.387,1.217,1.217,0,0,0-.5,1.011.986.986,0,0,0,.466.888,5.731,5.731,0,0,0,1.683.571,8.77,8.77,0,0,1,1.973.65,2.878,2.878,0,0,1,1.121.91,2.237,2.237,0,0,1,.365,1.3,2.434,2.434,0,0,1-1.02,2.043A4.277,4.277,0,0,1,95.283.18a4.789,4.789,0,0,1-2.021-.4,3.288,3.288,0,0,1-1.375-1.129,2.722,2.722,0,0,1-.5-1.569h1.626a1.683,1.683,0,0,0,.655,1.3,2.54,2.54,0,0,0,1.613.479,2.622,2.622,0,0,0,1.481-.374A1.148,1.148,0,0,0,97.321-2.522Zm9.281,0a1.2,1.2,0,0,0-.5-1.024,4.78,4.78,0,0,0-1.731-.628,8.186,8.186,0,0,1-1.96-.633,2.788,2.788,0,0,1-1.072-.879A2.1,2.1,0,0,1,101-6.9a2.467,2.467,0,0,1,.989-1.978,3.861,3.861,0,0,1,2.527-.809,3.974,3.974,0,0,1,2.624.835,2.652,2.652,0,0,1,1.006,2.136h-1.635a1.468,1.468,0,0,0-.567-1.151,2.124,2.124,0,0,0-1.428-.483,2.223,2.223,0,0,0-1.389.387,1.217,1.217,0,0,0-.5,1.011.986.986,0,0,0,.466.888,5.731,5.731,0,0,0,1.683.571,8.77,8.77,0,0,1,1.973.65,2.878,2.878,0,0,1,1.121.91,2.237,2.237,0,0,1,.365,1.3,2.434,2.434,0,0,1-1.02,2.043,4.277,4.277,0,0,1-2.646.769,4.789,4.789,0,0,1-2.021-.4,3.288,3.288,0,0,1-1.375-1.129,2.722,2.722,0,0,1-.5-1.569H102.3a1.683,1.683,0,0,0,.655,1.3,2.54,2.54,0,0,0,1.613.479,2.622,2.622,0,0,0,1.481-.374,1.148,1.148,0,0,0,.551-1.008ZM116.218,0a3.416,3.416,0,0,1-.229-1A3.628,3.628,0,0,1,113.282.176a3.357,3.357,0,0,1-2.307-.8,2.573,2.573,0,0,1-.9-2.017,2.688,2.688,0,0,1,1.125-2.3,5.325,5.325,0,0,1,3.177-.822h1.582v-.747a1.826,1.826,0,0,0-.51-1.358,2.049,2.049,0,0,0-1.5-.505,2.371,2.371,0,0,0-1.459.439,1.3,1.3,0,0,0-.589,1.063h-1.635a2.244,2.244,0,0,1,.5-1.375,3.449,3.449,0,0,1,1.371-1.05,4.613,4.613,0,0,1,1.9-.387,3.759,3.759,0,0,1,2.575.822,2.964,2.964,0,0,1,.967,2.263v4.377a5.351,5.351,0,0,0,.334,2.083V0Zm-2.7-1.239a2.858,2.858,0,0,0,1.45-.4,2.392,2.392,0,0,0,.993-1.028V-4.614h-1.274q-2.988,0-2.988,1.749a1.48,1.48,0,0,0,.51,1.2,1.959,1.959,0,0,0,1.311.426Zm9.729-1.143,2.215-7.128h1.74L123.381,1.468q-.888,2.373-2.821,2.373l-.308-.026-.606-.114V2.382l.439.035a2.164,2.164,0,0,0,1.288-.334,2.417,2.417,0,0,0,.76-1.222l.36-.967L119.1-9.51h1.775Z" transform="translate(285.58 1742.98)" fill="#2c2c2c"/>
    </g>
    <g id="Group_8681" data-name="Group 8681" transform="translate(-607.867 41.104)">
      <path id="Path_17872" data-name="Path 17872" d="M-17375.5,6683.84s17.129-15.475,53.879-19.5" transform="translate(18212 -5076)" fill="none" stroke="#c6c6c7" stroke-linecap="round" stroke-width="1" stroke-dasharray="2"/>
      <path id="Path_17873" data-name="Path 17873" d="M-17321.6,6683.84s-17.129-15.475-53.879-19.5" transform="translate(18393.746 -5079.723)" fill="none" stroke="#c6c6c7" stroke-linecap="round" stroke-width="1" stroke-dasharray="2"/>
      <g id="Group_5071" data-name="Group 5071" transform="translate(18208.002 -5079)">
        <g id="Group_5070" data-name="Group 5070" transform="translate(-17292.326 6621.289)">
          <rect id="Rectangle_2051-4" data-name="Rectangle 2051" width="99.949" height="145.384" rx="4" fill="#c8c8c8" opacity="0.4"/>
        </g>
        <g id="Group_4975" data-name="Group 4975" transform="translate(-17301 6615.648)">
          <rect id="Rectangle_2051-5" data-name="Rectangle 2051" width="104.801" height="146.704" rx="4" fill="#f1f2f6" opacity="0.4"/>
        </g>
        <g id="Group_5069" data-name="Group 5069" transform="translate(313.665 2262)">
          <g id="Group_4975-2" data-name="Group 4975" transform="translate(-17628.664 4345)">
            <g transform="matrix(1, 0, 0, 1, -217.14, -72.1)" filter="url(#Rectangle_2051)">
              <rect id="Rectangle_2051-6" data-name="Rectangle 2051" width="114.74" height="151.182" rx="4" transform="translate(217.14 72.1)" fill="#fff"/>
            </g>
          </g>
          <g id="Group_4987" data-name="Group 4987" transform="translate(-17588.229 4350.878)">
            <g id="Group_4982" data-name="Group 4982">
              <g id="Group_4981" data-name="Group 4981">
                <g id="Group_4980" data-name="Group 4980">
                  <path id="Path_17837" data-name="Path 17837" d="M-517,249.35h39.143" transform="translate(517.003 -249.35)" fill="#455a64"/>
                </g>
              </g>
            </g>
          </g>
          <g id="Group_5002" data-name="Group 5002" transform="translate(-17589.488 4367.15)">
            <g id="Group_4989" data-name="Group 4989" transform="translate(0 0.098)">
              <g id="Group_4988" data-name="Group 4988">
                <path id="Path_17839" data-name="Path 17839" d="M-514.633,280.8h-2.629l-.5,1.213h-1.343l2.524-5.663h1.294l2.532,5.663h-1.376Zm-.412-.995-.9-2.168-.9,2.168Z" transform="translate(519.107 -276.35)" fill="#2c2c2c"/>
              </g>
            </g>
            <g id="Group_4991" data-name="Group 4991" transform="translate(6.94 0.098)">
              <g id="Group_4990" data-name="Group 4990">
                <path id="Path_17840" data-name="Path 17840" d="M-503.906,282.013-505,280.435h-1.2v1.577h-1.311V276.35h2.451c1.513,0,2.459.784,2.459,2.055a1.841,1.841,0,0,1-1.165,1.788l1.27,1.82Zm-1.23-4.6H-506.2v1.974h1.067c.8,0,1.206-.372,1.206-.987s-.407-.983-1.209-.983Z" transform="translate(507.514 -276.35)" fill="#2c2c2c"/>
              </g>
            </g>
            <g id="Group_4993" data-name="Group 4993" transform="translate(12.165 0.098)">
              <g id="Group_4992" data-name="Group 4992">
                <path id="Path_17841" data-name="Path 17841" d="M-496.974,277.417h-1.812V276.35h4.935v1.067h-1.812v4.6h-1.311Z" transform="translate(498.786 -276.35)" fill="#2c2c2c"/>
              </g>
            </g>
            <g id="Group_4995" data-name="Group 4995" transform="translate(17.804 0.098)">
              <g id="Group_4994" data-name="Group 4994">
                <path id="Path_17842" data-name="Path 17842" d="M-489.367,276.35h1.31v5.663h-1.31Z" transform="translate(489.367 -276.35)" fill="#2c2c2c"/>
              </g>
            </g>
            <g id="Group_4997" data-name="Group 4997" transform="translate(20.101)">
              <g id="Group_4996" data-name="Group 4996">
                <path id="Path_17843" data-name="Path 17843" d="M-485.53,279.116a2.909,2.909,0,0,1,.9-2.13,2.909,2.909,0,0,1,2.171-.8,2.924,2.924,0,0,1,2.33,1l-.841.776a1.824,1.824,0,0,0-1.424-.663,1.737,1.737,0,0,0-1.3.507,1.737,1.737,0,0,0-.507,1.3,1.737,1.737,0,0,0,.507,1.3,1.737,1.737,0,0,0,1.3.507,1.8,1.8,0,0,0,1.424-.671l.841.776a2.909,2.909,0,0,1-2.338,1.011,2.907,2.907,0,0,1-2.165-.8,2.907,2.907,0,0,1-.9-2.125Z" transform="translate(485.53 -276.187)" fill="#2c2c2c"/>
              </g>
            </g>
            <g id="Group_4999" data-name="Group 4999" transform="translate(26.386 0.098)">
              <g id="Group_4998" data-name="Group 4998">
                <path id="Path_17844" data-name="Path 17844" d="M-475.032,276.35h1.31v4.6h2.839v1.068h-4.15Z" transform="translate(475.032 -276.35)" fill="#2c2c2c"/>
              </g>
            </g>
            <g id="Group_5001" data-name="Group 5001" transform="translate(31.271 0.098)">
              <g id="Group_5000" data-name="Group 5000">
                <path id="Path_17845" data-name="Path 17845" d="M-462.486,280.961v1.051h-4.385V276.35h4.279v1.05h-2.977v1.23h2.629v1.019h-2.629v1.311Z" transform="translate(466.871 -276.35)" fill="#2c2c2c"/>
              </g>
            </g>
          </g>
          <g id="Group_5017" data-name="Group 5017" transform="translate(-17549.861 4462.537)">
            <g id="Group_5016" data-name="Group 5016">
              <g id="Group_5015" data-name="Group 5015">
                <g id="Group_5014" data-name="Group 5014">
                  <g id="Group_5013" data-name="Group 5013">
                    <g id="Group_5012" data-name="Group 5012">
                      <g id="Group_5011" data-name="Group 5011">
                        <rect id="Rectangle_2052" data-name="Rectangle 2052" width="27.517" height="26.622" fill="#f3f3f7"/>
                      </g>
                    </g>
                  </g>
                </g>
              </g>
            </g>
          </g>
          <g id="Group_5024" data-name="Group 5024" transform="translate(-17550.676 4472.608)">
            <g id="Group_5023" data-name="Group 5023">
              <g id="Group_5022" data-name="Group 5022">
                <g id="Group_5021" data-name="Group 5021">
                  <g id="Group_5020" data-name="Group 5020">
                    <g id="Group_5019" data-name="Group 5019">
                      <g id="Group_5018" data-name="Group 5018">
                        <path id="Path_17848" data-name="Path 17848" d="M-454.273,466.39l7.612-13.7,6.226,8.756,3.783-4.65,5.629,9.593Z" transform="translate(457.221 -452.117)" fill="#c6c6c7"/>
                      </g>
                    </g>
                  </g>
                </g>
              </g>
            </g>
          </g>
          <g id="Group_5031" data-name="Group 5031" transform="translate(-17535.199 4468.536)">
            <g id="Group_5030" data-name="Group 5030">
              <g id="Group_5029" data-name="Group 5029">
                <g id="Group_5028" data-name="Group 5028">
                  <g id="Group_5027" data-name="Group 5027">
                    <g id="Group_5026" data-name="Group 5026">
                      <g id="Group_5025" data-name="Group 5025">
                        <path id="Path_17849" data-name="Path 17849" d="M-429.912,445.461a2.053,2.053,0,0,1-.069,2.831,2.053,2.053,0,0,1-2.831.069,2.053,2.053,0,0,1,.068-2.831,2.053,2.053,0,0,1,2.831-.068Z" transform="translate(433.343 -444.931)" fill="#c6c6c7"/>
                      </g>
                    </g>
                  </g>
                </g>
              </g>
            </g>
          </g>
          <g id="Group_5066" data-name="Group 5066" transform="translate(-17620.035 4403.516)">
            <rect id="Rectangle_2053" data-name="Rectangle 2053" width="58.442" height="37.311" fill="#f3f3f7"/>
          </g>
          <g id="Group_5067" data-name="Group 5067" transform="translate(-17615.637 4418.117)">
            <path id="Path_17867" data-name="Path 17867" d="M-562.787,381.411l15.32-19.743,11.071,12.645,8.473-7.626,15.409,14.724Z" transform="translate(562.787 -361.667)" fill="#c6c6c7"/>
          </g>
          <g id="Group_5068" data-name="Group 5068" transform="translate(-17592.65 4412.352)">
            <path id="Path_17868" data-name="Path 17868" d="M-517.559,355.452a3.416,3.416,0,0,1-3.416,3.416,3.415,3.415,0,0,1-3.415-3.416,3.415,3.415,0,0,1,3.415-3.415,3.416,3.416,0,0,1,3.416,3.415Z" transform="translate(524.39 -352.037)" fill="#c6c6c7"/>
          </g>
          <rect id="Rectangle_2054" data-name="Rectangle 2054" width="38.912" height="1.796" transform="translate(-17588.156 4349.19)" fill="#cfe6ff"/>
          <rect id="Rectangle_2055" data-name="Rectangle 2055" width="27.538" height="1.197" transform="translate(-17619.885 4369.545)" fill="#cfe6ff"/>
          <rect id="Rectangle_2057" data-name="Rectangle 2057" width="27.538" height="1.197" transform="translate(-17619.885 4379.722)" fill="#cfe6ff"/>
          <rect id="Rectangle_2058" data-name="Rectangle 2058" width="27.538" height="1.197" transform="translate(-17619.885 4385.109)" fill="#cfe6ff"/>
          <rect id="Rectangle_2062" data-name="Rectangle 2062" width="41.307" height="1.197" transform="translate(-17619.885 4396.484)" fill="#cfe6ff"/>
          <rect id="Rectangle_2075" data-name="Rectangle 2075" width="58.069" height="1.197" transform="translate(-17619.885 4462.934)" fill="#cfe6ff"/>
          <rect id="Rectangle_2076" data-name="Rectangle 2076" width="58.069" height="1.197" transform="translate(-17619.885 4470.118)" fill="#cfe6ff"/>
          <rect id="Rectangle_2077" data-name="Rectangle 2077" width="58.069" height="1.197" transform="translate(-17619.885 4477.9)" fill="#cfe6ff"/>
          <rect id="Rectangle_2079" data-name="Rectangle 2079" width="58.069" height="1.197" transform="translate(-17619.885 4485.683)" fill="#cfe6ff"/>
          <rect id="Rectangle_2072" data-name="Rectangle 2072" width="41.307" height="1.197" transform="translate(-17619.885 4455.75)" fill="#cfe6ff"/>
          <rect id="Rectangle_2074" data-name="Rectangle 2074" width="22.749" height="1.197" transform="translate(-17545.055 4455.75)" fill="#cfe6ff"/>
          <rect id="Rectangle_2073" data-name="Rectangle 2073" width="22.749" height="1.197" transform="translate(-17573.191 4455.75)" fill="#cfe6ff"/>
          <rect id="Rectangle_2065" data-name="Rectangle 2065" width="34.722" height="1.197" transform="translate(-17557.027 4403.668)" fill="#cfe6ff"/>
          <rect id="Rectangle_2066" data-name="Rectangle 2066" width="34.722" height="1.197" transform="translate(-17557.027 4410.852)" fill="#cfe6ff"/>
          <rect id="Rectangle_2067" data-name="Rectangle 2067" width="34.722" height="1.197" transform="translate(-17557.027 4418.036)" fill="#cfe6ff"/>
          <rect id="Rectangle_2068" data-name="Rectangle 2068" width="34.722" height="1.197" transform="translate(-17557.027 4425.219)" fill="#cfe6ff"/>
          <rect id="Rectangle_2069" data-name="Rectangle 2069" width="34.722" height="1.197" transform="translate(-17557.027 4432.403)" fill="#cfe6ff"/>
          <rect id="Rectangle_2070" data-name="Rectangle 2070" width="34.722" height="1.197" transform="translate(-17557.027 4439.587)" fill="#cfe6ff"/>
          <rect id="Rectangle_2063" data-name="Rectangle 2063" width="11.973" height="1.197" transform="translate(-17571.395 4396.484)" fill="#cfe6ff"/>
          <rect id="Rectangle_2061" data-name="Rectangle 2061" width="97.58" height="1.197" transform="translate(-17619.885 4390.498)" fill="#cfe6ff"/>
          <rect id="Rectangle_2071" data-name="Rectangle 2071" width="97.58" height="1.197" transform="translate(-17619.885 4447.968)" fill="#cfe6ff"/>
          <rect id="Rectangle_2059" data-name="Rectangle 2059" width="27.538" height="1.197" transform="translate(-17583.967 4385.109)" fill="#cfe6ff"/>
          <rect id="Rectangle_2060" data-name="Rectangle 2060" width="27.538" height="1.197" transform="translate(-17549.844 4385.109)" fill="#cfe6ff"/>
          <rect id="Rectangle_2056" data-name="Rectangle 2056" width="27.538" height="1.197" transform="translate(-17549.844 4369.545)" fill="#cfe6ff"/>
          <line id="Line_48" data-name="Line 48" x2="113.744" transform="translate(-17627.967 4353.681)" fill="none" stroke="#cfe6ff" stroke-width="1"/>
        </g>
      </g>
      <g id="Group_5072" data-name="Group 5072" transform="translate(15142.869 -10064.012) rotate(-18)">
        <g id="Group_5070-2" data-name="Group 5070" transform="translate(-17296.301 6618.784)">
          <rect id="Rectangle_2051-7" data-name="Rectangle 2051" width="82.425" height="119.895" rx="4" fill="#c8c8c8"/>
        </g>
        <g id="Group_4975-3" data-name="Group 4975" transform="translate(-17303.455 6614.132)">
          <rect id="Rectangle_2051-8" data-name="Rectangle 2051" width="86.426" height="120.983" rx="4" fill="#f3f3f7"/>
        </g>
        <g id="Group_5069-2" data-name="Group 5069" transform="translate(-17315 6607)">
          <g id="Group_4975-4" data-name="Group 4975">
            <g transform="matrix(0.95, 0.31, -0.31, 0.95, -4.81, -121.11)" filter="url(#Rectangle_2051-2)">
              <rect id="Rectangle_2051-9" data-name="Rectangle 2051" width="94.623" height="124.676" rx="4" transform="translate(42 113.68) rotate(-18)" fill="#fff"/>
            </g>
          </g>
          <g id="Group_4987-2" data-name="Group 4987" transform="translate(33.346 4.847)">
            <g id="Group_4982-2" data-name="Group 4982">
              <g id="Group_4981-2" data-name="Group 4981">
                <g id="Group_4980-2" data-name="Group 4980">
                  <path id="Path_17837-2" data-name="Path 17837" d="M0,0H32.28" fill="#455a64"/>
                </g>
              </g>
            </g>
          </g>
          <g id="Group_5002-2" data-name="Group 5002" transform="translate(32.307 18.266)">
            <g id="Group_4989-2" data-name="Group 4989" transform="translate(0 0.08)">
              <g id="Group_4988-2" data-name="Group 4988">
                <path id="Path_17839-2" data-name="Path 17839" d="M3.689,3.669H1.521l-.413,1H0L2.082,0H3.149L5.238,4.67H4.1Zm-.34-.821L2.609,1.06,1.868,2.849Z" fill="#2c2c2c"/>
              </g>
            </g>
            <g id="Group_4991-2" data-name="Group 4991" transform="translate(5.723 0.08)">
              <g id="Group_4990-2" data-name="Group 4990">
                <path id="Path_17840-2" data-name="Path 17840" d="M2.975,4.67l-.9-1.3H1.081v1.3H0V0H2.022C3.269,0,4.05.647,4.05,1.694a1.518,1.518,0,0,1-.961,1.475l1.048,1.5ZM1.961.88h-.88V2.508h.88c.661,0,.994-.307.994-.814S2.622.88,1.961.88Z" fill="#2c2c2c"/>
              </g>
            </g>
            <g id="Group_4993-2" data-name="Group 4993" transform="translate(10.032 0.08)">
              <g id="Group_4992-2" data-name="Group 4992">
                <path id="Path_17841-2" data-name="Path 17841" d="M1.494.88H0V0H4.07V.88H2.576V4.67H1.494Z" fill="#2c2c2c"/>
              </g>
            </g>
            <g id="Group_4995-2" data-name="Group 4995" transform="translate(14.682 0.08)">
              <g id="Group_4994-2" data-name="Group 4994">
                <path id="Path_17842-2" data-name="Path 17842" d="M0,0H1.081V4.67H0Z" fill="#2c2c2c"/>
              </g>
            </g>
            <g id="Group_4997-2" data-name="Group 4997" transform="translate(16.577)">
              <g id="Group_4996-2" data-name="Group 4996">
                <path id="Path_17843-2" data-name="Path 17843" d="M0,2.415A2.4,2.4,0,0,1,2.535,0,2.411,2.411,0,0,1,4.456.827l-.694.64A1.5,1.5,0,0,0,2.588.921,1.433,1.433,0,0,0,1.094,2.415a1.432,1.432,0,0,0,1.494,1.5,1.489,1.489,0,0,0,1.174-.553L4.456,4a2.4,2.4,0,0,1-1.928.834A2.4,2.4,0,0,1,0,2.415Z" fill="#2c2c2c"/>
              </g>
            </g>
            <g id="Group_4999-2" data-name="Group 4999" transform="translate(21.759 0.08)">
              <g id="Group_4998-2" data-name="Group 4998">
                <path id="Path_17844-2" data-name="Path 17844" d="M0,0H1.081V3.789H3.422V4.67H0Z" fill="#2c2c2c"/>
              </g>
            </g>
            <g id="Group_5001-2" data-name="Group 5001" transform="translate(25.788 0.08)">
              <g id="Group_5000-2" data-name="Group 5000">
                <path id="Path_17845-2" data-name="Path 17845" d="M3.616,3.8v.87H0V0H3.529V.867H1.074V1.881H3.242v.84H1.074V3.8Z" fill="#2c2c2c"/>
              </g>
            </g>
          </g>
          <g id="Group_5017-2" data-name="Group 5017" transform="translate(64.987 96.929)">
            <g id="Group_5016-2" data-name="Group 5016">
              <g id="Group_5015-2" data-name="Group 5015">
                <g id="Group_5014-2" data-name="Group 5014">
                  <g id="Group_5013-2" data-name="Group 5013">
                    <g id="Group_5012-2" data-name="Group 5012">
                      <g id="Group_5011-2" data-name="Group 5011">
                        <rect id="Rectangle_2052-2" data-name="Rectangle 2052" width="22.692" height="21.955" fill="#f3f3f7"/>
                      </g>
                    </g>
                  </g>
                </g>
              </g>
            </g>
          </g>
          <g id="Group_5024-2" data-name="Group 5024" transform="translate(66.746 105.707)">
            <g id="Group_5023-2" data-name="Group 5023">
              <g id="Group_5022-2" data-name="Group 5022">
                <g id="Group_5021-2" data-name="Group 5021">
                  <g id="Group_5020-2" data-name="Group 5020">
                    <g id="Group_5019-2" data-name="Group 5019">
                      <g id="Group_5018-2" data-name="Group 5018">
                        <path id="Path_17848-2" data-name="Path 17848" d="M0,11.3,6.277,0l5.135,7.221,3.12-3.835L19.174,11.3Z" fill="#c8c8c8"/>
                      </g>
                    </g>
                  </g>
                </g>
              </g>
            </g>
          </g>
          <g id="Group_5031-2" data-name="Group 5031" transform="translate(77.078 101.877)">
            <g id="Group_5030-2" data-name="Group 5030">
              <g id="Group_5029-2" data-name="Group 5029">
                <g id="Group_5028-2" data-name="Group 5028">
                  <g id="Group_5027-2" data-name="Group 5027">
                    <g id="Group_5026-2" data-name="Group 5026">
                      <g id="Group_5025-2" data-name="Group 5025">
                        <path id="Path_17849-2" data-name="Path 17849" d="M2.83.437A1.693,1.693,0,0,1,.437,2.83,1.693,1.693,0,0,1,2.83.437Z" fill="#c8c8c8"/>
                      </g>
                    </g>
                  </g>
                </g>
              </g>
            </g>
          </g>
          <g id="Group_5066-2" data-name="Group 5066" transform="translate(7.116 48.257)">
            <rect id="Rectangle_2053-2" data-name="Rectangle 2053" width="48.196" height="30.77" fill="#f3f3f7"/>
          </g>
          <g id="Group_5067-2" data-name="Group 5067" transform="translate(10.743 60.297)">
            <path id="Path_17867-2" data-name="Path 17867" d="M0,16.282,12.634,0l9.13,10.428,6.987-6.289L41.459,16.282Z" fill="#c8c8c8"/>
          </g>
          <g id="Group_5068-2" data-name="Group 5068" transform="translate(29.7 55.543)">
            <path id="Path_17868-2" data-name="Path 17868" d="M5.633,2.817A2.817,2.817,0,1,1,2.816,0,2.817,2.817,0,0,1,5.633,2.817Z" fill="#c8c8c8"/>
          </g>
          <rect id="Rectangle_2054-2" data-name="Rectangle 2054" width="32.09" height="1.481" transform="translate(33.406 3.456)" fill="#cfe6ff"/>
          <rect id="Rectangle_2055-2" data-name="Rectangle 2055" width="22.71" height="0.987" transform="translate(7.24 20.242)" fill="#cfe6ff"/>
          <rect id="Rectangle_2057-2" data-name="Rectangle 2057" width="22.71" height="0.987" transform="translate(7.24 28.634)" fill="#cfe6ff"/>
          <rect id="Rectangle_2058-2" data-name="Rectangle 2058" width="22.71" height="0.987" transform="translate(7.24 33.077)" fill="#cfe6ff"/>
          <rect id="Rectangle_2062-2" data-name="Rectangle 2062" width="34.065" height="0.987" transform="translate(7.24 42.457)" fill="#cfe6ff"/>
          <rect id="Rectangle_2075-2" data-name="Rectangle 2075" width="47.888" height="0.987" transform="translate(7.24 97.257)" fill="#cfe6ff"/>
          <rect id="Rectangle_2076-2" data-name="Rectangle 2076" width="47.888" height="0.987" transform="translate(7.24 103.182)" fill="#cfe6ff"/>
          <rect id="Rectangle_2077-2" data-name="Rectangle 2077" width="47.888" height="0.987" transform="translate(7.24 109.599)" fill="#cfe6ff"/>
          <rect id="Rectangle_2079-2" data-name="Rectangle 2079" width="47.888" height="0.987" transform="translate(7.24 116.018)" fill="#cfe6ff"/>
          <rect id="Rectangle_2072-2" data-name="Rectangle 2072" width="34.065" height="0.987" transform="translate(7.24 91.333)" fill="#cfe6ff"/>
          <rect id="Rectangle_2074-2" data-name="Rectangle 2074" width="18.76" height="0.987" transform="translate(68.95 91.333)" fill="#cfe6ff"/>
          <rect id="Rectangle_2073-2" data-name="Rectangle 2073" width="18.76" height="0.987" transform="translate(45.747 91.333)" fill="#cfe6ff"/>
          <rect id="Rectangle_2065-2" data-name="Rectangle 2065" width="28.634" height="0.987" transform="translate(59.077 48.382)" fill="#cfe6ff"/>
          <rect id="Rectangle_2066-2" data-name="Rectangle 2066" width="28.634" height="0.987" transform="translate(59.077 54.306)" fill="#cfe6ff"/>
          <rect id="Rectangle_2067-2" data-name="Rectangle 2067" width="28.634" height="0.987" transform="translate(59.077 60.231)" fill="#cfe6ff"/>
          <rect id="Rectangle_2068-2" data-name="Rectangle 2068" width="28.634" height="0.987" transform="translate(59.077 66.155)" fill="#cfe6ff"/>
          <rect id="Rectangle_2069-2" data-name="Rectangle 2069" width="28.634" height="0.987" transform="translate(59.077 72.079)" fill="#cfe6ff"/>
          <rect id="Rectangle_2070-2" data-name="Rectangle 2070" width="28.634" height="0.987" transform="translate(59.077 78.003)" fill="#cfe6ff"/>
          <rect id="Rectangle_2063-2" data-name="Rectangle 2063" width="9.874" height="0.987" transform="translate(47.229 42.457)" fill="#cfe6ff"/>
          <rect id="Rectangle_2061-2" data-name="Rectangle 2061" width="80.472" height="0.987" transform="translate(7.24 37.521)" fill="#cfe6ff"/>
          <rect id="Rectangle_2071-2" data-name="Rectangle 2071" width="80.472" height="0.987" transform="translate(7.24 84.915)" fill="#cfe6ff"/>
          <rect id="Rectangle_2059-2" data-name="Rectangle 2059" width="22.71" height="0.987" transform="translate(36.861 33.077)" fill="#cfe6ff"/>
          <rect id="Rectangle_2060-2" data-name="Rectangle 2060" width="22.71" height="0.987" transform="translate(65.001 33.077)" fill="#cfe6ff"/>
          <rect id="Rectangle_2056-2" data-name="Rectangle 2056" width="22.71" height="0.987" transform="translate(65.001 20.242)" fill="#cfe6ff"/>
          <line id="Line_48-2" data-name="Line 48" x2="93.801" transform="translate(0.575 7.159)" fill="none" stroke="#cfe6ff" stroke-width="1"/>
        </g>
      </g>
      <g id="Group_5073" data-name="Group 5073" transform="translate(19604.668 605.999) rotate(18)">
        <g id="Group_5070-3" data-name="Group 5070" transform="translate(-17296.301 6618.784)">
          <rect id="Rectangle_2051-10" data-name="Rectangle 2051" width="82.425" height="119.895" fill="#c6c6c7"/>
        </g>
        <g id="Group_4975-5" data-name="Group 4975" transform="translate(-17303.455 6614.132)">
          <rect id="Rectangle_2051-11" data-name="Rectangle 2051" width="86.426" height="120.983" fill="#f0f1f5"/>
        </g>
        <g id="Group_5069-3" data-name="Group 5069" transform="translate(-17315 6607)">
          <g id="Group_4975-6" data-name="Group 4975">
            <g transform="matrix(0.95, -0.31, 0.31, 0.95, -425.77, 51.04)" filter="url(#Rectangle_2051-3)">
              <rect id="Rectangle_2051-12" data-name="Rectangle 2051" width="94.623" height="124.676" rx="4" transform="translate(420.67 83.02) rotate(18)" fill="#fff"/>
            </g>
          </g>
          <g id="Group_4987-3" data-name="Group 4987" transform="translate(33.346 4.847)">
            <g id="Group_4982-3" data-name="Group 4982">
              <g id="Group_4981-3" data-name="Group 4981">
                <g id="Group_4980-3" data-name="Group 4980">
                  <path id="Path_17837-3" data-name="Path 17837" d="M0,0H32.28" fill="#455a64"/>
                </g>
              </g>
            </g>
          </g>
          <g id="Group_5002-3" data-name="Group 5002" transform="translate(32.307 18.266)">
            <g id="Group_4989-3" data-name="Group 4989" transform="translate(0 0.08)">
              <g id="Group_4988-3" data-name="Group 4988">
                <path id="Path_17839-3" data-name="Path 17839" d="M3.689,3.669H1.521l-.413,1H0L2.082,0H3.149L5.238,4.67H4.1Zm-.34-.821L2.609,1.06,1.868,2.849Z" fill="#2c2c2c"/>
              </g>
            </g>
            <g id="Group_4991-3" data-name="Group 4991" transform="translate(5.723 0.08)">
              <g id="Group_4990-3" data-name="Group 4990">
                <path id="Path_17840-3" data-name="Path 17840" d="M2.975,4.67l-.9-1.3H1.081v1.3H0V0H2.022C3.269,0,4.05.647,4.05,1.694a1.518,1.518,0,0,1-.961,1.475l1.048,1.5ZM1.961.88h-.88V2.508h.88c.661,0,.994-.307.994-.814S2.622.88,1.961.88Z" fill="#2c2c2c"/>
              </g>
            </g>
            <g id="Group_4993-3" data-name="Group 4993" transform="translate(10.032 0.08)">
              <g id="Group_4992-3" data-name="Group 4992">
                <path id="Path_17841-3" data-name="Path 17841" d="M1.494.88H0V0H4.07V.88H2.576V4.67H1.494Z" fill="#2c2c2c"/>
              </g>
            </g>
            <g id="Group_4995-3" data-name="Group 4995" transform="translate(14.682 0.08)">
              <g id="Group_4994-3" data-name="Group 4994">
                <path id="Path_17842-3" data-name="Path 17842" d="M0,0H1.081V4.67H0Z" fill="#2c2c2c"/>
              </g>
            </g>
            <g id="Group_4997-3" data-name="Group 4997" transform="translate(16.577)">
              <g id="Group_4996-3" data-name="Group 4996">
                <path id="Path_17843-3" data-name="Path 17843" d="M0,2.415A2.4,2.4,0,0,1,2.535,0,2.411,2.411,0,0,1,4.456.827l-.694.64A1.5,1.5,0,0,0,2.588.921,1.433,1.433,0,0,0,1.094,2.415a1.432,1.432,0,0,0,1.494,1.5,1.489,1.489,0,0,0,1.174-.553L4.456,4a2.4,2.4,0,0,1-1.928.834A2.4,2.4,0,0,1,0,2.415Z" fill="#2c2c2c"/>
              </g>
            </g>
            <g id="Group_4999-3" data-name="Group 4999" transform="translate(21.759 0.08)">
              <g id="Group_4998-3" data-name="Group 4998">
                <path id="Path_17844-3" data-name="Path 17844" d="M0,0H1.081V3.789H3.422V4.67H0Z" fill="#2c2c2c"/>
              </g>
            </g>
            <g id="Group_5001-3" data-name="Group 5001" transform="translate(25.788 0.08)">
              <g id="Group_5000-3" data-name="Group 5000">
                <path id="Path_17845-3" data-name="Path 17845" d="M3.616,3.8v.87H0V0H3.529V.867H1.074V1.881H3.242v.84H1.074V3.8Z" fill="#2c2c2c"/>
              </g>
            </g>
          </g>
          <g id="Group_5017-3" data-name="Group 5017" transform="translate(64.987 96.929)">
            <g id="Group_5016-3" data-name="Group 5016">
              <g id="Group_5015-3" data-name="Group 5015">
                <g id="Group_5014-3" data-name="Group 5014">
                  <g id="Group_5013-3" data-name="Group 5013">
                    <g id="Group_5012-3" data-name="Group 5012">
                      <g id="Group_5011-3" data-name="Group 5011">
                        <rect id="Rectangle_2052-3" data-name="Rectangle 2052" width="22.692" height="21.955" fill="#f3f3f7"/>
                      </g>
                    </g>
                  </g>
                </g>
              </g>
            </g>
          </g>
          <g id="Group_5024-3" data-name="Group 5024" transform="translate(66.746 105.707)">
            <g id="Group_5023-3" data-name="Group 5023">
              <g id="Group_5022-3" data-name="Group 5022">
                <g id="Group_5021-3" data-name="Group 5021">
                  <g id="Group_5020-3" data-name="Group 5020">
                    <g id="Group_5019-3" data-name="Group 5019">
                      <g id="Group_5018-3" data-name="Group 5018">
                        <path id="Path_17848-3" data-name="Path 17848" d="M0,11.3,6.277,0l5.135,7.221,3.12-3.835L19.174,11.3Z" fill="#c6c6c7"/>
                      </g>
                    </g>
                  </g>
                </g>
              </g>
            </g>
          </g>
          <g id="Group_5031-3" data-name="Group 5031" transform="translate(77.078 101.877)">
            <g id="Group_5030-3" data-name="Group 5030">
              <g id="Group_5029-3" data-name="Group 5029">
                <g id="Group_5028-3" data-name="Group 5028">
                  <g id="Group_5027-3" data-name="Group 5027">
                    <g id="Group_5026-3" data-name="Group 5026">
                      <g id="Group_5025-3" data-name="Group 5025">
                        <path id="Path_17849-3" data-name="Path 17849" d="M2.83.437A1.693,1.693,0,0,1,.437,2.83,1.693,1.693,0,0,1,2.83.437Z" fill="#c6c6c7"/>
                      </g>
                    </g>
                  </g>
                </g>
              </g>
            </g>
          </g>
          <g id="Group_5066-3" data-name="Group 5066" transform="translate(7.116 48.257)">
            <rect id="Rectangle_2053-3" data-name="Rectangle 2053" width="48.196" height="30.77" fill="#f3f3f7"/>
          </g>
          <g id="Group_5067-3" data-name="Group 5067" transform="translate(10.743 60.297)">
            <path id="Path_17867-3" data-name="Path 17867" d="M0,16.282,12.634,0l9.13,10.428,6.987-6.289L41.459,16.282Z" fill="#c6c6c7"/>
          </g>
          <g id="Group_5068-3" data-name="Group 5068" transform="translate(29.7 55.543)">
            <path id="Path_17868-3" data-name="Path 17868" d="M5.633,2.817A2.817,2.817,0,1,1,2.816,0,2.817,2.817,0,0,1,5.633,2.817Z" fill="#c6c6c7"/>
          </g>
          <rect id="Rectangle_2054-3" data-name="Rectangle 2054" width="32.09" height="1.481" transform="translate(33.406 3.456)" fill="#cfe6ff"/>
          <rect id="Rectangle_2055-3" data-name="Rectangle 2055" width="22.71" height="0.987" transform="translate(7.24 20.242)" fill="#cfe6ff"/>
          <rect id="Rectangle_2057-3" data-name="Rectangle 2057" width="22.71" height="0.987" transform="translate(7.24 28.634)" fill="#cfe6ff"/>
          <rect id="Rectangle_2058-3" data-name="Rectangle 2058" width="22.71" height="0.987" transform="translate(7.24 33.077)" fill="#cfe6ff"/>
          <rect id="Rectangle_2062-3" data-name="Rectangle 2062" width="34.065" height="0.987" transform="translate(7.24 42.457)" fill="#cfe6ff"/>
          <rect id="Rectangle_2075-3" data-name="Rectangle 2075" width="47.888" height="0.987" transform="translate(7.24 97.257)" fill="#cfe6ff"/>
          <rect id="Rectangle_2076-3" data-name="Rectangle 2076" width="47.888" height="0.987" transform="translate(7.24 103.182)" fill="#cfe6ff"/>
          <rect id="Rectangle_2077-3" data-name="Rectangle 2077" width="47.888" height="0.987" transform="translate(7.24 109.599)" fill="#cfe6ff"/>
          <rect id="Rectangle_2079-3" data-name="Rectangle 2079" width="47.888" height="0.987" transform="translate(7.24 116.018)" fill="#cfe6ff"/>
          <rect id="Rectangle_2072-3" data-name="Rectangle 2072" width="34.065" height="0.987" transform="translate(7.24 91.333)" fill="#cfe6ff"/>
          <rect id="Rectangle_2074-3" data-name="Rectangle 2074" width="18.76" height="0.987" transform="translate(68.95 91.333)" fill="#cfe6ff"/>
          <rect id="Rectangle_2073-3" data-name="Rectangle 2073" width="18.76" height="0.987" transform="translate(45.747 91.333)" fill="#cfe6ff"/>
          <rect id="Rectangle_2065-3" data-name="Rectangle 2065" width="28.634" height="0.987" transform="translate(59.077 48.382)" fill="#cfe6ff"/>
          <rect id="Rectangle_2066-3" data-name="Rectangle 2066" width="28.634" height="0.987" transform="translate(59.077 54.306)" fill="#cfe6ff"/>
          <rect id="Rectangle_2067-3" data-name="Rectangle 2067" width="28.634" height="0.987" transform="translate(59.077 60.231)" fill="#cfe6ff"/>
          <rect id="Rectangle_2068-3" data-name="Rectangle 2068" width="28.634" height="0.987" transform="translate(59.077 66.155)" fill="#cfe6ff"/>
          <rect id="Rectangle_2069-3" data-name="Rectangle 2069" width="28.634" height="0.987" transform="translate(59.077 72.079)" fill="#cfe6ff"/>
          <rect id="Rectangle_2070-3" data-name="Rectangle 2070" width="28.634" height="0.987" transform="translate(59.077 78.003)" fill="#cfe6ff"/>
          <rect id="Rectangle_2063-3" data-name="Rectangle 2063" width="9.874" height="0.987" transform="translate(47.229 42.457)" fill="#cfe6ff"/>
          <rect id="Rectangle_2061-3" data-name="Rectangle 2061" width="80.472" height="0.987" transform="translate(7.24 37.521)" fill="#cfe6ff"/>
          <rect id="Rectangle_2071-3" data-name="Rectangle 2071" width="80.472" height="0.987" transform="translate(7.24 84.915)" fill="#cfe6ff"/>
          <rect id="Rectangle_2059-3" data-name="Rectangle 2059" width="22.71" height="0.987" transform="translate(36.861 33.077)" fill="#cfe6ff"/>
          <rect id="Rectangle_2060-3" data-name="Rectangle 2060" width="22.71" height="0.987" transform="translate(65.001 33.077)" fill="#cfe6ff"/>
          <rect id="Rectangle_2056-3" data-name="Rectangle 2056" width="22.71" height="0.987" transform="translate(65.001 20.242)" fill="#cfe6ff"/>
          <line id="Line_48-3" data-name="Line 48" x2="93.801" transform="translate(0.575 7.159)" fill="none" stroke="#cfe6ff" stroke-width="1"/>
        </g>
      </g>
      <path id="Polygon_14" data-name="Polygon 14" d="M5,0l5,8H0Z" transform="translate(891.363 1583.609) rotate(84)" fill="#c8c8c8"/>
      <path id="Polygon_15" data-name="Polygon 15" d="M5,0l5,8H0Z" transform="translate(1016.217 1589.832) rotate(-83.976)" fill="#c6c6c7"/>
    </g>
  </g>
</svg>
