<svg xmlns="http://www.w3.org/2000/svg" width="109.345" height="32.407" viewBox="0 0 109.345 32.407"><defs><style>.a{fill:#fff;}.b{fill:#a6a6a6;}</style></defs><path class="a" d="M118.569,38.53a3.1,3.1,0,0,1-3.107,3.1H13.792a3.107,3.107,0,0,1-3.111-3.1V13.787a3.111,3.111,0,0,1,3.111-3.107h101.67a3.107,3.107,0,0,1,3.107,3.107V38.53Z" transform="translate(-9.954 -9.953)"/><path class="b" d="M105.514,32.407H3.832A3.833,3.833,0,0,1,0,28.581V3.83A3.836,3.836,0,0,1,3.832,0H105.513a3.837,3.837,0,0,1,3.832,3.83V28.581a3.833,3.833,0,0,1-3.832,3.826Z"/><path d="M118.569,38.53a3.1,3.1,0,0,1-3.107,3.1H13.792a3.107,3.107,0,0,1-3.111-3.1V13.787a3.111,3.111,0,0,1,3.111-3.107h101.67a3.107,3.107,0,0,1,3.107,3.107V38.53Z" transform="translate(-9.954 -9.953)"/><path class="a" d="M167.666,85.687a4.735,4.735,0,0,1,2.255-3.973,4.85,4.85,0,0,0-3.82-2.065c-1.607-.169-3.165.961-3.984.961-.835,0-2.1-.945-3.454-.917a5.086,5.086,0,0,0-4.28,2.611c-1.851,3.2-.471,7.914,1.3,10.5.887,1.269,1.924,2.685,3.281,2.635,1.327-.054,1.823-.845,3.425-.845s2.053.845,3.437.814c1.425-.022,2.322-1.274,3.178-2.554a10.474,10.474,0,0,0,1.453-2.96A4.581,4.581,0,0,1,167.666,85.687Zm-2.614-7.742a4.661,4.661,0,0,0,1.067-3.34,4.748,4.748,0,0,0-3.07,1.588,4.435,4.435,0,0,0-1.095,3.217A3.922,3.922,0,0,0,165.052,77.944Z" transform="translate(-143.055 -69.637)"/><g transform="translate(33.787 14.444)"><path class="a" d="M518.338,227.022h-1.855l-1.016-3.193h-3.532l-.968,3.193H509.16l3.5-10.871h2.161Zm-3.178-4.533-.919-2.839q-.146-.435-.548-2.048h-.033q-.162.694-.516,2.048l-.9,2.839Zm12.162.517a4.439,4.439,0,0,1-1.086,3.161,3.185,3.185,0,0,1-2.416,1.033,2.419,2.419,0,0,1-2.238-1.112V230.2h-1.742V221.76q0-1.256-.064-2.576h1.532l.1,1.242h.033a3.1,3.1,0,0,1,4.959-.308,4.335,4.335,0,0,1,.926,2.889Zm-1.774.064a3.232,3.232,0,0,0-.516-1.888,1.784,1.784,0,0,0-1.516-.774,1.811,1.811,0,0,0-1.169.427,1.981,1.981,0,0,0-.685,1.122,2.274,2.274,0,0,0-.081.53V223.8a2.1,2.1,0,0,0,.524,1.444,1.741,1.741,0,0,0,1.363.589A1.785,1.785,0,0,0,525,225.07,3.337,3.337,0,0,0,525.547,223.07Zm10.79-.064a4.439,4.439,0,0,1-1.086,3.161,3.188,3.188,0,0,1-2.417,1.033,2.419,2.419,0,0,1-2.238-1.112V230.2h-1.742V221.76q0-1.256-.065-2.576h1.532l.1,1.242h.033a3.1,3.1,0,0,1,4.96-.308,4.338,4.338,0,0,1,.926,2.889Zm-1.775.064a3.231,3.231,0,0,0-.517-1.888,1.782,1.782,0,0,0-1.515-.774,1.818,1.818,0,0,0-1.171.427,1.981,1.981,0,0,0-.685,1.122,2.326,2.326,0,0,0-.082.53V223.8a2.1,2.1,0,0,0,.524,1.444,1.745,1.745,0,0,0,1.364.589,1.783,1.783,0,0,0,1.532-.758A3.337,3.337,0,0,0,534.563,223.07Zm11.855.9a2.9,2.9,0,0,1-.966,2.259,4.283,4.283,0,0,1-2.961.952,5.169,5.169,0,0,1-2.815-.677l.4-1.452a4.845,4.845,0,0,0,2.516.678,2.374,2.374,0,0,0,1.532-.444,1.449,1.449,0,0,0,.55-1.185,1.518,1.518,0,0,0-.453-1.113,4.2,4.2,0,0,0-1.5-.838q-2.855-1.065-2.856-3.114a2.749,2.749,0,0,1,1.008-2.193,3.986,3.986,0,0,1,2.67-.855,5.275,5.275,0,0,1,2.468.516l-.437,1.42a4.315,4.315,0,0,0-2.089-.5,2.124,2.124,0,0,0-1.441.452,1.293,1.293,0,0,0-.437.985,1.332,1.332,0,0,0,.5,1.064,5.644,5.644,0,0,0,1.58.838,5.357,5.357,0,0,1,2.064,1.322A2.754,2.754,0,0,1,546.418,223.972Zm5.773-3.482h-1.92V224.3q0,1.452,1.016,1.451a3.063,3.063,0,0,0,.774-.081l.048,1.323a3.945,3.945,0,0,1-1.354.193,2.087,2.087,0,0,1-1.613-.63,3.088,3.088,0,0,1-.581-2.113v-3.951h-1.144V219.18h1.144v-1.435l1.71-.516v1.952h1.92Zm8.644,2.548a4.3,4.3,0,0,1-1.033,2.968,3.681,3.681,0,0,1-2.871,1.193,3.509,3.509,0,0,1-2.75-1.144,4.17,4.17,0,0,1-1.024-2.887,4.265,4.265,0,0,1,1.056-2.983,3.661,3.661,0,0,1,2.848-1.162,3.582,3.582,0,0,1,2.773,1.145A4.115,4.115,0,0,1,560.835,223.038Zm-1.805.04a3.509,3.509,0,0,0-.466-1.849,1.724,1.724,0,0,0-1.565-.934,1.749,1.749,0,0,0-1.6.934,3.568,3.568,0,0,0-.467,1.882,3.5,3.5,0,0,0,.467,1.85,1.786,1.786,0,0,0,3.147-.016A3.523,3.523,0,0,0,559.03,223.078Zm7.468-2.363a3.026,3.026,0,0,0-.549-.048,1.644,1.644,0,0,0-1.42.694,2.615,2.615,0,0,0-.435,1.548v4.113h-1.742v-5.37q0-1.354-.051-2.468h1.517l.064,1.5h.048a2.688,2.688,0,0,1,.871-1.242,2.106,2.106,0,0,1,1.259-.42,2.786,2.786,0,0,1,.435.032Zm7.79,2.017a4.087,4.087,0,0,1-.064.79H569a2.274,2.274,0,0,0,.758,1.776,2.592,2.592,0,0,0,1.709.547,5.779,5.779,0,0,0,2.114-.37l.273,1.208a6.536,6.536,0,0,1-2.628.484,3.81,3.81,0,0,1-2.864-1.072,3.963,3.963,0,0,1-1.04-2.879,4.49,4.49,0,0,1,.969-2.951,3.338,3.338,0,0,1,2.741-1.257,2.921,2.921,0,0,1,2.566,1.257A4.231,4.231,0,0,1,574.288,222.732Zm-1.661-.452a2.358,2.358,0,0,0-.338-1.339,1.521,1.521,0,0,0-1.387-.727,1.651,1.651,0,0,0-1.386.71,2.6,2.6,0,0,0-.515,1.354Z" transform="translate(-509.16 -215.99)"/></g><g transform="translate(34.435 5.302)"><path class="a" d="M523.2,84.256h-.913l-.5-1.569h-1.736l-.476,1.569h-.888l1.72-5.343h1.062Zm-1.562-2.228-.452-1.4c-.047-.143-.135-.475-.27-1.006H520.9c-.056.23-.135.563-.254,1.006l-.444,1.4ZM527.5,80.4l-1.459,3.852h-.832L523.8,80.4h.92l.658,2.037c.111.341.206.666.277.975h.024c.064-.277.158-.6.277-.975l.65-2.037Zm3.106,3.852-.064-.444h-.024a1.314,1.314,0,0,1-1.126.531,1.121,1.121,0,0,1-1.181-1.134c0-.951.824-1.443,2.251-1.443V81.7c0-.507-.27-.761-.8-.761a1.8,1.8,0,0,0-1.006.286l-.174-.563a2.466,2.466,0,0,1,1.324-.333c1.006,0,1.515.531,1.515,1.594v1.419a5.725,5.725,0,0,0,.056.92Zm-.119-1.919c-.952,0-1.427.23-1.427.777a.546.546,0,0,0,.586.6.819.819,0,0,0,.841-.784Zm2.741-2.568a.512.512,0,1,1,.539-.515A.5.5,0,0,1,533.229,79.769Zm.444,4.487h-.856V80.4h.856Zm2.377,0h-.856v-5.62h.856Zm3.638,0-.064-.444H539.6a1.313,1.313,0,0,1-1.126.531,1.121,1.121,0,0,1-1.181-1.134c0-.951.824-1.443,2.251-1.443V81.7c0-.507-.27-.761-.8-.761a1.8,1.8,0,0,0-1.006.286l-.175-.564a2.466,2.466,0,0,1,1.324-.333c1.006,0,1.514.531,1.514,1.594v1.419a5.932,5.932,0,0,0,.055.92h-.769Zm-.119-1.919c-.952,0-1.427.23-1.427.777a.546.546,0,0,0,.586.6.819.819,0,0,0,.841-.784Zm4.3,2.006a1.308,1.308,0,0,1-1.212-.682h-.017l-.049.595h-.729c.024-.309.032-.658.032-1.038V78.636h.857v2.331h.016A1.322,1.322,0,0,1,544,80.325c.928,0,1.578.793,1.578,1.95A1.854,1.854,0,0,1,543.871,84.344ZM543.7,81a.985.985,0,0,0-.943,1.023v.674a.944.944,0,0,0,.929.967c.641,0,1.023-.523,1.023-1.355C544.7,81.529,544.307,81,543.7,81Zm4,3.259h-.855v-5.62h.855Zm4.66-1.72h-2.57A1.106,1.106,0,0,0,551,83.677a2.89,2.89,0,0,0,1.038-.182l.133.595a3.212,3.212,0,0,1-1.292.238,1.789,1.789,0,0,1-1.919-1.942,1.882,1.882,0,0,1,1.822-2.069,1.911,1.911,0,0,1,1.573,2.219Zm-.785-.61c0-.595-.3-1.015-.849-1.015a1.017,1.017,0,0,0-.936,1.015Zm5.974,2.418a1.834,1.834,0,0,1-1.855-1.982,1.876,1.876,0,0,1,1.92-2.037,1.82,1.82,0,0,1,1.855,1.974A1.888,1.888,0,0,1,557.547,84.344Zm.033-3.393c-.618,0-1.014.578-1.014,1.387,0,.793.4,1.372,1.006,1.372s1.005-.618,1.005-1.388S558.181,80.95,557.579,80.95Zm6.489,3.306h-.855V82.044c0-.681-.261-1.023-.777-1.023a.89.89,0,0,0-.857.943v2.291h-.855V81.5c0-.341-.009-.706-.032-1.1h.753l.04.595h.024a1.382,1.382,0,0,1,1.22-.674c.808,0,1.339.618,1.339,1.625v2.308Zm5.6-3.21h-.942v1.871q0,.714.5.714a1.693,1.693,0,0,0,.381-.04l.024.65a1.907,1.907,0,0,1-.665.1c-.675,0-1.078-.372-1.078-1.348V81.046h-.562V80.4h.562V79.7l.84-.254V80.4h.942Zm4.534,3.21h-.857v-2.2c0-.689-.261-1.038-.777-1.038a.838.838,0,0,0-.855.912v2.322h-.857v-5.62h.857V80.95h.016a1.3,1.3,0,0,1,1.158-.627c.816,0,1.315.634,1.315,1.641Zm4.374-1.72h-2.569a1.1,1.1,0,0,0,1.212,1.141,2.887,2.887,0,0,0,1.038-.182l.134.595a3.216,3.216,0,0,1-1.292.238,1.789,1.789,0,0,1-1.919-1.942A1.882,1.882,0,0,1,577,80.316a1.619,1.619,0,0,1,1.6,1.831A1.67,1.67,0,0,1,578.578,82.536Zm-.785-.61c0-.595-.3-1.015-.848-1.015a1.016,1.016,0,0,0-.936,1.015Z" transform="translate(-518.688 -78.636)"/></g></svg>