<svg xmlns="http://www.w3.org/2000/svg" xmlns:xlink="http://www.w3.org/1999/xlink" width="109.375" height="32.407" viewBox="0 0 109.375 32.407"><defs><style>.a{fill:#a6a6a6;}.b,.c,.j{fill:#fff;}.b{stroke:#fff;stroke-miterlimit:10;stroke-width:0.2px;}.d{fill:url(#a);}.e{fill:url(#b);}.f{fill:url(#c);}.g{fill:url(#d);}.h{opacity:0.2;}.i{opacity:0.12;}.j{opacity:0.25;}</style><linearGradient id="a" x1="0.908" y1="1.032" x2="-0.383" y2="0.36" gradientUnits="objectBoundingBox"><stop offset="0" stop-color="#00a0ff"/><stop offset="0.007" stop-color="#00a1ff"/><stop offset="0.26" stop-color="#00beff"/><stop offset="0.512" stop-color="#00d2ff"/><stop offset="0.76" stop-color="#00dfff"/><stop offset="1" stop-color="#00e3ff"/></linearGradient><linearGradient id="b" x1="1.077" y1="0.729" x2="-1.307" y2="0.729" gradientUnits="objectBoundingBox"><stop offset="0" stop-color="#ffe000"/><stop offset="0.409" stop-color="#ffbd00"/><stop offset="0.775" stop-color="orange"/><stop offset="1" stop-color="#ff9c00"/></linearGradient><linearGradient id="c" x1="0.864" y1="-0.023" x2="-0.499" y2="-1.789" gradientUnits="objectBoundingBox"><stop offset="0" stop-color="#ff3a44"/><stop offset="1" stop-color="#c31162"/></linearGradient><linearGradient id="d" x1="-0.186" y1="2.701" x2="0.423" y2="1.909" gradientUnits="objectBoundingBox"><stop offset="0" stop-color="#32a071"/><stop offset="0.069" stop-color="#2da771"/><stop offset="0.476" stop-color="#15cf74"/><stop offset="0.801" stop-color="#06e775"/><stop offset="1" stop-color="#00f076"/></linearGradient></defs><path d="M105.324,32.407H4.051A4.012,4.012,0,0,1,0,28.356V4.051A4.012,4.012,0,0,1,4.051,0H105.324a4.012,4.012,0,0,1,4.051,4.051V28.356A4.012,4.012,0,0,1,105.324,32.407Z"/><path class="a" d="M105.324.648a3.423,3.423,0,0,1,3.4,3.4V28.356a3.423,3.423,0,0,1-3.4,3.4H4.051a3.423,3.423,0,0,1-3.4-3.4V4.051a3.423,3.423,0,0,1,3.4-3.4Zm0-.648H4.051A4.063,4.063,0,0,0,0,4.051V28.356a4.012,4.012,0,0,0,4.051,4.051H105.324a4.012,4.012,0,0,0,4.051-4.051V4.051A4.063,4.063,0,0,0,105.324,0Z"/><path class="b" d="M46.3,9.595a2.224,2.224,0,0,1-.572,1.633,2.532,2.532,0,0,1-4.328-1.8A2.51,2.51,0,0,1,43.932,6.9a2.174,2.174,0,0,1,.98.245,1.778,1.778,0,0,1,.735.572l-.408.408a1.523,1.523,0,0,0-1.307-.572,1.625,1.625,0,0,0-1.307.572,1.682,1.682,0,0,0-.572,1.388,1.682,1.682,0,0,0,.572,1.388,2.1,2.1,0,0,0,1.307.572A1.791,1.791,0,0,0,45.32,10.9a1.352,1.352,0,0,0,.408-.98h-1.8V9.268H46.3Zm3.757-2.042h-2.2V9.1h2.042v.572H47.852v1.552h2.2v.653H47.2v-4.9h2.858Zm2.695,4.328H52.1V7.553H50.71V6.982h3.43v.572H52.752Zm3.757,0v-4.9h.653v4.9Zm3.43,0h-.653V7.553H57.9V6.982h3.348v.572H59.857v4.328Zm7.758-.653a2.532,2.532,0,0,1-4.328-1.8,2.532,2.532,0,1,1,5.063,0A2.4,2.4,0,0,1,67.7,11.228Zm-3.1-.408a1.927,1.927,0,0,0,1.307.572,1.625,1.625,0,0,0,1.307-.572,1.97,1.97,0,0,0,.572-1.388,1.682,1.682,0,0,0-.572-1.388A1.927,1.927,0,0,0,65.9,7.472a1.625,1.625,0,0,0-1.307.572,1.97,1.97,0,0,0-.572,1.388A1.682,1.682,0,0,0,64.593,10.82Zm4.737,1.062v-4.9h.735l2.368,3.838V6.982h.653v4.9h-.653l-2.532-4v4Z" transform="translate(-7.966 -1.318)"/><path class="c" d="M63.15,20.938a3.436,3.436,0,0,0-3.512,3.512,3.486,3.486,0,0,0,3.512,3.512,3.436,3.436,0,0,0,3.512-3.512A3.388,3.388,0,0,0,63.15,20.938Zm0,5.553a2.13,2.13,0,0,1,0-4.247,1.978,1.978,0,0,1,1.96,2.123A2.027,2.027,0,0,1,63.15,26.492Zm-7.595-5.553a3.436,3.436,0,0,0-3.512,3.512,3.486,3.486,0,0,0,3.512,3.512,3.436,3.436,0,0,0,3.512-3.512A3.388,3.388,0,0,0,55.555,20.938Zm0,5.553a2.13,2.13,0,0,1,0-4.247,1.978,1.978,0,0,1,1.96,2.123A2.027,2.027,0,0,1,55.555,26.492ZM46.49,22v1.47H50a3.088,3.088,0,0,1-.817,1.878A3.615,3.615,0,0,1,46.49,26.41a3.8,3.8,0,0,1-3.838-3.92,3.852,3.852,0,0,1,3.838-3.92,4.049,4.049,0,0,1,2.695,1.062l1.062-1.062a5.233,5.233,0,0,0-3.675-1.47A5.509,5.509,0,0,0,41.1,22.49a5.509,5.509,0,0,0,5.472,5.39,4.7,4.7,0,0,0,3.757-1.552,4.916,4.916,0,0,0,1.307-3.43,3.062,3.062,0,0,0-.082-.9Zm37.076,1.143a3.173,3.173,0,0,0-2.94-2.2A3.289,3.289,0,0,0,77.36,24.45a3.418,3.418,0,0,0,3.43,3.512,3.35,3.35,0,0,0,2.858-1.552L82.5,25.593a1.991,1.991,0,0,1-1.715.98,1.772,1.772,0,0,1-1.715-1.062l4.655-1.96ZM78.83,24.287a1.984,1.984,0,0,1,1.8-2.042,1.445,1.445,0,0,1,1.307.735Zm-3.838,3.348h1.552V17.427H74.991Zm-2.45-5.962a2.689,2.689,0,0,0-1.878-.817,3.509,3.509,0,0,0-3.348,3.512,3.382,3.382,0,0,0,3.348,3.43,2.345,2.345,0,0,0,1.8-.817h.082v.49a1.857,1.857,0,0,1-3.593.817l-1.307.572a3.369,3.369,0,0,0,3.1,2.042c1.8,0,3.267-1.062,3.267-3.593V21.1h-1.47Zm-1.8,4.818a2.13,2.13,0,0,1,0-4.247,1.965,1.965,0,0,1,1.878,2.123A1.965,1.965,0,0,1,70.745,26.492Zm19.926-9.065H87V27.635h1.552V23.8h2.123a3.189,3.189,0,1,0,0-6.37Zm.082,4.9h-2.2V18.815h2.2a1.794,1.794,0,0,1,1.8,1.715,1.869,1.869,0,0,1-1.8,1.8Zm9.392-1.47a2.745,2.745,0,0,0-2.695,1.552l1.388.572a1.443,1.443,0,0,1,1.388-.735,1.535,1.535,0,0,1,1.633,1.307v.082a3.239,3.239,0,0,0-1.552-.408c-1.47,0-2.94.817-2.94,2.287A2.392,2.392,0,0,0,99.9,27.8a2.3,2.3,0,0,0,1.96-.98h.082v.817h1.47v-3.92A3.091,3.091,0,0,0,100.144,20.857Zm-.163,5.635c-.49,0-1.225-.245-1.225-.9,0-.817.9-1.062,1.633-1.062a3.158,3.158,0,0,1,1.388.327A1.9,1.9,0,0,1,99.981,26.492Zm8.575-5.39-1.715,4.41h-.082l-1.8-4.41h-1.633l2.695,6.207-1.552,3.43h1.552l4.165-9.637Zm-13.72,6.533h1.552V17.427H94.836Z" transform="translate(-8.409 -3.394)"/><path class="d" d="M10.327,7.5A1.563,1.563,0,0,0,10,8.629V26.448a1.583,1.583,0,0,0,.408,1.129l.082.081,10.127-10V17.5Z" transform="translate(-1.833 -1.375)"/><path class="e" d="M26.248,22.742,22.9,19.393v-.245L26.248,15.8l.082.082,4,2.287a1.246,1.246,0,0,1,0,2.368Z" transform="translate(-4.359 -3.027)"/><path class="f" d="M24.038,23.43,20.608,20,10.4,30.208c.408.408.98.408,1.715.082Z" transform="translate(-1.907 -3.858)"/><path class="g" d="M24.038,14.218,12.115,7.44a1.324,1.324,0,0,0-1.715.082L20.608,17.648Z" transform="translate(-1.907 -1.383)"/><path class="h" d="M23.957,24.1,12.115,30.8a1.336,1.336,0,0,1-1.633,0l-.082.082.082.082a1.336,1.336,0,0,0,1.633,0Z" transform="translate(-1.907 -4.618)"/><path class="i" d="M10.327,30.045A1.6,1.6,0,0,1,10,28.9v.082a1.616,1.616,0,0,0,.408,1.143v-.082Zm17.64-8.983-4.083,2.287.082.082,4-2.287A1.358,1.358,0,0,0,28.783,20C28.783,20.408,28.457,20.735,27.967,21.062Z" transform="translate(-1.833 -3.854)"/><path class="j" d="M12.042,7.517l15.925,9.065c.49.327.817.653.817,1.062a1.358,1.358,0,0,0-.817-1.143L12.042,7.435C10.9,6.782,10,7.272,10,8.579V8.66C10,7.435,10.9,6.864,12.042,7.517Z" transform="translate(-1.833 -1.379)"/></svg>