<svg xmlns="http://www.w3.org/2000/svg" xmlns:xlink="http://www.w3.org/1999/xlink" width="1260" height="493" viewBox="0 0 1260 493">
  <defs>
    <clipPath id="clip-path">
      <rect id="Rectangle_3671" data-name="Rectangle 3671" width="1260" height="493" rx="20" fill="#2c2c2c"/>
    </clipPath>
  </defs>
  <g id="Mask_Group_532" data-name="Mask Group 532" clip-path="url(#clip-path)">
    <g id="Group_6725" data-name="Group 6725" transform="translate(-281.57 -265.63)">
      <path id="Path_22586" data-name="Path 22586" d="M1329.205,3486.421a238.947,238.947,0,0,0-6.321-31.431,313.807,313.807,0,0,0-10.5-32.583,291.278,291.278,0,0,0-17.693-37.868c-16.917-30.192-38.4-55.005-63.846-73.752-31.8-23.428-69.944-37.4-113.364-41.538-27.063-2.576-48.776-4.964-68.331-7.513-23.1-3.011-43.111-6.25-61.172-9.9A462.64,462.64,0,0,1,934.5,3238c-8.334-2.75-16.3-5.736-23.685-8.875a236.373,236.373,0,0,1-21.557-10.442,190.4,190.4,0,0,1-19.358-12.2,162.063,162.063,0,0,1-17.084-14.161,146.506,146.506,0,0,1-27.03-34.948A160.824,160.824,0,0,1,816,3136.218a189.026,189.026,0,0,1-7.218-23.845,235.757,235.757,0,0,1-4.578-26.721c-1.078-9.4-1.709-19.422-1.875-29.786-1.291-80.537-23.864-203.617-83.349-307.528-31.622-55.238-70.147-98.737-114.506-129.288-51.11-35.2-109.962-53.05-174.919-53.05v-2a337.217,337.217,0,0,1,50.2,3.69,305.939,305.939,0,0,1,45.989,10.6,296.118,296.118,0,0,1,41.907,16.808,304.633,304.633,0,0,1,37.957,22.3c44.608,30.723,83.336,74.442,115.108,129.942a580.982,580.982,0,0,1,37.519,79.5,695.689,695.689,0,0,1,25.687,81.664,722.4,722.4,0,0,1,14.989,78.2,594.565,594.565,0,0,1,5.417,69.124c1.254,78.275,28.551,129.465,85.9,161.1,52.317,28.856,125.815,40.65,227.446,50.326a262.027,262.027,0,0,1,34.031,5.47,231.21,231.21,0,0,1,30.269,9.188,214.7,214.7,0,0,1,26.717,12.345,209.706,209.706,0,0,1,23.376,14.94c25.682,18.927,47.35,43.966,64.4,74.421a293.335,293.335,0,0,1,17.808,38.138,315.8,315.8,0,0,1,10.556,32.788,240.7,240.7,0,0,1,6.358,31.659Z" transform="translate(190.603 -2565)" fill="#c8c8c8" opacity="0.2"/>
      <path id="Path_22587" data-name="Path 22587" d="M1329.205,3486.421a238.947,238.947,0,0,0-6.321-31.431,313.807,313.807,0,0,0-10.5-32.583,291.278,291.278,0,0,0-17.693-37.868c-16.917-30.192-38.4-55.005-63.846-73.752-31.8-23.428-69.944-37.4-113.364-41.538-27.063-2.576-48.776-4.964-68.331-7.513-23.1-3.011-43.111-6.25-61.172-9.9A462.64,462.64,0,0,1,934.5,3238c-8.334-2.75-16.3-5.736-23.685-8.875a236.373,236.373,0,0,1-21.557-10.442,190.4,190.4,0,0,1-19.358-12.2,162.063,162.063,0,0,1-17.084-14.161,146.506,146.506,0,0,1-27.03-34.948A160.824,160.824,0,0,1,816,3136.218a189.026,189.026,0,0,1-7.218-23.845,235.757,235.757,0,0,1-4.578-26.721c-1.078-9.4-1.709-19.422-1.875-29.786-1.291-80.537-23.864-203.617-83.349-307.528-31.622-55.238-70.147-98.737-114.506-129.288-51.11-35.2-109.962-53.05-174.919-53.05v-2a337.217,337.217,0,0,1,50.2,3.69,305.939,305.939,0,0,1,45.989,10.6,296.118,296.118,0,0,1,41.907,16.808,304.633,304.633,0,0,1,37.957,22.3c44.608,30.723,83.336,74.442,115.108,129.942a580.982,580.982,0,0,1,37.519,79.5,695.689,695.689,0,0,1,25.687,81.664,722.4,722.4,0,0,1,14.989,78.2,594.565,594.565,0,0,1,5.417,69.124c1.254,78.275,28.551,129.465,85.9,161.1,52.317,28.856,125.815,40.65,227.446,50.326a262.027,262.027,0,0,1,34.031,5.47,231.21,231.21,0,0,1,30.269,9.188,214.7,214.7,0,0,1,26.717,12.345,209.706,209.706,0,0,1,23.376,14.94c25.682,18.927,47.35,43.966,64.4,74.421a293.335,293.335,0,0,1,17.808,38.138,315.8,315.8,0,0,1,10.556,32.788,240.7,240.7,0,0,1,6.358,31.659Z" transform="translate(164.966 -2565)" fill="#c8c8c8" opacity="0.2"/>
      <path id="Path_22588" data-name="Path 22588" d="M1329.205,3486.421a238.947,238.947,0,0,0-6.321-31.431,313.807,313.807,0,0,0-10.5-32.583,291.278,291.278,0,0,0-17.693-37.868c-16.917-30.192-38.4-55.005-63.846-73.752-31.8-23.428-69.944-37.4-113.364-41.538-27.063-2.576-48.776-4.964-68.331-7.513-23.1-3.011-43.111-6.25-61.172-9.9A462.64,462.64,0,0,1,934.5,3238c-8.334-2.75-16.3-5.736-23.685-8.875a236.373,236.373,0,0,1-21.557-10.442,190.4,190.4,0,0,1-19.358-12.2,162.063,162.063,0,0,1-17.084-14.161,146.506,146.506,0,0,1-27.03-34.948A160.824,160.824,0,0,1,816,3136.218a189.026,189.026,0,0,1-7.218-23.845,235.757,235.757,0,0,1-4.578-26.721c-1.078-9.4-1.709-19.422-1.875-29.786-1.291-80.537-23.864-203.617-83.349-307.528-31.622-55.238-70.147-98.737-114.506-129.288-51.11-35.2-109.962-53.05-174.919-53.05v-2a337.217,337.217,0,0,1,50.2,3.69,305.939,305.939,0,0,1,45.989,10.6,296.118,296.118,0,0,1,41.907,16.808,304.633,304.633,0,0,1,37.957,22.3c44.608,30.723,83.336,74.442,115.108,129.942a580.982,580.982,0,0,1,37.519,79.5,695.689,695.689,0,0,1,25.687,81.664,722.4,722.4,0,0,1,14.989,78.2,594.565,594.565,0,0,1,5.417,69.124c1.254,78.275,28.551,129.465,85.9,161.1,52.317,28.856,125.815,40.65,227.446,50.326a262.027,262.027,0,0,1,34.031,5.47,231.21,231.21,0,0,1,30.269,9.188,214.7,214.7,0,0,1,26.717,12.345,209.706,209.706,0,0,1,23.376,14.94c25.682,18.927,47.35,43.966,64.4,74.421a293.335,293.335,0,0,1,17.808,38.138,315.8,315.8,0,0,1,10.556,32.788,240.7,240.7,0,0,1,6.358,31.659Z" transform="translate(139.33 -2565)" fill="#c8c8c8" opacity="0.2"/>
      <path id="Path_22589" data-name="Path 22589" d="M1329.205,3486.421a238.947,238.947,0,0,0-6.321-31.431,313.807,313.807,0,0,0-10.5-32.583,291.278,291.278,0,0,0-17.693-37.868c-16.917-30.192-38.4-55.005-63.846-73.752-31.8-23.428-69.944-37.4-113.364-41.538-27.063-2.576-48.776-4.964-68.331-7.513-23.1-3.011-43.111-6.25-61.172-9.9A462.64,462.64,0,0,1,934.5,3238c-8.334-2.75-16.3-5.736-23.685-8.875a236.373,236.373,0,0,1-21.557-10.442,190.4,190.4,0,0,1-19.358-12.2,162.063,162.063,0,0,1-17.084-14.161,146.506,146.506,0,0,1-27.03-34.948A160.824,160.824,0,0,1,816,3136.218a189.026,189.026,0,0,1-7.218-23.845,235.757,235.757,0,0,1-4.578-26.721c-1.078-9.4-1.709-19.422-1.875-29.786-1.291-80.537-23.864-203.617-83.349-307.528-31.622-55.238-70.147-98.737-114.506-129.288-51.11-35.2-109.962-53.05-174.919-53.05v-2a337.217,337.217,0,0,1,50.2,3.69,305.939,305.939,0,0,1,45.989,10.6,296.118,296.118,0,0,1,41.907,16.808,304.633,304.633,0,0,1,37.957,22.3c44.608,30.723,83.336,74.442,115.108,129.942a580.982,580.982,0,0,1,37.519,79.5,695.689,695.689,0,0,1,25.687,81.664,722.4,722.4,0,0,1,14.989,78.2,594.565,594.565,0,0,1,5.417,69.124c1.254,78.275,28.551,129.465,85.9,161.1,52.317,28.856,125.815,40.65,227.446,50.326a262.027,262.027,0,0,1,34.031,5.47,231.21,231.21,0,0,1,30.269,9.188,214.7,214.7,0,0,1,26.717,12.345,209.706,209.706,0,0,1,23.376,14.94c25.682,18.927,47.35,43.966,64.4,74.421a293.335,293.335,0,0,1,17.808,38.138,315.8,315.8,0,0,1,10.556,32.788,240.7,240.7,0,0,1,6.358,31.659Z" transform="translate(113.693 -2565)" fill="#c8c8c8" opacity="0.2"/>
      <path id="Path_22590" data-name="Path 22590" d="M1329.205,3486.421a238.947,238.947,0,0,0-6.321-31.431,313.807,313.807,0,0,0-10.5-32.583,291.278,291.278,0,0,0-17.693-37.868c-16.917-30.192-38.4-55.005-63.846-73.752-31.8-23.428-69.944-37.4-113.364-41.538-27.063-2.576-48.776-4.964-68.331-7.513-23.1-3.011-43.111-6.25-61.172-9.9A462.64,462.64,0,0,1,934.5,3238c-8.334-2.75-16.3-5.736-23.685-8.875a236.373,236.373,0,0,1-21.557-10.442,190.4,190.4,0,0,1-19.358-12.2,162.063,162.063,0,0,1-17.084-14.161,146.506,146.506,0,0,1-27.03-34.948A160.824,160.824,0,0,1,816,3136.218a189.026,189.026,0,0,1-7.218-23.845,235.757,235.757,0,0,1-4.578-26.721c-1.078-9.4-1.709-19.422-1.875-29.786-1.291-80.537-23.864-203.617-83.349-307.528-31.622-55.238-70.147-98.737-114.506-129.288-51.11-35.2-109.962-53.05-174.919-53.05v-2a337.217,337.217,0,0,1,50.2,3.69,305.939,305.939,0,0,1,45.989,10.6,296.118,296.118,0,0,1,41.907,16.808,304.633,304.633,0,0,1,37.957,22.3c44.608,30.723,83.336,74.442,115.108,129.942a580.982,580.982,0,0,1,37.519,79.5,695.689,695.689,0,0,1,25.687,81.664,722.4,722.4,0,0,1,14.989,78.2,594.565,594.565,0,0,1,5.417,69.124c1.254,78.275,28.551,129.465,85.9,161.1,52.317,28.856,125.815,40.65,227.446,50.326a262.027,262.027,0,0,1,34.031,5.47,231.21,231.21,0,0,1,30.269,9.188,214.7,214.7,0,0,1,26.717,12.345,209.706,209.706,0,0,1,23.376,14.94c25.682,18.927,47.35,43.966,64.4,74.421a293.335,293.335,0,0,1,17.808,38.138,315.8,315.8,0,0,1,10.556,32.788,240.7,240.7,0,0,1,6.358,31.659Z" transform="translate(88.056 -2565)" fill="#c8c8c8" opacity="0.2"/>
      <path id="Path_22591" data-name="Path 22591" d="M1329.205,3486.421a238.947,238.947,0,0,0-6.321-31.431,313.807,313.807,0,0,0-10.5-32.583,291.278,291.278,0,0,0-17.693-37.868c-16.917-30.192-38.4-55.005-63.846-73.752-31.8-23.428-69.944-37.4-113.364-41.538-27.063-2.576-48.776-4.964-68.331-7.513-23.1-3.011-43.111-6.25-61.172-9.9A462.64,462.64,0,0,1,934.5,3238c-8.334-2.75-16.3-5.736-23.685-8.875a236.373,236.373,0,0,1-21.557-10.442,190.4,190.4,0,0,1-19.358-12.2,162.063,162.063,0,0,1-17.084-14.161,146.506,146.506,0,0,1-27.03-34.948A160.824,160.824,0,0,1,816,3136.218a189.026,189.026,0,0,1-7.218-23.845,235.757,235.757,0,0,1-4.578-26.721c-1.078-9.4-1.709-19.422-1.875-29.786-1.291-80.537-23.864-203.617-83.349-307.528-31.622-55.238-70.147-98.737-114.506-129.288-51.11-35.2-109.962-53.05-174.919-53.05v-2a337.217,337.217,0,0,1,50.2,3.69,305.939,305.939,0,0,1,45.989,10.6,296.118,296.118,0,0,1,41.907,16.808,304.633,304.633,0,0,1,37.957,22.3c44.608,30.723,83.336,74.442,115.108,129.942a580.982,580.982,0,0,1,37.519,79.5,695.689,695.689,0,0,1,25.687,81.664,722.4,722.4,0,0,1,14.989,78.2,594.565,594.565,0,0,1,5.417,69.124c1.254,78.275,28.551,129.465,85.9,161.1,52.317,28.856,125.815,40.65,227.446,50.326a262.027,262.027,0,0,1,34.031,5.47,231.21,231.21,0,0,1,30.269,9.188,214.7,214.7,0,0,1,26.717,12.345,209.706,209.706,0,0,1,23.376,14.94c25.682,18.927,47.35,43.966,64.4,74.421a293.335,293.335,0,0,1,17.808,38.138,315.8,315.8,0,0,1,10.556,32.788,240.7,240.7,0,0,1,6.358,31.659Z" transform="translate(62.419 -2565)" fill="#c8c8c8" opacity="0.2"/>
      <path id="Path_22592" data-name="Path 22592" d="M1329.205,3486.421a238.947,238.947,0,0,0-6.321-31.431,313.807,313.807,0,0,0-10.5-32.583,291.278,291.278,0,0,0-17.693-37.868c-16.917-30.192-38.4-55.005-63.846-73.752-31.8-23.428-69.944-37.4-113.364-41.538-27.063-2.576-48.776-4.964-68.331-7.513-23.1-3.011-43.111-6.25-61.172-9.9A462.64,462.64,0,0,1,934.5,3238c-8.334-2.75-16.3-5.736-23.685-8.875a236.373,236.373,0,0,1-21.557-10.442,190.4,190.4,0,0,1-19.358-12.2,162.063,162.063,0,0,1-17.084-14.161,146.506,146.506,0,0,1-27.03-34.948A160.824,160.824,0,0,1,816,3136.218a189.026,189.026,0,0,1-7.218-23.845,235.757,235.757,0,0,1-4.578-26.721c-1.078-9.4-1.709-19.422-1.875-29.786-1.291-80.537-23.864-203.617-83.349-307.528-31.622-55.238-70.147-98.737-114.506-129.288-51.11-35.2-109.962-53.05-174.919-53.05v-2a337.217,337.217,0,0,1,50.2,3.69,305.939,305.939,0,0,1,45.989,10.6,296.118,296.118,0,0,1,41.907,16.808,304.633,304.633,0,0,1,37.957,22.3c44.608,30.723,83.336,74.442,115.108,129.942a580.982,580.982,0,0,1,37.519,79.5,695.689,695.689,0,0,1,25.687,81.664,722.4,722.4,0,0,1,14.989,78.2,594.565,594.565,0,0,1,5.417,69.124c1.254,78.275,28.551,129.465,85.9,161.1,52.317,28.856,125.815,40.65,227.446,50.326a262.027,262.027,0,0,1,34.031,5.47,231.21,231.21,0,0,1,30.269,9.188,214.7,214.7,0,0,1,26.717,12.345,209.706,209.706,0,0,1,23.376,14.94c25.682,18.927,47.35,43.966,64.4,74.421a293.335,293.335,0,0,1,17.808,38.138,315.8,315.8,0,0,1,10.556,32.788,240.7,240.7,0,0,1,6.358,31.659Z" transform="translate(36.782 -2565)" fill="#c8c8c8" opacity="0.2"/>
      <path id="Path_22593" data-name="Path 22593" d="M1329.205,3486.421a238.947,238.947,0,0,0-6.321-31.431,313.807,313.807,0,0,0-10.5-32.583,291.278,291.278,0,0,0-17.693-37.868c-16.917-30.192-38.4-55.005-63.846-73.752-31.8-23.428-69.944-37.4-113.364-41.538-27.063-2.576-48.776-4.964-68.331-7.513-23.1-3.011-43.111-6.25-61.172-9.9A462.64,462.64,0,0,1,934.5,3238c-8.334-2.75-16.3-5.736-23.685-8.875a236.373,236.373,0,0,1-21.557-10.442,190.4,190.4,0,0,1-19.358-12.2,162.063,162.063,0,0,1-17.084-14.161,146.506,146.506,0,0,1-27.03-34.948A160.824,160.824,0,0,1,816,3136.218a189.026,189.026,0,0,1-7.218-23.845,235.757,235.757,0,0,1-4.578-26.721c-1.078-9.4-1.709-19.422-1.875-29.786-1.291-80.537-23.864-203.617-83.349-307.528-31.622-55.238-70.147-98.737-114.506-129.288-51.11-35.2-109.962-53.05-174.919-53.05v-2a337.217,337.217,0,0,1,50.2,3.69,305.939,305.939,0,0,1,45.989,10.6,296.118,296.118,0,0,1,41.907,16.808,304.633,304.633,0,0,1,37.957,22.3c44.608,30.723,83.336,74.442,115.108,129.942a580.982,580.982,0,0,1,37.519,79.5,695.689,695.689,0,0,1,25.687,81.664,722.4,722.4,0,0,1,14.989,78.2,594.565,594.565,0,0,1,5.417,69.124c1.254,78.275,28.551,129.465,85.9,161.1,52.317,28.856,125.815,40.65,227.446,50.326a262.027,262.027,0,0,1,34.031,5.47,231.21,231.21,0,0,1,30.269,9.188,214.7,214.7,0,0,1,26.717,12.345,209.706,209.706,0,0,1,23.376,14.94c25.682,18.927,47.35,43.966,64.4,74.421a293.335,293.335,0,0,1,17.808,38.138,315.8,315.8,0,0,1,10.556,32.788,240.7,240.7,0,0,1,6.358,31.659Z" transform="translate(11.146 -2565)" fill="#c8c8c8" opacity="0.2"/>
      <path id="Path_22594" data-name="Path 22594" d="M1329.205,3486.421a238.947,238.947,0,0,0-6.321-31.431,313.807,313.807,0,0,0-10.5-32.583,291.278,291.278,0,0,0-17.693-37.868c-16.917-30.192-38.4-55.005-63.846-73.752-31.8-23.428-69.944-37.4-113.364-41.538-27.063-2.576-48.776-4.964-68.331-7.513-23.1-3.011-43.111-6.25-61.172-9.9A462.64,462.64,0,0,1,934.5,3238c-8.334-2.75-16.3-5.736-23.685-8.875a236.373,236.373,0,0,1-21.557-10.442,190.4,190.4,0,0,1-19.358-12.2,162.063,162.063,0,0,1-17.084-14.161,146.506,146.506,0,0,1-27.03-34.948A160.824,160.824,0,0,1,816,3136.218a189.026,189.026,0,0,1-7.218-23.845,235.757,235.757,0,0,1-4.578-26.721c-1.078-9.4-1.709-19.422-1.875-29.786-1.291-80.537-23.864-203.617-83.349-307.528-31.622-55.238-70.147-98.737-114.506-129.288-51.11-35.2-109.962-53.05-174.919-53.05v-2a337.217,337.217,0,0,1,50.2,3.69,305.939,305.939,0,0,1,45.989,10.6,296.118,296.118,0,0,1,41.907,16.808,304.633,304.633,0,0,1,37.957,22.3c44.608,30.723,83.336,74.442,115.108,129.942a580.982,580.982,0,0,1,37.519,79.5,695.689,695.689,0,0,1,25.687,81.664,722.4,722.4,0,0,1,14.989,78.2,594.565,594.565,0,0,1,5.417,69.124c1.254,78.275,28.551,129.465,85.9,161.1,52.317,28.856,125.815,40.65,227.446,50.326a262.027,262.027,0,0,1,34.031,5.47,231.21,231.21,0,0,1,30.269,9.188,214.7,214.7,0,0,1,26.717,12.345,209.706,209.706,0,0,1,23.376,14.94c25.682,18.927,47.35,43.966,64.4,74.421a293.335,293.335,0,0,1,17.808,38.138,315.8,315.8,0,0,1,10.556,32.788,240.7,240.7,0,0,1,6.358,31.659Z" transform="translate(-14.491 -2565)" fill="#c8c8c8" opacity="0.2"/>
      <path id="Path_22595" data-name="Path 22595" d="M1329.205,3486.421a238.947,238.947,0,0,0-6.321-31.431,313.807,313.807,0,0,0-10.5-32.583,291.278,291.278,0,0,0-17.693-37.868c-16.917-30.192-38.4-55.005-63.846-73.752-31.8-23.428-69.944-37.4-113.364-41.538-27.063-2.576-48.776-4.964-68.331-7.513-23.1-3.011-43.111-6.25-61.172-9.9A462.64,462.64,0,0,1,934.5,3238c-8.334-2.75-16.3-5.736-23.685-8.875a236.373,236.373,0,0,1-21.557-10.442,190.4,190.4,0,0,1-19.358-12.2,162.063,162.063,0,0,1-17.084-14.161,146.506,146.506,0,0,1-27.03-34.948A160.824,160.824,0,0,1,816,3136.218a189.026,189.026,0,0,1-7.218-23.845,235.757,235.757,0,0,1-4.578-26.721c-1.078-9.4-1.709-19.422-1.875-29.786-1.291-80.537-23.864-203.617-83.349-307.528-31.622-55.238-70.147-98.737-114.506-129.288-51.11-35.2-109.962-53.05-174.919-53.05v-2a337.217,337.217,0,0,1,50.2,3.69,305.939,305.939,0,0,1,45.989,10.6,296.118,296.118,0,0,1,41.907,16.808,304.633,304.633,0,0,1,37.957,22.3c44.608,30.723,83.336,74.442,115.108,129.942a580.982,580.982,0,0,1,37.519,79.5,695.689,695.689,0,0,1,25.687,81.664,722.4,722.4,0,0,1,14.989,78.2,594.565,594.565,0,0,1,5.417,69.124c1.254,78.275,28.551,129.465,85.9,161.1,52.317,28.856,125.815,40.65,227.446,50.326a262.027,262.027,0,0,1,34.031,5.47,231.21,231.21,0,0,1,30.269,9.188,214.7,214.7,0,0,1,26.717,12.345,209.706,209.706,0,0,1,23.376,14.94c25.682,18.927,47.35,43.966,64.4,74.421a293.335,293.335,0,0,1,17.808,38.138,315.8,315.8,0,0,1,10.556,32.788,240.7,240.7,0,0,1,6.358,31.659Z" transform="translate(-40.128 -2565)" fill="#c8c8c8" opacity="0.2"/>
      <path id="Path_22596" data-name="Path 22596" d="M1329.205,3486.421a238.947,238.947,0,0,0-6.321-31.431,313.807,313.807,0,0,0-10.5-32.583,291.278,291.278,0,0,0-17.693-37.868c-16.917-30.192-38.4-55.005-63.846-73.752-31.8-23.428-69.944-37.4-113.364-41.538-27.063-2.576-48.776-4.964-68.331-7.513-23.1-3.011-43.111-6.25-61.172-9.9A462.64,462.64,0,0,1,934.5,3238c-8.334-2.75-16.3-5.736-23.685-8.875a236.373,236.373,0,0,1-21.557-10.442,190.4,190.4,0,0,1-19.358-12.2,162.063,162.063,0,0,1-17.084-14.161,146.506,146.506,0,0,1-27.03-34.948A160.824,160.824,0,0,1,816,3136.218a189.026,189.026,0,0,1-7.218-23.845,235.757,235.757,0,0,1-4.578-26.721c-1.078-9.4-1.709-19.422-1.875-29.786-1.291-80.537-23.864-203.617-83.349-307.528-31.622-55.238-70.147-98.737-114.506-129.288-51.11-35.2-109.962-53.05-174.919-53.05v-2a337.217,337.217,0,0,1,50.2,3.69,305.939,305.939,0,0,1,45.989,10.6,296.118,296.118,0,0,1,41.907,16.808,304.633,304.633,0,0,1,37.957,22.3c44.608,30.723,83.336,74.442,115.108,129.942a580.982,580.982,0,0,1,37.519,79.5,695.689,695.689,0,0,1,25.687,81.664,722.4,722.4,0,0,1,14.989,78.2,594.565,594.565,0,0,1,5.417,69.124c1.254,78.275,28.551,129.465,85.9,161.1,52.317,28.856,125.815,40.65,227.446,50.326a262.027,262.027,0,0,1,34.031,5.47,231.21,231.21,0,0,1,30.269,9.188,214.7,214.7,0,0,1,26.717,12.345,209.706,209.706,0,0,1,23.376,14.94c25.682,18.927,47.35,43.966,64.4,74.421a293.335,293.335,0,0,1,17.808,38.138,315.8,315.8,0,0,1,10.556,32.788,240.7,240.7,0,0,1,6.358,31.659Z" transform="translate(-57.458 -2565)" fill="#c8c8c8" opacity="0.2"/>
      <path id="Path_22597" data-name="Path 22597" d="M1329.205,3486.421a238.947,238.947,0,0,0-6.321-31.431,313.807,313.807,0,0,0-10.5-32.583,291.278,291.278,0,0,0-17.693-37.868c-16.917-30.192-38.4-55.005-63.846-73.752-31.8-23.428-69.944-37.4-113.364-41.538-27.063-2.576-48.776-4.964-68.331-7.513-23.1-3.011-43.111-6.25-61.172-9.9A462.64,462.64,0,0,1,934.5,3238c-8.334-2.75-16.3-5.736-23.685-8.875a236.373,236.373,0,0,1-21.557-10.442,190.4,190.4,0,0,1-19.358-12.2,162.063,162.063,0,0,1-17.084-14.161,146.506,146.506,0,0,1-27.03-34.948A160.824,160.824,0,0,1,816,3136.218a189.026,189.026,0,0,1-7.218-23.845,235.757,235.757,0,0,1-4.578-26.721c-1.078-9.4-1.709-19.422-1.875-29.786-1.291-80.537-23.864-203.617-83.349-307.528-31.622-55.238-70.147-98.737-114.506-129.288-51.11-35.2-109.962-53.05-174.919-53.05v-2a337.217,337.217,0,0,1,50.2,3.69,305.939,305.939,0,0,1,45.989,10.6,296.118,296.118,0,0,1,41.907,16.808,304.633,304.633,0,0,1,37.957,22.3c44.608,30.723,83.336,74.442,115.108,129.942a580.982,580.982,0,0,1,37.519,79.5,695.689,695.689,0,0,1,25.687,81.664,722.4,722.4,0,0,1,14.989,78.2,594.565,594.565,0,0,1,5.417,69.124c1.254,78.275,28.551,129.465,85.9,161.1,52.317,28.856,125.815,40.65,227.446,50.326a262.027,262.027,0,0,1,34.031,5.47,231.21,231.21,0,0,1,30.269,9.188,214.7,214.7,0,0,1,26.717,12.345,209.706,209.706,0,0,1,23.376,14.94c25.682,18.927,47.35,43.966,64.4,74.421a293.335,293.335,0,0,1,17.808,38.138,315.8,315.8,0,0,1,10.556,32.788,240.7,240.7,0,0,1,6.358,31.659Z" transform="translate(-82.264 -2565)" fill="#c8c8c8" opacity="0.2"/>
      <path id="Path_22598" data-name="Path 22598" d="M1329.205,3486.421a238.947,238.947,0,0,0-6.321-31.431,313.807,313.807,0,0,0-10.5-32.583,291.278,291.278,0,0,0-17.693-37.868c-16.917-30.192-38.4-55.005-63.846-73.752-31.8-23.428-69.944-37.4-113.364-41.538-27.063-2.576-48.776-4.964-68.331-7.513-23.1-3.011-43.111-6.25-61.172-9.9A462.64,462.64,0,0,1,934.5,3238c-8.334-2.75-16.3-5.736-23.685-8.875a236.373,236.373,0,0,1-21.557-10.442,190.4,190.4,0,0,1-19.358-12.2,162.063,162.063,0,0,1-17.084-14.161,146.506,146.506,0,0,1-27.03-34.948A160.824,160.824,0,0,1,816,3136.218a189.026,189.026,0,0,1-7.218-23.845,235.757,235.757,0,0,1-4.578-26.721c-1.078-9.4-1.709-19.422-1.875-29.786-1.291-80.537-23.864-203.617-83.349-307.528-31.622-55.238-70.147-98.737-114.506-129.288-51.11-35.2-109.962-53.05-174.919-53.05v-2a337.217,337.217,0,0,1,50.2,3.69,305.939,305.939,0,0,1,45.989,10.6,296.118,296.118,0,0,1,41.907,16.808,304.633,304.633,0,0,1,37.957,22.3c44.608,30.723,83.336,74.442,115.108,129.942a580.982,580.982,0,0,1,37.519,79.5,695.689,695.689,0,0,1,25.687,81.664,722.4,722.4,0,0,1,14.989,78.2,594.565,594.565,0,0,1,5.417,69.124c1.254,78.275,28.551,129.465,85.9,161.1,52.317,28.856,125.815,40.65,227.446,50.326a262.027,262.027,0,0,1,34.031,5.47,231.21,231.21,0,0,1,30.269,9.188,214.7,214.7,0,0,1,26.717,12.345,209.706,209.706,0,0,1,23.376,14.94c25.682,18.927,47.35,43.966,64.4,74.421a293.335,293.335,0,0,1,17.808,38.138,315.8,315.8,0,0,1,10.556,32.788,240.7,240.7,0,0,1,6.358,31.659Z" transform="translate(-107.07 -2565)" fill="#c8c8c8" opacity="0.2"/>
      <path id="Path_22599" data-name="Path 22599" d="M1329.205,3486.421a238.947,238.947,0,0,0-6.321-31.431,313.807,313.807,0,0,0-10.5-32.583,291.278,291.278,0,0,0-17.693-37.868c-16.917-30.192-38.4-55.005-63.846-73.752-31.8-23.428-69.944-37.4-113.364-41.538-27.063-2.576-48.776-4.964-68.331-7.513-23.1-3.011-43.111-6.25-61.172-9.9A462.64,462.64,0,0,1,934.5,3238c-8.334-2.75-16.3-5.736-23.685-8.875a236.373,236.373,0,0,1-21.557-10.442,190.4,190.4,0,0,1-19.358-12.2,162.063,162.063,0,0,1-17.084-14.161,146.506,146.506,0,0,1-27.03-34.948A160.824,160.824,0,0,1,816,3136.218a189.026,189.026,0,0,1-7.218-23.845,235.757,235.757,0,0,1-4.578-26.721c-1.078-9.4-1.709-19.422-1.875-29.786-1.291-80.537-23.864-203.617-83.349-307.528-31.622-55.238-70.147-98.737-114.506-129.288-51.11-35.2-109.962-53.05-174.919-53.05v-2a337.217,337.217,0,0,1,50.2,3.69,305.939,305.939,0,0,1,45.989,10.6,296.118,296.118,0,0,1,41.907,16.808,304.633,304.633,0,0,1,37.957,22.3c44.608,30.723,83.336,74.442,115.108,129.942a580.982,580.982,0,0,1,37.519,79.5,695.689,695.689,0,0,1,25.687,81.664,722.4,722.4,0,0,1,14.989,78.2,594.565,594.565,0,0,1,5.417,69.124c1.254,78.275,28.551,129.465,85.9,161.1,52.317,28.856,125.815,40.65,227.446,50.326a262.027,262.027,0,0,1,34.031,5.47,231.21,231.21,0,0,1,30.269,9.188,214.7,214.7,0,0,1,26.717,12.345,209.706,209.706,0,0,1,23.376,14.94c25.682,18.927,47.35,43.966,64.4,74.421a293.335,293.335,0,0,1,17.808,38.138,315.8,315.8,0,0,1,10.556,32.788,240.7,240.7,0,0,1,6.358,31.659Z" transform="translate(-131.876 -2565)" fill="#c8c8c8" opacity="0.2"/>
      <path id="Path_22600" data-name="Path 22600" d="M1329.205,3486.421a238.947,238.947,0,0,0-6.321-31.431,313.807,313.807,0,0,0-10.5-32.583,291.278,291.278,0,0,0-17.693-37.868c-16.917-30.192-38.4-55.005-63.846-73.752-31.8-23.428-69.944-37.4-113.364-41.538-27.063-2.576-48.776-4.964-68.331-7.513-23.1-3.011-43.111-6.25-61.172-9.9A462.64,462.64,0,0,1,934.5,3238c-8.334-2.75-16.3-5.736-23.685-8.875a236.373,236.373,0,0,1-21.557-10.442,190.4,190.4,0,0,1-19.358-12.2,162.063,162.063,0,0,1-17.084-14.161,146.506,146.506,0,0,1-27.03-34.948A160.824,160.824,0,0,1,816,3136.218a189.026,189.026,0,0,1-7.218-23.845,235.757,235.757,0,0,1-4.578-26.721c-1.078-9.4-1.709-19.422-1.875-29.786-1.291-80.537-23.864-203.617-83.349-307.528-31.622-55.238-70.147-98.737-114.506-129.288-51.11-35.2-109.962-53.05-174.919-53.05v-2a337.217,337.217,0,0,1,50.2,3.69,305.939,305.939,0,0,1,45.989,10.6,296.118,296.118,0,0,1,41.907,16.808,304.633,304.633,0,0,1,37.957,22.3c44.608,30.723,83.336,74.442,115.108,129.942a580.982,580.982,0,0,1,37.519,79.5,695.689,695.689,0,0,1,25.687,81.664,722.4,722.4,0,0,1,14.989,78.2,594.565,594.565,0,0,1,5.417,69.124c1.254,78.275,28.551,129.465,85.9,161.1,52.317,28.856,125.815,40.65,227.446,50.326a262.027,262.027,0,0,1,34.031,5.47,231.21,231.21,0,0,1,30.269,9.188,214.7,214.7,0,0,1,26.717,12.345,209.706,209.706,0,0,1,23.376,14.94c25.682,18.927,47.35,43.966,64.4,74.421a293.335,293.335,0,0,1,17.808,38.138,315.8,315.8,0,0,1,10.556,32.788,240.7,240.7,0,0,1,6.358,31.659Z" transform="translate(-156.682 -2565)" fill="#c8c8c8" opacity="0.2"/>
      <path id="Path_22601" data-name="Path 22601" d="M1329.205,3486.421a238.947,238.947,0,0,0-6.321-31.431,313.807,313.807,0,0,0-10.5-32.583,291.278,291.278,0,0,0-17.693-37.868c-16.917-30.192-38.4-55.005-63.846-73.752-31.8-23.428-69.944-37.4-113.364-41.538-27.063-2.576-48.776-4.964-68.331-7.513-23.1-3.011-43.111-6.25-61.172-9.9A462.64,462.64,0,0,1,934.5,3238c-8.334-2.75-16.3-5.736-23.685-8.875a236.373,236.373,0,0,1-21.557-10.442,190.4,190.4,0,0,1-19.358-12.2,162.063,162.063,0,0,1-17.084-14.161,146.506,146.506,0,0,1-27.03-34.948A160.824,160.824,0,0,1,816,3136.218a189.026,189.026,0,0,1-7.218-23.845,235.757,235.757,0,0,1-4.578-26.721c-1.078-9.4-1.709-19.422-1.875-29.786-1.291-80.537-23.864-203.617-83.349-307.528-31.622-55.238-70.147-98.737-114.506-129.288-51.11-35.2-109.962-53.05-174.919-53.05v-2a337.217,337.217,0,0,1,50.2,3.69,305.939,305.939,0,0,1,45.989,10.6,296.118,296.118,0,0,1,41.907,16.808,304.633,304.633,0,0,1,37.957,22.3c44.608,30.723,83.336,74.442,115.108,129.942a580.982,580.982,0,0,1,37.519,79.5,695.689,695.689,0,0,1,25.687,81.664,722.4,722.4,0,0,1,14.989,78.2,594.565,594.565,0,0,1,5.417,69.124c1.254,78.275,28.551,129.465,85.9,161.1,52.317,28.856,125.815,40.65,227.446,50.326a262.027,262.027,0,0,1,34.031,5.47,231.21,231.21,0,0,1,30.269,9.188,214.7,214.7,0,0,1,26.717,12.345,209.706,209.706,0,0,1,23.376,14.94c25.682,18.927,47.35,43.966,64.4,74.421a293.335,293.335,0,0,1,17.808,38.138,315.8,315.8,0,0,1,10.556,32.788,240.7,240.7,0,0,1,6.358,31.659Z" transform="translate(-181.488 -2565)" fill="#c8c8c8" opacity="0.2"/>
      <path id="Path_22602" data-name="Path 22602" d="M1329.205,3486.421a238.947,238.947,0,0,0-6.321-31.431,313.807,313.807,0,0,0-10.5-32.583,291.278,291.278,0,0,0-17.693-37.868c-16.917-30.192-38.4-55.005-63.846-73.752-31.8-23.428-69.944-37.4-113.364-41.538-27.063-2.576-48.776-4.964-68.331-7.513-23.1-3.011-43.111-6.25-61.172-9.9A462.64,462.64,0,0,1,934.5,3238c-8.334-2.75-16.3-5.736-23.685-8.875a236.373,236.373,0,0,1-21.557-10.442,190.4,190.4,0,0,1-19.358-12.2,162.063,162.063,0,0,1-17.084-14.161,146.506,146.506,0,0,1-27.03-34.948A160.824,160.824,0,0,1,816,3136.218a189.026,189.026,0,0,1-7.218-23.845,235.757,235.757,0,0,1-4.578-26.721c-1.078-9.4-1.709-19.422-1.875-29.786-1.291-80.537-23.864-203.617-83.349-307.528-31.622-55.238-70.147-98.737-114.506-129.288-51.11-35.2-109.962-53.05-174.919-53.05v-2a337.217,337.217,0,0,1,50.2,3.69,305.939,305.939,0,0,1,45.989,10.6,296.118,296.118,0,0,1,41.907,16.808,304.633,304.633,0,0,1,37.957,22.3c44.608,30.723,83.336,74.442,115.108,129.942a580.982,580.982,0,0,1,37.519,79.5,695.689,695.689,0,0,1,25.687,81.664,722.4,722.4,0,0,1,14.989,78.2,594.565,594.565,0,0,1,5.417,69.124c1.254,78.275,28.551,129.465,85.9,161.1,52.317,28.856,125.815,40.65,227.446,50.326a262.027,262.027,0,0,1,34.031,5.47,231.21,231.21,0,0,1,30.269,9.188,214.7,214.7,0,0,1,26.717,12.345,209.706,209.706,0,0,1,23.376,14.94c25.682,18.927,47.35,43.966,64.4,74.421a293.335,293.335,0,0,1,17.808,38.138,315.8,315.8,0,0,1,10.556,32.788,240.7,240.7,0,0,1,6.358,31.659Z" transform="translate(-198.818 -2565)" fill="#c8c8c8" opacity="0.2"/>
      <path id="Path_22603" data-name="Path 22603" d="M1329.205,3486.421a238.947,238.947,0,0,0-6.321-31.431,313.807,313.807,0,0,0-10.5-32.583,291.278,291.278,0,0,0-17.693-37.868c-16.917-30.192-38.4-55.005-63.846-73.752-31.8-23.428-69.944-37.4-113.364-41.538-27.063-2.576-48.776-4.964-68.331-7.513-23.1-3.011-43.111-6.25-61.172-9.9A462.64,462.64,0,0,1,934.5,3238c-8.334-2.75-16.3-5.736-23.685-8.875a236.373,236.373,0,0,1-21.557-10.442,190.4,190.4,0,0,1-19.358-12.2,162.063,162.063,0,0,1-17.084-14.161,146.506,146.506,0,0,1-27.03-34.948A160.824,160.824,0,0,1,816,3136.218a189.026,189.026,0,0,1-7.218-23.845,235.757,235.757,0,0,1-4.578-26.721c-1.078-9.4-1.709-19.422-1.875-29.786-1.291-80.537-23.864-203.617-83.349-307.528-31.622-55.238-70.147-98.737-114.506-129.288-51.11-35.2-109.962-53.05-174.919-53.05v-2a337.217,337.217,0,0,1,50.2,3.69,305.939,305.939,0,0,1,45.989,10.6,296.118,296.118,0,0,1,41.907,16.808,304.633,304.633,0,0,1,37.957,22.3c44.608,30.723,83.336,74.442,115.108,129.942a580.982,580.982,0,0,1,37.519,79.5,695.689,695.689,0,0,1,25.687,81.664,722.4,722.4,0,0,1,14.989,78.2,594.565,594.565,0,0,1,5.417,69.124c1.254,78.275,28.551,129.465,85.9,161.1,52.317,28.856,125.815,40.65,227.446,50.326a262.027,262.027,0,0,1,34.031,5.47,231.21,231.21,0,0,1,30.269,9.188,214.7,214.7,0,0,1,26.717,12.345,209.706,209.706,0,0,1,23.376,14.94c25.682,18.927,47.35,43.966,64.4,74.421a293.335,293.335,0,0,1,17.808,38.138,315.8,315.8,0,0,1,10.556,32.788,240.7,240.7,0,0,1,6.358,31.659Z" transform="translate(-224.455 -2565)" fill="#c8c8c8" opacity="0.2"/>
      <path id="Path_22604" data-name="Path 22604" d="M1329.205,3486.421a238.947,238.947,0,0,0-6.321-31.431,313.807,313.807,0,0,0-10.5-32.583,291.278,291.278,0,0,0-17.693-37.868c-16.917-30.192-38.4-55.005-63.846-73.752-31.8-23.428-69.944-37.4-113.364-41.538-27.063-2.576-48.776-4.964-68.331-7.513-23.1-3.011-43.111-6.25-61.172-9.9A462.64,462.64,0,0,1,934.5,3238c-8.334-2.75-16.3-5.736-23.685-8.875a236.373,236.373,0,0,1-21.557-10.442,190.4,190.4,0,0,1-19.358-12.2,162.063,162.063,0,0,1-17.084-14.161,146.506,146.506,0,0,1-27.03-34.948A160.824,160.824,0,0,1,816,3136.218a189.026,189.026,0,0,1-7.218-23.845,235.757,235.757,0,0,1-4.578-26.721c-1.078-9.4-1.709-19.422-1.875-29.786-1.291-80.537-23.864-203.617-83.349-307.528-31.622-55.238-70.147-98.737-114.506-129.288-51.11-35.2-109.962-53.05-174.919-53.05v-2a337.217,337.217,0,0,1,50.2,3.69,305.939,305.939,0,0,1,45.989,10.6,296.118,296.118,0,0,1,41.907,16.808,304.633,304.633,0,0,1,37.957,22.3c44.608,30.723,83.336,74.442,115.108,129.942a580.982,580.982,0,0,1,37.519,79.5,695.689,695.689,0,0,1,25.687,81.664,722.4,722.4,0,0,1,14.989,78.2,594.565,594.565,0,0,1,5.417,69.124c1.254,78.275,28.551,129.465,85.9,161.1,52.317,28.856,125.815,40.65,227.446,50.326a262.027,262.027,0,0,1,34.031,5.47,231.21,231.21,0,0,1,30.269,9.188,214.7,214.7,0,0,1,26.717,12.345,209.706,209.706,0,0,1,23.376,14.94c25.682,18.927,47.35,43.966,64.4,74.421a293.335,293.335,0,0,1,17.808,38.138,315.8,315.8,0,0,1,10.556,32.788,240.7,240.7,0,0,1,6.358,31.659Z" transform="translate(-250.091 -2565)" fill="#c8c8c8" opacity="0.2"/>
      <path id="Path_22605" data-name="Path 22605" d="M1329.205,3486.421a238.947,238.947,0,0,0-6.321-31.431,313.807,313.807,0,0,0-10.5-32.583,291.278,291.278,0,0,0-17.693-37.868c-16.917-30.192-38.4-55.005-63.846-73.752-31.8-23.428-69.944-37.4-113.364-41.538-27.063-2.576-48.776-4.964-68.331-7.513-23.1-3.011-43.111-6.25-61.172-9.9A462.64,462.64,0,0,1,934.5,3238c-8.334-2.75-16.3-5.736-23.685-8.875a236.373,236.373,0,0,1-21.557-10.442,190.4,190.4,0,0,1-19.358-12.2,162.063,162.063,0,0,1-17.084-14.161,146.506,146.506,0,0,1-27.03-34.948A160.824,160.824,0,0,1,816,3136.218a189.026,189.026,0,0,1-7.218-23.845,235.757,235.757,0,0,1-4.578-26.721c-1.078-9.4-1.709-19.422-1.875-29.786-1.291-80.537-23.864-203.617-83.349-307.528-31.622-55.238-70.147-98.737-114.506-129.288-51.11-35.2-109.962-53.05-174.919-53.05v-2a337.217,337.217,0,0,1,50.2,3.69,305.939,305.939,0,0,1,45.989,10.6,296.118,296.118,0,0,1,41.907,16.808,304.633,304.633,0,0,1,37.957,22.3c44.608,30.723,83.336,74.442,115.108,129.942a580.982,580.982,0,0,1,37.519,79.5,695.689,695.689,0,0,1,25.687,81.664,722.4,722.4,0,0,1,14.989,78.2,594.565,594.565,0,0,1,5.417,69.124c1.254,78.275,28.551,129.465,85.9,161.1,52.317,28.856,125.815,40.65,227.446,50.326a262.027,262.027,0,0,1,34.031,5.47,231.21,231.21,0,0,1,30.269,9.188,214.7,214.7,0,0,1,26.717,12.345,209.706,209.706,0,0,1,23.376,14.94c25.682,18.927,47.35,43.966,64.4,74.421a293.335,293.335,0,0,1,17.808,38.138,315.8,315.8,0,0,1,10.556,32.788,240.7,240.7,0,0,1,6.358,31.659Z" transform="translate(-275.728 -2565)" fill="#c8c8c8" opacity="0.2"/>
      <path id="Path_22606" data-name="Path 22606" d="M1329.205,3486.421a238.947,238.947,0,0,0-6.321-31.431,313.807,313.807,0,0,0-10.5-32.583,291.278,291.278,0,0,0-17.693-37.868c-16.917-30.192-38.4-55.005-63.846-73.752-31.8-23.428-69.944-37.4-113.364-41.538-27.063-2.576-48.776-4.964-68.331-7.513-23.1-3.011-43.111-6.25-61.172-9.9A462.64,462.64,0,0,1,934.5,3238c-8.334-2.75-16.3-5.736-23.685-8.875a236.373,236.373,0,0,1-21.557-10.442,190.4,190.4,0,0,1-19.358-12.2,162.063,162.063,0,0,1-17.084-14.161,146.506,146.506,0,0,1-27.03-34.948A160.824,160.824,0,0,1,816,3136.218a189.026,189.026,0,0,1-7.218-23.845,235.757,235.757,0,0,1-4.578-26.721c-1.078-9.4-1.709-19.422-1.875-29.786-1.291-80.537-23.864-203.617-83.349-307.528-31.622-55.238-70.147-98.737-114.506-129.288-51.11-35.2-109.962-53.05-174.919-53.05v-2a337.217,337.217,0,0,1,50.2,3.69,305.939,305.939,0,0,1,45.989,10.6,296.118,296.118,0,0,1,41.907,16.808,304.633,304.633,0,0,1,37.957,22.3c44.608,30.723,83.336,74.442,115.108,129.942a580.982,580.982,0,0,1,37.519,79.5,695.689,695.689,0,0,1,25.687,81.664,722.4,722.4,0,0,1,14.989,78.2,594.565,594.565,0,0,1,5.417,69.124c1.254,78.275,28.551,129.465,85.9,161.1,52.317,28.856,125.815,40.65,227.446,50.326a262.027,262.027,0,0,1,34.031,5.47,231.21,231.21,0,0,1,30.269,9.188,214.7,214.7,0,0,1,26.717,12.345,209.706,209.706,0,0,1,23.376,14.94c25.682,18.927,47.35,43.966,64.4,74.421a293.335,293.335,0,0,1,17.808,38.138,315.8,315.8,0,0,1,10.556,32.788,240.7,240.7,0,0,1,6.358,31.659Z" transform="translate(-301.365 -2565)" fill="#c8c8c8" opacity="0.2"/>
      <path id="Path_22607" data-name="Path 22607" d="M1329.205,3486.421a238.947,238.947,0,0,0-6.321-31.431,313.807,313.807,0,0,0-10.5-32.583,291.278,291.278,0,0,0-17.693-37.868c-16.917-30.192-38.4-55.005-63.846-73.752-31.8-23.428-69.944-37.4-113.364-41.538-27.063-2.576-48.776-4.964-68.331-7.513-23.1-3.011-43.111-6.25-61.172-9.9A462.64,462.64,0,0,1,934.5,3238c-8.334-2.75-16.3-5.736-23.685-8.875a236.373,236.373,0,0,1-21.557-10.442,190.4,190.4,0,0,1-19.358-12.2,162.063,162.063,0,0,1-17.084-14.161,146.506,146.506,0,0,1-27.03-34.948A160.824,160.824,0,0,1,816,3136.218a189.026,189.026,0,0,1-7.218-23.845,235.757,235.757,0,0,1-4.578-26.721c-1.078-9.4-1.709-19.422-1.875-29.786-1.291-80.537-23.864-203.617-83.349-307.528-31.622-55.238-70.147-98.737-114.506-129.288-51.11-35.2-109.962-53.05-174.919-53.05v-2a337.217,337.217,0,0,1,50.2,3.69,305.939,305.939,0,0,1,45.989,10.6,296.118,296.118,0,0,1,41.907,16.808,304.633,304.633,0,0,1,37.957,22.3c44.608,30.723,83.336,74.442,115.108,129.942a580.982,580.982,0,0,1,37.519,79.5,695.689,695.689,0,0,1,25.687,81.664,722.4,722.4,0,0,1,14.989,78.2,594.565,594.565,0,0,1,5.417,69.124c1.254,78.275,28.551,129.465,85.9,161.1,52.317,28.856,125.815,40.65,227.446,50.326a262.027,262.027,0,0,1,34.031,5.47,231.21,231.21,0,0,1,30.269,9.188,214.7,214.7,0,0,1,26.717,12.345,209.706,209.706,0,0,1,23.376,14.94c25.682,18.927,47.35,43.966,64.4,74.421a293.335,293.335,0,0,1,17.808,38.138,315.8,315.8,0,0,1,10.556,32.788,240.7,240.7,0,0,1,6.358,31.659Z" transform="translate(-327.002 -2565)" fill="#c8c8c8" opacity="0.2"/>
      <path id="Path_22608" data-name="Path 22608" d="M1329.205,3486.421a238.947,238.947,0,0,0-6.321-31.431,313.807,313.807,0,0,0-10.5-32.583,291.278,291.278,0,0,0-17.693-37.868c-16.917-30.192-38.4-55.005-63.846-73.752-31.8-23.428-69.944-37.4-113.364-41.538-27.063-2.576-48.776-4.964-68.331-7.513-23.1-3.011-43.111-6.25-61.172-9.9A462.64,462.64,0,0,1,934.5,3238c-8.334-2.75-16.3-5.736-23.685-8.875a236.373,236.373,0,0,1-21.557-10.442,190.4,190.4,0,0,1-19.358-12.2,162.063,162.063,0,0,1-17.084-14.161,146.506,146.506,0,0,1-27.03-34.948A160.824,160.824,0,0,1,816,3136.218a189.026,189.026,0,0,1-7.218-23.845,235.757,235.757,0,0,1-4.578-26.721c-1.078-9.4-1.709-19.422-1.875-29.786-1.291-80.537-23.864-203.617-83.349-307.528-31.622-55.238-70.147-98.737-114.506-129.288-51.11-35.2-109.962-53.05-174.919-53.05v-2a337.217,337.217,0,0,1,50.2,3.69,305.939,305.939,0,0,1,45.989,10.6,296.118,296.118,0,0,1,41.907,16.808,304.633,304.633,0,0,1,37.957,22.3c44.608,30.723,83.336,74.442,115.108,129.942a580.982,580.982,0,0,1,37.519,79.5,695.689,695.689,0,0,1,25.687,81.664,722.4,722.4,0,0,1,14.989,78.2,594.565,594.565,0,0,1,5.417,69.124c1.254,78.275,28.551,129.465,85.9,161.1,52.317,28.856,125.815,40.65,227.446,50.326a262.027,262.027,0,0,1,34.031,5.47,231.21,231.21,0,0,1,30.269,9.188,214.7,214.7,0,0,1,26.717,12.345,209.706,209.706,0,0,1,23.376,14.94c25.682,18.927,47.35,43.966,64.4,74.421a293.335,293.335,0,0,1,17.808,38.138,315.8,315.8,0,0,1,10.556,32.788,240.7,240.7,0,0,1,6.358,31.659Z" transform="translate(-352.639 -2565)" fill="#c8c8c8" opacity="0.2"/>
      <path id="Path_22609" data-name="Path 22609" d="M1329.205,3486.421a238.947,238.947,0,0,0-6.321-31.431,313.807,313.807,0,0,0-10.5-32.583,291.278,291.278,0,0,0-17.693-37.868c-16.917-30.192-38.4-55.005-63.846-73.752-31.8-23.428-69.944-37.4-113.364-41.538-27.063-2.576-48.776-4.964-68.331-7.513-23.1-3.011-43.111-6.25-61.172-9.9A462.64,462.64,0,0,1,934.5,3238c-8.334-2.75-16.3-5.736-23.685-8.875a236.373,236.373,0,0,1-21.557-10.442,190.4,190.4,0,0,1-19.358-12.2,162.063,162.063,0,0,1-17.084-14.161,146.506,146.506,0,0,1-27.03-34.948A160.824,160.824,0,0,1,816,3136.218a189.026,189.026,0,0,1-7.218-23.845,235.757,235.757,0,0,1-4.578-26.721c-1.078-9.4-1.709-19.422-1.875-29.786-1.291-80.537-23.864-203.617-83.349-307.528-31.622-55.238-70.147-98.737-114.506-129.288-51.11-35.2-109.962-53.05-174.919-53.05v-2a337.217,337.217,0,0,1,50.2,3.69,305.939,305.939,0,0,1,45.989,10.6,296.118,296.118,0,0,1,41.907,16.808,304.633,304.633,0,0,1,37.957,22.3c44.608,30.723,83.336,74.442,115.108,129.942a580.982,580.982,0,0,1,37.519,79.5,695.689,695.689,0,0,1,25.687,81.664,722.4,722.4,0,0,1,14.989,78.2,594.565,594.565,0,0,1,5.417,69.124c1.254,78.275,28.551,129.465,85.9,161.1,52.317,28.856,125.815,40.65,227.446,50.326a262.027,262.027,0,0,1,34.031,5.47,231.21,231.21,0,0,1,30.269,9.188,214.7,214.7,0,0,1,26.717,12.345,209.706,209.706,0,0,1,23.376,14.94c25.682,18.927,47.35,43.966,64.4,74.421a293.335,293.335,0,0,1,17.808,38.138,315.8,315.8,0,0,1,10.556,32.788,240.7,240.7,0,0,1,6.358,31.659Z" transform="translate(-378.275 -2565)" fill="#c8c8c8" opacity="0.2"/>
      <path id="Path_22610" data-name="Path 22610" d="M1329.205,3486.421a238.947,238.947,0,0,0-6.321-31.431,313.807,313.807,0,0,0-10.5-32.583,291.278,291.278,0,0,0-17.693-37.868c-16.917-30.192-38.4-55.005-63.846-73.752-31.8-23.428-69.944-37.4-113.364-41.538-27.063-2.576-48.776-4.964-68.331-7.513-23.1-3.011-43.111-6.25-61.172-9.9A462.64,462.64,0,0,1,934.5,3238c-8.334-2.75-16.3-5.736-23.685-8.875a236.373,236.373,0,0,1-21.557-10.442,190.4,190.4,0,0,1-19.358-12.2,162.063,162.063,0,0,1-17.084-14.161,146.506,146.506,0,0,1-27.03-34.948A160.824,160.824,0,0,1,816,3136.218a189.026,189.026,0,0,1-7.218-23.845,235.757,235.757,0,0,1-4.578-26.721c-1.078-9.4-1.709-19.422-1.875-29.786-1.291-80.537-23.864-203.617-83.349-307.528-31.622-55.238-70.147-98.737-114.506-129.288-51.11-35.2-109.962-53.05-174.919-53.05v-2a337.217,337.217,0,0,1,50.2,3.69,305.939,305.939,0,0,1,45.989,10.6,296.118,296.118,0,0,1,41.907,16.808,304.633,304.633,0,0,1,37.957,22.3c44.608,30.723,83.336,74.442,115.108,129.942a580.982,580.982,0,0,1,37.519,79.5,695.689,695.689,0,0,1,25.687,81.664,722.4,722.4,0,0,1,14.989,78.2,594.565,594.565,0,0,1,5.417,69.124c1.254,78.275,28.551,129.465,85.9,161.1,52.317,28.856,125.815,40.65,227.446,50.326a262.027,262.027,0,0,1,34.031,5.47,231.21,231.21,0,0,1,30.269,9.188,214.7,214.7,0,0,1,26.717,12.345,209.706,209.706,0,0,1,23.376,14.94c25.682,18.927,47.35,43.966,64.4,74.421a293.335,293.335,0,0,1,17.808,38.138,315.8,315.8,0,0,1,10.556,32.788,240.7,240.7,0,0,1,6.358,31.659Z" transform="translate(-403.912 -2565)" fill="#c8c8c8" opacity="0.2"/>
      <path id="Path_22611" data-name="Path 22611" d="M1329.205,3486.421a238.947,238.947,0,0,0-6.321-31.431,313.807,313.807,0,0,0-10.5-32.583,291.278,291.278,0,0,0-17.693-37.868c-16.917-30.192-38.4-55.005-63.846-73.752-31.8-23.428-69.944-37.4-113.364-41.538-27.063-2.576-48.776-4.964-68.331-7.513-23.1-3.011-43.111-6.25-61.172-9.9A462.64,462.64,0,0,1,934.5,3238c-8.334-2.75-16.3-5.736-23.685-8.875a236.373,236.373,0,0,1-21.557-10.442,190.4,190.4,0,0,1-19.358-12.2,162.063,162.063,0,0,1-17.084-14.161,146.506,146.506,0,0,1-27.03-34.948A160.824,160.824,0,0,1,816,3136.218a189.026,189.026,0,0,1-7.218-23.845,235.757,235.757,0,0,1-4.578-26.721c-1.078-9.4-1.709-19.422-1.875-29.786-1.291-80.537-23.864-203.617-83.349-307.528-31.622-55.238-70.147-98.737-114.506-129.288-51.11-35.2-109.962-53.05-174.919-53.05v-2a337.217,337.217,0,0,1,50.2,3.69,305.939,305.939,0,0,1,45.989,10.6,296.118,296.118,0,0,1,41.907,16.808,304.633,304.633,0,0,1,37.957,22.3c44.608,30.723,83.336,74.442,115.108,129.942a580.982,580.982,0,0,1,37.519,79.5,695.689,695.689,0,0,1,25.687,81.664,722.4,722.4,0,0,1,14.989,78.2,594.565,594.565,0,0,1,5.417,69.124c1.254,78.275,28.551,129.465,85.9,161.1,52.317,28.856,125.815,40.65,227.446,50.326a262.027,262.027,0,0,1,34.031,5.47,231.21,231.21,0,0,1,30.269,9.188,214.7,214.7,0,0,1,26.717,12.345,209.706,209.706,0,0,1,23.376,14.94c25.682,18.927,47.35,43.966,64.4,74.421a293.335,293.335,0,0,1,17.808,38.138,315.8,315.8,0,0,1,10.556,32.788,240.7,240.7,0,0,1,6.358,31.659Z" transform="translate(-429.549 -2565)" fill="#c8c8c8" opacity="0.2"/>
    </g>
  </g>
</svg>
