<svg xmlns="http://www.w3.org/2000/svg" width="209.785" height="142.251" viewBox="0 0 209.785 142.251">
  <g id="Group_8332" data-name="Group 8332" transform="translate(-2.119)">
    <g id="Group_7883" data-name="Group 7883" transform="translate(60.865 52.772)">
      <path id="Path_23044" data-name="Path 23044" d="M151.038,144.884c0,6.1-33.811,11.043-75.519,11.043S0,150.983,0,144.884s33.811-11.043,75.519-11.043,75.519,4.944,75.519,11.043" transform="translate(0 -71.507)" fill="rgba(166,173,179,0.24)"/>
      <path id="Path_23045" data-name="Path 23045" d="M131.458,119.649l-69.99-1.618L38.9,120.775V132.11l44.616,10.05,47.918-13.589.019-.245Z" transform="translate(-20.786 -63.06)" fill="#fff"/>
      <path id="Path_23046" data-name="Path 23046" d="M85.648,135.924v9.137L39.4,135.643s-2.527-9.585.853-11.167,45.4,11.448,45.4,11.448" transform="translate(-20.564 -66.432)" fill="#c8c8c8"/>
      <path id="Path_23047" data-name="Path 23047" d="M132.939,111.767l-8.6,2.012L89.65,107.07l-40.075,7.815-9.136-1.894v3.676L86.689,126.7l46.25-11.254Z" transform="translate(-21.605 -57.204)" fill="#2c2c2c"/>
      <path id="Path_23048" data-name="Path 23048" d="M132.939,107.55,86.689,118.8l-46.25-10.029,49.211-9.6Z" transform="translate(-21.605 -52.987)" fill="#c8c8c8"/>
      <path id="Path_23049" data-name="Path 23049" d="M126.71,129.878s-42.682,11.366-43.317,11.366c-.574,0-37.405-7.444-44.524-8.8-1.427-3.426.136-9,.136-9l-.461-1.417-.009,0c.916-1.323-.853-2.256-.853-2.256s-1.225-.4-2.042,3.17a21.478,21.478,0,0,0-.363,4.413c0,.066.1,5.534.989,6.85l46.849,10.92,47.429-13.55v-2.695Z" transform="translate(-18.847 -63.982)" fill="#2c2c2c"/>
      <path id="Path_23050" data-name="Path 23050" d="M47.63,137.96s-1.131,10.261-.578,10.15a20.694,20.694,0,0,0,3.112-2.288s3.3,4.5,3.3,3.947,1.216-10.28,1.216-10.28Z" transform="translate(-25.057 -73.707)" fill="#5f5f5f"/>
      <path id="Path_23051" data-name="Path 23051" d="M90.072,107.9c.641.23,26.293-4.848,26.293-4.848l22.446,4.174Z" transform="translate(-48.122 -55.058)" fill="#2a95f5"/>
      <path id="Path_23052" data-name="Path 23052" d="M79.332,122.423l28.73,4.412,26.55-5.72Z" transform="translate(-42.384 -64.708)" fill="#2a95f5"/>
      <path id="Path_23053" data-name="Path 23053" d="M32.027,91.215l69.99-1.618,22.563,2.744v11.335l-44.616,10.05L32.046,100.136l-.019-.245Z" transform="translate(-17.111 -47.868)" fill="#c8c8c8"/>
      <path id="Path_23054" data-name="Path 23054" d="M129.914,107.489v9.137l46.25-9.418s2.528-9.585-.853-11.167-45.4,11.448-45.4,11.448" transform="translate(-69.409 -51.24)" fill="#fff"/>
      <path id="Path_23055" data-name="Path 23055" d="M30.608,83.332l8.6,2.012L73.9,78.636l40.075,7.815,9.136-1.894v3.676L76.858,98.261,30.608,87.008Z" transform="translate(-16.353 -42.012)" fill="#5f5f5f"/>
      <path id="Path_23056" data-name="Path 23056" d="M30.608,79.116,76.858,90.37l46.25-10.029-49.21-9.6Z" transform="translate(-16.353 -37.797)" fill="#2c2c2c"/>
      <path id="Path_23057" data-name="Path 23057" d="M33.664,101.443S76.346,112.81,76.981,112.81c.574,0,37.405-7.445,44.524-8.8,1.427-3.426-.136-9-.136-9l.461-1.417.009,0c-.916-1.323.853-2.256.853-2.256s1.225-.4,2.042,3.17a21.505,21.505,0,0,1,.363,4.413c0,.066-.1,5.534-.989,6.85l-46.849,10.92L29.83,103.139v-2.695Z" transform="translate(-15.937 -48.791)" fill="#5f5f5f"/>
      <path id="Path_23058" data-name="Path 23058" d="M136.7,86.508l-29.71,6.442,10.677,2.6,30.962-6.714Z" transform="translate(-57.16 -46.218)" fill="#c8c8c8"/>
      <path id="Path_23059" data-name="Path 23059" d="M99.265,30.4,64.986,34.5V56.445s9.537,6.664,34.279,6.664,34.279-6.664,34.279-6.664V34.5Z" transform="translate(-34.72 -16.243)" fill="#c8c8c8"/>
      <path id="Path_23060" data-name="Path 23060" d="M122.9,36.279h0A25.531,25.531,0,0,1,99.77,61.714c-3.31.31-7.019.5-11.151.5A99.8,99.8,0,0,1,66.4,59.986c2.526,1.439,12.564,6.262,33.619,6.262,24.742,0,34.279-6.664,34.279-6.664V37.643Z" transform="translate(-35.477 -19.383)" fill="#5f5f5f"/>
      <path id="Path_23061" data-name="Path 23061" d="M75.091,0,19.74,14.16v1.812l55.352,14.16,55.352-14.16V14.16Z" transform="translate(-10.546 0)" fill="#2c2c2c"/>
      <path id="Path_23062" data-name="Path 23062" d="M75.091,0,19.74,14.16,75.091,28.32l55.352-14.16Z" transform="translate(-10.546 0)" fill="#c8c8c8"/>
      <path id="Path_23064" data-name="Path 23064" d="M183.754,59.644l-.572-.017c0-.024.072-2.423,0-6.279-.023-1.242-.062-1.779-.1-2.252a72.667,72.667,0,0,1,.074-7.965c.011-.364.032-.753.054-1.158.132-2.453.3-5.507-1.544-7.084-1.41-1.207-3.412-1.253-5.348-1.3-.762-.017-1.482-.034-2.166-.118-3.52-.434-7.105-.819-10.574-1.191l-2.575-.278c-8.482-.919-15.753-1.637-15.826-1.644l.056-.57c.073.007,7.346.726,15.831,1.645l2.575.278c3.47.373,7.058.758,10.582,1.192.656.081,1.362.1,2.109.114,2.037.047,4.142.094,5.707,1.434,2.055,1.76,1.882,4.97,1.743,7.549-.022.4-.042.784-.054,1.145a72.406,72.406,0,0,0-.075,7.905c.035.481.075,1.026.1,2.283.072,3.871,0,6.283,0,6.307" transform="translate(-77.565 -15.917)" fill="#2c2c2c"/>
      <path id="Path_23065" data-name="Path 23065" d="M138.04,28.516c0,.908-1.665,1.645-3.718,1.645s-3.719-.737-3.719-1.645,1.665-1.645,3.719-1.645,3.718.736,3.718,1.645" transform="translate(-69.777 -14.356)" fill="#2c2c2c"/>
      <path id="Path_23066" data-name="Path 23066" d="M227.036,86.612a1.878,1.878,0,1,1-1.878-1.878,1.878,1.878,0,0,1,1.878,1.878" transform="translate(-119.291 -45.271)" fill="#2c2c2c"/>
      <path id="Path_23067" data-name="Path 23067" d="M225.291,90.592c-1.47,0-1.761-.271-1.761-.271v1.522h3.514V90.321s-.283.271-1.753.271" transform="translate(-119.424 -48.255)" fill="#2c2c2c"/>
      <path id="Path_23068" data-name="Path 23068" d="M226.075,93.234a3.143,3.143,0,0,0-5.247.28c-1.387,2.344-.294,5.848,1.23,7.867.091.121.179.245.263.37l.058.09c.065.1.129.2.19.3l.045.077c.065.109.129.22.189.329l.021.039c.068.125.133.251.195.374a14.164,14.164,0,0,1,.577,1.333,10.1,10.1,0,0,0,2.073-2.778,10.408,10.408,0,0,0,1.321-3.391,6.107,6.107,0,0,0-.915-4.891" transform="translate(-117.641 -49.129)" fill="#2c2c2c"/>
      <path id="Path_23069" data-name="Path 23069" d="M223.268,93.282a3.6,3.6,0,0,0-.239.285,5.843,5.843,0,0,0-.532.816,5.722,5.722,0,0,0-.283.581c-.044.105-.077.218-.117.331a2.5,2.5,0,0,0-.106.35l-.091.367-.051.383-.027.193,0,.2-.006.395c.019.263.043.527.083.783.067.252.105.508.182.745s.165.462.24.68c.1.209.2.4.282.585l.126.261.134.225.22.366.189.324-.234-.291-.265-.34-.162-.211-.149-.254c-.1-.178-.218-.369-.332-.577-.094-.217-.194-.447-.29-.688s-.144-.509-.214-.772c-.045-.269-.075-.548-.1-.825l.011-.418.007-.208.031-.2.065-.4.109-.382a2.1,2.1,0,0,1,.129-.361c.051-.115.094-.229.147-.335a5.94,5.94,0,0,1,.335-.578,4.012,4.012,0,0,1,.335-.452c.11-.126.207-.234.293-.318a2.444,2.444,0,0,1,.281-.249" transform="translate(-118.354 -49.837)" fill="#fff"/>
      <path id="Path_23070" data-name="Path 23070" d="M225.7,93.282l-.079.387c-.026.122-.053.272-.084.444s-.061.366-.1.577c-.067.423-.131.919-.178,1.45-.03.265-.044.54-.059.819s-.016.563-.022.847.016.566.023.845c.031.276.047.55.082.813.052.259.077.516.133.753s.113.46.176.663.143.381.2.545a3.274,3.274,0,0,0,.192.406l.175.354-.223-.326a3.338,3.338,0,0,1-.239-.388c-.078-.158-.166-.337-.256-.536s-.145-.429-.227-.666-.121-.5-.179-.765-.077-.548-.109-.832c-.01-.285-.035-.575-.034-.865s.005-.58.033-.863.047-.563.085-.831.082-.526.125-.77.1-.472.145-.683c.1-.421.208-.765.285-1s.133-.373.133-.373" transform="translate(-120.153 -49.837)" fill="#fff"/>
      <path id="Path_23071" data-name="Path 23071" d="M227.616,95.457s.047.131.113.366.158.571.234.982c.043.2.078.428.121.664s.08.486.105.747c.062.519.1,1.076.122,1.634.013.279.006.558.007.833s-.02.544-.028.806-.041.513-.061.752-.051.463-.081.67c-.049.415-.127.755-.174.994s-.081.374-.081.374.009-.139.026-.381c.01-.121.022-.268.037-.436s.02-.359.033-.566.029-.431.033-.668.018-.487.018-.746.008-.526,0-.8,0-.547-.017-.822c-.012-.552-.048-1.1-.087-1.619s-.08-1-.134-1.409-.092-.756-.13-1l-.059-.378" transform="translate(-121.607 -50.999)" fill="#fff"/>
      <path id="Path_23072" data-name="Path 23072" d="M228.224,93.051s.073.109.18.312a8.909,8.909,0,0,1,.4.862,12.247,12.247,0,0,1,.435,1.275c.055.24.131.485.173.741s.1.514.129.776.058.524.072.783a7.485,7.485,0,0,1,.014.762,5.883,5.883,0,0,1-.043.711q-.016.169-.031.328l-.05.3c-.033.195-.061.373-.1.529l-.109.4c-.063.22-.1.346-.1.346l.046-.357c.016-.113.036-.249.058-.406s.028-.335.044-.53c.009-.1.018-.2.027-.3s0-.213.006-.324c0-.222.012-.456,0-.7s-.013-.491-.038-.744-.041-.51-.08-.765-.072-.511-.116-.761-.1-.495-.146-.732-.107-.465-.167-.679-.114-.418-.175-.6c-.116-.371-.217-.68-.3-.893s-.129-.335-.129-.335" transform="translate(-121.932 -49.714)" fill="#fff"/>
      <path id="Path_23073" data-name="Path 23073" d="M230.818,95.457a8.2,8.2,0,0,1,.46,1.259c.05.2.112.405.157.632s.1.465.135.716.062.51.088.775.023.536.024.806c-.02.27-.014.542-.054.806a6.055,6.055,0,0,1-.129.773,4.552,4.552,0,0,1-.2.7,4.947,4.947,0,0,1-.24.609c-.088.183-.174.347-.25.492s-.173.255-.238.352l-.213.3.165-.329c.053-.1.122-.227.191-.372s.121-.322.2-.5a4.78,4.78,0,0,0,.189-.608,6.312,6.312,0,0,0,.151-.693c.058-.239.067-.5.1-.751s.027-.521.043-.782,0-.526-.014-.785-.026-.515-.061-.76-.053-.484-.09-.709-.074-.437-.109-.633c-.082-.389-.147-.716-.21-.941s-.094-.355-.094-.355" transform="translate(-123.074 -50.999)" fill="#fff"/>
      <path id="Path_23074" data-name="Path 23074" d="M269.353,173.545s-7.269-1.664-11.039-6.406a21.942,21.942,0,0,0-9.051-6.542l2.822-1.273c.6-.271,2.528.634,3.073.846,3.143,1.223,5.49,3.842,8.637,5.128,2.322.949,5.734,2.4,8.294,1.662,0,0,.659,4.676-2.737,6.585" transform="translate(-133.173 -85.094)" fill="#5f5f5f"/>
      <path id="Path_23075" data-name="Path 23075" d="M255.711,166.975s-.05-5.855-3.05-9.546a17.231,17.231,0,0,1-3.49-8.045l-1.452,1.95c-.309.415.06,2.046.131,2.5.408,2.616,2.019,4.859,2.474,7.489.336,1.941.873,4.8-.124,6.641,0,0,3.473,1.294,5.511-.988" transform="translate(-132.283 -79.811)" fill="#5f5f5f"/>
      <path id="Path_23076" data-name="Path 23076" d="M164.1,152.882s1.8,5.651,7.379,13.245c-.1-.3,10.486-5.452,11.269-5.852a100.032,100.032,0,0,1,19.153-7.628c2.346-.641,4.7-1.21,7.041-1.872,2.3-.652,4.609-1.3,6.932-1.88,6.02-1.495,16.056-1.976,16.056-1.976l-3.786-2.791-50.653,6.808-5.747-7.47Z" transform="translate(-87.671 -76.648)" fill="#dbdbdb"/>
      <path id="Path_23077" data-name="Path 23077" d="M232.654,123.9a6.986,6.986,0,0,0-2.63-.915s-22.59,3.31-31.418,4.415-28.765,2.469-28.765,2.469l4.619,19.691c2.1-1.092,25.638-7.983,32.709-10.133s25.862-5.906,25.862-5.906a3.884,3.884,0,0,0,1.137-1.313c1.6-2.913,1.292-6.654-1.514-8.307" transform="translate(-90.74 -65.705)" fill="#f4f4f4"/>
      <path id="Path_23078" data-name="Path 23078" d="M239.535,136.955a3.783,3.783,0,0,1-.712.665s-19.721,3.89-27.141,6.125c-6.873,2.07-28.567,8.366-33.48,10.187l.725,3.09c2.1-1.093,25.638-7.984,32.709-10.133s25.862-5.906,25.862-5.906a3.869,3.869,0,0,0,1.137-1.313,7.866,7.866,0,0,0,.9-2.714" transform="translate(-95.207 -73.171)" fill="#ededed"/>
      <path id="Path_23079" data-name="Path 23079" d="M170.313,157.523c-1.976.537-6.055-3.309-7.419-8.742s.507-10.4,2.483-10.934,4.683,3.432,6.046,8.865.865,10.274-1.111,10.812" transform="translate(-86.78 -73.621)" fill="#c5c9c9"/>
      <path id="Path_23080" data-name="Path 23080" d="M176.668,153.258a.94.94,0,0,1-.259.039c-1.361.017-2.49-4.086-2.49-4.086l1.278-2.039a19.456,19.456,0,0,0-1.568-3.32h-.039s-2.115.67-2.463,4.123a6.98,6.98,0,0,0,.04,1.7h0a11.035,11.035,0,0,0,1.257,3.792h0c1.665,3.318,3.53,3.444,4.367,3.3a18.97,18.97,0,0,0-.117-3.5" transform="translate(-91.409 -76.855)" fill="#babdbd"/>
      <path id="Path_23081" data-name="Path 23081" d="M179.652,157.1a.935.935,0,0,0,.258-.039,27.167,27.167,0,0,0-1.471-6.087l-1.278,2.04s1.129,4.1,2.49,4.086" transform="translate(-94.652 -80.663)" fill="#a8abab"/>
      <path id="Path_23082" data-name="Path 23082" d="M244.681,129.7a8,8,0,0,0-4.234.709s7.491,4.847,4.107,14.349a8.667,8.667,0,0,0,4.387-1.155c3.384-9.5-4.259-13.9-4.259-13.9" transform="translate(-128.463 -69.261)" fill="#5f5f5f"/>
    </g>
    <g id="Group_7884" data-name="Group 7884" transform="matrix(0.839, 0.545, -0.545, 0.839, 23.083, 85.767)">
      <rect id="Rectangle_4445" data-name="Rectangle 4445" width="4.447" height="1.862" transform="matrix(0.004, -1, 1, 0.004, 13.369, 6.446)" fill="#5f5f5f"/>
      <path id="Rectangle_4446" data-name="Rectangle 4446" d="M1.462,0h.789A1.461,1.461,0,0,1,3.712,1.461v0A1.462,1.462,0,0,1,2.25,2.923H1.461A1.461,1.461,0,0,1,0,1.462v0A1.462,1.462,0,0,1,1.462,0Z" transform="translate(12.442 0.026) rotate(-0.395)" fill="#c8c8c8"/>
      <path id="Path_23100" data-name="Path 23100" d="M28.433.484a.486.486,0,0,1-.484.487L.487,1.051a.486.486,0,0,1,0-.971L27.946,0a.486.486,0,0,1,.487.484" transform="translate(0 27.593)" fill="#5f5f5f"/>
      <path id="Path_23101" data-name="Path 23101" d="M.943,8.264A.448.448,0,0,1,.361,8.5a.447.447,0,0,1-.347-.522L2.4.261A.447.447,0,0,1,2.985.026a.448.448,0,0,1,.347.522Z" transform="translate(2.526 33.857)" fill="#c8c8c8"/>
      <rect id="Rectangle_4447" data-name="Rectangle 4447" width="26.25" height="2.561" transform="translate(2.431 39.497) rotate(-72.787)" fill="#2c2c2c"/>
      <path id="Path_23102" data-name="Path 23102" d="M2.494,8.242a.448.448,0,0,0,.584.228.448.448,0,0,0,.341-.526L.94.257A.447.447,0,0,0,.356.029a.447.447,0,0,0-.34.526Z" transform="translate(22.617 33.754)" fill="#c8c8c8"/>
      <rect id="Rectangle_4448" data-name="Rectangle 4448" width="2.561" height="26.25" transform="translate(15.625 15.163) rotate(-17.874)" fill="#2c2c2c"/>
      <path id="Path_23103" data-name="Path 23103" d="M2.493,8.473A1.236,1.236,0,0,1,.02,8.48L0,1.24a1.236,1.236,0,0,1,2.472-.008Z" transform="translate(12.971 23.395)" fill="#2c2c2c"/>
      <path id="Path_23104" data-name="Path 23104" d="M6.859,0a6.879,6.879,0,1,0,6.9,6.858A6.879,6.879,0,0,0,6.859,0m.028,9.72A2.841,2.841,0,1,1,9.721,6.871,2.842,2.842,0,0,1,6.887,9.72" transform="translate(7.288 4.256)" fill="#c8c8c8"/>
      <path id="Path_23105" data-name="Path 23105" d="M.052,2.452A2.024,2.024,0,0,1,1.622.064a2.023,2.023,0,0,1,2.491,1.4L9.295,22.835a2.023,2.023,0,0,1-1.57,2.388,2.024,2.024,0,0,1-2.491-1.4Z" transform="translate(29.061 14.539)" fill="#c8c8c8"/>
      <path id="Path_23106" data-name="Path 23106" d="M2.138,4.92A2.132,2.132,0,0,1,4,5.332L1.771,0,0,.581l.551,5.94a2.1,2.1,0,0,1,1.587-1.6" transform="translate(28.545 9.683)" fill="#5f5f5f"/>
      <path id="Path_23107" data-name="Path 23107" d="M0,0A4.154,4.154,0,0,1,3.411,2.737C4.452,5.348,2.769,6.5,1.735,6.222S.191,5.024.759,3.1A3.072,3.072,0,0,0,0,0" transform="translate(27.381 4.304)" fill="#2c2c2c"/>
    </g>
    <g id="Group_7885" data-name="Group 7885" transform="translate(81.458)">
      <rect id="Rectangle_4439" data-name="Rectangle 4439" width="4.747" height="11.878" transform="matrix(0.698, -0.716, 0.716, 0.698, 19.602, 17.605)" fill="#5f5f5f"/>
      <path id="Path_23092" data-name="Path 23092" d="M148.879,59.606l-8.34-8.2,2.59-1.012,7.578,7.335Z" transform="translate(-132.561 -20.262)" fill="#5f5f5f"/>
      <path id="Path_23093" data-name="Path 23093" d="M158.263,55.058l9.566-13.8a4.308,4.308,0,0,0-7.08-4.908L147.9,54.913Z" transform="translate(-135.214 -14.53)" fill="#36a4bd"/>
      <path id="Path_23094" data-name="Path 23094" d="M158.263,55.058l9.566-13.8a4.308,4.308,0,0,0-7.08-4.908L147.9,54.913Z" transform="translate(-135.214 -14.53)" fill="#c8c8c8"/>
      <rect id="Rectangle_4440" data-name="Rectangle 4440" width="1.576" height="10.014" transform="matrix(0.008, -1, 1, 0.008, 4.305, 30.097)" fill="#2c2c2c"/>
      <path id="Path_23095" data-name="Path 23095" d="M174.826,38.883a1.778,1.778,0,1,1-1.764-1.792,1.777,1.777,0,0,1,1.764,1.792" transform="translate(-143.642 -15.465)" fill="#fff"/>
      <rect id="Rectangle_4441" data-name="Rectangle 4441" width="3.28" height="23.903" transform="translate(3.831 41.677) rotate(-89.54)" fill="#5f5f5f"/>
      <path id="Path_23096" data-name="Path 23096" d="M146.172,50.66a.991.991,0,0,1-1,.983l-14.318-.114a.991.991,0,0,1,.016-1.983l14.317.115a.991.991,0,0,1,.983,1" transform="translate(-128.715 -19.956)" fill="#c8c8c8"/>
      <path id="Path_23097" data-name="Path 23097" d="M172.73,4.682a1.559,1.559,0,0,1,2.2-.123l2.324,2.078a1.559,1.559,0,1,1-2.078,2.324l-2.325-2.078a1.56,1.56,0,0,1-.123-2.2" transform="translate(-144.025 -3.592)" fill="#2c2c2c"/>
      <rect id="Rectangle_4442" data-name="Rectangle 4442" width="3.658" height="2.551" transform="translate(8.985 25.917) rotate(-48.201)" fill="#2c2c2c"/>
      <path id="Path_23098" data-name="Path 23098" d="M143.52,37.292a1.573,1.573,0,0,1,2.221-.124l2.345,2.1a1.573,1.573,0,1,1-2.1,2.345l-2.345-2.1a1.574,1.574,0,0,1-.124-2.221" transform="translate(-133.492 -15.349)" fill="#5f5f5f"/>
      <rect id="Rectangle_4443" data-name="Rectangle 4443" width="27.602" height="9.522" transform="matrix(0.667, -0.745, 0.745, 0.667, 9.083, 20.577)" fill="#c8c8c8"/>
      <rect id="Rectangle_4444" data-name="Rectangle 4444" width="3.903" height="9.523" transform="translate(22.144 5.969) rotate(-48.203)" fill="#2c2c2c"/>
      <path id="Path_23099" data-name="Path 23099" d="M159.081,68.985a1.285,1.285,0,0,1-1.3,1.275l-28.449-.228a1.285,1.285,0,1,1,.021-2.57l28.448.228a1.285,1.285,0,0,1,1.275,1.3" transform="translate(-128.062 -26.416)" fill="#2c2c2c"/>
    </g>
    <g id="Group_7886" data-name="Group 7886" transform="translate(167.409 8.287)">
      <path id="Path_23108" data-name="Path 23108" d="M267.952,156.578l2.26,1.088-1.876-7.7-1.883.459-1.883.459,1.877,7.7Z" transform="translate(-251.691 -117.492)" fill="#2c2c2c"/>
      <path id="Path_23109" data-name="Path 23109" d="M274.968,129.422l-7.386-29.367-.031-.132a.976.976,0,0,0-1.178-.717l-21.2,5.168a.974.974,0,0,0-.716,1.178l.266,1.09,6.44,26.419.138.566c.334,1.369.964,3.273,5.02,2.284l17.272-4.211a1.876,1.876,0,0,0,1.375-2.279" transform="translate(-244.429 -99.178)" fill="#5f5f5f"/>
      <path id="Path_23110" data-name="Path 23110" d="M247.855,106.282l-2.682.653a.975.975,0,0,0-.716,1.178l.266,1.09,6.44,26.419.138.566.6,2.553a.9.9,0,0,0,1.088.611l2.739-.756Z" transform="translate(-244.429 -101.74)" fill="#2c2c2c"/>
      <rect id="Rectangle_4449" data-name="Rectangle 4449" width="13.118" height="6.993" transform="translate(7.266 7.677) rotate(-13.514)" fill="#fff"/>
      <path id="Path_23111" data-name="Path 23111" d="M288.795,135.838l3.77,1.147,12.355-29.7L300.732,106Z" transform="translate(-260.426 -101.639)" fill="#c8c8c8"/>
      <path id="Path_23112" data-name="Path 23112" d="M304.049,107.042l-12.063,29.793,1.73.526,12.355-29.7Z" transform="translate(-261.577 -102.014)" fill="#5f5f5f"/>
      <path id="Path_23113" data-name="Path 23113" d="M288.022,159.091l4.264-5.28-3.77-1.147Z" transform="translate(-260.148 -118.464)" fill="#c8c8c8"/>
      <path id="Path_23114" data-name="Path 23114" d="M288.27,157.683l-.247,3.218L290,158.453Z" transform="translate(-260.148 -120.274)" fill="#2c2c2c"/>
      <path id="Path_23115" data-name="Path 23115" d="M304.982,110.918l3.838,1.973,1.023-2.459-3.949-1.794Z" transform="translate(-266.263 -102.59)" fill="#2c2c2c"/>
    </g>
    <g id="Group_7887" data-name="Group 7887" transform="matrix(0.914, -0.407, 0.407, 0.914, 15.681, 33.335)">
      <path id="Path_23083" data-name="Path 23083" d="M16.293,10.154,16.3.01,6.877,0l-.01,10.144a11.569,11.569,0,1,0,9.426.01" transform="translate(0 13.142)" fill="#c8c8c8"/>
      <path id="Path_23084" data-name="Path 23084" d="M6.572,2.362a16.107,16.107,0,0,1-6.238.069A8.662,8.662,0,1,0,15.881,0C12.874.833,9.659,1.706,6.572,2.362" transform="translate(2.904 29.064)" fill="#5f5f5f"/>
      <path id="Path_23085" data-name="Path 23085" d="M14.017,1.3a1.285,1.285,0,0,1-1.287,1.284L1.284,2.571A1.286,1.286,0,0,1,1.287,0L12.733.015A1.286,1.286,0,0,1,14.017,1.3" transform="translate(4.56 11.711)" fill="#c8c8c8"/>
      <path id="Path_23086" data-name="Path 23086" d="M5.936,2.971A2.968,2.968,0,1,1,2.971,0,2.968,2.968,0,0,1,5.936,2.971" transform="translate(5.092 28.463)" fill="#fff"/>
      <path id="Path_23087" data-name="Path 23087" d="M3.673,1.839A1.837,1.837,0,1,1,1.838,0,1.837,1.837,0,0,1,3.673,1.839" transform="translate(11.891 35.452)" fill="#fff"/>
      <path id="Path_23088" data-name="Path 23088" d="M6.247,3.123A3.123,3.123,0,1,1,3.123,0,3.123,3.123,0,0,1,6.247,3.123" transform="translate(6.108 3.536)" fill="#2c2c2c"/>
      <path id="Path_23089" data-name="Path 23089" d="M1.841.92A.92.92,0,1,1,.921,0a.92.92,0,0,1,.92.92" transform="translate(7.545 4.714)" fill="#fff"/>
      <path id="Path_23090" data-name="Path 23090" d="M3.289,1.644A1.644,1.644,0,1,1,1.645,0,1.644,1.644,0,0,1,3.289,1.644" transform="translate(11.535 0)" fill="#2c2c2c"/>
      <path id="Path_23091" data-name="Path 23091" d="M.969.485A.485.485,0,1,1,.485,0,.485.485,0,0,1,.969.485" transform="translate(12.292 0.62)" fill="#fff"/>
    </g>
  </g>
</svg>
