<svg xmlns="http://www.w3.org/2000/svg" width="22.612" height="32" viewBox="0 0 22.612 32">
  <g id="quote" transform="translate(-75.105)">
    <path id="Path_23842" data-name="Path 23842" d="M95.985,0H83A1.731,1.731,0,0,0,81.78.507L75.615,6.672a1.734,1.734,0,0,0-.51,1.227V30.268A1.734,1.734,0,0,0,76.837,32H95.985a1.734,1.734,0,0,0,1.732-1.732V1.732A1.734,1.734,0,0,0,95.985,0ZM81.738,3.2V6.633H78.306Zm14.1,26.924H76.98V8.508h4.9a1.734,1.734,0,0,0,1.732-1.732v-4.9H95.842v28.25Z" fill="#fff"/>
    <path id="Path_23843" data-name="Path 23843" d="M135.057,169.95a3.224,3.224,0,0,0,.78,2.25.067.067,0,0,1,.006.075,5.227,5.227,0,0,1-.716,1,1.249,1.249,0,0,0,.9,2.109h.013c4.071-.042,7.126-5.08,4.486-7.621A3.239,3.239,0,0,0,135.057,169.95Zm4.173-.839c1.131,1.088-.226,3.277-1.723,4.029a1.943,1.943,0,0,0-.249-2.164,1.359,1.359,0,0,1,1.972-1.864Z" transform="translate(-55.946 -156.427)" fill="#fff"/>
    <path id="Path_23844" data-name="Path 23844" d="M272.733,166.872a3.24,3.24,0,0,0-2.325,5.341.066.066,0,0,1,.006.075,5.226,5.226,0,0,1-.716,1,1.249,1.249,0,0,0,.9,2.109h.013a5.719,5.719,0,0,0,5.477-5.291A3.231,3.231,0,0,0,272.733,166.872Zm-.655,6.281a1.943,1.943,0,0,0-.249-2.164,1.359,1.359,0,1,1,2.389-.885A3.856,3.856,0,0,1,272.078,173.153Z" transform="translate(-182.106 -156.44)" fill="#fff"/>
    <path id="Path_23845" data-name="Path 23845" d="M161.166,341.936H149.628a.938.938,0,0,0,0,1.875h11.539a.938.938,0,0,0,0-1.875Z" transform="translate(-68.986 -320.565)" fill="#fff"/>
    <path id="Path_23846" data-name="Path 23846" d="M161.166,413.334H149.628a.938.938,0,0,0,0,1.875h11.539a.938.938,0,1,0,0-1.875Z" transform="translate(-68.986 -387.501)" fill="#fff"/>
    <path id="Path_23847" data-name="Path 23847" d="M242.313,108h6.568a.937.937,0,0,0,0-1.875h-6.568a.937.937,0,0,0,0,1.875Z" transform="translate(-155.878 -99.491)" fill="#fff"/>
  </g>
</svg>
