<svg xmlns="http://www.w3.org/2000/svg" width="24" height="24" viewBox="0 0 24 24">
  <g id="Group_8636" data-name="Group 8636" transform="translate(-10541 -3118)">
    <g id="send" transform="translate(10542 3085.478)">
      <g id="Group_8635" data-name="Group 8635" transform="translate(0 35.111)">
        <path id="Path_23735" data-name="Path 23735" d="M20.71,42.647,2.942,35.275a2.127,2.127,0,0,0-2.876,2.49l1.746,6.847L.067,51.458a2.127,2.127,0,0,0,2.876,2.49L20.71,46.575a2.126,2.126,0,0,0,0-3.928Zm-.495,2.736L2.448,52.756a.836.836,0,0,1-1.131-.979L2.98,45.256H9.391a.645.645,0,1,0,0-1.29H2.98L1.317,37.445a.836.836,0,0,1,1.131-.979l17.768,7.373a.836.836,0,0,1,0,1.545Z" transform="translate(0 -35.111)" fill="#f16700"/>
      </g>
    </g>
    <rect id="Rectangle_4739" data-name="Rectangle 4739" width="24" height="24" transform="translate(10541 3118)" fill="none"/>
  </g>
</svg>
