<svg xmlns="http://www.w3.org/2000/svg" xmlns:xlink="http://www.w3.org/1999/xlink" width="423" height="230" viewBox="0 0 423 230">
  <defs>
    <clipPath id="clip-path">
      <rect id="Rectangle_4601" data-name="Rectangle 4601" width="423" height="230" transform="translate(60.301)" fill="#2c2c2c"/>
    </clipPath>
  </defs>
  <g id="Mask_Group_563" data-name="Mask Group 563" transform="translate(-60.301)" clip-path="url(#clip-path)">
    <g id="Group_8352" data-name="Group 8352" transform="translate(-25.228 -94.866)">
      <path id="Path_23458" data-name="Path 23458" d="M736.758,2943.9a115.79,115.79,0,0,0-2.16-12.887,141,141,0,0,0-9.615-28.852c-13.129-28.136-33.351-43.955-60.1-47.015-13.894-1.589-30.035-3.685-44.4-7.176a138.082,138.082,0,0,1-18.393-5.717,83.84,83.84,0,0,1-15.608-8.008,60.023,60.023,0,0,1-21.941-25.463,81.406,81.406,0,0,1-5.861-18.624,132.22,132.22,0,0,1-2.218-23.324c-.441-33.059-8.152-83.579-28.47-126.225C511.769,2606.573,481.528,2566,429.549,2566v-2a97.156,97.156,0,0,1,17.306,1.529,90.834,90.834,0,0,1,15.861,4.393,92.956,92.956,0,0,1,14.448,6.962,102.664,102.664,0,0,1,13.074,9.23c15.335,12.69,28.643,30.735,39.553,53.633a263.655,263.655,0,0,1,12.866,32.755,329.967,329.967,0,0,1,8.8,33.631c2.214,10.675,3.942,21.51,5.137,32.2,1.113,9.961,1.738,19.54,1.857,28.47.427,31.986,9.681,52.885,29.126,65.771,17.788,11.788,42.852,16.615,77.527,20.581a73.135,73.135,0,0,1,22.218,6.087,70.368,70.368,0,0,1,17.307,11.326c8.852,7.839,16.317,18.2,22.187,30.8a133.607,133.607,0,0,1,6.119,15.746c1.407,4.406,2.627,8.958,3.625,13.529a115.179,115.179,0,0,1,2.186,13.081l-1.992.177Z" transform="translate(-210.224 -2565)" fill="#c8c8c8" opacity="0.2"/>
      <path id="Path_23459" data-name="Path 23459" d="M736.758,2943.9a115.79,115.79,0,0,0-2.16-12.887,141,141,0,0,0-9.615-28.852c-13.129-28.136-33.351-43.955-60.1-47.015-13.894-1.589-30.035-3.685-44.4-7.176a138.082,138.082,0,0,1-18.393-5.717,83.84,83.84,0,0,1-15.608-8.008,60.023,60.023,0,0,1-21.941-25.463,81.406,81.406,0,0,1-5.861-18.624,132.22,132.22,0,0,1-2.218-23.324c-.441-33.059-8.152-83.579-28.47-126.225C511.769,2606.573,481.528,2566,429.549,2566v-2a97.156,97.156,0,0,1,17.306,1.529,90.834,90.834,0,0,1,15.861,4.393,92.956,92.956,0,0,1,14.448,6.962,102.664,102.664,0,0,1,13.074,9.23c15.335,12.69,28.643,30.735,39.553,53.633a263.655,263.655,0,0,1,12.866,32.755,329.967,329.967,0,0,1,8.8,33.631c2.214,10.675,3.942,21.51,5.137,32.2,1.113,9.961,1.738,19.54,1.857,28.47.427,31.986,9.681,52.885,29.126,65.771,17.788,11.788,42.852,16.615,77.527,20.581a73.135,73.135,0,0,1,22.218,6.087,70.368,70.368,0,0,1,17.307,11.326c8.852,7.839,16.317,18.2,22.187,30.8a133.607,133.607,0,0,1,6.119,15.746c1.407,4.406,2.627,8.958,3.625,13.529a115.179,115.179,0,0,1,2.186,13.081l-1.992.177Z" transform="translate(-218.997 -2565)" fill="#c8c8c8" opacity="0.2"/>
      <path id="Path_23460" data-name="Path 23460" d="M736.758,2943.9a115.79,115.79,0,0,0-2.16-12.887,141,141,0,0,0-9.615-28.852c-13.129-28.136-33.351-43.955-60.1-47.015-13.894-1.589-30.035-3.685-44.4-7.176a138.082,138.082,0,0,1-18.393-5.717,83.84,83.84,0,0,1-15.608-8.008,60.023,60.023,0,0,1-21.941-25.463,81.406,81.406,0,0,1-5.861-18.624,132.22,132.22,0,0,1-2.218-23.324c-.441-33.059-8.152-83.579-28.47-126.225C511.769,2606.573,481.528,2566,429.549,2566v-2a97.156,97.156,0,0,1,17.306,1.529,90.834,90.834,0,0,1,15.861,4.393,92.956,92.956,0,0,1,14.448,6.962,102.664,102.664,0,0,1,13.074,9.23c15.335,12.69,28.643,30.735,39.553,53.633a263.655,263.655,0,0,1,12.866,32.755,329.967,329.967,0,0,1,8.8,33.631c2.214,10.675,3.942,21.51,5.137,32.2,1.113,9.961,1.738,19.54,1.857,28.47.427,31.986,9.681,52.885,29.126,65.771,17.788,11.788,42.852,16.615,77.527,20.581a73.135,73.135,0,0,1,22.218,6.087,70.368,70.368,0,0,1,17.307,11.326c8.852,7.839,16.317,18.2,22.187,30.8a133.607,133.607,0,0,1,6.119,15.746c1.407,4.406,2.627,8.958,3.625,13.529a115.179,115.179,0,0,1,2.186,13.081l-1.992.177Z" transform="translate(-227.77 -2565)" fill="#c8c8c8" opacity="0.2"/>
      <path id="Path_23461" data-name="Path 23461" d="M736.758,2943.9a115.79,115.79,0,0,0-2.16-12.887,141,141,0,0,0-9.615-28.852c-13.129-28.136-33.351-43.955-60.1-47.015-13.894-1.589-30.035-3.685-44.4-7.176a138.082,138.082,0,0,1-18.393-5.717,83.84,83.84,0,0,1-15.608-8.008,60.023,60.023,0,0,1-21.941-25.463,81.406,81.406,0,0,1-5.861-18.624,132.22,132.22,0,0,1-2.218-23.324c-.441-33.059-8.152-83.579-28.47-126.225C511.769,2606.573,481.528,2566,429.549,2566v-2a97.156,97.156,0,0,1,17.306,1.529,90.834,90.834,0,0,1,15.861,4.393,92.956,92.956,0,0,1,14.448,6.962,102.664,102.664,0,0,1,13.074,9.23c15.335,12.69,28.643,30.735,39.553,53.633a263.655,263.655,0,0,1,12.866,32.755,329.967,329.967,0,0,1,8.8,33.631c2.214,10.675,3.942,21.51,5.137,32.2,1.113,9.961,1.738,19.54,1.857,28.47.427,31.986,9.681,52.885,29.126,65.771,17.788,11.788,42.852,16.615,77.527,20.581a73.135,73.135,0,0,1,22.218,6.087,70.368,70.368,0,0,1,17.307,11.326c8.852,7.839,16.317,18.2,22.187,30.8a133.607,133.607,0,0,1,6.119,15.746c1.407,4.406,2.627,8.958,3.625,13.529a115.179,115.179,0,0,1,2.186,13.081l-1.992.177Z" transform="translate(-236.543 -2565)" fill="#c8c8c8" opacity="0.2"/>
      <path id="Path_23462" data-name="Path 23462" d="M736.758,2943.9a115.79,115.79,0,0,0-2.16-12.887,141,141,0,0,0-9.615-28.852c-13.129-28.136-33.351-43.955-60.1-47.015-13.894-1.589-30.035-3.685-44.4-7.176a138.082,138.082,0,0,1-18.393-5.717,83.84,83.84,0,0,1-15.608-8.008,60.023,60.023,0,0,1-21.941-25.463,81.406,81.406,0,0,1-5.861-18.624,132.22,132.22,0,0,1-2.218-23.324c-.441-33.059-8.152-83.579-28.47-126.225C511.769,2606.573,481.528,2566,429.549,2566v-2a97.156,97.156,0,0,1,17.306,1.529,90.834,90.834,0,0,1,15.861,4.393,92.956,92.956,0,0,1,14.448,6.962,102.664,102.664,0,0,1,13.074,9.23c15.335,12.69,28.643,30.735,39.553,53.633a263.655,263.655,0,0,1,12.866,32.755,329.967,329.967,0,0,1,8.8,33.631c2.214,10.675,3.942,21.51,5.137,32.2,1.113,9.961,1.738,19.54,1.857,28.47.427,31.986,9.681,52.885,29.126,65.771,17.788,11.788,42.852,16.615,77.527,20.581a73.135,73.135,0,0,1,22.218,6.087,70.368,70.368,0,0,1,17.307,11.326c8.852,7.839,16.317,18.2,22.187,30.8a133.607,133.607,0,0,1,6.119,15.746c1.407,4.406,2.627,8.958,3.625,13.529a115.179,115.179,0,0,1,2.186,13.081l-1.992.177Z" transform="translate(-245.316 -2565)" fill="#c8c8c8" opacity="0.2"/>
      <path id="Path_23463" data-name="Path 23463" d="M736.758,2943.9a115.79,115.79,0,0,0-2.16-12.887,141,141,0,0,0-9.615-28.852c-13.129-28.136-33.351-43.955-60.1-47.015-13.894-1.589-30.035-3.685-44.4-7.176a138.082,138.082,0,0,1-18.393-5.717,83.84,83.84,0,0,1-15.608-8.008,60.023,60.023,0,0,1-21.941-25.463,81.406,81.406,0,0,1-5.861-18.624,132.22,132.22,0,0,1-2.218-23.324c-.441-33.059-8.152-83.579-28.47-126.225C511.769,2606.573,481.528,2566,429.549,2566v-2a97.156,97.156,0,0,1,17.306,1.529,90.834,90.834,0,0,1,15.861,4.393,92.956,92.956,0,0,1,14.448,6.962,102.664,102.664,0,0,1,13.074,9.23c15.335,12.69,28.643,30.735,39.553,53.633a263.655,263.655,0,0,1,12.866,32.755,329.967,329.967,0,0,1,8.8,33.631c2.214,10.675,3.942,21.51,5.137,32.2,1.113,9.961,1.738,19.54,1.857,28.47.427,31.986,9.681,52.885,29.126,65.771,17.788,11.788,42.852,16.615,77.527,20.581a73.135,73.135,0,0,1,22.218,6.087,70.368,70.368,0,0,1,17.307,11.326c8.852,7.839,16.317,18.2,22.187,30.8a133.607,133.607,0,0,1,6.119,15.746c1.407,4.406,2.627,8.958,3.625,13.529a115.179,115.179,0,0,1,2.186,13.081l-1.992.177Z" transform="translate(-254.089 -2565)" fill="#c8c8c8" opacity="0.2"/>
      <path id="Path_23464" data-name="Path 23464" d="M736.758,2943.9a115.79,115.79,0,0,0-2.16-12.887,141,141,0,0,0-9.615-28.852c-13.129-28.136-33.351-43.955-60.1-47.015-13.894-1.589-30.035-3.685-44.4-7.176a138.082,138.082,0,0,1-18.393-5.717,83.84,83.84,0,0,1-15.608-8.008,60.023,60.023,0,0,1-21.941-25.463,81.406,81.406,0,0,1-5.861-18.624,132.22,132.22,0,0,1-2.218-23.324c-.441-33.059-8.152-83.579-28.47-126.225C511.769,2606.573,481.528,2566,429.549,2566v-2a97.156,97.156,0,0,1,17.306,1.529,90.834,90.834,0,0,1,15.861,4.393,92.956,92.956,0,0,1,14.448,6.962,102.664,102.664,0,0,1,13.074,9.23c15.335,12.69,28.643,30.735,39.553,53.633a263.655,263.655,0,0,1,12.866,32.755,329.967,329.967,0,0,1,8.8,33.631c2.214,10.675,3.942,21.51,5.137,32.2,1.113,9.961,1.738,19.54,1.857,28.47.427,31.986,9.681,52.885,29.126,65.771,17.788,11.788,42.852,16.615,77.527,20.581a73.135,73.135,0,0,1,22.218,6.087,70.368,70.368,0,0,1,17.307,11.326c8.852,7.839,16.317,18.2,22.187,30.8a133.607,133.607,0,0,1,6.119,15.746c1.407,4.406,2.627,8.958,3.625,13.529a115.179,115.179,0,0,1,2.186,13.081l-1.992.177Z" transform="translate(-262.862 -2565)" fill="#c8c8c8" opacity="0.2"/>
      <path id="Path_23465" data-name="Path 23465" d="M736.758,2943.9a115.79,115.79,0,0,0-2.16-12.887,141,141,0,0,0-9.615-28.852c-13.129-28.136-33.351-43.955-60.1-47.015-13.894-1.589-30.035-3.685-44.4-7.176a138.082,138.082,0,0,1-18.393-5.717,83.84,83.84,0,0,1-15.608-8.008,60.023,60.023,0,0,1-21.941-25.463,81.406,81.406,0,0,1-5.861-18.624,132.22,132.22,0,0,1-2.218-23.324c-.441-33.059-8.152-83.579-28.47-126.225C511.769,2606.573,481.528,2566,429.549,2566v-2a97.156,97.156,0,0,1,17.306,1.529,90.834,90.834,0,0,1,15.861,4.393,92.956,92.956,0,0,1,14.448,6.962,102.664,102.664,0,0,1,13.074,9.23c15.335,12.69,28.643,30.735,39.553,53.633a263.655,263.655,0,0,1,12.866,32.755,329.967,329.967,0,0,1,8.8,33.631c2.214,10.675,3.942,21.51,5.137,32.2,1.113,9.961,1.738,19.54,1.857,28.47.427,31.986,9.681,52.885,29.126,65.771,17.788,11.788,42.852,16.615,77.527,20.581a73.135,73.135,0,0,1,22.218,6.087,70.368,70.368,0,0,1,17.307,11.326c8.852,7.839,16.317,18.2,22.187,30.8a133.607,133.607,0,0,1,6.119,15.746c1.407,4.406,2.627,8.958,3.625,13.529a115.179,115.179,0,0,1,2.186,13.081l-1.992.177Z" transform="translate(-271.635 -2565)" fill="#c8c8c8" opacity="0.2"/>
      <path id="Path_23466" data-name="Path 23466" d="M736.758,2943.9a115.79,115.79,0,0,0-2.16-12.887,141,141,0,0,0-9.615-28.852c-13.129-28.136-33.351-43.955-60.1-47.015-13.894-1.589-30.035-3.685-44.4-7.176a138.082,138.082,0,0,1-18.393-5.717,83.84,83.84,0,0,1-15.608-8.008,60.023,60.023,0,0,1-21.941-25.463,81.406,81.406,0,0,1-5.861-18.624,132.22,132.22,0,0,1-2.218-23.324c-.441-33.059-8.152-83.579-28.47-126.225C511.769,2606.573,481.528,2566,429.549,2566v-2a97.156,97.156,0,0,1,17.306,1.529,90.834,90.834,0,0,1,15.861,4.393,92.956,92.956,0,0,1,14.448,6.962,102.664,102.664,0,0,1,13.074,9.23c15.335,12.69,28.643,30.735,39.553,53.633a263.655,263.655,0,0,1,12.866,32.755,329.967,329.967,0,0,1,8.8,33.631c2.214,10.675,3.942,21.51,5.137,32.2,1.113,9.961,1.738,19.54,1.857,28.47.427,31.986,9.681,52.885,29.126,65.771,17.788,11.788,42.852,16.615,77.527,20.581a73.135,73.135,0,0,1,22.218,6.087,70.368,70.368,0,0,1,17.307,11.326c8.852,7.839,16.317,18.2,22.187,30.8a133.607,133.607,0,0,1,6.119,15.746c1.407,4.406,2.627,8.958,3.625,13.529a115.179,115.179,0,0,1,2.186,13.081l-1.992.177Z" transform="translate(-280.408 -2565)" fill="#c8c8c8" opacity="0.2"/>
      <path id="Path_23467" data-name="Path 23467" d="M736.758,2943.9a115.79,115.79,0,0,0-2.16-12.887,141,141,0,0,0-9.615-28.852c-13.129-28.136-33.351-43.955-60.1-47.015-13.894-1.589-30.035-3.685-44.4-7.176a138.082,138.082,0,0,1-18.393-5.717,83.84,83.84,0,0,1-15.608-8.008,60.023,60.023,0,0,1-21.941-25.463,81.406,81.406,0,0,1-5.861-18.624,132.22,132.22,0,0,1-2.218-23.324c-.441-33.059-8.152-83.579-28.47-126.225C511.769,2606.573,481.528,2566,429.549,2566v-2a97.156,97.156,0,0,1,17.306,1.529,90.834,90.834,0,0,1,15.861,4.393,92.956,92.956,0,0,1,14.448,6.962,102.664,102.664,0,0,1,13.074,9.23c15.335,12.69,28.643,30.735,39.553,53.633a263.655,263.655,0,0,1,12.866,32.755,329.967,329.967,0,0,1,8.8,33.631c2.214,10.675,3.942,21.51,5.137,32.2,1.113,9.961,1.738,19.54,1.857,28.47.427,31.986,9.681,52.885,29.126,65.771,17.788,11.788,42.852,16.615,77.527,20.581a73.135,73.135,0,0,1,22.218,6.087,70.368,70.368,0,0,1,17.307,11.326c8.852,7.839,16.317,18.2,22.187,30.8a133.607,133.607,0,0,1,6.119,15.746c1.407,4.406,2.627,8.958,3.625,13.529a115.179,115.179,0,0,1,2.186,13.081l-1.992.177Z" transform="translate(-289.181 -2565)" fill="#c8c8c8" opacity="0.2"/>
      <path id="Path_23468" data-name="Path 23468" d="M736.758,2943.9a115.79,115.79,0,0,0-2.16-12.887,141,141,0,0,0-9.615-28.852c-13.129-28.136-33.351-43.955-60.1-47.015-13.894-1.589-30.035-3.685-44.4-7.176a138.082,138.082,0,0,1-18.393-5.717,83.84,83.84,0,0,1-15.608-8.008,60.023,60.023,0,0,1-21.941-25.463,81.406,81.406,0,0,1-5.861-18.624,132.22,132.22,0,0,1-2.218-23.324c-.441-33.059-8.152-83.579-28.47-126.225C511.769,2606.573,481.528,2566,429.549,2566v-2a97.156,97.156,0,0,1,17.306,1.529,90.834,90.834,0,0,1,15.861,4.393,92.956,92.956,0,0,1,14.448,6.962,102.664,102.664,0,0,1,13.074,9.23c15.335,12.69,28.643,30.735,39.553,53.633a263.655,263.655,0,0,1,12.866,32.755,329.967,329.967,0,0,1,8.8,33.631c2.214,10.675,3.942,21.51,5.137,32.2,1.113,9.961,1.738,19.54,1.857,28.47.427,31.986,9.681,52.885,29.126,65.771,17.788,11.788,42.852,16.615,77.527,20.581a73.135,73.135,0,0,1,22.218,6.087,70.368,70.368,0,0,1,17.307,11.326c8.852,7.839,16.317,18.2,22.187,30.8a133.607,133.607,0,0,1,6.119,15.746c1.407,4.406,2.627,8.958,3.625,13.529a115.179,115.179,0,0,1,2.186,13.081l-1.992.177Z" transform="translate(-297.954 -2565)" fill="#c8c8c8" opacity="0.2"/>
      <path id="Path_23469" data-name="Path 23469" d="M736.758,2943.9a115.79,115.79,0,0,0-2.16-12.887,141,141,0,0,0-9.615-28.852c-13.129-28.136-33.351-43.955-60.1-47.015-13.894-1.589-30.035-3.685-44.4-7.176a138.082,138.082,0,0,1-18.393-5.717,83.84,83.84,0,0,1-15.608-8.008,60.023,60.023,0,0,1-21.941-25.463,81.406,81.406,0,0,1-5.861-18.624,132.22,132.22,0,0,1-2.218-23.324c-.441-33.059-8.152-83.579-28.47-126.225C511.769,2606.573,481.528,2566,429.549,2566v-2a97.156,97.156,0,0,1,17.306,1.529,90.834,90.834,0,0,1,15.861,4.393,92.956,92.956,0,0,1,14.448,6.962,102.664,102.664,0,0,1,13.074,9.23c15.335,12.69,28.643,30.735,39.553,53.633a263.655,263.655,0,0,1,12.866,32.755,329.967,329.967,0,0,1,8.8,33.631c2.214,10.675,3.942,21.51,5.137,32.2,1.113,9.961,1.738,19.54,1.857,28.47.427,31.986,9.681,52.885,29.126,65.771,17.788,11.788,42.852,16.615,77.527,20.581a73.135,73.135,0,0,1,22.218,6.087,70.368,70.368,0,0,1,17.307,11.326c8.852,7.839,16.317,18.2,22.187,30.8a133.607,133.607,0,0,1,6.119,15.746c1.407,4.406,2.627,8.958,3.625,13.529a115.179,115.179,0,0,1,2.186,13.081l-1.992.177Z" transform="translate(-306.727 -2565)" fill="#c8c8c8" opacity="0.2"/>
      <path id="Path_23470" data-name="Path 23470" d="M736.758,2943.9a115.79,115.79,0,0,0-2.16-12.887,141,141,0,0,0-9.615-28.852c-13.129-28.136-33.351-43.955-60.1-47.015-13.894-1.589-30.035-3.685-44.4-7.176a138.082,138.082,0,0,1-18.393-5.717,83.84,83.84,0,0,1-15.608-8.008,60.023,60.023,0,0,1-21.941-25.463,81.406,81.406,0,0,1-5.861-18.624,132.22,132.22,0,0,1-2.218-23.324c-.441-33.059-8.152-83.579-28.47-126.225C511.769,2606.573,481.528,2566,429.549,2566v-2a97.156,97.156,0,0,1,17.306,1.529,90.834,90.834,0,0,1,15.861,4.393,92.956,92.956,0,0,1,14.448,6.962,102.664,102.664,0,0,1,13.074,9.23c15.335,12.69,28.643,30.735,39.553,53.633a263.655,263.655,0,0,1,12.866,32.755,329.967,329.967,0,0,1,8.8,33.631c2.214,10.675,3.942,21.51,5.137,32.2,1.113,9.961,1.738,19.54,1.857,28.47.427,31.986,9.681,52.885,29.126,65.771,17.788,11.788,42.852,16.615,77.527,20.581a73.135,73.135,0,0,1,22.218,6.087,70.368,70.368,0,0,1,17.307,11.326c8.852,7.839,16.317,18.2,22.187,30.8a133.607,133.607,0,0,1,6.119,15.746c1.407,4.406,2.627,8.958,3.625,13.529a115.179,115.179,0,0,1,2.186,13.081l-1.992.177Z" transform="translate(-315.5 -2565)" fill="#c8c8c8" opacity="0.2"/>
      <path id="Path_23471" data-name="Path 23471" d="M736.758,2943.9a115.79,115.79,0,0,0-2.16-12.887,141,141,0,0,0-9.615-28.852c-13.129-28.136-33.351-43.955-60.1-47.015-13.894-1.589-30.035-3.685-44.4-7.176a138.082,138.082,0,0,1-18.393-5.717,83.84,83.84,0,0,1-15.608-8.008,60.023,60.023,0,0,1-21.941-25.463,81.406,81.406,0,0,1-5.861-18.624,132.22,132.22,0,0,1-2.218-23.324c-.441-33.059-8.152-83.579-28.47-126.225C511.769,2606.573,481.528,2566,429.549,2566v-2a97.156,97.156,0,0,1,17.306,1.529,90.834,90.834,0,0,1,15.861,4.393,92.956,92.956,0,0,1,14.448,6.962,102.664,102.664,0,0,1,13.074,9.23c15.335,12.69,28.643,30.735,39.553,53.633a263.655,263.655,0,0,1,12.866,32.755,329.967,329.967,0,0,1,8.8,33.631c2.214,10.675,3.942,21.51,5.137,32.2,1.113,9.961,1.738,19.54,1.857,28.47.427,31.986,9.681,52.885,29.126,65.771,17.788,11.788,42.852,16.615,77.527,20.581a73.135,73.135,0,0,1,22.218,6.087,70.368,70.368,0,0,1,17.307,11.326c8.852,7.839,16.317,18.2,22.187,30.8a133.607,133.607,0,0,1,6.119,15.746c1.407,4.406,2.627,8.958,3.625,13.529a115.179,115.179,0,0,1,2.186,13.081l-1.992.177Z" transform="translate(-324.273 -2565)" fill="#c8c8c8" opacity="0.2"/>
      <path id="Path_23472" data-name="Path 23472" d="M736.758,2943.9a115.79,115.79,0,0,0-2.16-12.887,141,141,0,0,0-9.615-28.852c-13.129-28.136-33.351-43.955-60.1-47.015-13.894-1.589-30.035-3.685-44.4-7.176a138.082,138.082,0,0,1-18.393-5.717,83.84,83.84,0,0,1-15.608-8.008,60.023,60.023,0,0,1-21.941-25.463,81.406,81.406,0,0,1-5.861-18.624,132.22,132.22,0,0,1-2.218-23.324c-.441-33.059-8.152-83.579-28.47-126.225C511.769,2606.573,481.528,2566,429.549,2566v-2a97.156,97.156,0,0,1,17.306,1.529,90.834,90.834,0,0,1,15.861,4.393,92.956,92.956,0,0,1,14.448,6.962,102.664,102.664,0,0,1,13.074,9.23c15.335,12.69,28.643,30.735,39.553,53.633a263.655,263.655,0,0,1,12.866,32.755,329.967,329.967,0,0,1,8.8,33.631c2.214,10.675,3.942,21.51,5.137,32.2,1.113,9.961,1.738,19.54,1.857,28.47.427,31.986,9.681,52.885,29.126,65.771,17.788,11.788,42.852,16.615,77.527,20.581a73.135,73.135,0,0,1,22.218,6.087,70.368,70.368,0,0,1,17.307,11.326c8.852,7.839,16.317,18.2,22.187,30.8a133.607,133.607,0,0,1,6.119,15.746c1.407,4.406,2.627,8.958,3.625,13.529a115.179,115.179,0,0,1,2.186,13.081l-1.992.177Z" transform="translate(-333.046 -2565)" fill="#c8c8c8" opacity="0.2"/>
      <path id="Path_23473" data-name="Path 23473" d="M736.758,2943.9a115.79,115.79,0,0,0-2.16-12.887,141,141,0,0,0-9.615-28.852c-13.129-28.136-33.351-43.955-60.1-47.015-13.894-1.589-30.035-3.685-44.4-7.176a138.082,138.082,0,0,1-18.393-5.717,83.84,83.84,0,0,1-15.608-8.008,60.023,60.023,0,0,1-21.941-25.463,81.406,81.406,0,0,1-5.861-18.624,132.22,132.22,0,0,1-2.218-23.324c-.441-33.059-8.152-83.579-28.47-126.225C511.769,2606.573,481.528,2566,429.549,2566v-2a97.156,97.156,0,0,1,17.306,1.529,90.834,90.834,0,0,1,15.861,4.393,92.956,92.956,0,0,1,14.448,6.962,102.664,102.664,0,0,1,13.074,9.23c15.335,12.69,28.643,30.735,39.553,53.633a263.655,263.655,0,0,1,12.866,32.755,329.967,329.967,0,0,1,8.8,33.631c2.214,10.675,3.942,21.51,5.137,32.2,1.113,9.961,1.738,19.54,1.857,28.47.427,31.986,9.681,52.885,29.126,65.771,17.788,11.788,42.852,16.615,77.527,20.581a73.135,73.135,0,0,1,22.218,6.087,70.368,70.368,0,0,1,17.307,11.326c8.852,7.839,16.317,18.2,22.187,30.8a133.607,133.607,0,0,1,6.119,15.746c1.407,4.406,2.627,8.958,3.625,13.529a115.179,115.179,0,0,1,2.186,13.081l-1.992.177Z" transform="translate(-341.819 -2565)" fill="#c8c8c8" opacity="0.2"/>
      <path id="Path_23474" data-name="Path 23474" d="M736.758,2943.9a115.79,115.79,0,0,0-2.16-12.887,141,141,0,0,0-9.615-28.852c-13.129-28.136-33.351-43.955-60.1-47.015-13.894-1.589-30.035-3.685-44.4-7.176a138.082,138.082,0,0,1-18.393-5.717,83.84,83.84,0,0,1-15.608-8.008,60.023,60.023,0,0,1-21.941-25.463,81.406,81.406,0,0,1-5.861-18.624,132.22,132.22,0,0,1-2.218-23.324c-.441-33.059-8.152-83.579-28.47-126.225C511.769,2606.573,481.528,2566,429.549,2566v-2a97.156,97.156,0,0,1,17.306,1.529,90.834,90.834,0,0,1,15.861,4.393,92.956,92.956,0,0,1,14.448,6.962,102.664,102.664,0,0,1,13.074,9.23c15.335,12.69,28.643,30.735,39.553,53.633a263.655,263.655,0,0,1,12.866,32.755,329.967,329.967,0,0,1,8.8,33.631c2.214,10.675,3.942,21.51,5.137,32.2,1.113,9.961,1.738,19.54,1.857,28.47.427,31.986,9.681,52.885,29.126,65.771,17.788,11.788,42.852,16.615,77.527,20.581a73.135,73.135,0,0,1,22.218,6.087,70.368,70.368,0,0,1,17.307,11.326c8.852,7.839,16.317,18.2,22.187,30.8a133.607,133.607,0,0,1,6.119,15.746c1.407,4.406,2.627,8.958,3.625,13.529a115.179,115.179,0,0,1,2.186,13.081l-1.992.177Z" transform="translate(-350.592 -2565)" fill="#c8c8c8" opacity="0.2"/>
      <path id="Path_23475" data-name="Path 23475" d="M736.758,2943.9a115.79,115.79,0,0,0-2.16-12.887,141,141,0,0,0-9.615-28.852c-13.129-28.136-33.351-43.955-60.1-47.015-13.894-1.589-30.035-3.685-44.4-7.176a138.082,138.082,0,0,1-18.393-5.717,83.84,83.84,0,0,1-15.608-8.008,60.023,60.023,0,0,1-21.941-25.463,81.406,81.406,0,0,1-5.861-18.624,132.22,132.22,0,0,1-2.218-23.324c-.441-33.059-8.152-83.579-28.47-126.225C511.769,2606.573,481.528,2566,429.549,2566v-2a97.156,97.156,0,0,1,17.306,1.529,90.834,90.834,0,0,1,15.861,4.393,92.956,92.956,0,0,1,14.448,6.962,102.664,102.664,0,0,1,13.074,9.23c15.335,12.69,28.643,30.735,39.553,53.633a263.655,263.655,0,0,1,12.866,32.755,329.967,329.967,0,0,1,8.8,33.631c2.214,10.675,3.942,21.51,5.137,32.2,1.113,9.961,1.738,19.54,1.857,28.47.427,31.986,9.681,52.885,29.126,65.771,17.788,11.788,42.852,16.615,77.527,20.581a73.135,73.135,0,0,1,22.218,6.087,70.368,70.368,0,0,1,17.307,11.326c8.852,7.839,16.317,18.2,22.187,30.8a133.607,133.607,0,0,1,6.119,15.746c1.407,4.406,2.627,8.958,3.625,13.529a115.179,115.179,0,0,1,2.186,13.081l-1.992.177Z" transform="translate(-359.365 -2565)" fill="#c8c8c8" opacity="0.2"/>
      <path id="Path_23476" data-name="Path 23476" d="M736.758,2943.9a115.79,115.79,0,0,0-2.16-12.887,141,141,0,0,0-9.615-28.852c-13.129-28.136-33.351-43.955-60.1-47.015-13.894-1.589-30.035-3.685-44.4-7.176a138.082,138.082,0,0,1-18.393-5.717,83.84,83.84,0,0,1-15.608-8.008,60.023,60.023,0,0,1-21.941-25.463,81.406,81.406,0,0,1-5.861-18.624,132.22,132.22,0,0,1-2.218-23.324c-.441-33.059-8.152-83.579-28.47-126.225C511.769,2606.573,481.528,2566,429.549,2566v-2a97.156,97.156,0,0,1,17.306,1.529,90.834,90.834,0,0,1,15.861,4.393,92.956,92.956,0,0,1,14.448,6.962,102.664,102.664,0,0,1,13.074,9.23c15.335,12.69,28.643,30.735,39.553,53.633a263.655,263.655,0,0,1,12.866,32.755,329.967,329.967,0,0,1,8.8,33.631c2.214,10.675,3.942,21.51,5.137,32.2,1.113,9.961,1.738,19.54,1.857,28.47.427,31.986,9.681,52.885,29.126,65.771,17.788,11.788,42.852,16.615,77.527,20.581a73.135,73.135,0,0,1,22.218,6.087,70.368,70.368,0,0,1,17.307,11.326c8.852,7.839,16.317,18.2,22.187,30.8a133.607,133.607,0,0,1,6.119,15.746c1.407,4.406,2.627,8.958,3.625,13.529a115.179,115.179,0,0,1,2.186,13.081l-1.992.177Z" transform="translate(-368.138 -2565)" fill="#c8c8c8" opacity="0.2"/>
      <path id="Path_23477" data-name="Path 23477" d="M736.758,2943.9a115.79,115.79,0,0,0-2.16-12.887,141,141,0,0,0-9.615-28.852c-13.129-28.136-33.351-43.955-60.1-47.015-13.894-1.589-30.035-3.685-44.4-7.176a138.082,138.082,0,0,1-18.393-5.717,83.84,83.84,0,0,1-15.608-8.008,60.023,60.023,0,0,1-21.941-25.463,81.406,81.406,0,0,1-5.861-18.624,132.22,132.22,0,0,1-2.218-23.324c-.441-33.059-8.152-83.579-28.47-126.225C511.769,2606.573,481.528,2566,429.549,2566v-2a97.156,97.156,0,0,1,17.306,1.529,90.834,90.834,0,0,1,15.861,4.393,92.956,92.956,0,0,1,14.448,6.962,102.664,102.664,0,0,1,13.074,9.23c15.335,12.69,28.643,30.735,39.553,53.633a263.655,263.655,0,0,1,12.866,32.755,329.967,329.967,0,0,1,8.8,33.631c2.214,10.675,3.942,21.51,5.137,32.2,1.113,9.961,1.738,19.54,1.857,28.47.427,31.986,9.681,52.885,29.126,65.771,17.788,11.788,42.852,16.615,77.527,20.581a73.135,73.135,0,0,1,22.218,6.087,70.368,70.368,0,0,1,17.307,11.326c8.852,7.839,16.317,18.2,22.187,30.8a133.607,133.607,0,0,1,6.119,15.746c1.407,4.406,2.627,8.958,3.625,13.529a115.179,115.179,0,0,1,2.186,13.081l-1.992.177Z" transform="translate(-376.911 -2565)" fill="#c8c8c8" opacity="0.2"/>
      <path id="Path_23478" data-name="Path 23478" d="M736.758,2943.9a115.79,115.79,0,0,0-2.16-12.887,141,141,0,0,0-9.615-28.852c-13.129-28.136-33.351-43.955-60.1-47.015-13.894-1.589-30.035-3.685-44.4-7.176a138.082,138.082,0,0,1-18.393-5.717,83.84,83.84,0,0,1-15.608-8.008,60.023,60.023,0,0,1-21.941-25.463,81.406,81.406,0,0,1-5.861-18.624,132.22,132.22,0,0,1-2.218-23.324c-.441-33.059-8.152-83.579-28.47-126.225C511.769,2606.573,481.528,2566,429.549,2566v-2a97.156,97.156,0,0,1,17.306,1.529,90.834,90.834,0,0,1,15.861,4.393,92.956,92.956,0,0,1,14.448,6.962,102.664,102.664,0,0,1,13.074,9.23c15.335,12.69,28.643,30.735,39.553,53.633a263.655,263.655,0,0,1,12.866,32.755,329.967,329.967,0,0,1,8.8,33.631c2.214,10.675,3.942,21.51,5.137,32.2,1.113,9.961,1.738,19.54,1.857,28.47.427,31.986,9.681,52.885,29.126,65.771,17.788,11.788,42.852,16.615,77.527,20.581a73.135,73.135,0,0,1,22.218,6.087,70.368,70.368,0,0,1,17.307,11.326c8.852,7.839,16.317,18.2,22.187,30.8a133.607,133.607,0,0,1,6.119,15.746c1.407,4.406,2.627,8.958,3.625,13.529a115.179,115.179,0,0,1,2.186,13.081l-1.992.177Z" transform="translate(-385.684 -2565)" fill="#c8c8c8" opacity="0.2"/>
      <path id="Path_23479" data-name="Path 23479" d="M736.758,2943.9a115.79,115.79,0,0,0-2.16-12.887,141,141,0,0,0-9.615-28.852c-13.129-28.136-33.351-43.955-60.1-47.015-13.894-1.589-30.035-3.685-44.4-7.176a138.082,138.082,0,0,1-18.393-5.717,83.84,83.84,0,0,1-15.608-8.008,60.023,60.023,0,0,1-21.941-25.463,81.406,81.406,0,0,1-5.861-18.624,132.22,132.22,0,0,1-2.218-23.324c-.441-33.059-8.152-83.579-28.47-126.225C511.769,2606.573,481.528,2566,429.549,2566v-2a97.156,97.156,0,0,1,17.306,1.529,90.834,90.834,0,0,1,15.861,4.393,92.956,92.956,0,0,1,14.448,6.962,102.664,102.664,0,0,1,13.074,9.23c15.335,12.69,28.643,30.735,39.553,53.633a263.655,263.655,0,0,1,12.866,32.755,329.967,329.967,0,0,1,8.8,33.631c2.214,10.675,3.942,21.51,5.137,32.2,1.113,9.961,1.738,19.54,1.857,28.47.427,31.986,9.681,52.885,29.126,65.771,17.788,11.788,42.852,16.615,77.527,20.581a73.135,73.135,0,0,1,22.218,6.087,70.368,70.368,0,0,1,17.307,11.326c8.852,7.839,16.317,18.2,22.187,30.8a133.607,133.607,0,0,1,6.119,15.746c1.407,4.406,2.627,8.958,3.625,13.529a115.179,115.179,0,0,1,2.186,13.081l-1.992.177Z" transform="translate(-394.457 -2565)" fill="#c8c8c8" opacity="0.2"/>
      <path id="Path_23480" data-name="Path 23480" d="M736.758,2943.9a115.79,115.79,0,0,0-2.16-12.887,141,141,0,0,0-9.615-28.852c-13.129-28.136-33.351-43.955-60.1-47.015-13.894-1.589-30.035-3.685-44.4-7.176a138.082,138.082,0,0,1-18.393-5.717,83.84,83.84,0,0,1-15.608-8.008,60.023,60.023,0,0,1-21.941-25.463,81.406,81.406,0,0,1-5.861-18.624,132.22,132.22,0,0,1-2.218-23.324c-.441-33.059-8.152-83.579-28.47-126.225C511.769,2606.573,481.528,2566,429.549,2566v-2a97.156,97.156,0,0,1,17.306,1.529,90.834,90.834,0,0,1,15.861,4.393,92.956,92.956,0,0,1,14.448,6.962,102.664,102.664,0,0,1,13.074,9.23c15.335,12.69,28.643,30.735,39.553,53.633a263.655,263.655,0,0,1,12.866,32.755,329.967,329.967,0,0,1,8.8,33.631c2.214,10.675,3.942,21.51,5.137,32.2,1.113,9.961,1.738,19.54,1.857,28.47.427,31.986,9.681,52.885,29.126,65.771,17.788,11.788,42.852,16.615,77.527,20.581a73.135,73.135,0,0,1,22.218,6.087,70.368,70.368,0,0,1,17.307,11.326c8.852,7.839,16.317,18.2,22.187,30.8a133.607,133.607,0,0,1,6.119,15.746c1.407,4.406,2.627,8.958,3.625,13.529a115.179,115.179,0,0,1,2.186,13.081l-1.992.177Z" transform="translate(-403.23 -2565)" fill="#c8c8c8" opacity="0.2"/>
      <path id="Path_23481" data-name="Path 23481" d="M736.758,2943.9a115.79,115.79,0,0,0-2.16-12.887,141,141,0,0,0-9.615-28.852c-13.129-28.136-33.351-43.955-60.1-47.015-13.894-1.589-30.035-3.685-44.4-7.176a138.082,138.082,0,0,1-18.393-5.717,83.84,83.84,0,0,1-15.608-8.008,60.023,60.023,0,0,1-21.941-25.463,81.406,81.406,0,0,1-5.861-18.624,132.22,132.22,0,0,1-2.218-23.324c-.441-33.059-8.152-83.579-28.47-126.225C511.769,2606.573,481.528,2566,429.549,2566v-2a97.156,97.156,0,0,1,17.306,1.529,90.834,90.834,0,0,1,15.861,4.393,92.956,92.956,0,0,1,14.448,6.962,102.664,102.664,0,0,1,13.074,9.23c15.335,12.69,28.643,30.735,39.553,53.633a263.655,263.655,0,0,1,12.866,32.755,329.967,329.967,0,0,1,8.8,33.631c2.214,10.675,3.942,21.51,5.137,32.2,1.113,9.961,1.738,19.54,1.857,28.47.427,31.986,9.681,52.885,29.126,65.771,17.788,11.788,42.852,16.615,77.527,20.581a73.135,73.135,0,0,1,22.218,6.087,70.368,70.368,0,0,1,17.307,11.326c8.852,7.839,16.317,18.2,22.187,30.8a133.607,133.607,0,0,1,6.119,15.746c1.407,4.406,2.627,8.958,3.625,13.529a115.179,115.179,0,0,1,2.186,13.081l-1.992.177Z" transform="translate(-412.003 -2565)" fill="#c8c8c8" opacity="0.2"/>
      <path id="Path_23482" data-name="Path 23482" d="M736.758,2943.9a115.79,115.79,0,0,0-2.16-12.887,141,141,0,0,0-9.615-28.852c-13.129-28.136-33.351-43.955-60.1-47.015-13.894-1.589-30.035-3.685-44.4-7.176a138.082,138.082,0,0,1-18.393-5.717,83.84,83.84,0,0,1-15.608-8.008,60.023,60.023,0,0,1-21.941-25.463,81.406,81.406,0,0,1-5.861-18.624,132.22,132.22,0,0,1-2.218-23.324c-.441-33.059-8.152-83.579-28.47-126.225C511.769,2606.573,481.528,2566,429.549,2566v-2a97.156,97.156,0,0,1,17.306,1.529,90.834,90.834,0,0,1,15.861,4.393,92.956,92.956,0,0,1,14.448,6.962,102.664,102.664,0,0,1,13.074,9.23c15.335,12.69,28.643,30.735,39.553,53.633a263.655,263.655,0,0,1,12.866,32.755,329.967,329.967,0,0,1,8.8,33.631c2.214,10.675,3.942,21.51,5.137,32.2,1.113,9.961,1.738,19.54,1.857,28.47.427,31.986,9.681,52.885,29.126,65.771,17.788,11.788,42.852,16.615,77.527,20.581a73.135,73.135,0,0,1,22.218,6.087,70.368,70.368,0,0,1,17.307,11.326c8.852,7.839,16.317,18.2,22.187,30.8a133.607,133.607,0,0,1,6.119,15.746c1.407,4.406,2.627,8.958,3.625,13.529a115.179,115.179,0,0,1,2.186,13.081l-1.992.177Z" transform="translate(-420.776 -2565)" fill="#c8c8c8" opacity="0.2"/>
      <path id="Path_23483" data-name="Path 23483" d="M736.758,2943.9a115.79,115.79,0,0,0-2.16-12.887,141,141,0,0,0-9.615-28.852c-13.129-28.136-33.351-43.955-60.1-47.015-13.894-1.589-30.035-3.685-44.4-7.176a138.082,138.082,0,0,1-18.393-5.717,83.84,83.84,0,0,1-15.608-8.008,60.023,60.023,0,0,1-21.941-25.463,81.406,81.406,0,0,1-5.861-18.624,132.22,132.22,0,0,1-2.218-23.324c-.441-33.059-8.152-83.579-28.47-126.225C511.769,2606.573,481.528,2566,429.549,2566v-2a97.156,97.156,0,0,1,17.306,1.529,90.834,90.834,0,0,1,15.861,4.393,92.956,92.956,0,0,1,14.448,6.962,102.664,102.664,0,0,1,13.074,9.23c15.335,12.69,28.643,30.735,39.553,53.633a263.655,263.655,0,0,1,12.866,32.755,329.967,329.967,0,0,1,8.8,33.631c2.214,10.675,3.942,21.51,5.137,32.2,1.113,9.961,1.738,19.54,1.857,28.47.427,31.986,9.681,52.885,29.126,65.771,17.788,11.788,42.852,16.615,77.527,20.581a73.135,73.135,0,0,1,22.218,6.087,70.368,70.368,0,0,1,17.307,11.326c8.852,7.839,16.317,18.2,22.187,30.8a133.607,133.607,0,0,1,6.119,15.746c1.407,4.406,2.627,8.958,3.625,13.529a115.179,115.179,0,0,1,2.186,13.081l-1.992.177Z" transform="translate(-429.549 -2565)" fill="#c8c8c8" opacity="0.2"/>
    </g>
  </g>
</svg>
